<svg width="48" height="48" viewBox="0 0 48 48" fill="none" xmlns="http://www.w3.org/2000/svg">
<path d="M23.9998 48C10.7662 48 0 37.2345 0 24C0 10.7667 10.7662 0 23.9998 0C37.2352 0 48 10.7667 48 24C48 37.2345 37.2352 48 23.9998 48ZM23.9998 3.0525C12.4493 3.0525 3.05159 12.4485 3.05159 24C3.05159 35.5512 12.4493 44.9482 23.9998 44.9482C35.5524 44.9482 44.9499 35.5512 44.9499 24C44.9499 12.4485 35.5524 3.0525 23.9998 3.0525ZM26.7954 12.1491C25.6229 9.7748 24.9068 7.46602 24.5452 6.12054V23.1192C25.139 23.3417 25.5637 23.9095 25.5637 24.5802C25.5637 25.4438 24.8631 26.1433 24.0002 26.1433C23.1364 26.1433 22.4368 25.4433 22.4368 24.5802C22.4368 23.8775 22.9039 23.29 23.5428 23.0925V6.10258C23.1825 7.44466 22.466 9.76461 21.2879 12.1491C19.4508 15.865 17.1606 19.1429 17.1606 19.1429L18.6253 39.1851C18.6253 39.1851 20.0171 40.7383 24.0388 40.7405H24.0444C28.0659 40.7383 29.4585 39.1851 29.4585 39.1851L30.9229 19.1429C30.9221 19.1429 28.632 15.8653 26.7954 12.1491Z" fill="#333333"/>
</svg>
