<svg width="150" height="150" viewBox="0 0 150 150" fill="none" xmlns="http://www.w3.org/2000/svg">
<circle cx="75" cy="75" r="75" fill="#FF7A73"/>
<mask id="mask0_227_325" style="mask-type:alpha" maskUnits="userSpaceOnUse" x="0" y="0" width="150" height="150">
<circle cx="75" cy="75" r="75" fill="#D9D9D9"/>
</mask>
<g mask="url(#mask0_227_325)">
<path d="M102.512 80.1754C103.746 80.7584 107.306 84.0187 107.306 84.0187C107.306 84.0187 107.887 79.2592 111.482 78.7832C112.135 79.8184 113.309 85.6131 114.887 90.1108C116.975 92.0622 117.367 95.0726 118.138 96.084C122.694 99.7726 128.187 106.959 130.454 111.945C132.601 116.669 137.715 124.7 133.147 132.232C131.533 134.886 127.986 138.896 121.65 134.755C114.863 130.317 106.784 113.861 106.784 113.861C106.784 113.861 107.021 135.397 105.953 151.865C90.5765 163.217 60.8793 161.515 48.0774 152.722C46.0011 151.294 46.6536 141.287 46.4519 139.824C44.9451 140.062 38.7755 143.429 38.7755 143.429C38.7755 143.429 24.965 146.023 24.004 137.456C23.304 131.257 25.3447 119.727 27.6583 108.59C28.0024 106.912 28.7261 105.198 29.8177 104.211C28.0024 101.855 28.9872 97.9045 30.1024 95.1559C31.2296 93.2045 33.8754 88.9923 36.367 88.9923C38.1229 87.5407 39.4992 85.7797 41.2077 86.2913C38.9416 82.448 46.3095 78.9617 46.3095 78.9617L47.6028 41.3261L79.8746 21.1221L104.98 40.9334C104.98 40.9334 99.0597 74.3688 102.5 80.1873L102.512 80.1754Z" fill="white"/>
<path d="M73.9779 30.0822C76.7779 27.5953 79.8271 20.7655 79.8271 20.7655L90.5053 29.166L96.8173 39.2918C96.8173 39.2918 100.614 38.4589 102.204 39.7439C103.794 41.029 103.794 43.3135 103.794 43.3135C103.794 43.3135 103.034 49.2272 101.836 50.7145C101.314 51.369 99.7597 52.1781 98.858 52.2257C99.0716 52.7254 100.258 53.7844 100.4 54.4388C100.567 55.1527 100.009 56.7948 99.3919 57.1874C98.68 57.6515 96.8054 57.0089 95.9868 57.2826C97.1732 58.9722 88.6307 65.933 85.2255 67.2894C83.8018 67.8606 86.151 73.3697 86.151 73.3697C86.151 73.3697 89.4731 76.3087 90.9799 76.9155C93.2342 77.8317 99.1902 79.9259 101.67 79.3666C102.216 79.2477 103.924 78.8312 104.363 77.8912C104.921 76.7132 103.639 75.0593 103.639 75.0593L109.24 74.8927L111.85 72.6201C111.85 72.6201 108.16 70.4664 107.199 69.4312C106.44 68.6221 104.945 65.6236 104.945 65.6236L105.965 49.1439L106.024 40.4459C106.024 40.4459 104.945 35.0201 104.351 32.0454C104.055 30.57 101.646 22.9191 100.175 20.349C99.3207 18.8498 94.5867 12.1032 92.546 9.98523C92.1426 9.56878 87.551 5.77308 86.9696 5.39233C85.9137 4.6903 83.8018 3.69081 81.856 3.23866C80.0288 2.81031 75.6508 2.09638 73.3253 3.73841C73.966 1.35866 69.4218 2.53663 66.076 3.61942C62.7302 4.7022 59.503 6.77258 55.73 10.949C53.4402 13.4835 49.8452 19.4447 48.7062 22.6693C47.9231 24.8943 46.8909 29.3206 46.8909 29.3206C46.8909 29.3206 46.3926 29.9156 45.6925 40.3389C45.3722 45.1102 46.4044 60.5548 45.2773 66.8373C44.423 71.5373 39.167 73.679 39.167 73.679C39.4517 75.9517 42.406 77.7008 44.7315 77.7841C46.879 77.8555 50.0587 78.5575 53.8791 76.8917C57.7826 76.273 60.9861 75.5709 63.7743 74.393C65.3285 73.7385 67.5354 70.7401 67.2981 66.9563L58.9098 62.7798C58.9098 62.7798 53.7842 57.9608 53.7724 56.1046C53.0249 55.95 50.9249 56.9851 50.2011 56.7472C49.5723 56.5449 48.9435 55.1409 48.8248 54.4983C48.6943 53.7487 49.2757 52.1186 49.8096 51.6188C48.9791 51.1191 47.4248 48.0611 47.14 46.9069C46.8553 45.7528 46.9146 43.3373 47.3299 42.207C47.6621 41.2907 48.8367 39.7439 49.6672 39.4107C50.4384 39.1014 52.1588 39.8391 52.1588 39.8391C52.1588 39.8391 61.6861 38.0781 64.4149 36.7573C69.4456 34.3181 70.8812 32.7951 73.9304 30.0822H73.9779Z" fill="#DEA785"/>
<path d="M98.2886 57.6518C99.6646 57.6518 100.78 56.533 100.78 55.153C100.78 53.773 99.6646 52.6543 98.2886 52.6543C96.9125 52.6543 95.797 53.773 95.797 55.153C95.797 56.533 96.9125 57.6518 98.2886 57.6518Z" fill="#FF7A73"/>
<path d="M51.708 56.9491C53.1823 56.9491 54.3775 55.7505 54.3775 54.2719C54.3775 52.7934 53.1823 51.5947 51.708 51.5947C50.2336 51.5947 49.0385 52.7934 49.0385 54.2719C49.0385 55.7505 50.2336 56.9491 51.708 56.9491Z" fill="#FF7A73"/>
<path d="M56.0741 38.9108C55.3622 38.9108 54.6622 38.8751 53.9503 38.8156L54.0571 37.6257C59.1589 38.0898 64.32 36.7928 68.6031 33.9847C73.1117 31.0338 77.6796 25.3581 79.222 20.789L79.483 20.0156L80.1355 20.5035C86.0679 24.9417 93.4595 30.4508 96.7816 38.2802L95.6901 38.7442C92.5934 31.4741 86.0204 26.3933 80.0644 21.9313C78.2253 26.5837 73.7168 32.069 69.2557 34.9842C65.3403 37.5424 60.7369 38.8989 56.0741 38.8989V38.9108Z" fill="black"/>
<path d="M106.06 121.142C106.772 130.007 106.653 138.99 105.704 147.831C105.656 148.295 105.467 148.628 105.395 148.664L105.146 149.83C105.229 149.854 105.324 149.854 105.407 149.854C105.656 149.854 105.882 149.782 106.095 149.628C106.724 149.175 106.867 148.235 106.902 147.962C107.851 139.05 107.97 129.995 107.258 121.047L106.072 121.142H106.06Z" fill="black"/>
<path d="M135.14 123.189C134.179 113.729 127.76 105.674 122.611 99.2008C121.662 98.0109 120.369 96.3927 118.506 95.8811C117.889 93.2633 116.797 91.3239 115.196 90.0388C114.27 86.3859 113.713 83.4588 113.179 80.6269C113.072 80.032 112.894 79.1396 112.241 78.5684C111.257 77.6998 109.691 78.0449 108.848 78.9135C108.077 79.6988 107.78 80.7697 107.567 81.8168C106.784 85.6839 107.235 88.9679 108.836 91.1692C108.575 91.2168 108.302 91.2644 108.029 91.312C107.306 91.4309 106.57 91.5618 105.846 91.8117C104.138 92.3828 102.987 93.5489 102.75 94.9292C102.595 95.8335 103.011 96.8568 103.77 97.4874C103.865 97.5588 103.96 97.6302 104.055 97.6897C103.936 97.8444 103.829 98.0109 103.734 98.1894C103.284 99.0699 103.236 100.141 103.616 100.998C103.924 101.7 104.47 102.283 105.158 102.699C104.767 103.02 104.47 103.437 104.292 103.901C103.841 105.114 104.185 106.59 105.17 107.744C106.001 108.732 106.973 109.434 106.973 109.434L108.35 110.29L108.741 110.493C109.833 111.159 110.996 111.516 112.099 111.528H112.135C114.923 111.528 117.153 109.35 118.138 107.185C119.218 104.793 119.218 102.128 119.075 99.8433C119.016 98.9271 118.909 98.0823 118.779 97.2732C119.87 97.773 120.748 98.7962 121.686 99.9742C126.74 106.328 133.028 114.229 133.954 123.343C134.227 126.021 134.084 129.828 131.854 132.708C130.11 134.968 127.001 136.111 124.509 135.099C123.145 134.516 121.887 133.683 120.725 132.755C118.458 130.935 116.726 128.495 115.148 126.151C112.324 121.951 109.667 117.572 107.246 113.134L106.202 113.705C108.635 118.179 111.316 122.594 114.163 126.83C115.789 129.245 117.58 131.768 119.977 133.695C121.021 134.54 122.172 135.254 123.382 135.813C124.355 136.503 125.435 136.801 126.526 136.801C128.876 136.801 131.272 135.409 132.791 133.433C135.259 130.233 135.425 126.116 135.128 123.224L135.14 123.189ZM117.047 106.673C116.228 108.494 114.389 110.314 112.135 110.314H112.111C111.565 110.314 111.007 110.195 110.45 109.993L109.607 109.41C109.607 109.41 109.085 109.065 108.575 108.815C107.602 108.351 106.772 107.756 106.084 106.947C105.395 106.138 105.134 105.091 105.419 104.282C105.573 103.853 105.953 103.484 106.404 103.306C106.451 103.282 106.523 103.258 106.594 103.246C106.796 103.294 107.009 103.306 107.223 103.33L111.091 103.96L111.47 104.032L111.636 102.949L111.482 102.83L111.328 102.806C110.011 102.568 108.67 102.211 107.341 102.068C107.116 102.033 106.89 102.021 106.653 102.045C105.834 101.807 105.063 101.295 104.707 100.498C104.47 99.9742 104.506 99.2841 104.79 98.7249C104.897 98.5107 105.123 98.1894 105.49 98.0109C106.938 98.1537 108.374 98.4036 109.774 98.7724L110.07 97.6183C108.611 97.2375 107.104 96.9757 105.585 96.8211H105.253C104.933 96.8449 104.66 96.6783 104.518 96.5593C104.079 96.2023 103.841 95.6193 103.924 95.1314C104.114 94.0249 105.241 93.2752 106.226 92.954C106.867 92.7398 107.531 92.6208 108.231 92.5018C108.836 92.3947 109.465 92.2877 110.07 92.1092L111.019 91.8355L110.331 91.1216C107.863 88.5753 108.267 84.3512 108.729 82.0667C108.931 81.0672 109.168 80.2938 109.691 79.7583C110.141 79.2943 110.996 79.0682 111.458 79.4727C111.779 79.7583 111.897 80.27 112.004 80.853C112.55 83.7563 113.119 86.7548 114.092 90.5385L114.14 90.7408L114.306 90.8717C116.43 92.5018 117.604 95.4527 117.877 99.9028C118.008 102.045 118.008 104.531 117.035 106.685L117.047 106.673Z" fill="black"/>
<path d="M111.767 71.5011C109.097 70.8824 106.855 68.7763 106.06 66.1467C105.372 63.9097 105.716 61.4348 106.048 59.0432L106.119 58.5434C107.484 48.489 107.151 39.2794 105.134 31.1645C102.773 21.6931 97.9207 13.3283 91.4426 7.59313C90.2086 6.51034 89.0815 5.65364 87.9899 4.98731C84.4424 2.83364 80.0525 1.95314 75.9592 2.55997L76.1372 3.73794C79.9576 3.16681 84.0628 3.98782 87.3611 6.0106C88.4171 6.65313 89.4612 7.43844 90.6476 8.49743C96.9478 14.066 101.682 22.2285 103.972 31.462C105.953 39.4222 106.273 48.489 104.933 58.3887L104.861 58.8885C104.517 61.411 104.161 64.0168 104.921 66.5037C105.823 69.4664 108.314 71.8343 111.304 72.6077C110.758 73.4168 110.165 74.1069 109.323 74.4758C108.433 74.8685 107.412 74.8209 106.333 74.7614C105.597 74.7257 104.85 74.69 104.09 74.7971L102.761 74.9755L103.794 75.8442C104.114 76.1178 104.209 76.4867 104.221 76.7604C104.256 77.272 104.078 77.8312 103.746 78.2001C103.022 79.033 101.824 79.2591 100.946 79.3067C99.0478 79.39 96.5918 78.5095 95.0731 77.3553L94.3969 78.2477C91.2409 81.8173 86.5425 84.6135 82.1407 85.5416C77.4779 86.5292 73.0168 86.5768 68.5082 85.7201C66.8827 85.4107 64.498 84.8753 62.5996 83.8758C60.3097 82.6621 55.908 79.9611 54.4367 77.5576L53.9147 76.4986C53.6774 76.7247 53.3096 76.8198 52.8113 76.9864C49.5129 78.0692 45.8942 78.0335 42.6196 76.8674C41.9551 76.6295 41.1127 76.2844 40.5076 75.6895C40.0331 75.2373 39.7602 74.6543 39.7246 74.1069C42.7619 72.8219 45.2298 69.5616 46.2264 65.4804C47.0925 61.9108 46.8552 58.1984 46.6179 54.6049L46.5942 54.1409C46.0247 45.2169 45.6569 34.9007 48.6112 25.2627C51.7316 15.1012 58.4826 7.22427 66.681 4.21389C69.2794 3.262 71.6286 2.96453 73.6575 3.34529L73.871 2.17921C71.6286 1.76276 69.0777 2.07212 66.2776 3.10731C57.7351 6.24857 50.7112 14.4111 47.4841 24.9296C44.4704 34.7698 44.8382 45.2169 45.4196 54.2361L45.4552 54.7001C45.6806 58.1984 45.9179 61.8275 45.0993 65.2186C44.3637 68.2409 42.3704 71.9176 38.9771 73.155L38.6449 73.274L38.5974 73.6191C38.4432 74.6305 38.8585 75.7371 39.7127 76.5581C40.4839 77.3077 41.4806 77.7241 42.2636 77.9978C43.3433 78.3786 44.4586 78.6403 45.5857 78.795C44.3993 79.6279 43.0941 80.7226 42.1687 81.7221C40.8992 83.1024 40.2585 84.6849 40.389 86.1841L41.5755 86.0889C41.445 84.5183 42.4416 83.1857 43.0467 82.5312C43.9603 81.5436 46.001 79.8302 47.2942 78.9378C47.5078 78.9378 47.7214 78.9616 47.9349 78.9616C49.7265 78.9616 51.518 78.676 53.2265 78.1168C53.3571 78.0692 53.4638 78.0454 53.5588 78.0216C55.113 80.5322 59.1589 83.376 62.0776 84.9229C64.1183 86.0057 66.6217 86.553 68.3184 86.8862C70.5015 87.3026 72.6846 87.5168 74.8677 87.5168C77.3474 87.5168 79.8508 87.2431 82.4136 86.7077C87.1001 85.7201 92.0477 82.7573 95.4053 78.9735C96.9596 79.8778 98.9291 80.5084 100.578 80.5084C100.733 80.5084 100.875 80.5084 101.029 80.5084C102.987 80.8297 106.582 83.3403 107.317 85.1727L107.78 84.316C106.95 82.2576 105.075 80.6631 102.928 80.1396C103.556 79.9135 104.173 79.5566 104.66 78.9973C105.206 78.3786 105.49 77.51 105.419 76.6771C105.395 76.4153 105.348 76.1654 105.253 75.9274C105.585 75.9274 105.929 75.9393 106.285 75.9631C107.448 76.0226 108.658 76.0821 109.797 75.5824C111.328 74.9161 112.206 73.2026 112.977 71.9414L111.767 71.5249V71.5011Z" fill="black"/>
<path d="M104.458 42.0871C104.078 40.3975 103.022 39.0411 101.634 38.4818C99.997 37.8155 98.0037 38.4818 97.2681 39.9335L98.3241 40.4689C98.7868 39.5646 100.127 39.1481 101.195 39.5884C102.204 39.993 103.011 41.0519 103.307 42.3489C103.616 43.7054 103.39 45.1451 103.153 46.2517C102.939 47.2631 102.655 48.2864 102.311 49.274C102.026 50.0712 101.682 50.8565 101.053 51.2372C100.578 51.5109 99.9733 51.5466 99.3326 51.5823C98.8936 51.6061 98.4309 51.6299 97.98 51.737C96.8885 51.9869 95.9037 52.796 95.3935 53.8669C94.9545 54.795 94.9426 55.8063 95.3579 56.6393C95.441 56.7939 95.5596 56.9248 95.6664 57.0676L95.6071 57.0438C93.4358 62.196 88.4052 66.2891 83.1136 67.2291L83.3272 68.3952C83.7662 68.3119 84.2051 68.2167 84.6323 68.0977C84.4187 69.704 84.2289 71.7268 85.2255 73.4402C85.4391 73.8091 85.7238 74.178 86.1154 74.6182C87.3018 75.9271 88.7849 77.0455 90.5171 77.8785C90.5883 77.9142 90.6951 77.9618 90.7782 78.0093C88.868 79.925 86.0323 81.2934 83.8492 82.0073C78.7593 83.6493 74.1558 83.34 69.9438 82.7688C64.7946 82.0668 60.1911 79.8298 56.9995 76.4625L56.1453 77.2835C59.5267 80.8531 64.3793 83.221 69.7896 83.9468C71.7235 84.2086 73.7287 84.4109 75.8406 84.4109C78.4864 84.4109 81.2746 84.0896 84.2289 83.1258C86.8984 82.2691 90.5409 80.4129 92.5223 77.8309L91.6205 77.1288C91.4188 76.9623 91.1697 76.8433 90.968 76.7481C89.4612 76.0104 88.0968 74.999 87.0171 73.7972C86.6849 73.4283 86.4476 73.119 86.2815 72.8215C85.5221 71.5245 85.617 69.5256 85.8543 67.7051C90.4341 66.0749 94.5274 62.3625 96.5681 57.841C97.0664 58.1266 97.6359 58.2932 98.2054 58.2932C98.5732 58.2932 98.9292 58.2337 99.2732 58.0909C100.697 57.5198 101.504 55.8063 101.065 54.3428C100.863 53.6765 100.412 53.1172 99.8427 52.7365C100.472 52.6889 101.112 52.6056 101.705 52.2605C102.678 51.6894 103.153 50.6304 103.485 49.6666C103.853 48.6314 104.15 47.5605 104.375 46.5015C104.636 45.276 104.885 43.6697 104.517 42.0871H104.458ZM99.8783 54.6998C100.151 55.5803 99.641 56.6512 98.7868 56.9962C97.9325 57.3413 96.8173 56.9129 96.4139 56.0919C96.0698 55.4137 96.2952 54.7236 96.4613 54.3666C96.7105 53.8312 97.1376 53.3909 97.6241 53.1172L97.7427 53.0815C98.6444 52.8912 99.6055 53.8193 99.8783 54.6998Z" fill="black"/>
<path d="M88.3697 41.3744L87.6815 40.4106L86.7086 41.1127C86.5306 40.8628 86.3171 40.6486 86.0916 40.5177C85.6526 40.256 85.1781 40.2322 84.7509 40.4582C83.8611 40.9223 82.6509 41.5529 82.6509 43.3377C82.6509 45.1225 83.695 46.3957 85.0238 46.3957C86.3527 46.3957 87.3968 45.0511 87.3968 43.3377C87.3968 42.957 87.3374 42.5762 87.2306 42.2074L88.3697 41.3863V41.3744Z" fill="black"/>
<path d="M66.4557 40.7784L66.1591 40.5999C65.7201 40.3263 65.2455 40.3025 64.8184 40.5523C64.5336 40.707 64.2963 40.9688 64.1183 41.2782C64.059 41.2306 63.9997 41.183 63.9404 41.1473C63.6319 40.9093 63.3234 40.6832 63.1573 40.5405L62.3742 41.4329C62.5522 41.5875 62.8844 41.8493 63.2166 42.0992C63.3709 42.2182 63.537 42.3372 63.6793 42.4442C63.62 42.7417 63.5844 43.0511 63.5844 43.3366C63.5844 45.0501 64.6285 46.3946 65.9574 46.3946C66.6336 46.3946 67.3218 46.0258 67.8082 45.4189C68.3066 44.7764 68.4964 43.9673 68.3184 43.1939C67.9625 41.6827 67.1913 41.2306 66.4557 40.7784Z" fill="black"/>
<path d="M83.3864 37.2333L85.4865 36.2576L85 35.1748L83.2085 35.9482C82.3384 36.321 81.8638 36.6066 81.7847 36.8049L81.5 37.2214L81.9627 37.4713L82.3542 37.7925L82.7339 37.5307C82.9 37.4118 83.078 37.3404 83.3746 37.2452L83.3864 37.2333Z" fill="black"/>
<path d="M76.1016 52.13C76.1016 52.13 76.2084 52.13 76.2677 52.13C76.7067 52.0824 77.0626 51.8206 77.2406 51.4518L76.0779 50.952C76.0186 50.8687 76.0186 50.5951 76.0186 50.4642L76.0423 48.4771L75.4491 48.4414L74.8558 48.4652L74.8321 50.4523C74.8321 50.7736 74.8202 51.2971 75.1643 51.7136C75.3897 51.9872 75.7338 52.1419 76.1016 52.1419V52.13Z" fill="black"/>
<path d="M79.6254 55.2836L79.4118 55.2479C78.3678 55.0694 77.3355 55.1884 76.3389 55.2955C75.3779 55.4025 74.4643 55.5096 73.5863 55.355C73.1354 55.2717 72.8032 55.3787 72.6015 55.6643C72.471 55.8428 72.4473 56.0213 72.4473 56.1165C72.3168 57.1636 72.3168 58.2225 72.4473 59.2696C72.6134 60.6975 73.0168 61.7922 73.6812 62.6132C74.3931 63.4937 75.4372 64.0053 76.4338 64.0053C76.683 64.0053 76.944 63.9696 77.1813 63.9101C78.0118 63.6841 78.7474 63.0653 79.2576 62.1729C79.6729 61.4471 79.8864 60.6618 80.0763 59.8408C80.4559 58.2939 80.7051 56.5686 79.7796 55.462L79.6373 55.2955L79.6254 55.2836ZM78.9135 59.5433C78.7237 60.3048 78.5457 60.9711 78.2135 61.5661C77.8694 62.1729 77.3711 62.6013 76.8491 62.7441C76.1016 62.9582 75.1762 62.5894 74.5829 61.8517C74.0727 61.221 73.7524 60.3167 73.61 59.1149C73.5151 58.2701 73.5032 57.4134 73.5863 56.5448C74.5592 56.6757 75.5321 56.5686 76.4813 56.4734C77.3474 56.3782 78.1898 56.2831 78.9847 56.3782C79.4237 57.1279 79.1864 58.4486 78.9135 59.5433Z" fill="black"/>
<path d="M79.5424 68.6457L79.3169 67.5153C75.1287 68.9669 69.6473 67.7176 63.7624 64.7548C60.1318 62.9224 55.5521 59.793 54.3656 55.2596C54.6266 54.6528 54.7097 54.0578 54.5554 53.5105C54.2232 52.2849 52.93 51.6662 52.5029 51.4639C52.1469 51.2973 51.3876 50.9404 50.6401 51.0237C48.4333 49.5006 47.5672 46.0262 48.0062 43.5156C48.2316 42.2305 49.3943 40.4219 50.391 40.2077C50.5571 40.172 51.0554 40.065 51.6842 41.0169L52.6808 40.3624C51.8028 39.0179 50.8181 38.8989 50.1537 39.0417C48.5045 39.3867 47.1163 41.7546 46.8434 43.3014C46.3688 46.0143 47.2824 49.7029 49.5486 51.6305C49.2519 52.0351 48.8485 52.6062 48.7655 53.1297C48.6587 53.7723 48.635 54.4148 48.718 54.9859C48.8248 55.7594 49.2164 56.4257 49.774 56.7945C50.3079 57.1515 50.9367 57.1991 51.5181 57.2229C51.613 57.2229 51.7198 57.2229 51.8147 57.2229C52.0995 57.2229 52.3723 57.1991 52.6571 57.1039C53.0249 56.973 53.2978 56.747 53.5232 56.5209C55.1605 60.9591 59.6335 64.0052 63.2166 65.8138C64.4743 66.4444 65.6963 66.9917 66.8709 67.4677C66.8353 68.9788 66.1353 71.0492 64.9963 72.6198C63.8811 74.1429 62.7065 74.9996 61.4844 75.1424L61.6268 76.3203C63.1929 76.1419 64.6523 75.1305 65.9692 73.3219C67.2862 71.5133 67.9743 69.6333 67.9743 67.8841C70.2405 68.6933 72.3761 69.1573 74.4168 69.1573C76.1135 69.1573 78.0474 69.1573 79.5424 68.6338V68.6457ZM52.9181 55.4262C52.6808 55.7356 52.4791 55.9021 52.2774 55.9735C52.0876 56.0449 51.6605 56.1044 51.3876 56.0925C50.9486 56.0687 50.7232 55.9735 50.4265 55.7832C50.1537 55.6047 49.952 55.2477 49.8926 54.8075C49.8333 54.3672 49.8452 53.8318 49.9401 53.3201C49.9876 53.0465 50.1893 52.7133 50.5452 52.3801C50.8299 52.1659 51.6605 52.1422 52.2656 52.4634C53.0724 52.9037 53.1791 53.3796 53.2978 53.8556C53.4758 54.4981 53.1317 55.1406 52.9181 55.4143V55.4262Z" fill="black"/>
<path d="M51.0672 95.1443C50.9367 93.3119 49.4299 91.5628 47.9112 91.0868C47.7451 90.3848 47.4604 89.7423 47.0214 89.2306C46.2383 88.3263 45.0281 87.8742 43.9484 88.0884C43.6755 87.3387 43.1535 86.6605 42.4416 86.1727C41.445 85.5063 40.2348 85.316 39.2026 85.661C37.7432 86.1489 36.8178 87.4101 36.1771 88.5881C33.4838 89.0046 31.099 91.6937 29.8295 94.3471C29.082 95.9058 28.3346 97.8572 28.1566 99.7491C27.9905 101.474 28.4532 103.783 30.2448 105.056L30.9329 104.08C29.7939 103.271 29.1769 101.617 29.3431 99.8681C29.5092 98.1785 30.2685 96.584 31.016 95.0372C32.1075 92.7526 33.4008 90.6109 35.4296 90.1706C34.7415 91.6937 34.1957 93.2881 33.816 94.9182L34.9669 95.1919C35.4177 93.2643 36.094 91.3962 36.9957 89.6233C37.5534 88.5286 38.3483 87.2078 39.606 86.7914C40.2941 86.5653 41.1246 86.6962 41.8128 87.1721C42.5009 87.6362 42.9518 88.3382 42.9993 89.064C43.0942 90.4205 42.1687 91.658 41.1365 92.9073L39.9619 94.3352L40.8755 95.0967L42.0501 93.6688C43.1416 92.36 44.1739 90.944 44.1857 89.2782C44.862 89.1354 45.6451 89.421 46.1552 90.0278C46.6536 90.6109 46.9146 91.4438 46.9146 92.3838C46.9027 93.9425 46.179 95.4418 45.918 96.358C45.5502 97.0957 45.0281 98.7139 44.0908 99.0828L44.5298 100.189C46.0247 99.5944 46.6773 97.5954 47.0214 96.7982C47.318 95.7749 48.0655 94.2043 48.0892 92.4552C49.2282 92.8954 49.8333 94.1805 49.9045 95.2395C50.0113 96.6792 49.418 98.1071 48.896 99.2017C48.5756 99.8681 48.2316 100.511 47.8756 101.165C47.8282 101.094 47.8044 101.01 47.757 100.939L46.7722 101.605C47.1756 102.2 47.2943 103.057 47.0807 103.89C46.8909 104.628 46.4756 105.353 45.7993 106.115C45.1823 106.805 43.9366 107.947 42.4772 107.828L42.3704 109.018C42.4772 109.018 42.584 109.03 42.7026 109.03C43.4145 109.03 44.0671 108.828 44.6484 108.53L45.9654 138.301C45.5146 140.276 42.1687 141.74 38.6093 142.668C33.1397 144.096 29.1532 143.632 26.7447 141.288C24.0633 138.682 24.0158 134.279 24.2768 130.733C24.787 123.654 26.0803 116.348 28.1091 109.018L28.0261 108.994C31.538 109.625 35.3822 111.362 38.5144 112.838L38.8822 113.123L39.2619 111.898L39.0009 111.755C35.4296 110.077 31.1583 108.316 27.243 107.888L26.9701 108.697C26.9701 108.697 26.9464 108.768 26.9464 108.804V108.828C24.9057 116.193 23.6124 123.535 23.1022 130.65C22.8294 134.458 22.9006 139.193 25.9379 142.144C27.6701 143.822 30.0549 144.667 33.0685 144.667C34.8127 144.667 36.7703 144.381 38.9297 143.822C41.8721 143.049 44.601 141.906 46.0722 140.383L46.3925 147.606C46.4875 149.652 46.6654 150.319 47.057 151.794C47.1519 152.127 47.2468 152.496 47.3654 152.936L48.5163 152.639C48.3977 152.199 48.3028 151.818 48.2078 151.485C47.8282 150.057 47.6621 149.474 47.579 147.558L45.823 107.852H45.7163C46.1197 107.531 46.4637 107.198 46.701 106.912C47.496 106.008 48.0061 105.115 48.2434 104.187C48.3621 103.699 48.3858 103.224 48.3621 102.759C48.3858 102.724 48.4095 102.7 48.4333 102.664L48.9197 101.772C49.2875 101.094 49.6553 100.427 49.9875 99.7372C50.5808 98.5116 51.2452 96.8934 51.1147 95.1681L51.0672 95.1443Z" fill="black"/>
<path d="M76.861 20.0156C76.861 20.0156 67.8557 36.3288 56.525 36.3645L76.861 20.0156Z" fill="#EBCFC1"/>
</g>
</svg>
