<svg width="379" height="310" viewBox="0 0 379 310" fill="none" xmlns="http://www.w3.org/2000/svg">
<path d="M219.736 227.929C217.876 228.399 216.126 229.499 214.876 230.979C212.766 233.459 211.896 236.789 211.806 240.039C211.716 243.289 212.356 246.509 212.966 249.699C213.166 250.759 213.336 251.969 212.696 252.839L215.806 254.109C216.886 250.279 218.306 246.489 219.726 242.809C221.126 239.169 223.156 234.279 225.506 228.839C223.726 227.659 221.666 227.459 219.736 227.939V227.929Z" fill="white"/>
<path d="M84.4156 91.3388C78.4056 88.2288 74.4356 84.1788 74.4356 84.1788C72.5056 82.1888 70.9356 80.1388 69.4756 77.9688C69.4756 77.9688 68.0456 75.7688 67.4456 74.5088C67.4456 74.5088 67.2856 74.1788 67.0356 73.6588C64.8556 73.8888 62.4856 73.0888 61.5456 72.5288C58.5856 70.7288 57.1956 68.1688 56.2756 66.3188C54.9856 63.7088 54.4056 59.3088 55.5656 56.7488C55.9556 55.8888 56.9256 54.3988 59.5656 53.9988C60.5656 53.8488 61.7456 53.9588 62.7856 54.4688C73.6656 50.6588 79.2256 49.0088 88.8856 44.2388C99.5956 38.9488 104.186 35.1288 110.656 27.7388C118.216 29.9788 128.226 47.9088 129.346 56.8688C128.896 60.7288 128.536 64.5388 128.136 68.1188C127.206 76.5088 124.646 84.0888 118.766 88.8988C112.596 93.9388 106.056 96.0088 98.1656 95.2988C96.8956 95.1888 95.6756 95.0188 94.4856 94.7888C91.4056 94.1988 87.3056 92.6888 84.4056 91.3488" fill="white"/>
<path d="M254.226 274.949C254.226 285.959 254.086 296.839 251.176 307.529C250.496 310.019 254.356 311.079 255.036 308.589C258.046 297.559 258.226 286.299 258.226 274.939C258.226 272.369 254.226 272.359 254.226 274.939V274.949Z" fill="#211715"/>
<path d="M155.736 294.969C160.876 293.499 165.966 291.819 171.066 290.209C180.716 287.179 190.366 284.139 200.006 281.099C205.986 279.209 211.966 277.319 217.946 275.439C220.396 274.669 219.346 270.799 216.886 271.579C198.226 277.469 179.576 283.389 160.896 289.209C158.826 289.849 156.756 290.519 154.666 291.119C152.196 291.829 153.246 295.689 155.726 294.979L155.736 294.969Z" fill="#211715"/>
<path d="M253.806 83.4589C252.976 86.4389 252.446 89.7489 252.246 93.4189C251.456 99.5889 250.376 108.139 244.426 110.649C243.246 111.149 242.166 111.919 241.536 113.029C239.876 115.979 242.396 117.619 243.866 119.549C244.836 120.829 245.356 122.259 245.626 123.769C245.536 125.799 245.586 129.359 246.006 132.809C246.286 135.079 246.736 137.299 247.436 138.979C248.906 142.569 251.046 144.509 253.346 145.619C257.856 147.789 264.206 149.029 268.466 148.319C269.486 148.149 270.476 148.779 270.776 149.769C270.826 149.929 272.356 153.009 273.466 156.739L273.826 157.939C278.096 154.509 283.476 151.959 288.446 150.529C295.666 148.449 303.216 147.139 310.796 147.159C311.166 147.159 311.536 147.189 311.886 147.259C314.326 143.199 319.556 139.619 322.766 136.759C328.876 131.279 338.066 120.329 339.216 103.959C339.846 94.9089 337.326 85.4589 333.636 78.6989C324.156 61.3089 311.936 57.2789 304.326 55.5589C296.716 53.8489 289.136 54.3589 282.176 56.0389C267.606 59.5689 260.156 68.9089 258.836 71.0189C255.916 75.6789 254.286 79.1589 253.306 85.5689" fill="white"/>
<path d="M281.136 56.3087C267.246 60.0187 260.126 68.9587 258.836 71.0187C256.856 74.1887 255.456 76.8087 254.466 80.1787C256.726 88.2787 261.816 95.5487 268.656 100.439C268.656 100.439 273.636 100.559 276.846 100.629C279.766 104.329 283.096 107.619 287.226 109.989C288.036 109.509 288.936 109.179 290.006 109.069C291.896 108.879 293.636 109.369 294.856 110.559C296.666 112.329 297.146 115.539 296.646 118.059C295.756 122.579 293.566 125.869 290.226 128.099C290.196 129.129 290.176 129.949 290.176 129.949C290.696 133.259 292.846 138.379 295.196 141.049C297.686 143.879 304.456 146.419 308.626 147.349C308.626 147.349 309.916 147.629 311.496 147.969C313.716 143.609 319.376 139.779 322.766 136.749C328.876 131.269 338.066 120.319 339.216 103.949C339.846 94.8987 337.326 85.4487 333.636 78.6887C324.156 61.2987 311.936 57.2687 304.326 55.5487C296.716 53.8387 289.136 54.3487 282.176 56.0287C281.826 56.1087 281.486 56.1987 281.136 56.2887V56.3087Z" fill="#BDBDBD"/>
<path d="M275.406 156.219C274.896 154.529 274.276 152.879 273.596 151.249C273.346 150.649 273.086 150.049 272.816 149.459C272.746 149.309 272.686 149.159 272.616 149.019C272.426 148.639 272.896 149.689 272.586 148.939C271.086 145.259 266.986 146.709 263.916 146.459C260.676 146.199 257.286 145.339 254.366 143.909C251.676 142.599 249.896 140.229 248.986 137.399C247.836 133.809 247.626 129.889 247.596 126.139C247.586 124.419 247.636 122.899 247.026 121.249C246.416 119.599 245.446 118.269 244.286 116.969C243.616 116.209 242.716 115.369 243.146 114.289C243.706 112.889 245.356 112.549 246.516 111.849C248.986 110.359 250.606 107.929 251.686 105.309C254.506 98.5285 253.836 91.0085 255.736 84.0085C256.416 81.5185 252.556 80.4585 251.876 82.9485C250.136 89.3485 250.546 96.1085 248.496 102.439C247.746 104.769 246.546 107.209 244.356 108.479C242.906 109.319 241.476 109.849 240.386 111.219C239.296 112.589 238.736 114.309 239.116 116.019C239.806 119.119 243.236 120.649 243.606 123.929C243.786 125.539 243.576 127.269 243.656 128.899C243.756 130.929 243.966 132.949 244.296 134.949C244.886 138.509 246.146 142.009 248.656 144.679C250.856 147.019 253.936 148.259 256.956 149.159C260.516 150.229 264.436 150.869 268.146 150.389C268.936 150.289 268.736 150.109 269.066 150.859C269.216 151.199 269.376 151.539 269.526 151.889C270.306 153.649 270.966 155.449 271.526 157.289C272.276 159.749 276.136 158.699 275.386 156.229L275.406 156.219Z" fill="#211715"/>
<path d="M255.236 86.0988C255.756 82.7888 256.546 79.5188 258.026 76.4988C258.726 75.0688 259.526 73.6988 260.366 72.3488C260.526 72.0888 260.686 71.8388 260.856 71.5888C260.966 71.4388 261.456 70.7888 261.126 71.2188C263.856 67.7488 267.356 64.8788 271.146 62.6388C282.756 55.7688 297.666 54.6388 310.246 59.3888C321.656 63.6888 330.496 74.2388 334.536 85.6488C337.196 93.1488 338.056 101.229 336.536 109.069C335.286 115.549 332.616 121.619 328.816 126.999C325.836 131.219 322.176 134.719 318.196 137.989C315.606 140.119 313.026 142.289 311.006 144.989C309.166 147.469 308.486 150.019 308.576 153.059C308.626 154.639 308.756 156.199 308.966 157.759C309.106 158.829 310.486 159.419 311.426 159.159C312.586 158.839 312.966 157.769 312.826 156.699C312.616 155.179 312.556 153.609 312.556 152.069C312.556 150.719 312.586 150.119 313.296 148.809C314.866 145.899 317.546 143.689 320.056 141.609C324.356 138.039 328.296 134.419 331.626 129.899C340.716 117.579 343.546 101.699 339.176 87.0089C335.346 74.1688 326.156 61.9788 313.696 56.5188C301.236 51.0588 285.566 51.3088 272.856 57.2188C263.306 61.6688 255.606 69.3488 252.556 79.5688C252.026 81.3588 251.656 83.1888 251.366 85.0388C251.196 86.1088 251.636 87.1888 252.766 87.4988C253.716 87.7588 255.056 87.1788 255.226 86.0988H255.236Z" fill="#211715"/>
<path d="M287.306 112.359C289.226 110.809 292.586 110.259 294.036 112.739C295.376 115.029 294.836 117.879 293.996 120.239C292.286 125.029 288.046 127.679 283.306 128.879C280.816 129.509 281.866 133.369 284.366 132.739C289.446 131.449 294.166 128.669 296.706 123.939C299.246 119.209 300.406 111.279 294.876 108.079C291.416 106.079 287.406 107.179 284.486 109.539C283.646 110.219 283.776 111.659 284.486 112.369C285.316 113.199 286.476 113.049 287.316 112.369L287.306 112.359Z" fill="#211715"/>
<path d="M254.856 101.949C253.976 103.659 253.526 107.899 256.716 108.859C261.036 109.639 262.226 104.649 261.226 101.999C260.406 99.8386 257.076 98.3686 254.846 101.939L254.856 101.949Z" fill="#211715"/>
<path d="M252.506 80.5787C254.946 89.2887 260.336 96.8787 267.656 102.159C268.536 102.789 269.886 102.309 270.396 101.439C270.986 100.429 270.556 99.3387 269.676 98.6987C263.216 94.0387 258.506 87.1587 256.366 79.5087C255.676 77.0287 251.816 78.0887 252.506 80.5687V80.5787Z" fill="#211715"/>
<path d="M267.636 90.4389C272.226 97.9589 277.066 105.589 284.476 110.629C285.366 111.239 286.696 110.799 287.216 109.909C287.796 108.919 287.396 107.779 286.496 107.169C279.686 102.539 275.296 95.2989 271.086 88.4089C269.746 86.2189 266.286 88.2189 267.636 90.4289V90.4389Z" fill="#211715"/>
<path d="M288.256 130.479C288.676 133.019 289.636 135.489 290.766 137.799C291.766 139.849 293.026 141.979 294.826 143.439C296.756 145.009 298.986 146.099 301.266 147.059C303.546 148.019 305.766 148.749 308.096 149.279C310.606 149.849 311.676 145.999 309.156 145.419C307.046 144.939 304.976 144.269 302.966 143.459C301.986 143.069 301.036 142.619 300.106 142.129C299.306 141.709 298.186 141.029 297.656 140.609C296.086 139.369 295.106 137.579 294.226 135.779C293.246 133.779 292.486 131.619 292.116 129.419C291.936 128.349 290.616 127.759 289.656 128.019C288.526 128.329 288.086 129.409 288.256 130.479Z" fill="#211715"/>
<path d="M246.556 128.669C248.856 128.919 251.196 128.939 253.506 128.759C254.546 128.679 255.556 127.899 255.506 126.759C255.456 125.739 254.626 124.679 253.506 124.759C251.196 124.939 248.856 124.919 246.556 124.669C246.076 124.619 245.466 124.929 245.146 125.259C244.796 125.609 244.536 126.179 244.556 126.669C244.576 127.159 244.746 127.719 245.146 128.079C245.556 128.459 246.006 128.609 246.556 128.669Z" fill="#211715"/>
<path d="M250.476 134.869C252.256 133.139 253.866 131.199 255.296 129.179C255.576 128.779 255.626 128.099 255.496 127.639C255.366 127.179 255.006 126.669 254.576 126.439C254.116 126.189 253.546 126.069 253.036 126.239C252.526 126.409 252.156 126.709 251.836 127.159C251.556 127.559 251.266 127.939 250.966 128.329L251.276 127.929C250.156 129.379 248.946 130.769 247.626 132.049C246.876 132.779 246.836 134.159 247.626 134.879C248.416 135.599 249.656 135.659 250.456 134.879L250.476 134.869Z" fill="#211715"/>
<path d="M244.836 188.519C250.116 178.609 256.446 171.909 265.636 167.689C276.536 162.679 285.916 159.619 297.686 157.299C301.086 156.629 304.516 156.059 307.946 155.549C311.316 155.049 315.996 154.759 320.256 155.469C321.326 155.649 324.606 156.909 325.196 157.309C333.496 162.219 341.766 170.899 346.546 179.399C324.786 185.729 298.076 193.519 278.766 199.089C271.026 201.319 266.096 208.409 265.656 216.449C264.766 232.909 264.086 249.739 263.366 265.529L262.286 266.639C262.286 266.639 250.006 279.269 249.406 279.219C243.466 283.129 236.986 286.569 230.146 285.979C227.946 285.789 223.416 284.529 221.456 283.189C217.686 280.599 215.116 276.469 214.316 271.859C212.596 262.049 216.156 252.129 219.746 242.819C224.766 229.799 237.816 200.589 244.966 188.099" fill="#FEBE69"/>
<path d="M31.2956 144.649C31.8656 142.009 32.4256 139.699 33.0356 137.569C16.6856 136.509 5.81561 148.999 7.93561 163.109C9.65561 174.489 12.2556 192.299 14.0956 204.909C19.4856 203.879 26.1956 202.599 33.9156 201.119C31.4656 197.919 29.7256 194.579 28.4656 190.229C25.7656 180.929 26.3156 170.409 28.1356 160.829C29.4056 154.149 30.3656 148.959 31.2956 144.639V144.649Z" fill="white"/>
<path d="M84.4156 91.3388C87.3156 92.6788 91.4156 94.1888 94.4956 94.7788C95.6856 95.0088 96.9056 95.1788 98.1756 95.2888C101.736 95.6088 105.026 95.3588 108.126 94.5288C108.376 95.2388 108.536 95.6988 108.536 95.6988C108.596 96.0988 108.646 96.4988 108.806 96.8388C108.986 97.1988 109.256 97.4788 109.536 97.7288C110.906 98.9788 112.386 100.009 113.946 100.809C113.876 101.989 113.756 103.259 113.616 104.589C109.296 108.149 103.866 109.599 98.1556 109.949C91.3356 110.359 83.1556 109.669 74.7956 106.149C73.5056 103.509 72.2656 100.439 72.1156 97.9688C72.8656 97.1888 73.4356 96.2788 73.6856 95.4388C74.8956 91.4288 75.3756 89.0388 75.8656 85.5088C77.5256 86.9588 80.5456 89.3388 84.4056 91.3388" fill="white"/>
<path d="M78.6756 215.749L72.4656 217.929C57.3356 217.889 44.6656 213.119 36.6156 204.329C32.6956 200.059 30.1456 196.049 28.4656 190.249C25.7656 180.949 26.3156 170.429 28.1356 160.849C31.6356 142.379 32.8056 135.259 37.5356 126.549C45.2256 112.359 53.8056 109.139 68.4056 100.509L72.1156 97.9487C72.3356 101.709 75.0656 106.829 76.7056 109.759C78.9456 113.739 80.1856 115.899 82.8656 121.149C88.7856 132.759 92.8456 140.439 98.2856 151.119L99.8456 153.929L100.466 155.049C105.106 147.969 113.296 115.379 114.006 99.7887C114.746 100.029 115.296 100.209 115.296 100.209L118.146 101.139C134.846 107.089 142.616 116.839 145.466 135.159C147.996 151.389 147.846 169.149 147.716 186.259C147.526 189.239 147.416 190.759 144.426 192.659C144.426 192.659 96.1256 209.619 78.6556 215.749H78.6756Z" fill="#C6C6C6"/>
<path d="M99.8456 153.919L98.2856 151.109C92.8456 140.429 88.7856 132.749 82.8656 121.139C80.1856 115.889 78.9456 113.729 76.7056 109.749C76.1456 108.749 75.4656 107.509 74.7956 106.139C83.1456 109.669 91.3356 110.359 98.1556 109.949C103.866 109.599 109.296 108.149 113.616 104.589C111.816 121.029 104.866 147.849 100.646 154.749" fill="#7ABEE6"/>
<path d="M135.786 58.8988C134.496 51.5788 132.856 42.7588 131.216 35.4988C128.676 24.4088 126.426 18.5088 120.946 12.5988C116.026 7.84879 105.716 2.07879 93.2156 2.00879C85.5856 1.97879 80.2156 3.32879 75.0456 5.38879L74.1056 5.90879C74.1056 5.90879 73.8156 6.06879 73.4956 6.24879C71.0856 7.13879 67.2556 9.32879 65.2456 11.1088C64.7056 11.5788 64.1556 12.0388 63.6256 12.5188C63.3956 12.7188 63.1756 12.9288 62.9656 13.1488C60.3156 15.7888 58.1456 18.9388 56.4856 22.2788C53.6356 28.0388 52.8656 36.5788 51.4156 43.2288C49.6856 51.1288 47.8856 56.5388 46.6256 63.1988C45.8056 67.5588 46.4356 72.9588 49.3356 77.8288C53.2656 84.4188 60.1756 88.2588 69.7756 87.8988C69.7756 87.8988 73.0056 87.7788 75.7156 87.6688C75.7456 87.4788 75.7756 87.2888 75.8056 87.0888L76.0856 85.6788C75.0256 84.7688 74.4456 84.1788 74.4456 84.1788C72.5156 82.1888 70.9456 80.1388 69.4856 77.9688C69.4856 77.9688 68.0556 75.7688 67.4556 74.5088C67.4556 74.5088 67.2956 74.1788 67.0456 73.6588C64.8656 73.8888 62.4956 73.0888 61.5556 72.5288C58.5956 70.7288 57.2056 68.1688 56.2856 66.3188C54.9956 63.7088 54.4156 59.3088 55.5756 56.7488C55.9656 55.8888 56.9356 54.3988 59.5756 53.9988C60.7856 53.8188 62.2556 54.0088 63.4256 54.8488L70.5756 51.7688C76.9456 49.5488 81.8156 47.7288 88.8956 44.2388C99.4556 39.0188 104.066 35.2288 110.406 28.0388L115.286 30.6588C122.336 37.1288 129.566 52.0288 129.186 58.3888C128.816 61.7288 128.496 65.0088 128.156 68.1188C127.406 74.9388 125.566 81.2388 121.736 85.9288H121.896C127.386 84.2688 131.326 81.4688 133.816 77.1188C136.976 71.5488 136.896 65.2188 135.796 58.9088L135.786 58.8988Z" fill="#645D5C"/>
<path d="M122.426 87.8487C126.606 86.5487 130.626 84.4587 133.466 81.0487C136.676 77.1987 138.216 72.3887 138.446 67.4187C138.676 62.4487 137.496 57.0587 136.566 51.9787C135.636 46.8987 134.576 41.4287 133.416 36.1787C131.616 28.0587 129.456 19.9287 124.196 13.3087C118.936 6.68874 111.056 3.09874 103.356 1.24874C97.6956 -0.111262 91.8156 -0.321262 86.0556 0.428738C81.6856 0.998738 76.9756 2.00874 73.0956 4.17874C70.8456 5.43874 72.8656 8.88874 75.1156 7.62874C77.7456 6.15874 81.5556 5.18874 84.8556 4.61874C89.4756 3.81874 94.3856 3.70874 99.0156 4.44874C103.256 5.12874 107.406 6.41874 111.236 8.34874C114.196 9.82874 117.186 11.6387 119.536 14.0087C124.626 19.1587 126.896 26.1987 128.586 33.0487C129.746 37.7487 130.706 42.4987 131.626 47.2587C132.546 52.0187 133.586 56.7587 134.186 61.5387C134.846 66.7787 134.546 72.2787 131.636 76.8387C129.276 80.5287 125.466 82.7187 121.366 83.9887C118.916 84.7487 119.956 88.6087 122.426 87.8487Z" fill="#211715"/>
<path d="M73.2456 4.21886C66.3656 6.66886 60.5356 11.7589 56.6656 17.8789C52.5656 24.3389 51.5356 31.7189 50.1956 39.1089C48.8556 46.4989 46.4956 53.8289 44.9756 61.2689C44.2156 64.9689 44.0756 68.5889 44.9456 72.2889C45.8156 75.9889 47.5356 79.2089 49.8956 82.0289C54.8056 87.8689 62.3556 90.1489 69.7756 89.9089C72.3456 89.8289 72.3556 85.8289 69.7756 85.9089C63.9756 86.0889 58.1256 84.6989 53.9156 80.4989C49.3256 75.9289 47.4656 69.2389 48.7156 62.9389C50.0756 56.0589 52.2356 49.3589 53.6156 42.4789C54.9056 36.0689 55.3456 29.0289 58.3156 23.0989C61.6256 16.4989 67.2356 10.5989 74.3156 8.07886C76.7256 7.21886 75.6856 3.35886 73.2556 4.21886H73.2456Z" fill="#211715"/>
<path d="M267.516 165.239C271.316 158.109 280.406 152.849 288.446 150.539C295.666 148.459 303.216 147.149 310.796 147.169C313.186 147.149 315.226 148.589 315.636 150.579L316.426 154.459" fill="white"/>
<path d="M269.246 166.249C272.726 159.859 279.696 155.699 286.366 153.309C290.536 151.819 294.946 150.829 299.316 150.109C301.556 149.739 303.806 149.479 306.066 149.319C307.246 149.239 308.426 149.189 309.616 149.169C310.426 149.159 311.276 149.079 312.066 149.359C314.176 150.109 314.126 153.119 314.506 154.989C315.016 157.509 318.876 156.439 318.366 153.929C317.886 151.569 317.716 148.879 315.886 147.119C314.376 145.659 312.376 145.159 310.326 145.169C307.646 145.169 304.966 145.359 302.306 145.679C293.096 146.779 283.576 149.019 275.716 154.149C271.746 156.739 268.096 160.029 265.806 164.239C264.576 166.499 268.026 168.519 269.256 166.259L269.246 166.249Z" fill="#211715"/>
<path d="M154.836 177.879C170.866 174.819 186.896 171.759 202.926 168.709H201.866C214.606 172.229 227.346 175.729 240.076 179.269C242.556 179.959 243.616 176.099 241.136 175.409C230.566 172.469 219.996 169.559 209.416 166.639C208.186 166.299 206.956 165.959 205.726 165.619C204.436 165.259 203.026 164.649 201.676 164.879C199.016 165.339 196.356 165.889 193.706 166.399C187.746 167.539 181.796 168.669 175.836 169.809C168.486 171.209 161.126 172.619 153.776 174.019C151.246 174.499 152.316 178.359 154.836 177.879Z" fill="#211715"/>
<path d="M353.056 222.969C355.416 213.049 355.336 202.389 353.336 192.419C352.406 187.789 350.936 183.289 348.696 179.119C346.276 174.639 343.166 170.509 339.726 166.759C335.766 162.449 331.246 158.569 326.216 155.569C323.996 154.249 321.986 157.699 324.196 159.019C332.446 163.939 339.546 171.359 344.396 179.629C349.246 187.899 350.646 197.009 350.786 206.139C350.866 211.429 350.436 216.739 349.206 221.899C348.606 224.399 352.466 225.469 353.066 222.959L353.056 222.969Z" fill="#211715"/>
<path d="M326.206 155.569C321.636 152.729 315.536 152.759 310.396 153.249C303.306 153.919 296.156 155.389 289.246 157.129C282.856 158.739 276.596 160.839 270.516 163.379C264.926 165.709 259.576 168.209 254.926 172.169C249.966 176.389 246.166 181.809 243.106 187.509C241.886 189.779 245.346 191.799 246.556 189.529C249.136 184.719 252.206 180.169 256.186 176.399C260.166 172.629 264.956 170.109 269.996 167.909C282.066 162.659 294.756 159.539 307.736 157.579C311.126 157.069 314.596 156.869 318.016 157.179C320.086 157.359 322.436 157.939 324.176 159.019C326.366 160.379 328.376 156.919 326.196 155.569H326.206Z" fill="#211715"/>
<path d="M262.516 283.039C263.606 262.619 264.426 239.179 265.656 216.439C266.096 208.389 271.026 201.309 278.766 199.079C301.756 192.449 335.246 182.669 358.376 175.949C367.396 173.329 376.636 180.149 376.346 189.539C375.866 204.909 372.926 224.849 371.466 239.939" fill="white"/>
<path d="M264.516 283.039C265.506 264.409 266.196 245.759 267.106 227.119C267.466 219.699 266.746 211.309 272.166 205.439C274.466 202.949 277.246 201.589 280.456 200.669C283.976 199.649 287.496 198.629 291.016 197.619C306.616 193.099 322.216 188.559 337.816 184.019C344.996 181.929 352.166 179.569 359.416 177.739C365.346 176.249 371.926 179.669 373.796 185.569C374.866 188.949 374.236 192.789 374.006 196.259C373.726 200.499 373.336 204.739 372.896 208.969C372.036 217.369 370.976 225.739 370.056 234.129C369.846 236.069 369.636 238.009 369.456 239.949C369.356 241.029 370.446 241.949 371.456 241.949C372.626 241.949 373.346 241.029 373.456 239.949C374.296 231.349 375.386 222.779 376.336 214.199C376.816 209.819 377.276 205.439 377.636 201.049C377.976 196.969 378.466 192.769 378.336 188.679C378.106 181.549 372.826 175.329 365.876 173.799C362.126 172.979 358.756 173.769 355.146 174.819C351.536 175.869 347.716 176.979 344.006 178.059C327.796 182.779 311.596 187.499 295.386 192.199C291.596 193.299 287.796 194.399 284.006 195.499C280.506 196.509 276.786 197.269 273.626 199.159C270.466 201.049 268.076 203.629 266.376 206.719C264.496 210.149 263.786 213.809 263.576 217.679C262.526 237.269 261.806 256.869 260.836 276.459C260.726 278.669 260.616 280.869 260.496 283.069C260.356 285.639 264.356 285.629 264.496 283.069L264.516 283.039Z" fill="#211715"/>
<path d="M243.226 187.079C239.526 193.559 236.296 200.329 233.126 207.089C229.456 214.889 225.936 222.759 222.556 230.689C219.176 238.619 215.596 246.799 213.436 255.239C210.856 265.339 210.676 277.579 219.826 284.459C221.676 285.849 223.976 286.629 226.196 287.229C228.596 287.879 231.046 288.189 233.536 287.949C239.736 287.339 245.296 284.309 250.416 280.939L249.406 281.209C250.786 281.069 251.786 279.909 252.746 278.999C254.266 277.569 255.746 276.089 257.216 274.619C259.396 272.439 261.556 270.249 263.696 268.049C265.496 266.199 262.666 263.369 260.866 265.219C256.946 269.239 253.086 273.419 248.876 277.129C248.736 277.249 248.586 277.369 248.446 277.499C248.286 277.649 248.906 277.269 248.466 277.469C249.756 276.889 249.476 277.129 248.866 277.289C248.406 277.419 248.036 277.729 247.646 277.979C246.836 278.499 246.016 279.019 245.186 279.509C242.396 281.159 239.476 282.619 236.316 283.429C233.576 284.139 230.806 284.239 228.086 283.589C225.826 283.049 223.466 282.349 221.646 280.849C216.666 276.739 215.526 270.409 215.936 264.259C216.406 257.169 218.966 250.359 221.486 243.789C224.806 235.149 228.556 226.669 232.366 218.239C236.816 208.409 241.316 198.499 246.666 189.109C247.946 186.869 244.486 184.849 243.216 187.089L243.226 187.079Z" fill="#211715"/>
<path d="M224.126 226.019C218.236 224.519 212.956 228.589 210.926 233.918C209.866 236.688 209.656 239.769 209.886 242.709C210.026 244.429 210.286 246.129 210.586 247.829C210.776 248.859 211.566 250.859 210.966 251.829C209.616 254.029 213.066 256.039 214.416 253.849C215.866 251.509 214.736 248.539 214.316 246.049C213.856 243.339 213.526 240.468 214.016 237.728C214.776 233.498 218.116 228.629 223.056 229.879C225.556 230.509 226.616 226.659 224.116 226.019H224.126Z" fill="#211715"/>
<path d="M2.50561 209.169C12.3056 207.299 22.1056 205.419 31.9056 203.549C34.4356 203.069 33.3656 199.209 30.8456 199.689C21.0456 201.559 11.2456 203.439 1.44561 205.309C-1.08439 205.789 -0.0143902 209.649 2.50561 209.169Z" fill="#211715"/>
<path d="M22.7256 136.749C13.4956 139.709 6.84561 147.509 5.80561 157.189C5.28561 161.979 6.49561 166.879 7.20561 171.599C7.99561 176.929 8.78561 182.249 9.56561 187.579C10.4356 193.539 11.3056 199.499 12.1756 205.449C12.3356 206.519 13.6856 207.109 14.6356 206.849C15.7856 206.529 16.1856 205.459 16.0356 204.389C14.5656 194.319 13.0956 184.239 11.6056 174.169C11.2556 171.809 10.9056 169.449 10.5556 167.079C10.2356 164.939 9.80561 162.789 9.70561 160.629C9.52561 156.469 10.5556 152.379 12.7956 148.859C15.3356 144.869 19.3156 142.029 23.7956 140.589C26.2356 139.809 25.1956 135.939 22.7356 136.729L22.7256 136.749Z" fill="#211715"/>
<path d="M74.2756 108.079C81.0956 110.919 88.4956 112.199 95.8756 112.039C102.806 111.889 109.596 110.409 115.076 105.959C115.916 105.279 115.786 103.839 115.076 103.129C114.246 102.299 113.086 102.449 112.246 103.129C107.436 107.039 101.106 107.999 95.0956 108.049C88.2956 108.099 81.6156 106.829 75.3356 104.219C74.3356 103.809 73.1356 104.669 72.8756 105.619C72.5556 106.769 73.2756 107.659 74.2756 108.079Z" fill="#211715"/>
<path d="M57.8156 158.199C56.2456 164.089 54.9756 170.069 55.5656 176.179C55.8456 179.129 56.4256 181.779 58.2456 184.199C60.4956 187.199 63.5656 188.789 66.9456 190.229C69.9756 191.519 73.0556 192.429 76.2756 193.089C78.7856 193.599 79.8656 189.749 77.3356 189.229C74.1356 188.569 71.0256 187.699 68.0356 186.369C64.5456 184.819 60.9956 182.829 59.9656 178.829C58.3156 172.409 60.0156 165.469 61.6756 159.249C62.3356 156.759 58.4856 155.699 57.8156 158.189V158.199Z" fill="#211715"/>
<path d="M72.4656 215.919C61.1056 215.859 49.1056 213.089 40.4556 205.309C36.3156 201.579 32.8656 196.949 31.0156 191.659C28.7656 185.219 28.3156 178.319 28.7456 171.559C29.1756 164.799 30.6156 158.299 31.8956 151.739C32.7956 147.079 33.7156 142.399 35.0456 137.839C37.4856 129.519 41.8856 121.469 48.4356 115.579C52.3556 112.049 56.9556 109.399 61.5156 106.779C65.4756 104.509 69.3656 102.259 73.1256 99.6586C75.2256 98.2086 73.2356 94.7386 71.1056 96.2086C67.7356 98.5286 64.2856 100.589 60.7256 102.619C56.2256 105.189 51.7256 107.779 47.6556 111.019C40.1756 116.959 34.9256 125.479 31.9056 134.469C30.4356 138.859 29.4756 143.409 28.5656 147.939C27.2156 154.709 25.7256 161.519 25.0056 168.389C24.2856 175.259 24.4256 182.929 26.2856 189.919C27.9156 196.009 31.0356 201.249 35.3056 205.859C44.7456 216.039 58.9656 219.839 72.4556 219.919C75.0256 219.929 75.0356 215.929 72.4556 215.919H72.4656Z" fill="#211715"/>
<path d="M80.1356 214.449C81.5756 217.519 85.3956 218.349 88.7156 219.039C91.2156 219.549 94.9356 218.939 97.3356 219.599C98.6456 219.959 100.046 221.629 101.326 222.079C102.836 222.609 104.256 222.099 104.896 220.999C105.516 219.939 105.746 218.689 105.366 217.899C105.156 217.459 104.906 217.049 104.636 216.679C106.646 216.569 108.946 216.429 108.946 216.429C112.126 218.889 116.636 220.129 120.046 219.849C122.506 219.649 125.706 219.489 127.316 217.219C132.606 211.509 134.246 209.209 138.866 203.009C140.216 201.469 141.136 198.039 140.166 196.089C138.586 192.859 134.046 188.849 129.606 186.609C128.316 185.959 126.786 185.919 125.456 186.479C121.686 188.069 116.896 188.649 113.226 190.319C112.936 190.459 112.646 190.589 112.376 190.739C112.156 190.849 112.126 190.969 110.406 191.829C108.196 190.669 105.756 189.929 103.266 189.729C101.036 189.549 90.9556 190.479 87.3356 191.139C84.9356 191.569 82.4156 192.849 80.6356 194.519C78.4556 196.579 77.5156 199.619 76.7756 202.529C76.0256 205.509 75.3856 208.629 76.0756 211.629L77.8656 212.879L80.1556 214.479L80.1356 214.449Z" fill="white"/>
<path d="M107.926 218.149C112.476 221.569 118.346 222.509 123.856 221.389C124.996 221.159 126.146 220.749 127.116 220.109C128.436 219.229 129.446 217.839 130.506 216.669C132.176 214.809 133.796 212.909 135.346 210.939C137.036 208.779 138.646 206.569 140.306 204.389C141.856 202.349 142.796 199.819 142.506 197.219C142.216 194.619 140.226 192.329 138.406 190.529C136.246 188.389 133.696 186.459 130.976 185.059C129.336 184.219 127.566 183.829 125.746 184.279C124.156 184.669 122.626 185.399 121.036 185.839C117.756 186.749 114.226 187.369 111.236 189.079C109.006 190.359 111.016 193.819 113.256 192.529C115.496 191.239 118.056 190.759 120.466 190.129C121.686 189.809 122.906 189.489 124.106 189.099C125.306 188.709 126.476 187.959 127.716 188.099C128.866 188.229 129.986 189.059 130.946 189.669C132.046 190.369 133.106 191.139 134.096 191.989C135.646 193.319 137.746 195.099 138.456 197.099C139.036 198.729 138.116 200.729 137.156 201.999C135.736 203.859 134.376 205.759 132.936 207.609C131.676 209.239 130.356 210.829 128.996 212.379C128.186 213.299 127.366 214.209 126.536 215.109C125.776 215.939 125.206 216.759 124.116 217.169C122.166 217.929 119.556 218.029 117.496 217.779C114.766 217.439 112.156 216.329 109.966 214.689C109.106 214.039 107.726 214.549 107.226 215.409C106.626 216.429 107.076 217.499 107.946 218.149H107.926Z" fill="#211715"/>
<path d="M118.696 199.389C119.246 199.269 119.776 199.099 120.296 198.889C120.926 198.639 121.536 198.369 122.106 198.009C122.536 197.729 122.886 197.319 123.026 196.809C123.106 196.539 123.126 196.279 123.066 196.009C123.056 195.739 122.976 195.499 122.826 195.269C122.546 194.839 122.136 194.469 121.626 194.349C121.116 194.229 120.546 194.259 120.086 194.549C119.696 194.799 119.296 194.999 118.866 195.179L119.346 194.979C118.786 195.209 118.216 195.399 117.626 195.529C117.146 195.639 116.676 196.039 116.426 196.449C116.276 196.679 116.196 196.929 116.186 197.189C116.126 197.459 116.136 197.719 116.226 197.989C116.386 198.469 116.686 198.939 117.146 199.189C117.636 199.449 118.146 199.509 118.686 199.389H118.696Z" fill="#211715"/>
<path d="M100.566 215.849C101.626 216.249 102.536 217.109 103.146 218.039C103.586 218.709 103.756 219.959 102.736 220.259C101.716 220.559 100.496 219.159 99.7656 218.639C98.6056 217.819 97.3756 217.499 95.9656 217.359C93.2456 217.079 90.5856 217.429 87.8956 216.829C85.6156 216.319 83.0056 215.699 81.8656 213.449C80.7256 211.199 77.2456 213.179 78.4156 215.469C80.1056 218.789 83.7656 220.019 87.1756 220.759C89.0756 221.169 90.9256 221.279 92.8556 221.269C94.5556 221.269 96.3056 221.079 97.7456 222.099C99.3156 223.209 100.696 224.419 102.776 224.279C104.856 224.139 106.436 222.769 107.176 220.799C108.636 216.889 105.026 213.289 101.636 211.999C100.626 211.619 99.4456 212.429 99.1756 213.399C98.8656 214.529 99.5556 215.469 100.576 215.859L100.566 215.849Z" fill="#211715"/>
<path d="M121.026 203.529C121.196 198.109 116.766 193.299 112.406 190.639C108.746 188.419 104.636 187.519 100.406 187.749C96.7456 187.949 93.0756 188.309 89.4356 188.789C84.9656 189.379 80.6556 190.869 77.8656 194.649C76.1956 196.909 75.3856 199.729 74.7256 202.429C73.9356 205.639 73.4556 208.869 74.1356 212.149C74.6556 214.669 78.5156 213.599 77.9956 211.089C77.5056 208.699 77.9256 206.289 78.4756 203.949C78.9556 201.919 79.4656 199.819 80.4856 197.979C82.3256 194.649 85.8956 193.299 89.4656 192.799C92.4656 192.379 95.6656 192.089 98.7556 191.869C101.846 191.649 104.756 191.619 107.786 192.809C111.926 194.429 117.186 198.649 117.036 203.549C116.956 206.119 120.956 206.119 121.036 203.549L121.026 203.529Z" fill="#211715"/>
<path d="M103.186 201.069C104.456 201.279 105.696 201.579 106.916 201.999C107.166 202.089 107.406 202.179 107.646 202.269C107.816 202.339 107.976 202.409 107.716 202.299C107.846 202.359 107.966 202.409 108.086 202.469C108.556 202.689 109.016 202.929 109.466 203.189C109.856 203.419 110.236 203.669 110.596 203.929C110.636 203.959 110.936 204.229 110.716 204.019C110.496 203.809 110.766 204.059 110.816 204.109C110.976 204.239 111.136 204.379 111.286 204.519C111.656 204.859 111.986 205.229 112.306 205.609C112.386 205.709 112.466 205.799 112.546 205.899C112.926 206.359 112.436 205.739 112.636 206.009C112.836 206.279 113.016 206.529 113.196 206.789C113.776 207.659 114.986 208.119 115.936 207.509C116.796 206.949 117.276 205.699 116.656 204.769C115.306 202.769 113.706 201.059 111.626 199.809C109.386 198.459 106.836 197.629 104.266 197.209C103.236 197.039 102.066 197.479 101.806 198.609C101.586 199.569 102.096 200.889 103.206 201.069H103.186Z" fill="#211715"/>
<path d="M103.416 208.939C103.496 208.939 103.566 208.949 103.646 208.959C104.006 208.989 103.466 208.909 103.436 208.929C103.526 208.889 103.806 208.999 103.906 209.019C104.246 209.099 104.586 209.199 104.926 209.319C105.006 209.349 105.086 209.379 105.176 209.409C105.496 209.529 104.816 209.249 105.046 209.349C105.206 209.419 105.376 209.499 105.536 209.579C105.886 209.749 106.216 209.939 106.546 210.139C106.706 210.239 106.856 210.339 107.006 210.449C107.086 210.499 107.156 210.559 107.236 210.609C107.496 210.799 107.236 210.629 107.146 210.529C107.406 210.789 107.716 210.999 107.976 211.259C108.236 211.519 108.496 211.809 108.736 212.089C108.886 212.259 108.426 211.659 108.646 211.979C108.696 212.049 108.746 212.119 108.796 212.189C108.906 212.339 108.996 212.499 109.096 212.669C109.616 213.579 110.926 213.969 111.836 213.389C112.746 212.809 113.116 211.619 112.556 210.649C111.616 209.009 110.166 207.689 108.576 206.689C106.986 205.689 105.276 205.069 103.446 204.939C102.396 204.869 101.396 205.909 101.446 206.939C101.496 208.089 102.326 208.859 103.446 208.939H103.416Z" fill="#211715"/>
<path d="M96.0056 61.0988C96.4656 59.3888 96.0056 55.4988 92.7756 55.2788C88.5356 55.4488 88.4656 60.1688 89.9756 62.3388C91.2056 64.1088 94.6756 64.7488 96.0056 61.0988Z" fill="#211715"/>
<path d="M121.226 61.0387C121.646 59.3187 121.226 55.4187 118.266 55.1987C114.376 55.3687 114.326 60.1087 115.696 62.2787C116.826 64.0587 119.996 64.6987 121.226 61.0387Z" fill="#211715"/>
<path d="M104.956 66.8388C105.546 67.8388 106.146 68.8488 106.616 69.9188L106.416 69.4388C106.476 69.5888 106.526 69.7288 106.546 69.8888L106.476 69.3588C106.476 69.4188 106.476 69.4788 106.476 69.5488L106.546 69.0188C106.546 69.0788 106.526 69.1288 106.506 69.1888L106.706 68.7088C106.706 68.7088 106.666 68.7788 106.646 68.8088L106.956 68.4088C106.866 68.5088 106.766 68.5988 106.666 68.6788L107.066 68.3688C106.956 68.4488 106.846 68.5188 106.716 68.5788L107.196 68.3788C107.056 68.4288 106.926 68.4688 106.776 68.4888L107.306 68.4188C106.976 68.4588 106.656 68.4888 106.326 68.5388C105.866 68.6088 105.356 69.0788 105.126 69.4588C104.876 69.8888 104.766 70.5188 104.926 70.9988C105.086 71.4788 105.386 71.9488 105.846 72.1988L106.326 72.3988C106.676 72.4988 107.036 72.4988 107.386 72.3988H107.426C107.246 72.4188 107.076 72.4388 106.896 72.4688C107.276 72.4188 107.666 72.4088 108.036 72.3188C108.636 72.1588 109.146 71.8288 109.606 71.4288C110.166 70.9288 110.476 70.1988 110.466 69.4488C110.466 68.8088 110.216 68.2588 109.946 67.6888C109.476 66.7188 108.956 65.7788 108.406 64.8488C108.146 64.4188 107.696 64.0688 107.206 63.9288C106.716 63.7888 106.086 63.8588 105.666 64.1288C104.756 64.7088 104.376 65.8988 104.946 66.8688L104.956 66.8388Z" fill="#211715"/>
<path d="M64.4356 53.1187C61.8456 51.3887 58.1356 51.5987 55.6856 53.4987C53.6556 55.0687 52.9856 57.5987 52.9556 60.0687C52.8856 65.4987 55.7856 71.5487 60.6156 74.2887C63.3656 75.8487 67.0156 76.1987 69.8956 74.8787C70.8756 74.4287 71.1156 73.0087 70.6156 72.1387C70.0256 71.1287 68.8656 70.9687 67.8756 71.4187C66.8856 71.8687 65.5356 71.7387 64.4756 71.4887C63.2856 71.2087 62.6956 70.9887 61.6556 70.1887C59.8456 68.7987 58.4056 66.5887 57.6756 64.4787C56.9456 62.3687 56.4656 59.4487 57.4156 57.5287C57.5056 57.3487 57.6056 57.1787 57.7256 57.0187C57.4756 57.3687 57.8156 56.9287 57.8656 56.8787C58.1556 56.5887 58.4156 56.3987 58.9256 56.1987C60.1156 55.7487 61.3556 55.8587 62.4156 56.5687C63.3156 57.1687 64.6256 56.7487 65.1556 55.8487C65.7256 54.8687 65.3356 53.7087 64.4356 53.1087V53.1187Z" fill="#211715"/>
<path d="M85.4256 89.6085C81.9056 87.7685 78.7756 85.6385 76.0056 82.9185C73.2356 80.1985 70.8556 76.9285 69.1756 73.4985C68.6956 72.5285 67.3256 72.2685 66.4356 72.7785C65.4456 73.3585 65.2456 74.5385 65.7156 75.5185C66.5256 77.1685 67.5356 78.7285 68.5956 80.2185C69.9756 82.1585 71.4656 84.0785 73.1656 85.7485C76.1356 88.6785 79.7056 91.1385 83.3956 93.0585C85.6756 94.2485 87.6956 90.7985 85.4156 89.6085H85.4256Z" fill="#211715"/>
<path d="M83.4056 93.0689C92.2456 97.1089 102.446 99.2189 111.766 95.4089C116.096 93.6389 120.286 90.8789 123.246 87.2089C126.206 83.5389 127.936 79.3689 129.006 74.9389C130.426 69.0289 130.676 62.8589 131.356 56.8389C131.476 55.7589 130.346 54.8389 129.356 54.8389C128.176 54.8389 127.476 55.7589 127.356 56.8389C126.366 65.6289 126.406 75.3689 121.386 83.0389C116.816 89.9989 108.186 93.6889 100.036 93.4089C94.9356 93.2289 90.0556 91.7289 85.4456 89.6189C84.4656 89.1689 83.2956 89.3389 82.7056 90.3389C82.2056 91.1989 82.4356 92.6289 83.4256 93.0789L83.4056 93.0689Z" fill="#211715"/>
<path d="M108.986 26.6188C104.366 31.8488 99.3556 36.2388 93.2656 39.6788C85.8756 43.8488 78.0456 47.0488 70.0456 49.8388C67.6256 50.6788 68.6656 54.5488 71.1056 53.6988C79.4256 50.7988 87.5956 47.4688 95.2856 43.1288C101.656 39.5288 106.986 34.9088 111.816 29.4488C113.516 27.5288 110.696 24.6888 108.986 26.6188Z" fill="#211715"/>
<path d="M113.866 32.0689C117.946 35.8689 120.976 40.8089 123.436 45.7689C125.406 49.7289 127.706 54.6489 127.436 59.0189C127.276 61.5889 131.276 61.5789 131.436 59.0189C131.756 53.9389 129.226 48.5089 127.056 44.0689C124.426 38.7089 121.106 33.3389 116.696 29.2389C114.816 27.4889 111.976 30.3089 113.866 32.0689Z" fill="#211715"/>
<path d="M65.9056 73.7088C68.0456 73.8288 69.4456 75.4188 69.3456 77.1888C69.2356 79.1688 67.6456 80.4388 65.5356 80.3188C63.4256 80.1988 61.9856 78.7388 62.0956 76.7788C62.1956 74.9988 63.7656 73.5888 65.9056 73.7088Z" fill="white"/>
<path d="M65.9056 75.7087C66.0756 75.7187 66.4056 75.8187 65.8056 75.6787C65.8756 75.6987 65.9456 75.6987 66.0156 75.7187C66.1856 75.7487 66.3456 75.7987 66.5056 75.8587C66.6756 75.9187 66.8856 76.0887 66.3956 75.8087C66.4556 75.8387 66.5156 75.8687 66.5656 75.8987C66.6456 75.9387 66.7356 75.9887 66.8156 76.0387C66.9656 76.1287 67.1356 76.3487 66.7156 75.9387C66.8256 76.0487 66.9456 76.1387 67.0556 76.2487C67.1056 76.2987 67.1556 76.3687 67.2056 76.4187C67.3756 76.5887 66.9056 75.9687 67.0856 76.2587C67.1656 76.3887 67.2356 76.5087 67.3056 76.6387C67.4756 76.9387 67.1656 76.2087 67.2256 76.4487C67.2556 76.5487 67.2956 76.6387 67.3156 76.7387C67.3356 76.7987 67.3456 76.8587 67.3556 76.9087C67.4456 77.2587 67.3156 76.3687 67.3356 76.7287C67.3356 76.8787 67.3556 77.0287 67.3356 77.1787C67.3356 77.2487 67.3256 77.3087 67.3156 77.3787C67.3456 76.7587 67.3656 77.0487 67.3256 77.2187C67.2856 77.3887 67.2256 77.5387 67.1856 77.6987C67.1156 77.9387 67.4256 77.2087 67.2656 77.5087C67.2256 77.5687 67.1956 77.6387 67.1556 77.6987C67.1156 77.7587 67.0756 77.8187 67.0356 77.8787C66.8556 78.1687 67.3356 77.5487 67.1656 77.7187C67.0756 77.8087 66.9956 77.9087 66.8956 77.9987C66.7456 78.1287 66.5556 78.1787 67.0256 77.9087C66.9456 77.9487 66.8756 78.0087 66.8056 78.0587C66.6756 78.1387 66.5356 78.1887 66.4056 78.2687C66.9856 77.9487 66.5656 78.1987 66.3656 78.2487C66.2056 78.2887 66.0556 78.3187 65.8956 78.3487C66.6156 78.2087 65.9256 78.3287 65.7256 78.3187C65.5456 78.3187 65.3756 78.2887 65.1956 78.2787C65.8356 78.2987 65.3456 78.2987 65.1256 78.2387C64.9756 78.1987 64.8256 78.1287 64.6656 78.0887C65.1556 78.2187 65.0356 78.2587 64.8856 78.1787C64.7756 78.1187 64.6756 78.0687 64.5656 78.0087C64.5156 77.9787 64.4656 77.9487 64.4156 77.9087C64.1156 77.7187 64.7956 78.2487 64.5456 78.0087C64.4456 77.9087 64.3456 77.8087 64.2456 77.7087C64.1456 77.6087 64.0956 77.4387 64.3956 77.9187C64.3556 77.8587 64.3156 77.8087 64.2756 77.7487C64.1956 77.6187 64.1256 77.4787 64.0556 77.3387C64.3756 77.9287 64.1456 77.5387 64.0856 77.3287C64.0656 77.2387 64.0556 77.1487 64.0256 77.0687C64.1756 77.5787 64.0756 77.4987 64.0656 77.3287C64.0656 77.1687 64.0456 77.0187 64.0556 76.8587C64.0556 76.7687 64.0756 76.6687 64.0756 76.5787C64.0656 77.1587 64.0156 76.9487 64.0756 76.7587C64.0956 76.6887 64.1156 76.6187 64.1356 76.5387C64.1956 76.3387 64.3756 76.1487 64.0756 76.6387C64.1656 76.4887 64.2456 76.3287 64.3356 76.1787C64.4156 76.0487 64.5556 76.0087 64.1856 76.3687C64.2556 76.2987 64.3256 76.2087 64.3956 76.1387C64.4456 76.0887 64.5056 76.0387 64.5556 75.9887C64.8056 75.7487 64.1556 76.2587 64.4356 76.0787C64.5956 75.9787 64.7556 75.8887 64.9156 75.7987C65.2256 75.6287 64.5056 75.9487 64.7456 75.8687C64.8556 75.8287 64.9556 75.7887 65.0656 75.7587C65.1256 75.7387 65.1956 75.7287 65.2556 75.7087C65.7756 75.5887 64.8756 75.7187 65.2256 75.7087C65.4456 75.6987 65.6556 75.6887 65.8656 75.6987C66.9156 75.7487 67.9156 74.7487 67.8656 73.6987C67.8156 72.5787 66.9856 71.7487 65.8656 71.6987C64.7456 71.6487 63.5656 71.9187 62.5956 72.4987C61.5456 73.1387 60.8256 74.0587 60.3656 75.1887C59.5956 77.0887 60.1956 79.5887 61.7756 80.8987C63.6256 82.4287 66.1856 82.6987 68.3656 81.7287C70.2756 80.8787 71.5256 78.6687 71.2856 76.5887C71.1356 75.3087 70.6256 74.0887 69.6456 73.2187C68.5756 72.2587 67.2856 71.7987 65.8656 71.6987C64.8156 71.6287 63.8156 72.6687 63.8656 73.6987C63.9156 74.8387 64.7456 75.6187 65.8656 75.6987L65.9056 75.7087Z" fill="#211715"/>
<path d="M105.586 77.4688C105.496 77.5188 105.396 77.5588 105.306 77.5988C105.086 77.7088 105.676 77.4888 105.426 77.5488C105.236 77.5988 105.046 77.6888 104.846 77.7488C104.426 77.8788 104.006 77.9788 103.576 78.0488C103.476 78.0688 103.376 78.0788 103.276 78.0988C102.886 78.1688 103.536 78.0788 103.276 78.0988C103.046 78.1188 102.816 78.1488 102.586 78.1588C102.136 78.1888 101.676 78.1988 101.216 78.1788C101.016 78.1788 100.826 78.1588 100.626 78.1388C100.586 78.1388 100.136 78.0588 100.466 78.1288C100.766 78.1888 100.446 78.1288 100.386 78.1088C100.036 78.0488 99.6956 77.9588 99.3556 77.8588C99.1856 77.8088 99.0156 77.7488 98.8456 77.6888C98.7456 77.6488 98.6456 77.6088 98.5356 77.5688C98.3056 77.4888 98.8456 77.7488 98.6456 77.6088C98.4956 77.4988 98.2956 77.4188 98.1356 77.3288C97.8756 77.1888 98.2456 77.3588 98.2556 77.4288C98.2156 77.3888 98.1756 77.3588 98.1356 77.3088C98.0256 77.1888 98.0856 77.2588 98.2956 77.5088C97.7256 76.6388 96.4956 76.1888 95.5556 76.7888C94.6856 77.3488 94.2256 78.5888 94.8356 79.5288C95.5556 80.6188 96.6956 81.1688 97.8956 81.5788C98.8656 81.9088 99.8756 82.0888 100.906 82.1588C103.146 82.3088 105.546 81.9288 107.566 80.9188C108.506 80.4488 108.846 79.0488 108.286 78.1788C107.666 77.2188 106.556 76.9588 105.546 77.4588L105.586 77.4688Z" fill="#211715"/>
<path d="M114.776 102.129C119.596 103.699 124.266 105.549 128.496 108.399C132.986 111.419 136.546 115.489 138.996 120.309C141.946 126.109 143.196 132.619 144.026 139.019C145.176 147.929 145.586 156.919 145.726 165.889C145.806 171.009 145.796 176.129 145.766 181.249C145.756 183.419 145.906 185.679 145.606 187.839C145.396 189.319 144.686 190.109 143.436 190.929C141.296 192.339 143.296 195.799 145.456 194.379C146.836 193.469 148.156 192.399 148.866 190.869C149.576 189.339 149.696 187.659 149.736 186.019C149.866 181.159 149.806 176.279 149.786 171.419C149.736 161.839 149.476 152.239 148.466 142.699C147.666 135.169 146.556 127.599 143.536 120.599C141.196 115.169 137.616 110.379 132.956 106.729C127.856 102.739 121.956 100.269 115.846 98.2789C113.396 97.4789 112.346 101.339 114.786 102.139L114.776 102.129Z" fill="#211715"/>
<path d="M70.1156 97.9386C70.4356 102.169 72.4556 106.149 74.4556 109.819C76.2656 113.139 78.1556 116.409 79.9056 119.759C84.3156 128.219 88.6456 136.719 93.0156 145.209C94.6956 148.469 96.3356 151.729 98.1156 154.929C99.3656 157.179 102.826 155.169 101.566 152.909C93.7356 138.799 87.0556 124.069 79.1356 110.009C77.0756 106.349 74.4356 102.229 74.1056 97.9386C73.9056 95.3886 69.9056 95.3686 70.1056 97.9386H70.1156Z" fill="#211715"/>
<path d="M112.016 99.7488C111.656 107.389 110.166 114.999 108.556 122.459C106.846 130.389 104.846 138.299 102.216 145.979C101.236 148.849 100.456 151.219 98.9256 153.749C97.5956 155.959 101.046 157.969 102.376 155.769C103.706 153.569 104.676 150.969 105.556 148.489C106.826 144.959 107.906 141.349 108.906 137.739C111.236 129.349 113.156 120.819 114.556 112.229C115.226 108.099 115.806 103.929 115.996 99.7488C116.116 97.1788 112.116 97.1788 111.996 99.7488H112.016Z" fill="#211715"/>
<path d="M129.976 145.289C129.976 150.289 130.116 155.289 130.006 160.289C129.946 163.159 129.826 166.039 129.616 168.909C129.406 171.779 128.746 174.879 128.036 177.809C127.436 180.309 131.286 181.379 131.896 178.869C133.346 172.839 133.856 166.849 133.996 160.659C134.116 155.539 133.976 150.409 133.976 145.289C133.976 142.719 129.976 142.709 129.976 145.289Z" fill="#211715"/>
<path d="M60.8756 115.969C61.9756 116.519 63.0756 117.069 64.1656 117.629C64.7556 117.929 65.3556 118.239 65.9456 118.549C66.2956 118.729 66.6456 118.919 66.9856 119.099C67.1656 119.189 67.7156 119.689 67.5556 119.319L67.2856 118.309V118.569C67.3756 118.229 67.4656 117.899 67.5556 117.559C66.0256 120.859 60.1256 124.419 63.0256 128.529C64.8156 131.069 67.2056 133.329 69.2756 135.639C75.1856 142.239 81.1456 148.789 87.1156 155.329C88.8556 157.239 91.6756 154.399 89.9456 152.499C84.4056 146.429 78.8756 140.349 73.3856 134.239C71.3256 131.949 69.2756 129.649 67.2456 127.329C67.0556 127.109 66.3156 126.489 66.2656 126.229C66.1756 125.779 67.2856 124.629 67.5856 124.219C68.6756 122.709 70.1856 121.229 71.0156 119.569C72.2556 117.109 69.5256 115.899 67.7956 114.999C66.1756 114.149 64.5356 113.329 62.9056 112.509C60.6056 111.359 58.5856 114.809 60.8856 115.959L60.8756 115.969Z" fill="#211715"/>
<path d="M123.996 111.819C122.976 112.779 121.206 113.969 120.826 115.359C120.356 117.039 121.526 118.149 122.616 119.219C123.166 119.759 123.716 120.299 124.256 120.849C124.586 121.179 125.576 121.909 125.656 122.329V121.269C125.456 122.279 124.886 123.279 124.486 124.219C123.946 125.479 123.396 126.739 122.836 127.999C121.646 130.689 120.406 133.369 119.136 136.029C116.806 140.919 114.376 145.769 111.876 150.579C110.686 152.859 114.136 154.889 115.326 152.599C118.716 146.079 121.986 139.489 125.036 132.799C126.466 129.659 127.846 126.489 129.176 123.309C130.656 119.759 126.136 117.559 124.256 115.169L124.766 116.049C124.966 116.539 124.376 116.759 124.876 116.489C125.146 116.349 125.436 115.959 125.656 115.759L126.826 114.649C128.706 112.879 125.866 110.049 123.996 111.819Z" fill="#211715"/>
<path d="M74.2256 98.859C74.8756 97.479 75.4756 96.079 76.0056 94.659C76.1756 94.199 76.0456 93.529 75.8056 93.119C75.5656 92.709 75.0856 92.309 74.6056 92.199C74.0956 92.079 73.5156 92.109 73.0656 92.399L72.6656 92.709C72.4156 92.959 72.2456 93.249 72.1556 93.589C71.9356 94.179 71.7056 94.769 71.4556 95.349L71.6556 94.869C71.3756 95.529 71.0856 96.189 70.7756 96.839C70.6256 97.069 70.5456 97.319 70.5356 97.579C70.4756 97.849 70.4856 98.109 70.5756 98.379C70.7056 98.839 71.0656 99.349 71.4956 99.579C71.9556 99.829 72.5256 99.949 73.0356 99.779C73.5056 99.629 74.0156 99.329 74.2356 98.859H74.2256Z" fill="#211715"/>
</svg>
