<svg width="116" height="87" viewBox="0 0 116 87" fill="none" xmlns="http://www.w3.org/2000/svg">
<g filter="url(#filter0_d_46_866)">
<path d="M23.5333 62.0067C21.6596 62.5125 18.7607 62.5425 16.2478 62.498C16.1333 62.4961 15.4748 62.5043 14.7816 62.514C15.0105 63.8184 15.2231 64.9742 15.4057 65.8813L15.5775 66.1247C16.6744 67.4736 17.6531 67.9275 18.974 68.2538C21.455 68.7159 29.0951 69.0558 33.2015 69.22H34.5206V57.5304L33.0595 56.9507C31.914 56.5176 30.986 56.1833 29.6122 55.6366L27.9081 54.9219C27.8937 55.9889 27.7588 57.051 27.5059 58.0877C26.9626 60.6806 25.7126 61.1743 24.2263 61.7784C24.0002 61.8687 23.7688 61.9449 23.5333 62.0067Z" fill="white"/>
<path d="M38.1461 38.0471C37.9487 38.2357 37.6966 38.357 37.426 38.3935C36.5806 38.6024 35.7325 38.8041 34.8752 38.9821C34.1684 38.3147 33.1928 37.3825 32.4877 36.7258L33.2865 35.8491C33.2305 35.5398 33.2456 35.2217 33.3307 34.9191C33.4159 34.6164 33.5689 34.3372 33.7781 34.1025C34.1984 33.6573 34.8504 33.415 35.483 33.2474C35.7771 33.2002 36.058 33.0918 36.3077 32.9292C36.4416 32.8016 36.5551 32.6542 36.6441 32.492C36.9632 31.984 37.4004 31.5606 37.9183 31.2579C38.1435 31.1424 38.4036 31.1148 38.6481 31.1804C38.8471 31.2405 38.9048 31.3782 38.9227 31.6251C38.9272 31.8553 38.8748 32.083 38.7703 32.2881C38.5909 32.7039 38.364 33.0974 38.0939 33.4609L39.0515 34.36C39.1391 34.2959 39.2355 34.2278 39.3413 34.1546C39.4528 34.0515 39.5978 33.9922 39.7496 33.9877C39.9014 33.9833 40.0497 34.034 40.167 34.1305C40.2304 34.1769 40.2831 34.2365 40.3214 34.3051C40.3597 34.3738 40.3826 34.4499 40.3887 34.5283C40.9687 34.3443 41.5798 34.2786 42.1856 34.3351C42.6586 34.3752 42.9011 34.48 42.9383 34.8561C42.947 34.9772 42.9218 35.0982 42.8656 35.2058C42.8093 35.3133 42.7243 35.4031 42.6199 35.4651C42.5013 35.5241 42.3791 35.5758 42.2542 35.6202C41.2416 36.0173 40.1194 36.4282 39.4408 36.67L39.2036 36.7543C39.1092 36.897 39.0292 37.0151 38.9749 37.0924C38.7431 37.447 38.464 37.7682 38.1452 38.0471" fill="white"/>
<path d="M30.6388 15.9126C30.6349 15.5086 30.5997 15.1056 30.5335 14.707C29.4516 14.707 28.6494 14.707 28.6494 14.707C28.0719 15.5089 27.3866 16.2273 26.6129 16.8419C25.2512 17.9574 24.2517 18.4765 23.4173 18.6954C23.4173 18.6954 22.6175 18.9055 21.8175 19.1152C21.7079 19.0452 21.5886 18.9917 21.4634 18.9562C21.2979 18.901 21.1223 18.8832 20.9491 18.9041C20.7759 18.925 20.6095 18.984 20.4619 19.077C20.0457 19.3594 19.8377 19.9725 19.8455 20.4831C19.833 21.2206 20.0927 21.9369 20.575 22.495C20.5508 22.5615 20.5349 22.6006 20.5349 22.6006C20.1037 23.713 18.5094 25.4476 17.227 26.1089C17.4411 26.4198 17.574 26.7793 17.6135 27.1546C17.6124 27.3252 17.5962 27.4954 17.5652 27.6631C17.676 27.6104 17.8004 27.5935 17.9213 27.6148C20.439 28.059 23.2632 30.0881 24.2997 31.1898C24.6154 30.377 24.8775 29.7313 24.9667 29.5803C25.2182 29.1226 25.3972 28.6286 25.4974 28.116C25.5382 28.0248 25.6109 27.9516 25.7018 27.9102C25.7928 27.8688 25.8957 27.8619 25.9913 27.8909C26.8126 28.1443 28.097 28.0675 29.0446 27.758C29.6246 27.5623 30.1059 27.149 30.3871 26.6053C30.5846 26.2324 30.734 25.8359 30.8318 25.4253C30.9816 24.8436 31.0866 24.2511 31.1459 23.6533C31.2326 23.3576 31.3901 23.0876 31.6048 22.8665C31.9459 22.5238 32.4855 22.2663 32.2365 21.6416C32.1323 21.4087 31.954 21.2168 31.7292 21.0959C30.6202 20.4437 30.6342 18.7287 30.6408 17.4907C30.6995 16.8223 30.6849 16.1494 30.597 15.4841" fill="white"/>
<path d="M87.6454 17.2531C87.126 16.8593 86.623 16.4452 86.1364 16.0107C85.9033 16.8965 85.8116 17.8136 85.8646 18.728C85.8269 19.9752 85.7796 21.7049 84.6387 22.3224C84.4083 22.4361 84.222 22.623 84.109 22.8538C83.8358 23.4743 84.3704 23.7531 84.7015 24.1099C84.9097 24.3403 85.0585 24.6181 85.1349 24.9191C85.1731 25.5236 85.2576 26.1244 85.3876 26.716C85.4712 27.1332 85.6076 27.5381 85.7934 27.9209C86.0568 28.4791 86.5267 28.9133 87.104 29.1318C88.0478 29.4775 89.3399 29.6012 90.1764 29.3753C90.2737 29.3496 90.3772 29.3602 90.4673 29.4052C90.5574 29.4502 90.6281 29.5264 90.666 29.6198C90.8628 30.0349 91.0304 30.4633 91.1677 30.9017L91.3709 31.6169C92.3612 31.1466 93.6328 30.6123 94.6985 30.1901C95.2864 29.5905 95.5012 28.6171 95.4688 27.9528C95.4186 26.9192 95.019 25.922 94.6434 24.9452C95.8683 24.3896 96.5662 23.4801 96.6348 22.1293C96.6609 21.6148 96.4734 20.9897 96.064 20.6904C95.9185 20.5915 95.753 20.5262 95.5792 20.4991C95.4054 20.4721 95.2278 20.4839 95.0591 20.5339C94.9761 20.5542 94.8952 20.5824 94.8176 20.6182L94.1038 20.5865C93.5801 20.5362 93.07 20.3903 92.5989 20.1561C90.839 19.3872 89.1763 18.4127 87.6454 17.2531Z" fill="white"/>
<path d="M94.5819 30.2366C93.2463 30.768 91.6231 31.4618 90.6315 31.9847C90.4569 32.0775 90.3131 32.219 90.2175 32.3921C90.1219 32.5651 90.0787 32.7622 90.0931 32.9594C90.1066 33.1505 90.1204 33.3643 90.151 33.6875L89.1744 34.202C89.1207 34.5473 89.0974 34.8966 89.1046 35.246C89.0993 36.1453 89.0848 37.9466 89.0848 37.9466L89.0947 38.4592C89.3604 37.862 89.7158 37.1115 90.117 36.3765C90.3619 35.8713 90.6855 35.4083 91.0757 35.0047C92.525 33.3802 94.636 31.9652 96.3718 30.8815L96.3235 29.5771L96.2136 29.6156C95.8073 29.7598 95.2283 29.9793 94.5819 30.2366Z" fill="#3D8DCC"/>
<path d="M90.634 33.6873C90.6072 33.3996 90.5041 32.9909 90.6031 32.7114C90.6997 32.4358 90.9935 32.338 91.2353 32.2179C91.8283 31.9235 92.4334 31.6539 93.0414 31.392C94.1631 30.9089 95.2984 30.4444 96.4523 30.0429C97.0359 29.84 96.785 28.9062 96.1956 29.1113C94.881 29.5688 93.5899 30.1053 92.3145 30.6616C91.6672 30.9265 91.0336 31.2238 90.4162 31.5524C90.2331 31.6505 90.0717 31.7844 89.9416 31.9463C89.8115 32.1082 89.7154 32.2946 89.6591 32.4945C89.5932 32.8897 89.5961 33.2933 89.6678 33.6875C89.6711 33.8146 89.7231 33.9356 89.813 34.0255C89.9029 34.1154 90.0238 34.1674 90.1509 34.1707C90.2788 34.1698 90.4011 34.1186 90.4916 34.0282C90.582 33.9378 90.6332 33.8154 90.634 33.6875V33.6873Z" fill="#211715"/>
<path d="M89.5679 37.9465C89.5679 37.3385 89.5775 36.7303 89.5816 36.1223C89.5523 35.5244 89.5719 34.9251 89.6403 34.3304C89.6708 34.2069 89.6527 34.0764 89.5898 33.9659C89.5269 33.8553 89.4239 33.7731 89.3022 33.7362C89.1786 33.7032 89.0469 33.7202 88.9357 33.7835C88.8245 33.8467 88.7427 33.9512 88.708 34.0744C88.6226 34.729 88.5918 35.3896 88.6159 36.0493C88.6113 36.6817 88.6014 37.3144 88.6014 37.9465C88.6014 38.5683 89.5676 38.5692 89.5676 37.9465H89.5679Z" fill="#211715"/>
<path d="M87.1631 20.5069C87.0214 20.8661 87.0136 21.7205 87.6704 21.8514C88.5475 21.9239 88.6883 20.9023 88.4378 20.3941C88.2323 19.9779 87.5368 19.7506 87.1631 20.5069Z" fill="#211715"/>
<path d="M85.2441 26.1747C85.826 26.2037 86.4058 26.0835 86.9282 25.8254C87.038 25.7599 87.1176 25.654 87.15 25.5304C87.1824 25.4067 87.165 25.2753 87.1014 25.1645C87.0349 25.0559 86.929 24.9772 86.8058 24.9449C86.6826 24.9126 86.5517 24.9291 86.4405 24.991C86.3835 25.0217 86.3255 25.0495 86.2661 25.0749L86.3815 25.0265C86.1745 25.1103 85.9576 25.1672 85.7361 25.1956L85.8644 25.1782C85.6586 25.2037 85.4513 25.2142 85.2441 25.2096C85.1159 25.2096 84.9931 25.2605 84.9025 25.3511C84.8119 25.4417 84.761 25.5646 84.761 25.6928C84.761 25.8209 84.8119 25.9438 84.9025 26.0344C84.9931 26.125 85.1159 26.1759 85.2441 26.1759V26.1747Z" fill="#211715"/>
<path d="M91.6333 30.7738C91.5221 30.4161 91.3903 30.0652 91.2386 29.7228C91.1687 29.5152 91.0624 29.3217 90.9246 29.1515C90.8109 29.0398 90.6705 28.9591 90.5169 28.9168C90.3632 28.8745 90.2013 28.8721 90.0465 28.9099C89.7532 28.9721 89.4543 29.0045 89.1545 29.0065C88.4725 29.0193 87.795 28.8945 87.1624 28.6396C86.9016 28.5077 86.6701 28.3246 86.4816 28.1013C86.2932 27.878 86.1515 27.619 86.0652 27.3398C85.8268 26.6265 85.6818 25.8852 85.6338 25.1346C85.574 24.5068 85.2697 23.9276 84.7867 23.522C84.6485 23.3921 84.4727 23.2732 84.5422 23.0693C84.6251 22.8246 84.9389 22.7205 85.128 22.5783C85.5715 22.2227 85.8932 21.7378 86.0486 21.191C86.5049 19.7772 86.2049 18.2771 86.4474 16.8365C86.4777 16.7129 86.4596 16.5825 86.3967 16.4719C86.3338 16.3613 86.2309 16.2791 86.1092 16.242C85.9856 16.2091 85.8539 16.2261 85.7427 16.2893C85.6315 16.3526 85.5496 16.4571 85.5147 16.5802C85.4164 17.3411 85.3704 18.1078 85.3773 18.875C85.3766 19.4393 85.323 20.0023 85.2174 20.5567C85.1125 21.028 84.9365 21.5422 84.5217 21.8299C84.246 21.9836 84.0012 22.187 83.7997 22.4299C83.6939 22.5735 83.6198 22.7379 83.5823 22.9123C83.5449 23.0866 83.5448 23.267 83.5823 23.4413C83.7376 24.0368 84.3594 24.2764 84.5918 24.8197C84.6666 25.0634 84.7064 25.3165 84.7099 25.5714C84.7584 25.9998 84.8289 26.4254 84.921 26.8465C85.0565 27.6114 85.3969 28.3252 85.906 28.9119C86.3584 29.3519 86.9292 29.6506 87.5486 29.7713C88.3184 29.9699 89.119 30.0202 89.9076 29.9194C89.9893 29.9075 90.0707 29.8952 90.1514 29.8781L90.2287 29.8609C90.3156 29.8433 90.3289 29.838 90.269 29.8445C90.2175 29.7935 90.2907 29.9573 90.2956 29.9684C90.4492 30.3154 90.5845 30.6701 90.7009 31.0313C90.8801 31.625 91.812 31.3721 91.6326 30.7745L91.6333 30.7738Z" fill="#211715"/>
<path d="M90.9377 35.158C90.6038 35.5198 90.3268 35.9303 90.1164 36.3754C89.6092 37.3059 89.1729 38.2613 88.9002 38.899C88.2944 40.4492 88.0268 42.111 88.1151 43.7731C88.3417 45.8133 89.027 48.4141 89.3229 50.5451C89.201 50.6801 89.0658 50.8025 88.9195 50.9106C86.9578 52.3517 85.0039 53.48 82.6002 55.1105C82.5209 55.1561 82.4619 55.2303 82.4354 55.3179C82.4089 55.4054 82.4169 55.4999 82.4577 55.5818C83.1341 56.7987 85.1573 60.0489 85.8182 61.0545C85.8855 61.1559 85.9882 61.2286 86.1063 61.2583C86.2244 61.288 86.3493 61.2726 86.4566 61.2151C87.467 60.6822 89.6531 59.3935 91.8645 57.9353C94.0686 59.0154 96.37 59.8843 98.738 60.5305C100.042 60.8665 101.241 61.0559 102.162 61.0071C102.369 59.7658 102.578 58.485 102.784 57.2224C102.993 57.2297 102.07 54.4276 101.489 49.3632C101.331 47.9829 102.114 44.6287 102.275 43.6938C102.999 39.4927 102.455 36.6646 100.796 34.0526C100.452 33.4664 100.07 32.903 99.653 32.3661L99.4025 32.026C98.1485 32.0623 96.9038 31.7996 95.7714 31.2598C94.1682 32.2847 92.3604 33.5616 91.0739 35.0039C91.0372 35.0478 90.9904 35.0986 90.9377 35.158Z" fill="white"/>
<path d="M11.5114 17.1972C12.0569 17.2471 12.6064 17.2317 13.1482 17.1511L13.226 17.0813C13.2204 17.1443 13.2139 17.2074 13.21 17.2704C13.0754 19.793 13.9284 22.2689 15.5881 24.1733C16.0524 24.7164 16.7824 25.3937 17.2285 26.1058C18.5105 25.4437 20.103 23.7098 20.5349 22.5979C20.5349 22.5979 20.5501 22.5588 20.575 22.4924C20.0927 21.9342 19.833 21.218 19.8455 20.4804C19.8378 19.9698 20.0458 19.3567 20.462 19.0743C20.6096 18.9814 20.776 18.9223 20.9491 18.9014C21.1223 18.8805 21.298 18.8983 21.4635 18.9536C21.5886 18.989 21.7079 19.0425 21.8176 19.1125C22.6176 18.9028 23.4174 18.6927 23.4174 18.6927C24.2515 18.4734 25.2513 17.9543 26.6119 16.8395C27.3854 16.2256 28.0705 15.5082 28.648 14.7073H30.5321C30.4143 14.0791 30.2122 13.4697 29.9314 12.8956C29.7444 12.4849 28.7101 10.7508 26.418 9.62952C26.1982 9.52202 25.967 9.42009 25.7237 9.32564C24.3438 8.76654 22.8532 8.53399 21.3685 8.64614C19.813 8.74758 18.322 9.30587 17.0824 10.251L16.7911 9.78725C14.9802 7.47822 12.0532 8.54276 11.5943 10.3902C11.2911 11.6151 11.1781 12.3758 10.5522 13.4637C9.95752 14.4973 9.48939 14.6778 8.60312 15.0314C8.57448 15.0431 8.5488 15.061 8.52797 15.0838C8.50715 15.1067 8.4917 15.1339 8.48276 15.1635C8.47382 15.1931 8.47161 15.2243 8.47631 15.2549C8.481 15.2855 8.49247 15.3146 8.50988 15.3401C8.83019 15.8484 9.26025 16.2784 9.76849 16.5987C10.2767 16.9189 10.8503 17.1213 11.4469 17.1909C11.4677 17.1936 11.4892 17.1972 11.5114 17.1972Z" fill="#FEBE69"/>
<path d="M28.202 14.5027C27.5143 15.4045 26.7024 16.2045 25.7906 16.8789C25.0499 17.4837 24.2008 17.942 23.2888 18.2294C22.689 18.3908 22.9436 19.3232 23.5458 19.1611C24.5699 18.8452 25.5232 18.3342 26.3531 17.6562C27.3678 16.897 28.2711 15.9994 29.0368 14.9897C29.1006 14.8788 29.1182 14.7472 29.0857 14.6235C29.0533 14.4998 28.9734 14.3938 28.8634 14.3285C28.752 14.2669 28.6212 14.2505 28.4982 14.2828C28.3751 14.3151 28.2692 14.3936 28.2025 14.5019L28.202 14.5027Z" fill="#211715"/>
<path d="M17.1326 9.44528C16.7409 8.92812 16.2184 8.52479 15.6189 8.27687C15.0194 8.02894 14.3646 7.94539 13.7221 8.03483C13.195 8.11195 12.6953 8.31864 12.2677 8.63638C11.8402 8.95413 11.4981 9.37299 11.2722 9.85544C10.9957 10.4982 10.9217 11.2229 10.7167 11.8908C10.5285 12.5526 10.2195 13.1739 9.80529 13.7232C9.45479 14.1624 8.98038 14.3576 8.47529 14.5655C8.38274 14.5964 8.29772 14.6464 8.22577 14.7123C8.15381 14.7781 8.09652 14.8584 8.05763 14.9479C8.01874 15.0374 7.99911 15.134 8.00003 15.2316C8.00095 15.3291 8.02239 15.4254 8.06296 15.5141C8.24365 15.8455 8.47781 16.1448 8.75598 16.3999C9.96664 17.605 11.6435 17.8616 13.2767 17.6171C13.3999 17.5824 13.5045 17.5005 13.5678 17.3893C13.631 17.278 13.648 17.1463 13.6148 17.0226C13.5781 16.9007 13.4959 16.7976 13.3852 16.7347C13.2746 16.6717 13.1439 16.6537 13.0204 16.6845C12.1876 16.833 11.3302 16.755 10.5379 16.4586C9.91954 16.2004 9.17386 15.6588 8.89801 15.0247L8.96395 15.2687L8.95767 15.3139L8.78424 15.4871C9.09512 15.2907 9.47846 15.2078 9.79611 15.009C10.1362 14.7901 10.4313 14.5083 10.6657 14.1788C11.2066 13.401 11.5921 12.526 11.801 11.6019C11.9843 10.8772 12.0479 10.1434 12.6083 9.60639C13.0559 9.18898 13.6444 8.95559 14.2564 8.95274C15.1588 8.94622 15.9007 9.44431 16.4495 10.1286C16.5404 10.2185 16.6632 10.2689 16.791 10.2689C16.9189 10.2689 17.0416 10.2185 17.1326 10.1286C17.2204 10.0366 17.2694 9.91421 17.2694 9.78696C17.2694 9.65971 17.2204 9.53734 17.1326 9.44528Z" fill="#211715"/>
<path d="M25.3845 29.8245C25.5437 29.4636 25.6881 29.0974 25.8125 28.723C25.8497 28.6114 25.885 28.4991 25.9195 28.3865C25.9353 28.3503 25.9468 28.3124 25.9538 28.2735C25.9372 28.2493 25.9017 28.3276 25.8992 28.3513L25.8628 28.3564C25.9137 28.3725 25.9651 28.3866 26.0171 28.3989C26.071 28.4119 26.1256 28.423 26.1804 28.4341C26.3689 28.4694 26.5591 28.4945 26.7502 28.5093C27.1055 28.5357 27.4625 28.5299 27.8167 28.4921C28.4981 28.4594 29.1637 28.2758 29.7656 27.9546C30.3528 27.5661 30.8 26.9994 31.0414 26.3379C31.3166 25.6009 31.4982 24.8323 31.5818 24.0501C31.5956 23.7674 31.6995 23.4965 31.8784 23.2772C32.0523 23.0743 32.2845 22.9303 32.4594 22.7276C32.6751 22.4757 32.7835 22.1491 32.7611 21.8181C32.7388 21.4872 32.5875 21.1782 32.3398 20.9575C32.1516 20.7739 31.905 20.6698 31.7226 20.4826C31.544 20.2885 31.4126 20.0558 31.3386 19.8026C30.8905 18.4146 31.2661 16.9066 31.0784 15.4841C31.0744 15.3572 31.0222 15.2366 30.9325 15.1469C30.8427 15.0571 30.7222 15.005 30.5953 15.001C30.4674 15.0017 30.345 15.0529 30.2545 15.1433C30.1641 15.2338 30.1129 15.3562 30.1122 15.4841C30.2861 16.802 30.053 18.1262 30.2634 19.4437C30.3379 20.0213 30.5644 20.5687 30.9199 21.03C31.1077 21.2333 31.3216 21.411 31.556 21.5582C31.7064 21.6674 31.875 21.8467 31.7799 22.0344C31.6893 22.2129 31.4538 22.3399 31.3105 22.4764C31.0583 22.7231 30.8635 23.0223 30.74 23.3528C30.652 23.6658 30.5964 23.9869 30.5738 24.3113C30.5077 24.7176 30.4177 25.1197 30.3042 25.5154C30.1243 26.1292 29.8453 26.7715 29.2779 27.1208C28.7607 27.4401 28.066 27.5235 27.4706 27.5522C27.1113 27.5774 26.7503 27.558 26.3959 27.4945C26.0135 27.4167 25.6942 27.3136 25.3463 27.5669C25.1476 27.7324 25.0119 27.9611 24.9618 28.2148C24.8463 28.5965 24.7092 28.9714 24.5511 29.3376C24.4904 29.4491 24.4746 29.5796 24.5068 29.7025C24.539 29.8253 24.6169 29.9313 24.7246 29.9987C24.8354 30.0624 24.9669 30.0799 25.0906 30.0474C25.2142 30.015 25.3202 29.9352 25.3855 29.8253L25.3845 29.8245Z" fill="#211715"/>
<path d="M31.1219 15.9129C31.1187 14.6873 30.8079 13.4822 30.218 12.4079C29.7485 11.624 29.1432 10.9299 28.4305 10.3581C27.3042 9.45792 25.9987 8.8087 24.6012 8.4539C23.2037 8.09909 21.7466 8.04688 20.3273 8.30075C17.7668 8.75971 15.6199 10.4861 14.2474 12.6526C13.4093 13.9736 12.9003 15.4764 12.763 17.0348C12.6257 18.5932 12.8641 20.1618 13.4582 21.609C13.9509 22.7902 14.6468 23.8758 15.5144 24.8166C16.0356 25.3836 16.6204 25.9346 16.97 26.6317C17.2528 27.196 17.0762 27.8175 16.9185 28.397C16.7547 28.9977 17.6867 29.254 17.8502 28.6538C17.9985 28.109 18.1608 27.4764 18.0676 26.9109C17.9606 26.2546 17.5581 25.6901 17.1465 25.1869C16.4431 24.3265 15.6477 23.5874 15.0605 22.6349C14.326 21.4669 13.8731 20.1441 13.7377 18.7709C13.6023 17.3978 13.788 16.012 14.2803 14.723C15.1904 12.3596 17.19 10.2086 19.6488 9.45708C20.6198 9.1577 21.638 9.04139 22.6516 9.11407C24.1745 9.21007 25.6505 9.67838 26.9502 10.4779C27.8637 11.0372 28.6468 11.7855 29.2469 12.6727C29.8436 13.648 30.1581 14.7696 30.1557 15.9129C30.1702 16.5337 31.1364 16.5359 31.1219 15.9129Z" fill="#211715"/>
<path d="M29.2896 19.2069C29.4173 19.5678 29.3951 20.4147 28.7398 20.5215C27.868 20.5623 27.7642 19.5451 28.0306 19.0502C28.2487 18.6448 28.9458 18.4443 29.2896 19.2069Z" fill="#211715"/>
<path d="M31.0096 23.9286C30.8405 23.926 30.6717 23.9138 30.504 23.8921L30.6325 23.9095C30.3991 23.8794 30.1705 23.8194 29.9523 23.731L30.0678 23.7793C29.9882 23.7452 29.9107 23.7062 29.8359 23.6626C29.7252 23.598 29.5933 23.58 29.4694 23.6125C29.3454 23.6451 29.2394 23.7256 29.1748 23.8363C29.1101 23.947 29.0921 24.0789 29.1247 24.2028C29.1572 24.3268 29.2377 24.4328 29.3484 24.4974C29.8595 24.7689 30.4313 24.9056 31.0098 24.8948C31.138 24.8948 31.2609 24.8439 31.3515 24.7533C31.4421 24.6627 31.493 24.5398 31.493 24.4117C31.493 24.2836 31.4421 24.1607 31.3515 24.0701C31.2609 23.9795 31.1377 23.9286 31.0096 23.9286Z" fill="#211715"/>
<path d="M20.0691 22.4712C20.0295 22.5712 20.1054 22.3987 20.0614 22.49C20.045 22.5246 20.0295 22.5596 20.0131 22.5942C19.9771 22.6666 19.9387 22.7391 19.8986 22.8099C19.8102 22.9661 19.7128 23.1174 19.6104 23.265C19.3913 23.5775 19.1496 23.8736 18.8874 24.151C18.3699 24.7415 17.7598 25.2441 17.0811 25.639C16.9718 25.7042 16.8927 25.81 16.861 25.9333C16.8293 26.0566 16.8475 26.1874 16.9117 26.2973C16.9759 26.4072 17.0809 26.4874 17.2038 26.5203C17.3268 26.5533 17.4578 26.5364 17.5683 26.4733C18.3319 26.025 19.0197 25.4587 19.6061 24.7952C20.1926 24.1969 20.6652 23.4968 21.0008 22.7292C21.0339 22.6056 21.0169 22.4739 20.9536 22.3627C20.8903 22.2515 20.7858 22.1697 20.6626 22.135C20.5391 22.104 20.4084 22.1219 20.2977 22.1849C20.187 22.2479 20.1049 22.3511 20.0684 22.4731L20.0691 22.4712Z" fill="#211715"/>
<path d="M22.5472 19.1269C22.3351 18.8686 22.0594 18.6699 21.7472 18.5503C21.4351 18.4308 21.0972 18.3945 20.7667 18.445C20.1058 18.553 19.664 19.11 19.4734 19.719C19.1473 20.7608 19.5118 21.993 20.2046 22.8024C20.6098 23.2523 21.1075 23.6091 21.6636 23.8484C21.7751 23.9093 21.9056 23.9253 22.0285 23.893C22.1514 23.8608 22.2573 23.7827 22.3245 23.6749C22.3881 23.5641 22.4056 23.4327 22.3732 23.309C22.3408 23.1854 22.2611 23.0794 22.1513 23.014C21.2158 22.5874 20.544 21.9512 20.3657 20.9422C20.2916 20.5224 20.2976 19.9658 20.5993 19.5996C20.9662 19.154 21.5576 19.4547 21.8641 19.81C21.9552 19.8996 22.0779 19.9498 22.2057 19.9498C22.3334 19.9498 22.4561 19.8996 22.5472 19.81C22.6355 19.7183 22.6849 19.5958 22.6849 19.4685C22.6849 19.3411 22.6355 19.2187 22.5472 19.1269Z" fill="#211715"/>
<path d="M20.0691 22.4712C20.0295 22.5712 20.1054 22.3987 20.0614 22.49C20.045 22.5246 20.0295 22.5596 20.0131 22.5942C19.9771 22.6666 19.9387 22.7391 19.8986 22.8099C19.8102 22.9661 19.7128 23.1174 19.6104 23.265C19.3913 23.5775 19.1496 23.8736 18.8874 24.151C18.3699 24.7415 17.7598 25.2441 17.0811 25.639C16.9718 25.7042 16.8927 25.81 16.861 25.9333C16.8293 26.0566 16.8475 26.1874 16.9117 26.2973C16.9759 26.4072 17.0809 26.4874 17.2038 26.5203C17.3268 26.5533 17.4578 26.5364 17.5683 26.4733C18.3319 26.025 19.0197 25.4587 19.6061 24.7952C20.1926 24.1969 20.6652 23.4968 21.0008 22.7292C21.0339 22.6056 21.0169 22.4739 20.9536 22.3627C20.8903 22.2515 20.7858 22.1697 20.6626 22.135C20.5391 22.104 20.4084 22.1219 20.2977 22.1849C20.187 22.2479 20.1049 22.3511 20.0684 22.4731L20.0691 22.4712Z" fill="#211715"/>
<path d="M16.2477 62.4987C19.0964 62.549 22.4412 62.5041 24.226 61.7782C25.7123 61.1743 26.9623 60.6803 27.5056 58.0875C27.8132 56.8205 27.9499 55.5181 27.9121 54.2148L27.7025 45.6333C28.0281 44.0279 28.3191 42.2757 28.3291 41.73C28.3481 41.1795 28.3186 40.6284 28.2409 40.0831C28.0624 38.513 27.4438 37.2308 27.009 36.0269C26.565 34.8027 25.7831 32.8973 24.5842 31.3166C23.763 30.2926 20.6228 28.0903 17.9227 27.6137C17.7715 27.5888 17.6164 27.6206 17.4871 27.7029C17.3579 27.7852 17.2635 27.9123 17.2222 28.0599C17.1065 28.4592 17.0048 28.9466 17.0048 28.9466L16.3364 30.3742C15.9836 30.792 15.659 31.2328 15.3646 31.6936C13.7059 34.3058 13.1621 37.1337 13.8858 41.3346C14.0469 42.2701 14.8293 45.6239 14.6711 47.0039C14.4169 49.21 14.0502 51.4017 13.5723 53.5704L13.373 54.0776C13.8428 56.9705 14.3428 60.0148 14.7815 62.513C15.4752 62.505 16.1332 62.4968 16.2477 62.4987Z" fill="#BDBDBD"/>
<path d="M98.7399 60.5308C96.372 59.8847 94.0707 59.0157 91.8667 57.9355C89.655 59.3938 87.469 60.6825 86.4585 61.2154C86.3512 61.2729 86.2263 61.2883 86.1082 61.2586C85.9902 61.2289 85.8874 61.1562 85.8201 61.0548C85.7177 60.8987 85.5824 60.6888 85.4245 60.441C84.1956 61.1465 82.8998 61.7287 81.5562 62.179C81.5562 65.9492 81.5562 69.3413 81.5562 71.7569L83.0698 71.6668C87.1762 71.5037 94.8163 71.1639 97.2973 70.7006C98.6181 70.3742 99.5969 69.9206 100.694 68.5715L100.841 68.4507C101.197 66.7026 101.671 63.9648 102.164 61.0069C101.243 61.0564 100.045 60.8671 98.7399 60.5308Z" fill="#3D8DCC"/>
<path d="M28.2098 38.6078C29.2168 37.7624 30.4804 36.7478 31.249 36.1302C31.3351 36.0606 31.443 36.0239 31.5536 36.0265C31.6642 36.0291 31.7703 36.0709 31.8529 36.1444C32.5394 36.7503 34.3533 38.4953 35.2571 39.3407C35.3412 39.414 35.3951 39.5158 35.4084 39.6264C35.4218 39.7371 35.3937 39.8488 35.3296 39.94C34.6269 40.8239 33.9849 41.6309 33.2138 42.5169L30.7821 45.633H26.6373L28.2098 38.6078Z" fill="#BDBDBD"/>
<path d="M33.7522 35.7208C33.7039 35.3717 33.772 35.0165 33.9461 34.7101C34.1202 34.4038 34.3905 34.1634 34.715 34.0262C35.4211 33.6738 36.3448 33.7156 36.8538 33.0412C37.0459 32.7468 37.2577 32.4656 37.4876 32.1996C37.6932 31.9914 38.0007 31.6759 38.3026 31.6319C38.3753 31.6316 38.448 31.6364 38.52 31.6462C38.5025 31.641 38.4865 31.632 38.473 31.6197C38.4595 31.6075 38.449 31.5923 38.4422 31.5754C38.4144 31.5218 38.4132 31.5315 38.4381 31.6047C38.4277 31.7867 38.3857 31.9655 38.3142 32.1332C38.1419 32.5163 37.9285 32.8797 37.6777 33.2168C37.614 33.3276 37.5964 33.4591 37.6289 33.5828C37.6613 33.7065 37.7412 33.8124 37.8511 33.8777C37.9624 33.9396 38.0932 33.9561 38.2164 33.9239C38.3395 33.8916 38.4454 33.813 38.512 33.7045C38.9722 33.0736 39.5611 32.1651 39.3698 31.3479C39.1567 30.4372 38.0246 30.5865 37.4342 30.9954C37.118 31.2097 36.8329 31.4666 36.5868 31.7588C36.4662 31.9045 36.3533 32.0565 36.2487 32.2141C36.173 32.3699 36.0606 32.5049 35.9211 32.6076C35.5926 32.7924 35.1508 32.825 34.7948 32.953C34.4157 33.0795 34.0584 33.2638 33.7355 33.4994C32.9541 34.0963 32.6865 35.0297 32.8201 35.9775C32.8547 36.1008 32.9365 36.2055 33.0478 36.2688C33.1591 36.3321 33.2909 36.349 33.4145 36.3157C33.5364 36.279 33.6395 36.1969 33.7025 36.0862C33.7654 35.9756 33.7834 35.845 33.7527 35.7215L33.7522 35.7208Z" fill="#201614"/>
<path d="M35.1848 36.3608C35.246 36.3145 35.3126 36.2758 35.3832 36.2458L35.2679 36.2941C35.3447 36.263 35.425 36.2414 35.5071 36.2299L35.3786 36.247C35.4748 36.2348 35.5722 36.2348 35.6684 36.247L35.5399 36.2299C35.6253 36.2422 35.7093 36.2629 35.7907 36.2915C35.8833 36.3171 35.9815 36.3145 36.0726 36.284C36.1638 36.2535 36.2438 36.1965 36.3024 36.1203C36.361 36.0441 36.3955 35.9521 36.4015 35.8562C36.4076 35.7603 36.3849 35.6647 36.3363 35.5818C36.2687 35.476 36.1661 35.3974 36.0465 35.3595C35.9209 35.3192 35.7913 35.2924 35.66 35.2798C35.5687 35.2687 35.4764 35.2687 35.3851 35.2798C35.1374 35.2991 34.8994 35.3841 34.6957 35.5262C34.5904 35.5943 34.512 35.6967 34.4737 35.8161C34.4402 35.9417 34.4575 36.0754 34.522 36.1883C34.5862 36.2971 34.6901 36.3767 34.8119 36.4103C34.8739 36.4283 34.939 36.4334 35.0031 36.4251C35.0671 36.4167 35.1288 36.3953 35.1841 36.362L35.1848 36.3608Z" fill="#201614"/>
<path d="M35.6573 37.519C35.9813 36.7697 36.3777 36.0539 36.8409 35.3817C36.9617 35.2071 37.0806 35.0286 37.2112 34.8612C37.1509 34.9385 37.2617 34.8409 37.2112 34.8665C37.1388 34.9027 37.3091 34.8332 37.2458 34.8525C37.1786 34.8733 37.3183 34.8339 37.2526 34.8503C37.2042 34.8622 37.2721 34.8489 37.2808 34.8489C37.2856 34.8489 37.3574 34.8593 37.3139 34.8489C37.2704 34.8385 37.405 34.909 37.3093 34.8489C37.3385 34.8672 37.404 34.9233 37.3504 34.8696C37.364 34.8852 37.379 34.8996 37.3951 34.9126C37.4434 34.9453 37.377 34.8552 37.3951 34.9064C37.3972 34.9126 37.4272 34.9472 37.4241 34.9532C37.4209 34.9593 37.3929 34.8629 37.4067 34.9134C37.4204 34.9639 37.3958 34.8532 37.3997 34.8542C37.4035 34.8552 37.3948 34.975 37.3941 34.9902C37.3856 35.1965 37.3765 35.4028 37.3627 35.6088C37.3497 35.805 37.3318 36.0006 37.3079 36.1955C37.3045 36.2241 37.2837 36.3748 37.2984 36.2726C37.2897 36.3313 37.2818 36.3902 37.2728 36.4489C37.2528 36.5828 37.2311 36.7163 37.2091 36.8499C37.1781 36.9735 37.196 37.1042 37.259 37.215C37.322 37.3257 37.4252 37.4079 37.5472 37.4444C37.6709 37.4768 37.8023 37.4596 37.9134 37.3964C38.0244 37.3332 38.1064 37.229 38.1417 37.1062C38.2207 36.6294 38.2912 36.1509 38.3255 35.6685C38.3432 35.4247 38.3538 35.1803 38.3635 34.9361C38.3688 34.7943 38.342 34.6532 38.2852 34.5233C38.2283 34.3933 38.1429 34.2779 38.0352 34.1856C37.9187 34.0741 37.7789 33.9899 37.6258 33.9391C37.4727 33.8883 37.3103 33.8722 37.1503 33.892C36.9902 33.9118 36.8366 33.9669 36.7005 34.0534C36.5644 34.1399 36.4492 34.2556 36.3634 34.3921C36.0868 34.773 35.816 35.1585 35.5721 35.5615C35.2897 36.0335 35.0395 36.5241 34.8232 37.0299C34.7619 37.1413 34.7457 37.2719 34.778 37.3949C34.8102 37.5179 34.8884 37.6238 34.9964 37.6908C35.1074 37.7541 35.2387 37.7714 35.3622 37.7391C35.4858 37.7067 35.5917 37.6272 35.6573 37.5176V37.519Z" fill="#201614"/>
<path d="M38.2248 35.8345C38.5238 35.4522 38.8686 35.108 39.2514 34.8096C39.3756 34.7176 39.5007 34.625 39.6304 34.5412C39.6729 34.5137 39.7167 34.4898 39.7611 34.4659C39.6983 34.4997 39.7587 34.4685 39.7768 34.4659C39.715 34.4729 39.7592 34.4574 39.7862 34.4692C39.7138 34.4376 39.8587 34.5067 39.8623 34.5084C39.9348 34.5468 39.9082 34.5642 39.8865 34.5132C39.9246 34.5992 39.9106 34.5533 39.8985 34.5333C39.9012 34.5376 39.9123 34.6115 39.9109 34.5668C39.9092 34.5137 39.9109 34.6151 39.9126 34.6258C39.9157 34.6999 39.9307 34.5697 39.914 34.6369C39.8727 34.8026 39.9191 34.6369 39.9227 34.6388C39.913 34.666 39.9007 34.6922 39.886 34.7171C39.8507 34.7895 39.8121 34.8591 39.7732 34.9292C39.6729 35.1086 39.5666 35.2847 39.4592 35.4606C39.2337 35.8282 39.0012 36.1915 38.7615 36.5505C38.6538 36.7123 38.5441 36.8732 38.4292 37.0297C38.3468 37.1418 38.2712 37.237 38.1746 37.3483C38.1234 37.407 38.0709 37.4648 38.0159 37.5201C37.9965 37.5397 37.977 37.559 37.9569 37.5778C37.9569 37.5778 37.8362 37.68 37.9033 37.6293C37.7956 37.6966 37.7176 37.8025 37.6854 37.9253C37.6532 38.0481 37.6691 38.1787 37.7299 38.2902C37.7951 38.4001 37.9011 38.48 38.0247 38.5124C38.1484 38.5449 38.2799 38.5274 38.3908 38.4636C38.8449 38.0856 39.2321 37.6337 39.5362 37.1271C39.818 36.7076 40.0906 36.2817 40.3539 35.8495C40.5877 35.4649 40.9068 35.0239 40.8766 34.5528C40.863 34.3602 40.7996 34.1744 40.6925 34.0137C40.5854 33.8529 40.4383 33.7228 40.2658 33.6361C40.0932 33.5494 39.901 33.5091 39.7082 33.5191C39.5153 33.5291 39.3283 33.589 39.1657 33.6931C38.5471 34.0853 37.9986 34.5782 37.5427 35.1514C37.4554 35.2437 37.4067 35.3659 37.4067 35.493C37.4067 35.62 37.4554 35.7422 37.5427 35.8345C37.6337 35.9243 37.7564 35.9746 37.8842 35.9746C38.0121 35.9746 38.1348 35.9243 38.2258 35.8345H38.2248Z" fill="#201614"/>
<path d="M37.8046 37.7056C37.7865 37.7278 37.7668 37.7488 37.7459 37.7684C37.7892 37.7394 37.7876 37.7406 37.741 37.772C37.7026 37.795 37.6647 37.8162 37.6244 37.8355C37.7084 37.7954 37.5422 37.8614 37.5241 37.8669C37.4792 37.8807 37.4338 37.8928 37.3884 37.9046C37.1306 37.972 36.871 38.0329 36.6118 38.0952C36.0767 38.224 35.5402 38.3479 35.0018 38.4631C34.8786 38.4977 34.774 38.5795 34.7107 38.6907C34.6473 38.802 34.6305 38.9337 34.6636 39.0573C34.7001 39.1794 34.7822 39.2827 34.8929 39.3457C35.0036 39.4087 35.1343 39.4265 35.2579 39.3955C35.8345 39.2721 36.4091 39.1387 36.9821 39.0001C37.4862 38.8778 38.1266 38.8047 38.4867 38.3894C38.5335 38.3451 38.571 38.2918 38.5969 38.2327C38.6227 38.1737 38.6365 38.11 38.6374 38.0456C38.6384 37.9811 38.6263 37.9171 38.6021 37.8573C38.5779 37.7975 38.542 37.7432 38.4964 37.6976C38.4509 37.6519 38.3967 37.6159 38.337 37.5915C38.2773 37.5671 38.2133 37.555 38.1488 37.5557C38.0843 37.5564 38.0207 37.5701 37.9615 37.5958C37.9024 37.6216 37.849 37.6589 37.8046 37.7056Z" fill="#201614"/>
<path d="M40.6795 34.9516C40.8389 34.9112 40.9988 34.8736 41.1609 34.8448C41.265 34.8254 41.3703 34.8129 41.4761 34.8071C41.6087 34.7982 41.7418 34.7968 41.8749 34.8004C41.9573 34.8028 42.0397 34.8074 42.1218 34.8137C42.1375 34.8149 42.3469 34.8397 42.2602 34.8255C42.3039 34.8327 42.3477 34.841 42.3904 34.8521C42.4165 34.8586 42.4421 34.8663 42.4675 34.875C42.4106 34.8488 42.4057 34.8471 42.4527 34.8699C42.5223 34.9245 42.3803 34.8086 42.4841 34.8965C42.4461 34.8453 42.4364 34.8352 42.4549 34.8663C42.4734 34.8974 42.4689 34.8853 42.4414 34.8301C42.4495 34.8538 42.4561 34.878 42.4609 34.9026C42.4551 34.8417 42.4544 34.8407 42.4585 34.9001C42.4556 34.9575 42.457 34.9596 42.4626 34.9064C42.4562 34.937 42.4476 34.967 42.4368 34.9963C42.4757 34.9064 42.3856 35.0581 42.4368 34.9912C42.4146 35.0172 42.3903 35.0415 42.3643 35.0637C42.3856 35.0419 42.3793 35.0427 42.3452 35.0663C42.2984 35.0878 42.2952 35.0905 42.3363 35.0733C42.3056 35.0859 42.2749 35.0975 42.244 35.11C42.2049 35.1255 42.1655 35.1402 42.1264 35.1555C41.9687 35.2168 41.811 35.2781 41.6532 35.3393C41.3773 35.4451 41.101 35.5498 40.8242 35.6533C40.3217 35.8412 39.8179 36.0253 39.3128 36.2055C39.1908 36.2422 39.0877 36.3244 39.0247 36.4351C38.9618 36.5457 38.9438 36.6764 38.9746 36.8C39.0095 36.923 39.0913 37.0274 39.2025 37.0907C39.3136 37.154 39.4452 37.171 39.5688 37.1382C40.5592 36.7852 41.5452 36.4195 42.5233 36.034C42.8032 35.9465 43.049 35.774 43.2264 35.5405C43.31 35.4168 43.3682 35.2778 43.3977 35.1315C43.4273 34.9852 43.4276 34.8345 43.3987 34.6881C43.3006 34.1354 42.8151 33.9293 42.3153 33.8682C41.68 33.8011 41.0377 33.8532 40.4215 34.0218C40.3603 34.0387 40.3031 34.0674 40.253 34.1064C40.2029 34.1454 40.161 34.1939 40.1297 34.2491C40.0984 34.3042 40.0782 34.3651 40.0704 34.428C40.0625 34.491 40.0672 34.5549 40.084 34.6161C40.1009 34.6772 40.1297 34.7345 40.1686 34.7846C40.2076 34.8346 40.2561 34.8765 40.3113 34.9079C40.3664 34.9392 40.4273 34.9594 40.4902 34.9672C40.5532 34.975 40.6171 34.9704 40.6783 34.9535L40.6795 34.9516Z" fill="#201614"/>
<path d="M39.9044 33.3576C40.0162 33.3375 40.1285 33.3204 40.2413 33.3052L40.1128 33.3223C40.4905 33.2716 40.871 33.2453 41.252 33.2436C41.3801 33.2436 41.503 33.1927 41.5936 33.1021C41.6842 33.0115 41.7351 32.8886 41.7351 32.7605C41.7351 32.6323 41.6842 32.5094 41.5936 32.4188C41.503 32.3282 41.3801 32.2773 41.252 32.2773C40.7139 32.28 40.177 32.3297 39.6476 32.4259C39.5258 32.4594 39.4218 32.539 39.3577 32.6479C39.2931 32.7607 39.2757 32.8945 39.3094 33.0201C39.343 33.1419 39.4226 33.2458 39.5314 33.31C39.6459 33.3695 39.7777 33.3867 39.9036 33.3583L39.9044 33.3576Z" fill="#201614"/>
<path d="M98.9087 75.3787L99.5196 78.023C99.5543 78.1461 99.6361 78.2506 99.7473 78.3139C99.8585 78.3772 99.9902 78.3942 100.114 78.3612C100.236 78.325 100.339 78.2429 100.402 78.1321C100.465 78.0214 100.483 77.8905 100.452 77.767L99.8403 75.1212C99.8055 74.9981 99.7237 74.8936 99.6125 74.8304C99.5013 74.7671 99.3697 74.7501 99.2461 74.783C99.124 74.8193 99.0206 74.9014 98.9575 75.0121C98.8945 75.1229 98.8767 75.2537 98.9079 75.3772L98.9087 75.3787Z" fill="#211715"/>
<path d="M99.6079 40.6052C99.4893 42.4831 99.3024 44.3556 99.0472 46.2228C98.8356 47.7842 98.6151 49.3744 98.1257 50.8774C97.8478 51.7661 97.4267 52.6034 96.879 53.3565C96.3535 54.0161 95.7397 54.6003 95.0548 55.0925C93.6804 56.1612 92.2298 57.1349 90.7658 58.0757C89.5051 58.8859 88.227 59.6727 86.9222 60.4094C86.7127 60.5278 86.5026 60.663 86.2832 60.7616C86.1994 60.799 86.2448 60.8164 86.1944 60.7449C86.1219 60.6425 86.0572 60.5336 85.9895 60.428C85.6066 59.831 85.2289 59.2308 84.8564 58.6272C84.4377 57.9525 84.0233 57.2753 83.6131 56.5957C83.4405 56.3083 83.2696 56.0198 83.1005 55.7302C83.0764 55.6894 82.9481 55.4015 82.9095 55.3966C82.8032 55.3829 82.9196 55.3725 82.8955 55.3797L82.8807 55.5034L82.9445 55.4609C83.0551 55.4529 83.2865 55.2309 83.3819 55.1674C85.1414 53.9939 86.9569 52.9026 88.6814 51.6772C89.09 51.4186 89.4616 51.1057 89.786 50.7472C90.0976 50.355 90.3411 49.9132 90.5063 49.4403C90.7899 48.6059 90.9883 47.7449 91.0984 46.8704C91.3682 45.1027 91.616 43.3316 91.9028 41.5666C91.964 41.1903 92.0278 40.8143 92.0943 40.4388C92.1248 40.3153 92.1068 40.1847 92.0438 40.0742C91.9809 39.9636 91.8779 39.8814 91.7561 39.8445C91.6325 39.8116 91.5009 39.8286 91.3896 39.8919C91.2784 39.9552 91.1966 40.0596 91.1617 40.1827C90.8382 41.9862 90.5856 43.8027 90.3162 45.6148C90.1882 46.4745 90.0885 47.349 89.8769 48.193C89.6423 49.1285 89.3239 50.0249 88.5157 50.6117C86.7429 51.8991 84.8612 53.0272 83.0372 54.2381C82.6087 54.5227 81.9189 54.8251 81.935 55.4341C81.944 55.7701 82.1887 56.0882 82.3534 56.3696C82.7469 57.0411 83.1525 57.7059 83.5612 58.369C83.9825 59.054 84.4079 59.7367 84.8376 60.4169C85.2013 60.9918 85.597 61.9169 86.4318 61.7331C86.7056 61.6451 86.9658 61.5192 87.2048 61.3592C87.4687 61.212 87.7313 61.0622 87.9925 60.9099C88.6618 60.5207 89.325 60.1216 89.9822 59.7127C91.5404 58.7465 93.077 57.7412 94.5599 56.6629C95.2514 56.1599 95.9338 55.6413 96.5867 55.0889C97.3366 54.4325 97.9518 53.6367 98.3984 52.7458C99.1692 51.2482 99.4994 49.587 99.7637 47.9388C100.08 45.9682 100.307 43.9812 100.472 41.9927C100.51 41.531 100.544 41.069 100.574 40.6067C100.613 39.9859 99.6467 39.9883 99.6076 40.6067L99.6079 40.6052Z" fill="#211715"/>
<path d="M100.352 68.2304C99.551 69.2632 98.4082 69.9766 97.1286 70.2424C96.2874 70.3891 95.4387 70.4891 94.5865 70.5421C92.0743 70.7629 89.5525 70.8922 87.0333 71.0115C85.7128 71.0743 84.3914 71.1315 83.0692 71.183C82.4496 71.2071 82.4464 72.1734 83.0692 72.1492C85.6014 72.0485 88.1333 71.9359 90.6631 71.7869C92.8586 71.6572 95.0908 71.5654 97.2624 71.196C98.7551 70.9183 100.096 70.1073 101.035 68.9141C101.427 68.4375 100.747 67.75 100.351 68.2307L100.352 68.2304Z" fill="#211715"/>
<path d="M100.965 70.0812C101.343 68.7188 101.561 67.3033 101.81 65.9124C102.21 63.6785 102.581 61.4395 102.949 59.2003C103.326 56.9045 103.699 54.6083 104.068 52.3116C104.328 50.7096 104.581 49.1054 104.873 47.5087C105.021 46.6991 105.201 45.6522 105.9 45.12C106.078 44.9857 106.289 44.9036 106.51 44.883C106.638 44.8711 106.767 44.875 106.894 44.8946C106.952 44.9067 107.009 44.9217 107.066 44.9396C107.014 44.9256 107.027 44.8818 107.022 44.9079C107.026 44.9796 107.026 45.0515 107.022 45.1231C107.002 45.3306 106.958 45.5384 106.926 45.7444C106.861 46.167 106.796 46.5895 106.733 47.0121C106.212 50.4787 105.752 53.9542 105.3 57.4307C104.907 60.4602 104.529 63.4937 104.104 66.5177C103.944 67.6545 103.778 68.791 103.585 69.9237C103.415 70.9247 103.205 71.9071 102.628 72.7547C101.249 74.7782 98.3536 74.7456 96.1301 74.7456H84.1812C83.5594 74.7456 83.5582 75.7118 84.1812 75.7118H94.1948C95.7729 75.7118 97.3804 75.8002 98.9498 75.6046C100.149 75.4548 101.37 75.1435 102.352 74.406C104.207 73.0139 104.454 70.6996 104.777 68.569C105.223 65.6264 105.592 62.6722 105.973 59.7206C106.429 56.1854 106.886 52.65 107.394 49.1216C107.52 48.2499 107.649 47.3786 107.782 46.5075C107.849 46.0679 107.935 45.6275 107.983 45.1855C108.011 45.0238 108.004 44.8581 107.962 44.6994C107.921 44.5407 107.845 44.3929 107.742 44.2659C107.324 43.818 106.451 43.8402 105.92 44.032C105.348 44.2541 104.876 44.6755 104.592 45.2186C104.166 45.9761 104.014 46.8343 103.867 47.6788C103.729 48.4583 103.601 49.2395 103.471 50.0204C103.107 52.2304 102.753 54.4421 102.393 56.6528C102.002 59.0624 101.607 61.4716 101.192 63.8773C100.89 65.6307 100.597 67.3907 100.207 69.1273C100.154 69.3611 100.099 69.5947 100.035 69.8256C99.8682 70.4256 100.8 70.6817 100.967 70.0824L100.965 70.0812Z" fill="#211715"/>
<path d="M16.4304 72.676L15.8195 75.3203C15.8026 75.3815 15.7979 75.4454 15.8057 75.5084C15.8136 75.5714 15.8337 75.6322 15.865 75.6874C15.8964 75.7426 15.9382 75.791 15.9883 75.83C16.0384 75.869 16.0956 75.8978 16.1568 75.9147C16.218 75.9316 16.2819 75.9362 16.3448 75.9284C16.4078 75.9206 16.4686 75.9004 16.5238 75.8691C16.579 75.8378 16.6275 75.7959 16.6665 75.7458C16.7055 75.6958 16.7343 75.6385 16.7511 75.5773L17.362 72.933C17.3789 72.8719 17.3836 72.808 17.3757 72.745C17.3679 72.682 17.3478 72.6212 17.3165 72.566C17.2851 72.5108 17.2432 72.4623 17.1932 72.4233C17.1431 72.3843 17.0859 72.3556 17.0247 72.3387C16.9635 72.3218 16.8996 72.3172 16.8366 72.325C16.7737 72.3328 16.7128 72.3529 16.6577 72.3843C16.6025 72.4156 16.554 72.4575 16.515 72.5075C16.476 72.5576 16.4472 72.6148 16.4304 72.676Z" fill="#211715"/>
<path d="M16.2379 67.376C15.841 65.9472 15.6156 64.4605 15.356 63.0039C14.9427 60.6828 14.5589 58.3566 14.1772 56.0302C13.7934 53.6858 13.4126 51.341 13.0346 48.9958C12.7786 47.424 12.5733 45.8271 12.2247 44.2722C11.9798 43.1804 11.4679 41.9615 10.322 41.5733C9.77222 41.3871 8.89465 41.3774 8.49343 41.8665C8.39825 42.0006 8.33172 42.1528 8.29797 42.3136C8.26423 42.4745 8.26399 42.6406 8.29729 42.8016C8.35212 43.2388 8.43087 43.6741 8.49754 44.1099C9.03982 47.6607 9.51424 51.2201 9.97681 54.7811C10.3889 57.951 10.7841 61.1234 11.2288 64.2887C11.3928 65.4578 11.5631 66.6262 11.7626 67.7898C11.9448 68.8527 12.2022 69.9174 12.824 70.8177C14.3646 73.047 17.2249 73.2623 19.7044 73.2623H32.0908C32.7124 73.2623 32.7136 72.296 32.0908 72.296H22.39C20.846 72.296 19.2783 72.3743 17.7394 72.2337C16.6159 72.1311 15.4586 71.8714 14.5248 71.2083C12.8728 70.0365 12.7131 67.7483 12.4267 65.8624C12.001 63.0539 11.6481 60.2342 11.2843 57.4172C10.8418 53.99 10.3995 50.5625 9.91328 47.1412C9.78864 46.2646 9.66062 45.3884 9.52921 44.5125C9.46593 44.09 9.40151 43.6677 9.33597 43.2458C9.30674 43.0562 9.2664 42.8654 9.24853 42.6745C9.23306 42.5961 9.23763 42.515 9.26181 42.4388C9.25757 42.4516 9.25017 42.4631 9.24028 42.4723C9.2304 42.4814 9.21836 42.4879 9.20529 42.4912C9.2619 42.4733 9.31939 42.4582 9.37752 42.446C9.51603 42.4242 9.65687 42.4215 9.79613 42.4378C10.0051 42.4637 10.2035 42.5442 10.3713 42.6714C10.7378 42.9981 10.9994 43.426 11.1232 43.9012C11.3178 44.5761 11.4631 45.2642 11.558 45.9602C11.698 46.7747 11.834 47.5899 11.966 48.4057C12.3262 50.6017 12.6786 52.7989 13.0361 54.9951C13.4151 57.3222 13.797 59.6489 14.1997 61.9722C14.4895 63.6404 14.7695 65.3153 15.1432 66.9673C15.1937 67.19 15.2463 67.4125 15.3074 67.6328C15.4736 68.2311 16.406 67.977 16.2391 67.3758L16.2379 67.376Z" fill="#211715"/>
<path d="M88.1089 48.4168C87.9874 48.6925 87.8181 48.9444 87.6089 49.1611C87.319 49.4712 87.0291 49.7811 86.7393 50.0906L85.0022 51.9506C84.5781 52.4045 85.26 53.0893 85.6856 52.6337L87.5248 50.6653C88.1045 50.0445 88.7084 49.472 89.0396 48.6743C89.0728 48.5507 89.056 48.419 88.9926 48.3077C88.9293 48.1965 88.8247 48.1147 88.7014 48.0801C88.5779 48.0494 88.4472 48.0673 88.3366 48.1303C88.226 48.1932 88.1438 48.2964 88.1072 48.4183L88.1089 48.4168Z" fill="#211715"/>
<path d="M93.0705 37.5698C93.4638 36.9757 94.0071 36.496 94.6454 36.1794C95.3204 35.9028 96.0636 35.8384 96.7761 35.9946C97.1996 36.068 97.6035 36.2273 97.9631 36.4625C98.4559 36.7749 99.0373 37.3746 99.1141 37.9843C99.118 38.1112 99.1702 38.2319 99.2599 38.3216C99.3497 38.4114 99.4703 38.4636 99.5972 38.4674C99.7251 38.4667 99.8476 38.4155 99.938 38.3251C100.028 38.2347 100.08 38.1122 100.08 37.9843C99.891 36.4809 98.4631 35.3376 97.0329 35.0627C96.1147 34.8607 95.1571 34.9392 94.284 35.2878C93.4486 35.6849 92.7397 36.3059 92.2361 37.0819C91.8808 37.594 92.7192 38.0778 93.0705 37.5698Z" fill="#211715"/>
<path d="M35.0034 75.4834V54.7352C35.0034 54.1135 34.0372 54.1125 34.0372 54.7352V75.4849C34.0372 76.1066 35.0034 76.1076 35.0034 75.4849V75.4834Z" fill="#211715"/>
<path d="M81.0729 54.7333V75.4829C81.0729 76.1047 82.0392 76.1057 82.0392 75.4829V54.7333C82.0392 54.1115 81.0729 54.1106 81.0729 54.7333Z" fill="#211715"/>
<path d="M83.4507 52.335V55.5165H32.6251V52.335H83.4507Z" fill="white"/>
<path d="M82.9676 52.3357V55.5172L83.4507 55.0341H32.6251L33.1082 55.5172V52.3357L32.6251 52.8188H83.4507C84.0725 52.8188 84.0735 51.8525 83.4507 51.8525H32.6251C32.4975 51.8543 32.3757 51.9058 32.2855 51.996C32.1953 52.0863 32.1438 52.2081 32.142 52.3357V55.5172C32.1438 55.6447 32.1953 55.7666 32.2855 55.8568C32.3757 55.947 32.4975 55.9985 32.6251 56.0003H83.4507C83.5783 55.9984 83.7001 55.9469 83.7903 55.8567C83.8805 55.7665 83.932 55.6447 83.9338 55.5172V52.3357C83.9338 51.7139 82.9676 51.7127 82.9676 52.3357Z" fill="#211715"/>
<path d="M84.8736 60.1974C83.966 60.6994 83.0222 61.133 82.05 61.4945C81.9265 61.5286 81.8215 61.6103 81.7583 61.7218C81.695 61.8332 81.6785 61.9652 81.7126 62.0888C81.7466 62.2123 81.8284 62.3173 81.9398 62.3806C82.0513 62.4439 82.1833 62.4603 82.3068 62.4262C83.358 62.0372 84.3789 61.571 85.3613 61.0315C85.471 60.966 85.5506 60.8601 85.583 60.7365C85.6154 60.6128 85.598 60.4815 85.5345 60.3706C85.4681 60.2619 85.3621 60.1832 85.2389 60.1509C85.1157 60.1186 84.9848 60.1352 84.8736 60.1974Z" fill="#211715"/>
<path d="M91.8499 58.4622C94.4185 59.6905 97.1532 60.7773 99.9627 61.2966C100.57 61.4089 100.831 60.478 100.219 60.3649C97.4899 59.8606 94.8328 58.8212 92.3376 57.6279C91.7793 57.3622 91.2885 58.1938 91.8499 58.4622Z" fill="#211715"/>
<path d="M99.3131 32.7085C100.364 34.0088 101.163 35.4942 101.668 37.0882C102.108 38.7349 102.224 40.4516 102.01 42.1427C101.865 43.5358 101.53 44.8964 101.292 46.2733C101.156 47.0047 101.059 47.7429 101.003 48.4848C100.989 49.2982 101.056 50.1111 101.204 50.9112C101.441 52.6395 101.76 54.3531 102.124 56.0587C102.254 56.6665 103.187 56.4092 103.056 55.8017C102.739 54.3224 102.456 52.8371 102.233 51.3402C102.107 50.4889 101.93 49.6099 101.957 48.7464C101.991 48.0423 102.073 47.3413 102.203 46.6484C102.445 45.2298 102.781 43.8321 102.948 42.4012C103.183 40.6607 103.097 38.8918 102.695 37.1821C102.212 35.2929 101.189 33.5518 99.9964 32.0251C99.9055 31.9352 99.7827 31.8848 99.6548 31.8848C99.5268 31.8848 99.4041 31.9352 99.3131 32.0251C99.2254 32.1173 99.1765 32.2396 99.1765 32.3668C99.1765 32.494 99.2254 32.6164 99.3131 32.7085Z" fill="#211715"/>
<path d="M33.0891 46.3092C33.3289 46.0189 33.6247 45.7798 33.9587 45.606C34.4955 45.3099 36.1064 44.584 36.9919 44.1714C37.1895 44.079 37.4088 44.0433 37.6255 44.0683C37.7045 44.0765 37.7805 44.103 37.8476 44.1455C37.9146 44.188 37.9709 44.2455 38.012 44.3135C38.0637 44.4081 38.0891 44.515 38.0854 44.6228C38.0817 44.7306 38.0491 44.8354 37.991 44.9263C37.6981 45.4936 37.2823 45.9882 36.7738 46.3742C38.3197 46.7641 39.9807 47.1119 41.5083 47.5175C41.6466 47.5425 41.7734 47.6105 41.8708 47.7119C41.9681 47.8132 42.031 47.9428 42.0503 48.082C42.073 48.2502 42.039 48.4211 41.9537 48.5678C41.896 48.6323 41.8252 48.6839 41.7461 48.719C41.667 48.7542 41.5813 48.7721 41.4947 48.7716C42.1778 48.4335 42.5001 48.8704 42.537 49.0306C42.5782 49.1396 42.5903 49.2573 42.5723 49.3724C42.5543 49.4875 42.5068 49.5959 42.4344 49.6871C42.2642 49.842 42.0412 49.926 41.8112 49.9217L41.1698 49.9458L41.4793 50.1497C41.5617 50.21 41.6285 50.2892 41.6742 50.3806C41.7198 50.472 41.7429 50.5729 41.7416 50.6751C41.7457 50.7803 41.709 50.8831 41.6392 50.9619C41.5693 51.0408 41.4717 51.0895 41.3667 51.0981C41.1271 51.1142 40.8515 51.1287 40.556 51.1415C40.6454 51.9167 40.1937 51.9664 39.8106 51.987C38.7367 52.0421 36.1528 52.0595 35.7866 52.0517C34.4645 52.0239 32.4265 51.8428 31.3823 51.0551" fill="white"/>
<path d="M33.5063 46.5529C33.751 46.2072 34.2952 45.9671 34.7 45.7698C35.2097 45.5217 35.7252 45.2852 36.2402 45.048L36.9728 44.7098C37.0752 44.6574 37.181 44.612 37.2895 44.5741C37.3306 44.5613 37.5434 44.5016 37.5856 44.5465C37.6878 44.6572 37.3426 45.0806 37.2733 45.1794C37.0691 45.4611 36.8286 45.7145 36.5581 45.9333C36.4684 46.0244 36.4182 46.1471 36.4182 46.2748C36.4182 46.4026 36.4684 46.5253 36.5581 46.6164C36.65 46.7046 36.7724 46.7538 36.8998 46.7538C37.0271 46.7538 37.1495 46.7046 37.2414 46.6164C37.5924 46.3219 37.9 45.9792 38.155 45.5985C38.4188 45.2072 38.6804 44.7412 38.5173 44.2583C38.4376 44.0443 38.2904 43.8619 38.098 43.7387C37.9056 43.6155 37.6784 43.5581 37.4506 43.5752C37.0495 43.622 36.6624 43.7513 36.3136 43.9549C35.6658 44.2535 35.0162 44.5487 34.3732 44.8574C33.7464 45.1586 33.0853 45.4816 32.6727 46.0652C32.609 46.176 32.5915 46.3075 32.6239 46.4311C32.6563 46.5547 32.736 46.6607 32.8459 46.7261C32.9571 46.7881 33.0881 46.8047 33.2113 46.7725C33.3345 46.7402 33.4405 46.6615 33.507 46.5529H33.5063Z" fill="#211715"/>
<path d="M36.7542 46.8661C37.5581 47.0671 38.3654 47.2526 39.1722 47.4415C39.5683 47.534 39.9641 47.6282 40.3594 47.7241C40.7274 47.787 41.0897 47.8793 41.4428 48.0002C41.5394 48.0418 41.6324 48.2085 41.5672 48.2713C41.4836 48.3517 41.0505 48.2742 40.9109 48.2667C40.2976 48.2333 39.6855 48.1817 39.0751 48.1266C38.455 48.0708 37.8352 48.0092 37.2151 47.9486C37.0873 47.9495 36.965 48.0007 36.8746 48.0911C36.7842 48.1815 36.733 48.3038 36.732 48.4317C36.7347 48.5589 36.7865 48.6803 36.8765 48.7703C36.9665 48.8603 37.0879 48.9121 37.2151 48.9148C38.5461 49.0447 39.8795 49.1955 41.2162 49.2474C41.3958 49.2743 41.579 49.2638 41.7543 49.2164C41.9296 49.1691 42.0932 49.0859 42.2349 48.9723C42.381 48.8157 42.4806 48.6214 42.5223 48.4113C42.564 48.2012 42.5463 47.9836 42.4711 47.7831C42.4012 47.6032 42.289 47.4429 42.1439 47.3156C41.9989 47.1883 41.8254 47.0979 41.638 47.0519C41.179 46.9147 40.7056 46.8128 40.2394 46.7009C39.1642 46.4432 38.0847 46.2028 37.012 45.9345C36.4081 45.7835 36.1513 46.7149 36.7552 46.8661H36.7542Z" fill="#211715"/>
<path d="M42.0127 49.1351C42.0328 49.1419 42.112 49.2006 42.0716 49.1665C42.1021 49.2218 42.1021 49.2193 42.0716 49.1591C42.0828 49.1942 42.0889 49.2307 42.09 49.2675C42.103 49.3786 42.0948 49.34 42.0716 49.3653C42.0181 49.4039 41.9552 49.4276 41.8895 49.4339C41.41 49.4821 40.9274 49.4909 40.4465 49.4603C39.3901 49.4588 38.3343 49.4303 37.278 49.4294C36.6562 49.4294 36.6553 50.3956 37.278 50.3956C38.6822 50.3956 40.087 50.4519 41.4909 50.4154C42.1091 50.3992 42.8405 50.2946 43.0238 49.5861C43.1024 49.3028 43.0676 49 42.9267 48.7419C42.7859 48.4838 42.55 48.2907 42.2692 48.2035C41.6789 48.0044 41.4255 48.9373 42.0125 49.1351H42.0127Z" fill="#211715"/>
<path d="M41.236 50.5672C41.1817 50.5263 41.2554 50.6396 41.2674 50.6706C41.2597 50.6503 41.2191 50.6911 41.2621 50.6558C41.3319 50.5971 41.2326 50.6558 41.294 50.6305C41.35 50.6063 41.2143 50.6109 41.3665 50.6152C41.2781 50.6126 41.1863 50.6268 41.0981 50.6319C40.6901 50.6561 40.2819 50.671 39.8734 50.6838C39.0483 50.7102 38.2224 50.7261 37.3968 50.7177C36.775 50.7111 36.7745 51.6774 37.3968 51.6839C38.4405 51.6948 39.486 51.6704 40.5288 51.6259C40.9694 51.6073 41.5609 51.6771 41.9146 51.3641C42.4443 50.8952 42.2286 50.1133 41.723 49.7328C41.6121 49.669 41.4806 49.6514 41.3568 49.6839C41.2331 49.7164 41.1271 49.7962 41.0619 49.9063C41.0002 50.0176 40.9839 50.1484 41.0162 50.2715C41.0485 50.3946 41.1269 50.5005 41.2353 50.5672H41.236Z" fill="#211715"/>
<path d="M40.0747 51.4579C39.9853 51.5354 39.7653 51.5062 39.6532 51.5112C39.487 51.5185 39.3206 51.5238 39.1542 51.5286C38.7817 51.5395 38.409 51.5467 38.0362 51.5528C37.3698 51.5634 36.7031 51.5714 36.0364 51.5704C35.3578 51.5732 34.6798 51.5289 34.0074 51.4376C33.1861 51.3209 32.3097 51.1368 31.6276 50.638C31.5167 50.5743 31.3852 50.5567 31.2616 50.5892C31.1379 50.6216 31.0319 50.7015 30.9667 50.8114C30.9048 50.9227 30.8883 51.0535 30.9206 51.1767C30.9529 51.2998 31.0314 51.4057 31.1399 51.4723C32.317 52.333 34.0025 52.4649 35.411 52.5231C36.4763 52.5673 37.5488 52.5308 38.614 52.5084C39.2918 52.4939 40.2172 52.6113 40.7588 52.141C41.2291 51.7325 40.5433 51.0516 40.0757 51.4579H40.0747Z" fill="#211715"/>
<path d="M28.5513 38.9496C29.1602 38.4385 29.7744 37.9337 30.3939 37.4353C30.6701 37.2118 30.9466 36.9888 31.2234 36.7664C31.3021 36.7031 31.4381 36.5377 31.5331 36.5176C31.628 36.4976 31.5367 36.5109 31.5401 36.5116C31.5678 36.5186 31.6125 36.5768 31.6347 36.5973C32.5256 37.4 33.386 38.2373 34.2563 39.0612C34.446 39.2404 34.6358 39.4195 34.8257 39.5984C34.8237 39.5965 34.9223 39.688 34.9189 39.6806C34.9349 39.7226 34.9148 39.5784 34.9165 39.6859C34.9165 39.7359 34.7416 39.9057 34.7083 39.9475C34.617 40.0623 34.5255 40.1769 34.4339 40.2914C33.9235 40.9287 33.385 41.5422 32.8703 42.1756C32.4867 42.6476 32.1215 43.1355 31.7471 43.615L30.4393 45.2912C30.3523 45.3836 30.3039 45.5058 30.3039 45.6327C30.3039 45.7597 30.3523 45.8818 30.4393 45.9743C30.5303 46.0642 30.653 46.1145 30.7809 46.1145C30.9087 46.1145 31.0314 46.0642 31.1224 45.9743C32.0029 44.846 32.8505 43.6812 33.7819 42.5944C34.381 41.8954 34.9571 41.1775 35.53 40.4569C35.8274 40.0832 36.0255 39.6958 35.7745 39.2305C35.596 38.9763 35.3798 38.7508 35.1334 38.5617C34.186 37.6657 33.2587 36.742 32.2804 35.8804C31.9422 35.5818 31.5014 35.42 31.0748 35.6661C30.7395 35.8928 30.4216 36.1443 30.1238 36.4183C29.367 37.0285 28.6127 37.6413 27.868 38.2662C27.3911 38.6665 28.0776 39.347 28.5513 38.9496Z" fill="#211715"/>
<path d="M17.3433 34.0651C17.7749 33.4175 18.8344 32.9297 19.7071 32.9457C21.5086 32.9771 22.5657 33.6105 23.2338 34.854C23.7198 35.7596 23.8053 36.9608 23.8962 37.9616C24.0766 39.9477 24.5317 43.5949 24.6781 44.2271C24.8525 44.98 25.8585 45.5646 26.3883 45.5849C28.6347 45.6711 30.4582 45.7605 32.5962 45.6938C32.6386 45.6864 32.6821 45.6883 32.7237 45.6994C32.7653 45.7106 32.804 45.7306 32.8371 45.7582C32.8701 45.7858 32.8968 45.8203 32.9152 45.8592C32.9336 45.8981 32.9433 45.9406 32.9436 45.9837C33.0851 48.061 33.0283 49.8988 32.9945 51.9854C32.9903 52.0643 32.9602 52.1397 32.9089 52.1998C32.8575 52.2599 32.7878 52.3015 32.7105 52.318C29.1944 52.6593 26.416 52.7721 22.7362 52.3846C21.762 52.282 19.9492 51.9392 18.9197 50.9713C18.3076 50.3954 17.6679 49.85 17.2597 48.7111C16.1517 45.6192 16.0053 41.813 15.964 38.3225" fill="#BDBDBD"/>
<path d="M17.7599 34.3088C18.2534 33.6083 19.2409 33.3909 20.0414 33.4424C20.7756 33.4553 21.4865 33.7023 22.0705 34.1475C23.399 35.2743 23.3299 37.2271 23.4939 38.8124C23.657 40.3893 23.8427 41.9659 24.0725 43.5343C24.156 44.1063 24.222 44.6274 24.6003 45.0945C24.8581 45.4054 25.1808 45.656 25.5457 45.8289C25.9221 45.9985 26.3308 46.0844 26.7436 46.0808C27.8513 46.1241 28.9591 46.1709 30.0676 46.19C30.628 46.1998 31.1886 46.2014 31.7495 46.1946C31.8795 46.1928 32.0095 46.1906 32.1394 46.1878C32.2334 46.1859 32.4554 46.2262 32.5358 46.1777C32.5964 46.141 32.6409 46.2323 32.5252 46.1014C32.4095 45.9704 32.4641 46.0791 32.4689 46.1625C32.4778 46.3202 32.4877 46.4765 32.4955 46.6352C32.5537 47.7947 32.5551 48.9541 32.5392 50.1155C32.5355 50.3843 32.5312 50.653 32.5264 50.9216C32.5243 51.058 32.5219 51.1944 32.5194 51.3308C32.488 51.5073 32.4848 51.6876 32.5099 51.8651L32.5124 51.8982C32.5093 51.9589 32.5285 51.9466 32.5699 51.8612C32.5597 51.8105 32.7049 51.9197 32.5358 51.8511C32.4028 51.8432 32.2694 51.8556 32.1401 51.8881C31.8458 51.9151 31.5511 51.9407 31.2563 51.9649C29.1283 52.1507 26.99 52.188 24.8568 52.0765C23.1391 51.9765 21.1852 51.9141 19.6854 50.9576C19.0252 50.5245 18.4685 49.9514 18.0546 49.279C17.5399 48.4184 17.3131 47.3466 17.1065 46.3755C16.6563 44.259 16.5297 42.0855 16.4734 39.9272C16.4594 39.3921 16.451 38.8573 16.4444 38.3223C16.4367 37.701 15.4705 37.6993 15.4782 38.3223C15.4668 40.6686 15.6207 43.0129 15.9389 45.3376C16.0983 46.4299 16.3506 47.5068 16.693 48.5563C17.004 49.4653 17.5221 50.2896 18.2063 50.964C18.8906 51.6385 19.7224 52.1445 20.6359 52.4422C21.4925 52.6976 22.3747 52.858 23.2664 52.9207C25.5659 53.1335 27.8786 53.1633 30.1828 53.0098C30.7799 52.9712 31.3763 52.9231 31.9725 52.8697C32.4998 52.8214 33.132 52.8731 33.3955 52.3142C33.4837 52.0347 33.5137 51.7401 33.4834 51.4487C33.4892 51.1189 33.4948 50.7887 33.5003 50.4583C33.51 49.8525 33.5167 49.2466 33.5138 48.6408C33.5109 48.0302 33.4981 47.4198 33.4701 46.8098C33.446 46.2888 33.5426 45.5277 32.9595 45.2793C32.7308 45.2082 32.4895 45.1873 32.252 45.218C31.938 45.2257 31.6239 45.2302 31.3099 45.2315C30.7169 45.2342 30.1239 45.2262 29.5309 45.2117C28.947 45.1972 28.3632 45.1764 27.7796 45.1542L26.8617 45.1182C26.6521 45.1235 26.4426 45.1066 26.2366 45.0677C25.878 44.9607 25.5598 44.7485 25.3232 44.4585C25.1892 44.2665 25.1079 44.0427 25.0875 43.8095C24.8256 42.2717 24.6633 40.712 24.4976 39.1617C24.3012 37.3259 24.3645 35.2557 23.0773 33.7842C21.8818 32.4172 19.5769 32.0773 17.9926 32.8994C17.5676 33.1156 17.2014 33.4315 16.9251 33.8202C16.5667 34.3299 17.4041 34.8132 17.7595 34.3079L17.7599 34.3088Z" fill="#211715"/>
<path d="M15.2357 66.4675C15.7053 67.0601 16.2726 67.5683 16.9131 67.9702C17.4651 68.2888 18.0597 68.5272 18.6788 68.6784C19.5759 68.8718 20.4872 68.9918 21.4038 69.0374C23.9807 69.2736 26.568 69.4048 29.1526 69.5278C30.5019 69.5922 31.8515 69.6507 33.2013 69.7034C33.8231 69.7275 33.8218 68.7613 33.2013 68.7371C30.7266 68.6386 28.2521 68.5287 25.7795 68.3845C24.5341 68.312 23.2886 68.2311 22.0454 68.1272C21.1545 68.0528 20.2045 67.9683 19.3955 67.8393C18.7992 67.7483 18.221 67.5639 17.6822 67.2929C16.9972 66.9163 16.3969 66.4028 15.9188 65.7844C15.5234 65.3039 14.8434 65.9907 15.2357 66.4675Z" fill="#211715"/>
<path d="M33.1877 56.484C32.0371 56.0492 30.8832 55.6245 29.7404 55.1699C29.6168 55.1368 29.4851 55.1537 29.3739 55.217C29.2627 55.2803 29.1809 55.3849 29.1462 55.5081C29.1152 55.6316 29.1331 55.7624 29.1961 55.8731C29.2591 55.9838 29.3623 56.0659 29.4844 56.1023C30.6272 56.5569 31.7811 56.9818 32.9314 57.4164C33.055 57.4494 33.1866 57.4324 33.2978 57.3691C33.409 57.3058 33.4908 57.2013 33.5256 57.0782C33.5568 56.9546 33.539 56.8238 33.476 56.7131C33.413 56.6023 33.3098 56.5202 33.1877 56.484Z" fill="#211715"/>
<path d="M27.4291 54.133C27.4365 55.4185 27.3059 56.7012 27.0397 57.959C26.8134 59.0138 26.4042 60.046 25.4737 60.6482C23.4545 61.9543 20.8216 62.0371 18.4959 62.0562C17.3684 62.0654 16.2446 62.0154 15.1192 61.9567C14.498 61.9241 14.4997 62.8906 15.1192 62.9229C17.6717 63.056 20.2721 63.1425 22.7975 62.6719C23.8772 62.4825 24.9144 62.1014 25.8599 61.5468C26.8832 60.9231 27.5003 59.9363 27.8276 58.7996C28.2341 57.2785 28.4252 55.7079 28.3953 54.1337C28.3953 53.5119 27.4291 53.5109 27.4291 54.1337V54.133Z" fill="#211715"/>
<path d="M89.7477 50.1239C89.5083 48.5697 89.1498 47.0375 88.8658 45.4916C88.7258 44.8361 88.6306 44.1718 88.581 43.5033C88.5576 42.8779 88.5916 42.2517 88.6827 41.6325C88.9059 40.2419 89.3522 38.8965 90.0044 37.6483C90.3317 36.9806 90.6434 36.2634 91.1207 35.6871C91.561 35.1628 92.0405 34.6727 92.555 34.2211C93.8243 33.1352 95.1827 32.1581 96.6158 31.3C97.1419 30.9712 96.6576 30.1349 96.1281 30.4656C94.7765 31.2863 93.484 32.2007 92.2603 33.2022C91.6919 33.6771 91.1582 34.1921 90.6634 34.7433C90.1937 35.2921 89.7959 35.8985 89.4798 36.548C88.765 37.92 88.1174 39.3259 87.836 40.8557C87.7039 41.5527 87.6282 42.2593 87.6097 42.9685C87.6115 43.633 87.6736 44.296 87.7952 44.9493C88.0884 46.7692 88.5356 48.5606 88.8162 50.3826C88.851 50.5058 88.9329 50.6103 89.0441 50.6736C89.1554 50.7369 89.2871 50.7539 89.4107 50.7208C89.5327 50.6843 89.6359 50.6021 89.6989 50.4915C89.7619 50.3808 89.7798 50.2501 89.7489 50.1266L89.7477 50.1239Z" fill="#211715"/>
<path d="M15.9944 30.0332C14.9442 31.2712 14.1425 32.7001 13.633 34.2416C13.1436 35.8893 12.9775 37.6162 13.1441 39.3271C13.2649 40.8218 13.5934 42.2704 13.8622 43.7412C13.9941 44.4623 14.1173 45.1877 14.1777 45.9186C14.2153 46.6803 14.1691 47.4439 14.04 48.1955C13.8028 49.9577 13.4781 51.7044 13.1059 53.4426C12.9762 54.0489 13.9074 54.3081 14.0376 53.6994C14.3473 52.2537 14.6255 50.8024 14.8449 49.34C15.0229 48.4266 15.1332 47.5012 15.1748 46.5716C15.1575 45.8656 15.0862 45.162 14.9615 44.4669C14.7545 43.1369 14.4301 41.8276 14.239 40.4952C13.9547 38.7775 13.9892 37.0222 14.3407 35.317C14.7526 33.623 15.5527 32.048 16.6778 30.7163C17.0705 30.2402 16.3906 29.553 15.9944 30.0332Z" fill="#211715"/>
<path d="M17.4841 28.961C17.5061 28.8687 17.5293 28.7767 17.5529 28.6849C17.5889 28.5448 17.6121 28.2335 17.7206 28.1356C17.8897 27.9839 18.4211 28.2192 18.6119 28.2757C19.3582 28.5041 20.0782 28.8109 20.7598 29.191C21.9329 29.7958 23.0053 30.5785 23.9389 31.5114C24.4352 32.0823 24.8648 32.708 25.2191 33.3764C25.6271 34.0722 25.9888 34.7941 26.302 35.5374C26.9342 37.051 27.5707 38.6261 27.7825 40.2605C28.0105 42.0178 27.5832 43.7913 27.2373 45.5052C27.1146 46.1124 28.0458 46.3721 28.169 45.7622C28.5023 44.1102 28.913 42.391 28.7927 40.6951C28.6608 38.838 27.9741 37.1039 27.2808 35.3951C26.9446 34.5641 26.5522 33.7571 26.1061 32.9795C25.6971 32.2069 25.1992 31.4847 24.6225 30.8278C23.5757 29.7797 22.3663 28.9079 21.0412 28.246C20.1935 27.784 19.2888 27.4354 18.3503 27.209C17.8539 27.0984 17.3619 27.0807 16.9957 27.4972C16.7143 27.817 16.6486 28.3006 16.5522 28.7035C16.4072 29.3074 17.3394 29.5659 17.4841 28.9605V28.961Z" fill="#211715"/>
<path d="M16.8761 29.4134C18.1851 29.7113 19.4456 30.1925 20.6201 30.8427C20.7308 30.9074 20.8626 30.9254 20.9865 30.8929C21.1105 30.8604 21.2165 30.78 21.2812 30.6694C21.3458 30.5587 21.3639 30.4269 21.3314 30.303C21.2989 30.179 21.2185 30.073 21.1078 30.0084C19.8608 29.3156 18.5225 28.8017 17.1323 28.4817C17.0088 28.4507 16.878 28.4685 16.7673 28.5315C16.6566 28.5945 16.5745 28.6978 16.5381 28.8199C16.5054 28.9435 16.5225 29.075 16.5857 29.1862C16.649 29.2973 16.7533 29.3792 16.8763 29.4141L16.8761 29.4134Z" fill="#211715"/>
<path d="M94.8874 10.1296C94.5057 10.1003 94.1047 10.0882 93.6823 10.0943C92.6793 10.1346 91.6875 10.3205 90.738 10.646C88.8286 11.3535 87.2726 12.7811 86.4035 14.6225C86.2193 15.0192 86.0707 15.4315 85.9593 15.8544L86.181 16.0515C88.0918 17.7482 90.2578 19.1336 92.5994 20.1568C93.0705 20.391 93.5805 20.5369 94.1042 20.5872L94.818 20.6189C94.8957 20.5831 94.9766 20.5549 95.0596 20.5346C95.2282 20.4846 95.4058 20.4728 95.5796 20.4998C95.7534 20.5269 95.919 20.5922 96.0645 20.6911C96.4739 20.9904 96.6613 21.6155 96.6353 22.13C96.5666 23.4808 95.8688 24.39 94.6439 24.9459C95.0195 25.9227 95.419 26.9199 95.4693 27.9535C95.5062 28.7151 95.2188 29.8825 94.4175 30.4301C95.3733 31.1545 96.4818 31.6511 97.6586 31.8821C98.8354 32.1131 100.049 32.0724 101.208 31.763C101.702 31.6151 102.145 31.3323 102.487 30.9465C102.83 30.5607 103.057 30.0871 103.145 29.5789C103.238 28.7925 103.221 27.9969 103.094 27.2153C102.909 26.0522 102.594 24.7456 103.167 21.7397C103.395 20.7243 103.5 19.6853 103.481 18.6449C103.379 16.931 102.752 15.2902 101.685 13.9447C99.8941 11.7963 98.0505 10.3718 94.8874 10.1296Z" fill="#645D5C"/>
<path d="M94.634 21.3653C94.9481 21.0272 95.5474 20.7532 95.9017 21.1989C96.2005 21.5748 96.187 22.1277 96.1008 22.5548C96.0225 22.9913 95.8278 23.3987 95.5372 23.7338C95.2001 24.098 94.7849 24.3811 94.3227 24.5618C94.2012 24.5992 94.0986 24.6815 94.0358 24.7919C93.9729 24.9023 93.9546 25.0326 93.9845 25.1561C94.0191 25.2793 94.1008 25.384 94.2121 25.4473C94.3234 25.5106 94.4551 25.5275 94.5787 25.4943C95.6157 25.0652 96.4788 24.387 96.8877 23.3135C97.2967 22.24 97.2283 20.5936 95.9855 20.11C95.258 19.8266 94.4572 20.1361 93.95 20.6827C93.5272 21.138 94.2089 21.8228 94.6331 21.3661L94.634 21.3653Z" fill="#211715"/>
<path d="M86.1051 18.3206C86.0871 16.6246 86.6067 14.9665 87.5894 13.5842C88.5091 12.3289 89.8163 11.4112 91.3093 10.9725C94.1763 10.1396 97.4093 10.5877 99.7 12.5745C100.816 13.5421 101.853 14.7137 102.409 16.0968C102.998 17.6128 103.146 19.2644 102.837 20.861C102.577 22.407 102.272 23.9399 102.382 25.517C102.47 26.7716 102.803 27.9751 102.699 29.2449C102.677 29.6049 102.57 29.9545 102.387 30.2651C102.204 30.5758 101.95 30.8388 101.646 31.0324C101.189 31.29 100.681 31.4456 100.158 31.4885C98.7 31.6778 97.2185 31.4327 95.8989 30.7841C95.481 30.5725 95.0819 30.3255 94.7061 30.0459C94.5953 29.9822 94.4638 29.9646 94.3401 29.997C94.2164 30.0294 94.1105 30.1092 94.0452 30.2191C93.9834 30.3305 93.967 30.4613 93.9993 30.5844C94.0315 30.7076 94.11 30.8135 94.2184 30.8803C95.6743 31.95 97.4361 32.5221 99.2427 32.512C100.613 32.5045 102.089 32.2385 102.984 31.1013C104.03 29.7708 103.69 27.9483 103.45 26.4026C103.368 25.8686 103.326 25.3292 103.324 24.789C103.329 23.9615 103.405 23.1361 103.551 22.3215C103.76 21.3246 103.9 20.3147 103.972 19.2986C103.992 18.4663 103.889 17.6356 103.669 16.8328C103.44 15.953 103.073 15.1149 102.582 14.3496C102.125 13.6774 101.601 13.0532 101.018 12.4868C100.012 11.4417 98.7811 10.6402 97.4185 10.1437C95.7187 9.57385 93.9013 9.44911 92.1396 9.78134C90.385 10.0605 88.7676 10.8988 87.5281 12.1716C86.2885 13.4443 85.4932 15.0834 85.2606 16.8447C85.1863 17.3334 85.146 17.8267 85.1398 18.3211C85.1343 18.9431 86.1005 18.9436 86.106 18.3211L86.1051 18.3206Z" fill="#211715"/>
<path d="M94.2325 25.2186C94.5937 26.1559 95.0224 27.1682 94.9867 28.1922C94.9625 28.8647 94.7072 29.6587 94.1224 30.0466C93.6067 30.3887 94.09 31.2259 94.6101 30.8809C95.4483 30.3254 95.8493 29.3572 95.9406 28.3835C96.0502 27.2107 95.5782 26.0336 95.1642 24.9619C95.1272 24.8402 95.0449 24.7374 94.9344 24.6745C94.8239 24.6116 94.6935 24.5934 94.57 24.6237C94.4469 24.6584 94.3424 24.7403 94.2791 24.8515C94.2158 24.9627 94.1988 25.0943 94.2318 25.2179L94.2325 25.2186Z" fill="#211715"/>
<path d="M85.8381 16.3931C87.0357 17.4556 88.3316 18.4019 89.7082 19.2193C90.3788 19.6163 91.0675 19.9802 91.7745 20.3112C92.519 20.6597 93.2721 21.0151 94.1043 21.0704C94.7251 21.1115 94.7227 20.145 94.1043 20.1042C93.3905 20.0559 92.7033 19.6897 92.0701 19.386C91.3991 19.0639 90.7439 18.7122 90.1046 18.3309C88.8315 17.5703 87.632 16.6929 86.5214 15.71C86.0571 15.2994 85.3711 15.9803 85.8381 16.3931Z" fill="#211715"/>
<path d="M94.798 25.0931C94.6786 25.089 94.5595 25.1088 94.4479 25.1514C94.3362 25.1941 94.2343 25.2587 94.148 25.3414C94.0618 25.4242 93.993 25.5234 93.9458 25.6332C93.8986 25.743 93.8739 25.8611 93.8731 25.9806C93.8768 26.1021 93.9056 26.2215 93.9578 26.3312C94.01 26.4409 94.0844 26.5386 94.1763 26.6181C94.2682 26.6976 94.3757 26.7571 94.4918 26.7929C94.6079 26.8287 94.7302 26.84 94.8509 26.8261C95.4265 26.8087 95.7913 26.4372 95.7756 25.9226C95.7677 25.8033 95.736 25.6868 95.6822 25.5799C95.6284 25.4731 95.5537 25.3782 95.4625 25.3008C95.3713 25.2234 95.2655 25.1652 95.1514 25.1295C95.0372 25.0938 94.917 25.0815 94.798 25.0931Z" fill="white"/>
<path d="M94.7979 24.6106C94.5005 24.612 94.2107 24.7058 93.9688 24.8788C93.7268 25.0519 93.5445 25.2958 93.4469 25.5768C93.3654 25.8519 93.3739 26.1459 93.4713 26.4158C93.5687 26.6857 93.7498 26.9175 93.9883 27.0771C94.2291 27.2248 94.5048 27.306 94.7872 27.3124C95.0697 27.3189 95.3488 27.2502 95.596 27.1136C95.8407 26.9695 96.0333 26.7516 96.1465 26.4913C96.2596 26.2309 96.2874 25.9414 96.2258 25.6643C96.1457 25.3508 95.9597 25.0746 95.6993 24.8825C95.4389 24.6903 95.1202 24.5941 94.797 24.6101C94.6689 24.6101 94.546 24.661 94.4554 24.7516C94.3648 24.8422 94.3139 24.9651 94.3139 25.0932C94.3139 25.2214 94.3648 25.3442 94.4554 25.4348C94.546 25.5254 94.6689 25.5763 94.797 25.5763C94.8453 25.5763 94.8912 25.5783 94.9383 25.5804C95.04 25.5855 94.8197 25.5563 94.9173 25.5787C94.9344 25.5826 94.9518 25.5858 94.969 25.5901C95.01 25.6002 95.0506 25.621 95.0917 25.629C94.9777 25.6065 95.0192 25.5971 95.0675 25.6217C95.0893 25.6329 95.1105 25.6459 95.1313 25.6582C95.1484 25.6686 95.1644 25.6824 95.1815 25.6918C95.2335 25.722 95.0866 25.6075 95.1492 25.6676C95.1777 25.6952 95.205 25.7225 95.2323 25.751C95.2919 25.8135 95.1782 25.6655 95.2069 25.7174C95.2163 25.7341 95.2289 25.7495 95.239 25.7657C95.2492 25.7819 95.2574 25.7995 95.2673 25.8162C95.3214 25.9075 95.2349 25.7145 95.2603 25.7964C95.2721 25.8336 95.2823 25.8708 95.2922 25.9085C95.3021 25.9462 95.2888 25.9846 95.2864 25.85C95.2864 25.8742 95.2907 25.8983 95.2917 25.9225C95.2917 25.9638 95.2902 26.0046 95.2878 26.0459C95.2854 26.0872 95.2605 26.0986 95.2958 25.9884C95.2876 26.014 95.2852 26.0423 95.2782 26.0684C95.2712 26.0945 95.2241 26.2177 95.261 26.1283C95.298 26.0389 95.2414 26.158 95.2282 26.179C95.2183 26.1945 95.2062 26.209 95.1968 26.2247C95.2615 26.1155 95.2564 26.1522 95.2306 26.1785C95.1997 26.2104 95.1649 26.2394 95.134 26.2713C95.2231 26.1783 95.1984 26.223 95.1581 26.2493C95.1451 26.2578 95.132 26.2657 95.1187 26.2735C95.0982 26.2853 95.0769 26.2952 95.0562 26.3063C95.0197 26.3254 94.9994 26.3095 95.1045 26.286C95.0649 26.295 95.026 26.3138 94.9861 26.3239C94.962 26.3302 94.9356 26.3348 94.9103 26.3404C94.8236 26.3599 95.0296 26.3322 94.9327 26.3377C94.8864 26.3404 94.8407 26.344 94.7943 26.3433C94.748 26.3425 94.6011 26.3148 94.7644 26.3481C94.7231 26.3396 94.6815 26.3334 94.6407 26.322C94.6248 26.3179 94.6091 26.3131 94.5924 26.308C94.4716 26.2689 94.6675 26.3498 94.5958 26.3121C94.5612 26.294 94.5264 26.2766 94.4934 26.2553C94.481 26.2471 94.4692 26.236 94.4554 26.2293C94.5636 26.2858 94.5197 26.2812 94.482 26.2471C94.4578 26.2242 94.4359 26.1964 94.411 26.1747C94.3675 26.1351 94.4834 26.2814 94.4378 26.2097C94.4255 26.1904 94.4124 26.1715 94.4011 26.1517C94.3897 26.1319 94.3818 26.109 94.3692 26.0906C94.4291 26.1788 94.404 26.1819 94.3909 26.1413C94.3779 26.1008 94.3668 26.066 94.3574 26.0268C94.3462 25.9756 94.3639 25.9302 94.3588 26.0578C94.3588 26.0418 94.3557 26.0235 94.3547 26.0073C94.352 25.959 94.3583 25.9106 94.3586 25.8623C94.3586 25.9986 94.3424 25.9534 94.3547 25.9106C94.3622 25.8846 94.3675 25.8582 94.376 25.8324C94.3805 25.8186 94.388 25.8032 94.3914 25.7889C94.3569 25.8681 94.3499 25.8855 94.3706 25.8406C94.3776 25.8268 94.3847 25.8131 94.3924 25.7998C94.4001 25.7865 94.4078 25.773 94.4165 25.7599C94.4252 25.7469 94.4334 25.7341 94.4426 25.7213C94.3924 25.7846 94.3792 25.8018 94.403 25.773C94.4339 25.7425 94.4607 25.7082 94.4934 25.6792C94.5359 25.6413 94.569 25.6507 94.4709 25.6945C94.4921 25.6822 94.5126 25.6688 94.5322 25.6541C94.5501 25.6432 94.569 25.6343 94.5868 25.6239C94.6835 25.5672 94.4902 25.6558 94.5762 25.6261C94.6261 25.6082 94.6771 25.5935 94.7289 25.5821C94.7467 25.5785 94.7653 25.5766 94.783 25.5725C94.6344 25.6075 94.7521 25.5787 94.7955 25.5768C94.9237 25.5768 95.0465 25.5259 95.1371 25.4353C95.2277 25.3447 95.2786 25.2218 95.2786 25.0937C95.2786 24.9656 95.2277 24.8427 95.1371 24.7521C95.0465 24.6615 94.9237 24.6106 94.7955 24.6106H94.7979Z" fill="#211715"/>
</g>
<defs>
<filter id="filter0_d_46_866" x="0" y="0" width="116" height="86.3779" filterUnits="userSpaceOnUse" color-interpolation-filters="sRGB">
<feFlood flood-opacity="0" result="BackgroundImageFix"/>
<feColorMatrix in="SourceAlpha" type="matrix" values="0 0 0 0 0 0 0 0 0 0 0 0 0 0 0 0 0 0 127 0" result="hardAlpha"/>
<feOffset/>
<feGaussianBlur stdDeviation="4"/>
<feComposite in2="hardAlpha" operator="out"/>
<feColorMatrix type="matrix" values="0 0 0 0 0 0 0 0 0 0 0 0 0 0 0 0 0 0 0.25 0"/>
<feBlend mode="normal" in2="BackgroundImageFix" result="effect1_dropShadow_46_866"/>
<feBlend mode="normal" in="SourceGraphic" in2="effect1_dropShadow_46_866" result="shape"/>
</filter>
</defs>
</svg>
