<svg width="116" height="70" viewBox="0 0 116 70" fill="none" xmlns="http://www.w3.org/2000/svg">
<g filter="url(#filter0_d_46_947)">
<path d="M49.3202 18.4991C48.8661 18.6957 48.4163 18.8793 47.9708 19.0426C47.957 19.0442 47.95 19.045 47.95 19.045C46.8874 19.1777 45.3856 19.5327 44.2975 19.7756C42.8385 20.1014 41.5167 20.8092 40.4314 21.0643C39.7839 21.2162 38.6515 21.3121 37.9867 21.3104C36.6627 21.3077 33.5313 20.8035 32.0067 20.5227L31.7668 20.4786C31.1413 24.951 28.3139 38.3742 26.7863 43.2244C27.358 43.2696 28.2156 43.3446 29.4041 43.48C30.1198 43.5615 30.8981 43.7724 31.5813 43.9999C31.6674 44.0286 31.7524 44.0595 31.8367 44.0925C31.8367 44.0925 39.4961 47.6372 41.9032 49.2785C44.551 51.0839 56.0446 58.1245 56.0446 58.1245C57.0075 58.6661 59.3545 59.7628 60.4558 60.1281C61.5777 60.5001 63.0427 60.6144 64.1733 60.2697C65.3038 59.925 65.8603 59.0945 65.9134 58.2447L65.8852 57.8087C66.9191 58.2458 69.2561 58.6536 70.8678 57.3018C71.5987 56.689 72.0312 55.296 71.7103 54.4133L71.6423 54.13C73.1303 54.9573 75.7765 54.9952 77.3268 53.1297C78.2007 52.0779 77.9743 50.0202 76.652 48.8135C76.7043 48.849 76.7554 48.8837 76.8053 48.9175C79.0399 49.6441 81.0979 48.6167 81.7797 47.4734C82.4291 46.3848 82.7126 44.5843 81.3798 43.1653C82.6425 42.3465 84.2182 41.5387 85.5451 40.7217C86.6199 40.0612 87.7026 39.4278 88.8456 38.9039C87.2804 33.393 84.8348 21.8572 84.2039 17.5589C83.2539 17.7828 82.1897 17.9968 80.9606 18.1917C79.3033 18.4923 64.6886 15.4946 60.4777 15.0424C56.4497 14.7887 52.7569 17.013 49.3202 18.4996V18.4991Z" fill="white"/>
<path d="M37.046 49.1111C37.6242 47.761 38.4138 46.5616 39.393 45.4665C39.927 44.8694 40.4924 44.2756 41.2051 43.9103C42.4018 43.2972 43.9496 43.4489 45.0047 44.2821C46.0597 45.1153 46.4716 46.6938 46.1493 47.9911C45.8271 49.2885 43.3639 52.9754 41.8732 53.8998C41.0814 54.3908 39.8761 54.491 39.0171 54.13C37.9689 53.6897 37.436 53.1002 36.9637 52.066C36.6014 51.2726 36.6536 50.0281 37.046 49.1111Z" fill="white"/>
<path d="M43.9958 52.7386C44.4462 51.389 45.1129 50.1682 45.9707 49.0331C46.4384 48.414 46.9369 47.7955 47.596 47.3861C48.7022 46.6988 50.2087 46.7216 51.2937 47.4419C52.3788 48.1622 52.9022 49.6532 52.6945 50.9313C52.4868 52.2095 50.4034 55.9651 49.038 56.9765C48.3128 57.5138 47.1573 57.7063 46.2992 57.4266C45.252 57.0851 44.6907 56.5584 44.1521 55.5976C43.7388 54.8605 43.6901 53.655 43.9958 52.7386Z" fill="white"/>
<path d="M49.9869 57.5031C50.1965 56.3414 51.0595 54.3183 51.9886 53.4978C52.7985 52.7826 54.0553 52.6421 55.0318 53.1046C56.0083 53.5674 56.4949 54.9343 56.4762 56.0086C56.4575 57.0828 55.6319 59.3919 54.6307 60.3846C54.0989 60.9118 53.173 61.2072 52.4351 61.0794C51.5347 60.9235 51.011 60.5573 50.4548 59.8324C50.028 59.2762 49.8447 58.2919 49.9872 57.5031H49.9869Z" fill="white"/>
<path d="M30.4039 47.7763C30.07 46.9122 30.3451 45.4023 30.8959 44.7215C31.7847 43.6226 33.746 43.8886 34.8046 44.5536C35.5847 45.0438 36.62 46.1426 36.8499 46.6815C37.5496 48.1465 36.8569 49.4317 36.3389 49.8327C35.7309 50.3034 34.2416 50.4588 33.4823 50.3383C32.1808 50.1317 30.9173 49.1057 30.4039 47.7766V47.7763Z" fill="white"/>
<path d="M8.70646 11.6826C14.9385 13.3821 25.3083 16.09 27.9599 16.8957C25.4033 26.8451 23.3729 40.8478 21.2115 46.5039C19.0308 45.9999 12.3676 44.2888 8.44162 43.3093" fill="#3D8DCC"/>
<path d="M107.293 8.59766C101.061 10.2972 90.6912 13.0051 88.0396 13.8107C90.5961 23.7602 92.6265 37.7629 94.788 43.4189C96.9687 42.915 103.632 41.2038 107.558 40.2244" fill="#645D5C"/>
<path d="M85.8183 15.7296C86.6559 15.4637 87.6034 15.1801 88.2471 14.9946C88.2471 14.9946 88.2763 14.9862 88.331 14.9697C90.3942 23.364 92.1211 34.1627 93.8728 40.538C93.7954 40.5602 93.7548 40.5724 93.7548 40.5724C92.6616 40.9028 90.9726 41.1568 89.7058 41.4898C88.288 38.4096 84.2737 19.5323 84.0601 16.3524C84.2794 16.2349 84.9959 15.9906 85.8183 15.7296Z" fill="white"/>
<path d="M22.1845 43.4114C23.9159 37.0136 25.6265 26.366 27.6661 18.0654C27.7214 18.0752 27.7525 18.0798 27.7525 18.0798C29.028 18.447 31.4183 19.2055 31.8821 19.4587C31.6685 22.6386 27.7114 41.4947 26.2938 44.575C25.027 44.2419 23.338 43.9879 22.2448 43.6575C22.2448 43.6575 22.204 43.6453 22.127 43.6223C22.1463 43.5525 22.1655 43.4821 22.1845 43.4114Z" fill="white"/>
<path d="M58.809 26.0978C57.7678 25.8882 56.6012 26.1235 55.5779 26.322C54.9477 26.4444 54.3219 26.5971 53.7113 26.7951C53.1199 26.9868 52.3855 27.2013 51.9284 27.6437C51.6652 27.8986 51.516 28.2354 51.3524 28.5569C51.1791 28.8978 51.0088 29.2401 50.8379 29.5821C50.5311 30.196 50.2224 30.8096 49.8814 31.4056C49.2145 32.5714 48.4024 33.6391 47.3308 34.4637C46.796 34.8753 46.3544 35.0886 45.6749 35.1758C45.093 35.2503 44.4832 35.2758 43.9738 35.0662C43.4317 34.8433 42.8595 34.3364 42.7869 33.722C42.7449 33.368 42.8159 32.9794 42.8308 32.6244C42.8495 32.1798 42.8633 31.7351 42.8744 31.2905C42.9088 29.891 42.9069 28.4894 43.019 27.0932C43.078 26.3575 43.1704 25.6261 43.2946 24.8984C43.4273 24.1223 43.5576 23.2943 43.9245 22.5886C44.6015 21.2871 45.9863 20.3832 47.3498 19.9397C48.756 19.4823 50.1 18.8717 51.4388 18.2475C54.1928 16.9631 57.0856 15.5691 60.2006 15.679C60.4026 15.6861 60.6011 15.7053 60.8015 15.7297C60.8749 15.7386 60.948 15.7478 61.0211 15.7573C61.0593 15.7622 61.0977 15.7673 61.1359 15.7722C61.1852 15.7787 61.1671 15.7762 61.0809 15.7646C61.1132 15.7689 61.1454 15.7733 61.1776 15.7779C61.5537 15.8301 61.9293 15.8854 62.3047 15.9433C63.2511 16.0895 64.1956 16.2482 65.1396 16.4099C67.3555 16.7893 69.5679 17.1879 71.7825 17.5748C73.8112 17.9293 75.8411 18.2851 77.8802 18.5746C78.5937 18.6759 79.3097 18.7761 80.0284 18.8332C80.7211 18.8885 81.3358 18.791 82.0258 18.6688C82.8141 18.5291 83.5983 18.3685 84.3779 18.1874C85.1924 17.9981 84.8477 16.7446 84.0324 16.9339C83.2119 17.1245 82.3862 17.2921 81.5562 17.437C81.3223 17.4779 81.0875 17.5136 80.8538 17.5543C80.6128 17.5962 80.9829 17.561 80.8581 17.5545C80.7755 17.5502 80.6891 17.5629 80.6063 17.5624C80.0268 17.5594 79.4446 17.4809 78.8708 17.408C78.7836 17.3969 78.6964 17.3856 78.6094 17.3742C78.4351 17.3512 78.7023 17.3869 78.5924 17.3718C78.5461 17.3655 78.4998 17.359 78.4535 17.3528C78.229 17.3217 78.0048 17.2894 77.7808 17.2564C77.3169 17.1879 76.8536 17.1159 76.3906 17.0417C75.309 16.8686 74.2291 16.6853 73.1497 16.4987C69.0431 15.789 64.9406 14.9322 60.8012 14.4293C57.7697 14.061 54.7571 15.298 52.0608 16.5315C50.6781 17.1638 49.3155 17.8516 47.8892 18.3823C47.1713 18.6494 46.4388 18.8546 45.7521 19.2012C45.0467 19.5573 44.3857 20.0288 43.8257 20.5869C43.2164 21.1943 42.7566 21.8972 42.4714 22.7099C42.1941 23.4998 42.065 24.3455 41.9426 25.1711C41.7251 26.6375 41.6396 28.1084 41.609 29.5894C41.5938 30.3243 41.5832 31.0592 41.561 31.7942C41.5475 32.2388 41.5304 32.6835 41.5082 33.1278C41.4876 33.54 41.4714 33.9418 41.6052 34.3399C41.8581 35.0927 42.4414 35.7256 43.1365 36.099C43.774 36.4413 44.4761 36.5396 45.1918 36.5122C45.8956 36.4851 46.6365 36.3779 47.2742 36.0627C47.9228 35.7421 48.5264 35.1953 49.0387 34.6911C50.0309 33.7144 50.7753 32.5278 51.4196 31.3019C51.7659 30.6425 52.0906 29.9723 52.4274 29.308C52.5553 29.0559 52.6676 28.6909 52.9049 28.5252C53.135 28.3643 53.3958 28.2831 53.649 28.1897C54.8194 27.7577 56.0902 27.4821 57.3183 27.3692C57.5598 27.347 57.8024 27.3307 58.0453 27.3296C58.1393 27.3291 58.2335 27.3304 58.3275 27.3361C58.3763 27.3391 58.4247 27.3434 58.4732 27.3483C58.2893 27.3299 58.4228 27.3426 58.4643 27.351C58.8082 27.4201 59.1662 27.2522 59.2636 26.8972C59.3517 26.5768 59.1556 26.1674 58.8098 26.0978H58.809Z" fill="#211715"/>
<path d="M58.4628 27.3497C58.5194 27.3706 58.6957 27.4564 58.4777 27.3516C58.5295 27.3765 58.5828 27.3979 58.6348 27.4226C58.7634 27.4835 58.8893 27.5501 59.0136 27.6192C59.315 27.7865 59.6075 27.9704 59.8967 28.1578C60.7976 28.7421 61.6728 29.3671 62.5494 29.987C65.5019 32.0745 68.4784 34.129 71.4144 36.2399C73.0641 37.4259 74.6991 38.6326 76.3101 39.8707C77.1097 40.4851 77.9023 41.1087 78.6879 41.7413C79.0854 42.0614 79.4808 42.3839 79.8743 42.7088C80.2677 43.0338 80.6929 43.3487 81.0276 43.74C81.8808 44.7376 81.8337 46.1893 81.1806 47.2056C80.8754 47.6806 80.268 48.07 79.7018 48.2693C79.3264 48.4012 78.9373 48.4862 78.5395 48.5049C78.0968 48.5255 77.507 48.5241 77.0973 48.3275C76.8392 48.2038 76.5958 47.9906 76.3591 47.8287C76.0317 47.6048 75.7048 47.38 75.3785 47.155C74.6395 46.6456 73.9019 46.1341 73.1651 45.6218C71.8571 44.7119 70.5505 43.7999 69.2499 42.88C68.9632 42.6772 68.5272 42.8288 68.3606 43.1131C68.1703 43.4386 68.3065 43.799 68.5938 44.0024C71.0751 45.7572 73.568 47.497 76.0794 49.2084C76.4463 49.4586 76.7823 49.6116 77.2256 49.698C77.7288 49.7958 78.2462 49.8375 78.7575 49.7901C79.653 49.7069 80.5515 49.4275 81.2862 48.8967C82.527 48.0004 83.1352 46.4672 82.9302 44.9537C82.8102 44.0682 82.3924 43.2604 81.7647 42.626C81.0235 41.8767 80.1296 41.2409 79.3078 40.5831C77.5999 39.2164 75.8589 37.8906 74.0977 36.5932C70.8701 34.2162 67.5618 31.9521 64.2911 29.635C63.2399 28.8903 62.193 28.1386 61.1256 27.4169C60.5274 27.0123 59.92 26.5945 59.2633 26.2885C59.1141 26.2189 58.9622 26.1539 58.8078 26.097C58.4783 25.9757 58.0959 26.2327 58.0085 26.5509C57.9088 26.9138 58.1317 27.2287 58.4623 27.3503L58.4628 27.3497Z" fill="#211715"/>
<path d="M55.716 58.6858C57.0196 59.4139 58.4061 60.0419 59.7982 60.5792C61.4092 61.2009 63.5568 61.4722 65.1188 60.5645C65.9726 60.0682 66.4833 59.2217 66.5626 58.2449C66.5911 57.8945 66.2437 57.595 65.9127 57.595C65.5374 57.595 65.2913 57.8937 65.2628 58.2449C65.2016 58.9991 64.5458 59.5117 63.797 59.6994C62.8013 59.9488 61.6992 59.8375 60.7278 59.5339C59.9723 59.2978 59.2439 58.9612 58.5255 58.6316C57.7979 58.2977 57.071 57.9544 56.3719 57.5636C55.6407 57.1553 54.9846 58.2774 55.7157 58.686L55.716 58.6858Z" fill="#211715"/>
<path d="M31.8338 21.1493C33.7364 21.4986 35.6796 21.8514 37.6142 21.9495C38.5972 21.9993 39.646 21.9148 40.604 21.6908C41.8069 21.4098 42.9142 20.81 44.1084 20.4912C45.3589 20.1576 46.6657 19.8611 47.9499 19.6951C48.2978 19.6502 48.5998 19.4286 48.5998 19.0452C48.5998 18.7289 48.3005 18.3501 47.9499 18.3953C46.7741 18.5475 45.6183 18.8126 44.4628 19.0731C43.2342 19.3498 42.105 19.8411 40.9176 20.2437C39.1304 20.85 37.2213 20.6702 35.3885 20.4146C34.3154 20.2649 33.2449 20.0918 32.1791 19.896C31.8341 19.8327 31.4783 19.9908 31.3797 20.3499C31.293 20.6656 31.4869 21.0856 31.8338 21.1493Z" fill="#211715"/>
<path d="M82.1276 43.4612C83.2734 42.7576 84.4646 42.1321 85.6165 41.4389C86.7812 40.7383 87.9389 40.0359 89.174 39.4632C89.4924 39.3156 89.5723 38.8563 89.4071 38.5739C89.2159 38.2473 88.8376 38.1926 88.5178 38.3407C87.2827 38.9135 86.1251 39.6159 84.9604 40.3164C83.8084 41.0094 82.6175 41.6352 81.4715 42.3387C80.7598 42.7755 81.4119 43.9004 82.1276 43.4612Z" fill="#211715"/>
<path d="M63.84 49.9196C66.0938 51.4263 68.3904 52.8745 70.691 54.3089C71.2432 54.6531 71.7888 54.9661 72.4244 55.1343C73.0946 55.3116 73.8065 55.3658 74.4949 55.2856C76.0013 55.1099 77.6529 54.2797 78.2557 52.8065C78.9096 51.2089 78.2115 49.2264 76.9036 48.1771C76.6301 47.9577 76.2518 47.9098 75.9845 48.1771C75.7573 48.4043 75.7094 48.8754 75.9845 49.0961C76.9215 49.8476 77.4511 51.1311 77.0826 52.2506C76.9215 52.7397 76.4376 53.1829 75.9203 53.4889C75.4113 53.7903 74.8244 53.9691 74.2376 54.0102C73.6191 54.0535 73.0589 53.9896 72.4726 53.7911C72.0353 53.643 71.5855 53.3354 71.1484 53.0622C69.9835 52.3337 68.8242 51.5961 67.6671 50.8549C66.6061 50.1752 65.5435 49.4975 64.4961 48.7972C63.7988 48.3309 63.1473 49.4563 63.84 49.9196Z" fill="#211715"/>
<path d="M59.6278 54.6133C61.4874 55.8398 63.3374 57.1136 65.2668 58.2282C66.0196 58.6631 66.9639 58.8323 67.8207 58.8705C68.9846 58.9225 70.182 58.6403 71.1176 57.9268C72.1669 57.1266 72.7648 55.5213 72.337 54.2405C72.0732 53.4511 70.8176 53.7893 71.0835 54.586C71.3421 55.3602 70.9933 56.399 70.342 56.8948C69.5752 57.4783 68.5889 57.6294 67.6498 57.5607C67.2758 57.5333 66.8829 57.4567 66.4989 57.3402C66.4272 57.3186 66.3557 57.2953 66.285 57.2701C66.2525 57.2585 66.0421 57.1734 66.174 57.2311C66.0584 57.1805 65.9503 57.1212 65.8428 57.0556C64.9641 56.5197 64.094 55.9703 63.2288 55.413C62.2431 54.7783 61.2623 54.1362 60.2837 53.4909C59.5834 53.0292 58.9316 54.1541 59.6275 54.6133H59.6278Z" fill="#211715"/>
<path d="M26.786 43.8744C28.4384 44.0054 30.1005 44.1219 31.6633 44.7195C31.9912 44.8449 32.376 44.5809 32.4627 44.2657C32.5634 43.8995 32.3378 43.5922 32.0088 43.4663C30.344 42.8294 28.547 42.7143 26.786 42.5748C26.4356 42.5469 26.1361 42.8935 26.1361 43.2247C26.1361 43.5995 26.4348 43.8467 26.786 43.8746V43.8744Z" fill="#211715"/>
<path d="M18.7162 13.7004C15.4994 12.8392 12.281 11.9833 9.06803 11.1083C8.66075 10.9976 8.24509 11.312 8.24536 11.7349C8.24915 19.918 8.14381 28.1011 8.06365 36.2839C8.04091 38.6111 8.01897 40.9383 8.00002 43.2658C7.99785 43.545 8.20284 43.8239 8.47716 43.8924C12.014 44.7757 15.5308 45.736 19.062 46.641C19.7194 46.8094 20.3775 46.9778 21.0388 47.1311C21.4057 47.2161 21.7087 47.0174 21.8381 46.6772C23.0239 43.5593 23.6682 40.2159 24.3516 36.9612C25.2512 32.6764 26.0623 28.3735 26.9691 24.0901C27.4666 21.7405 27.99 19.3957 28.5866 17.069C28.6754 16.7224 28.4742 16.3731 28.1327 16.2696C25.0208 15.327 21.8565 14.5409 18.7162 13.7004C17.9073 13.4837 17.5623 14.7372 18.3709 14.9539C21.5113 15.7944 24.6752 16.5805 27.7872 17.5231L27.3334 16.7238C26.2496 20.9492 25.3934 25.2302 24.5377 29.5063C23.7348 33.5186 22.9719 37.545 21.999 41.5205C21.6023 43.142 21.179 44.7695 20.5849 46.3317L21.3843 45.8779C18.1399 45.1256 14.9299 44.2128 11.7066 43.376C10.7461 43.1266 9.78536 42.8794 8.82269 42.6389L9.29983 43.2655C9.36807 34.8839 9.47693 26.5026 9.52567 18.1208C9.53813 15.9921 9.54598 13.8634 9.54517 11.7349L8.7225 12.3616C11.9357 13.2365 15.1539 14.0927 18.3706 14.9536C19.1795 15.1702 19.5247 13.917 18.7162 13.7004Z" fill="#211715"/>
<path d="M27.5798 18.7061C28.3591 18.9311 29.1342 19.1719 29.9051 19.424C30.265 19.5418 30.6243 19.6617 30.9804 19.7901C31.1215 19.841 31.2618 19.8941 31.4015 19.9482C31.5672 20.0124 31.2883 19.8927 31.4264 19.958C31.4692 19.9783 31.5123 19.9975 31.5542 20.0197L31.2323 19.4586C31.219 19.6522 31.1979 19.8453 31.1743 20.0379C31.1676 20.0942 31.16 20.1505 31.1529 20.2068C31.1305 20.3874 31.1735 20.0644 31.147 20.2518C31.1261 20.3983 31.1053 20.545 31.0833 20.6915C30.9804 21.3772 30.8637 22.0607 30.7424 22.7433C30.411 24.6105 30.0438 26.4714 29.6628 28.329C28.833 32.3738 27.9538 36.4157 26.9053 40.4101C26.6943 41.2139 26.4758 42.0159 26.2323 42.8102C26.1403 43.1102 26.0449 43.4095 25.9407 43.7054C25.8968 43.8303 25.8513 43.9548 25.8031 44.078C25.7823 44.1317 25.759 44.1845 25.7384 44.2383C25.7931 44.0954 25.7763 44.1506 25.7322 44.2473L26.466 43.9486C25.1264 43.6014 23.7448 43.4246 22.4171 43.0312C21.6134 42.7931 21.27 44.0472 22.0716 44.2847C23.3993 44.6778 24.7811 44.8549 26.1205 45.2021C26.3756 45.2682 26.7355 45.1636 26.8543 44.9034C27.3634 43.7886 27.67 42.5738 27.9884 41.3947C28.4913 39.5328 28.94 37.6559 29.3727 35.7763C30.3016 31.7426 31.1616 27.6886 31.9009 23.6156C32.1497 22.2445 32.4351 20.8519 32.5315 19.4592C32.5464 19.2428 32.3991 18.9977 32.2096 18.8981C31.6263 18.5913 30.9604 18.4052 30.3373 18.2003C29.5376 17.9373 28.7334 17.6874 27.9248 17.4537C27.1162 17.22 26.7758 18.4748 27.5793 18.7072L27.5798 18.7061Z" fill="#211715"/>
<path d="M97.6291 11.8686C100.846 11.0074 104.064 10.1515 107.277 9.27652L106.455 8.64991C106.451 16.8181 106.556 24.9863 106.636 33.154C106.659 35.4963 106.681 37.8384 106.7 40.1808L107.177 39.5541C103.64 40.4375 100.124 41.3977 96.5925 42.3027C95.935 42.4711 95.277 42.6396 94.6157 42.7928L95.4151 43.2467C94.2293 40.1288 93.5851 36.7853 92.9016 33.5306C92.002 29.2459 91.191 24.943 90.2841 20.6596C89.7867 18.3099 89.2632 15.9651 88.6667 13.6385L88.2128 14.4378C91.3248 13.4952 94.4887 12.7091 97.6291 11.8686C98.4364 11.6525 98.0938 10.3981 97.2836 10.6151C94.1432 11.4556 90.9792 12.2417 87.8673 13.1843C87.5269 13.2875 87.3241 13.6357 87.4134 13.9837C88.4971 18.2092 89.3534 22.4901 90.2091 26.7662C91.012 30.7786 91.7748 34.805 92.7478 38.7805C93.1445 40.402 93.5678 42.0295 94.1619 43.5917C94.2908 43.9304 94.5911 44.1314 94.9613 44.0455C98.2057 43.2933 101.416 42.3804 104.639 41.5437C105.599 41.2943 106.56 41.047 107.523 40.8066C107.797 40.7381 108.002 40.4599 108 40.18C107.932 31.7791 107.822 23.3783 107.774 14.9773C107.761 12.8678 107.754 10.7586 107.754 8.64909C107.754 8.22611 107.339 7.91145 106.932 8.02248C103.718 8.89741 100.5 9.75366 97.2836 10.6145C96.4764 10.8306 96.8189 12.0849 97.6291 11.868V11.8686Z" fill="#211715"/>
<path d="M88.0742 14.3678C87.2548 14.6042 86.4384 14.8506 85.6257 15.1089C84.9961 15.309 84.3221 15.4869 83.732 15.7908C83.5419 15.8888 83.3952 16.1371 83.4101 16.3519C83.4927 17.5461 83.7291 18.7394 83.9397 19.916C84.2766 21.798 84.6511 23.6736 85.0392 25.5456C85.8859 29.6286 86.7831 33.7086 87.8527 37.7396C88.2153 39.1063 88.5549 40.5261 89.1447 41.8172C89.2638 42.0777 89.6207 42.1828 89.8785 42.1159C91.2181 41.7688 92.5997 41.5919 93.9274 41.1985C94.7276 40.9615 94.387 39.7067 93.5819 39.945C92.2542 40.3382 90.8723 40.5153 89.533 40.8624L90.2668 41.1611C90.2511 41.1267 90.2395 41.0763 90.2162 41.0468C90.3326 41.1941 90.2509 41.1324 90.2181 41.0482C90.1756 40.9393 90.1339 40.8305 90.0941 40.7205C90.0009 40.463 89.9154 40.2028 89.833 39.9417C89.6213 39.2712 89.4304 38.594 89.2459 37.9156C88.7466 36.0764 88.299 34.2228 87.8668 32.3668C86.9307 28.345 86.0633 24.3034 85.3151 20.2423C85.1654 19.4289 85.0205 18.6143 84.8929 17.7971C84.8669 17.6303 84.8415 17.4632 84.8174 17.2961C84.8074 17.2265 84.7979 17.1567 84.7879 17.0868C84.7697 16.9617 84.8049 17.2287 84.7806 17.0294C84.7529 16.8041 84.7256 16.5785 84.7099 16.3519L84.3879 16.9129C84.4239 16.8943 84.4678 16.8653 84.5073 16.8569C84.3392 16.8926 84.4762 16.8704 84.523 16.8534C84.6576 16.8044 84.7917 16.7537 84.9271 16.7066C85.3016 16.5761 85.679 16.4545 86.0571 16.3348C86.8413 16.0865 87.6293 15.849 88.4195 15.621C89.2216 15.3895 88.8806 14.1349 88.074 14.3675L88.0742 14.3678Z" fill="#211715"/>
<path d="M37.6073 49.4385C38.0679 48.3762 38.6609 47.3667 39.3912 46.4666C40.0468 45.6585 40.8286 44.6753 41.8536 44.3381C42.7648 44.0384 43.8301 44.1813 44.5943 44.7798C45.2715 45.3103 45.5973 46.2136 45.606 47.0526C45.6095 47.4054 45.5607 47.7466 45.4408 48.0786C45.4313 48.1046 45.3693 48.2625 45.3945 48.2015C45.4151 48.1512 45.3482 48.3055 45.3314 48.3415C45.2558 48.5051 45.1743 48.6657 45.0898 48.8246C44.7058 49.5466 44.2601 50.2368 43.7849 50.9016C43.3134 51.5613 42.8041 52.2014 42.2251 52.7709C42.1011 52.8928 41.973 53.0092 41.8414 53.1229C41.8173 53.1438 41.7921 53.1641 41.7672 53.1841C41.6841 53.2513 41.8357 53.1346 41.7537 53.1952C41.693 53.2399 41.6313 53.2835 41.5673 53.3236C41.1774 53.5695 40.7181 53.684 40.2597 53.6946C39.3092 53.7165 38.3934 53.218 37.8851 52.4153C37.2671 51.4394 37.2355 50.3478 37.6722 49.2834C37.8055 48.9584 37.5276 48.569 37.2184 48.484C36.8455 48.3816 36.5528 48.6118 36.419 48.9378C35.9365 50.1133 35.9408 51.4816 36.5108 52.6206C37.0256 53.6491 37.8537 54.3938 38.9341 54.7918C40.0146 55.1899 41.4211 55.0236 42.3627 54.3521C43.0954 53.8292 43.6958 53.1375 44.2487 52.4338C44.8705 51.6422 45.4486 50.8152 45.9539 49.9444C46.3585 49.2473 46.7476 48.5157 46.8581 47.7084C47.0192 46.5305 46.7235 45.2973 45.9853 44.3576C45.2223 43.3863 43.9679 42.8693 42.745 42.8861C41.1844 42.9075 40.0124 43.8085 39.0097 44.9209C37.9717 46.072 37.1022 47.3583 36.4848 48.7821C36.3454 49.1038 36.3898 49.4794 36.718 49.6714C36.9925 49.832 37.4667 49.7621 37.6073 49.4382V49.4385Z" fill="#211715"/>
<path d="M44.6227 52.9104C44.9815 51.8519 45.4906 50.8586 46.1191 49.9349C46.6772 49.115 47.3477 48.1439 48.296 47.7483C49.1501 47.3919 50.1997 47.4745 50.9658 48.002C51.6531 48.4751 52.0411 49.3476 52.0842 50.1651C52.1012 50.4871 52.0771 50.792 51.9861 51.1002C51.9033 51.3812 51.7855 51.6756 51.6969 51.8757C51.3685 52.6188 50.9793 53.3364 50.5572 54.0301C50.1521 54.6955 49.7245 55.3432 49.2138 55.9146C49.1163 56.0234 49.0158 56.1296 48.9105 56.2309C48.859 56.2804 48.8062 56.3281 48.7526 56.3755C48.7242 56.4007 48.6944 56.4253 48.6646 56.4491C48.7437 56.3858 48.6768 56.441 48.6334 56.4686C48.2622 56.7039 47.856 56.8561 47.4149 56.8932C46.5153 56.9688 45.6195 56.5577 45.0747 55.8396C44.4218 54.979 44.298 53.9343 44.6224 52.9104C44.8759 52.1113 43.6213 51.769 43.3689 52.5649C43.0047 53.7141 43.0654 55.0537 43.692 56.0998C44.2669 57.0598 45.0923 57.7427 46.1711 58.0658C47.2952 58.4024 48.6275 58.1291 49.5401 57.4023C50.2103 56.8689 50.7302 56.1326 51.2046 55.428C51.7362 54.6386 52.2133 53.8086 52.6252 52.9508C52.9773 52.218 53.3133 51.4657 53.378 50.6466C53.4687 49.5014 53.0588 48.2996 52.2908 47.4482C51.4771 46.5462 50.1726 46.1265 48.979 46.2595C48.2619 46.3393 47.5765 46.5782 46.9949 47.0117C46.394 47.4596 45.9277 48.0231 45.4765 48.6156C44.5639 49.8139 43.8528 51.1375 43.3689 52.5649C43.0998 53.3588 44.3549 53.6995 44.6224 52.9104H44.6227Z" fill="#211715"/>
<path d="M50.6135 57.6763C50.7329 57.0435 50.9479 56.4218 51.2157 55.8371C51.4873 55.2438 51.8033 54.6267 52.2542 54.1476C53.0926 53.2567 54.7363 53.2148 55.3971 54.3304C56.0578 55.4461 55.8333 56.5691 55.4304 57.6975C55.025 58.8329 54.3875 60.2692 53.0412 60.4474C52.3642 60.537 51.6921 60.2383 51.2344 59.7531C50.7107 59.1979 50.4908 58.4351 50.6135 57.6763C50.6695 57.3303 50.5241 56.9769 50.1599 56.877C49.8498 56.7919 49.4168 56.9823 49.3605 57.3308C49.2075 58.2767 49.3118 59.3653 49.8937 60.1611C50.4269 60.8901 51.1228 61.4431 52.0132 61.6556C52.9775 61.8858 54.0147 61.686 54.8081 61.0824C55.4629 60.5841 55.908 59.8232 56.2528 59.0888C56.9484 57.6057 57.4489 55.9232 56.8266 54.3264C56.4932 53.4707 55.9408 52.7642 55.0702 52.4197C54.1714 52.0642 53.1427 52.1329 52.2745 52.5394C51.3915 52.9529 50.8041 53.8078 50.3595 54.6437C49.9148 55.4797 49.5373 56.3968 49.3611 57.3308C49.2961 57.6753 49.4569 58.0319 49.8149 58.1302C50.132 58.2174 50.549 58.023 50.6143 57.6763H50.6135Z" fill="#211715"/>
<path d="M31.0305 47.604C30.8387 47.0727 30.8875 46.47 31.0427 45.911C31.1875 45.3884 31.3844 45.0001 31.8629 44.7835C32.7395 44.3867 33.9789 44.7136 34.7512 45.3039C35.667 46.0042 36.6966 47.0419 36.4664 48.3043C36.4201 48.5589 36.3294 48.7974 36.1942 49.0176C36.0786 49.206 35.9738 49.3098 35.8154 49.397C35.4016 49.625 34.7496 49.7095 34.2258 49.7252C33.5805 49.7444 33.0533 49.6336 32.4394 49.2518C31.8255 48.87 31.3015 48.2797 31.0305 47.604C30.8999 47.2785 30.5964 47.0497 30.2308 47.1502C29.9216 47.2352 29.6454 47.6219 29.777 47.9496C30.4323 49.5833 31.9219 50.8728 33.7159 51.0152C34.4655 51.0745 35.3031 50.9827 36.0096 50.7214C36.7418 50.4506 37.23 49.9572 37.5312 49.2385C37.9189 48.313 37.8445 47.3165 37.4369 46.4115C37.1358 45.7431 36.5582 45.1647 36.0201 44.6808C34.8747 43.651 33.2726 43.0168 31.7286 43.4574C30.819 43.7171 30.2246 44.364 29.8977 45.2319C29.5869 46.0575 29.4726 47.1058 29.777 47.9496C29.8961 48.2797 30.2194 48.5017 30.5766 48.4034C30.8953 48.316 31.1502 47.9358 31.0305 47.604Z" fill="#211715"/>
<path d="M69.2499 42.8804L69.2301 42.8655L69.3617 42.9671C69.2082 42.8479 69.0752 42.7076 68.9558 42.5546L69.0574 42.6862C68.8451 42.4095 68.6791 42.1005 68.5434 41.7796L68.6089 41.9348C68.5472 41.7869 68.4914 41.6366 68.4451 41.4834C68.3972 41.3244 68.291 41.1795 68.1464 41.0951C68.0072 41.0136 67.8017 40.9789 67.6457 41.0295C67.3175 41.1357 67.0865 41.4804 67.1919 41.8289C67.2999 42.1861 67.4486 42.5373 67.6268 42.865C67.7467 43.0854 67.8892 43.2869 68.0443 43.4837C68.2041 43.6865 68.3877 43.8474 68.5935 44.0026C68.7191 44.0973 68.9501 44.1079 69.0942 44.0681C69.245 44.0267 69.4083 43.91 69.4825 43.7694C69.5621 43.6186 69.6022 43.4358 69.548 43.2687L69.4825 43.1136C69.4248 43.0158 69.3471 42.9381 69.2494 42.8804H69.2499Z" fill="#211715"/>
</g>
<defs>
<filter id="filter0_d_46_947" x="0" y="0" width="116" height="69.749" filterUnits="userSpaceOnUse" color-interpolation-filters="sRGB">
<feFlood flood-opacity="0" result="BackgroundImageFix"/>
<feColorMatrix in="SourceAlpha" type="matrix" values="0 0 0 0 0 0 0 0 0 0 0 0 0 0 0 0 0 0 127 0" result="hardAlpha"/>
<feOffset/>
<feGaussianBlur stdDeviation="4"/>
<feComposite in2="hardAlpha" operator="out"/>
<feColorMatrix type="matrix" values="0 0 0 0 0 0 0 0 0 0 0 0 0 0 0 0 0 0 0.25 0"/>
<feBlend mode="normal" in2="BackgroundImageFix" result="effect1_dropShadow_46_947"/>
<feBlend mode="normal" in="SourceGraphic" in2="effect1_dropShadow_46_947" result="shape"/>
</filter>
</defs>
</svg>
