<svg width="116" height="91" viewBox="0 0 116 91" fill="none" xmlns="http://www.w3.org/2000/svg">
<g filter="url(#filter0_d_46_833)">
<path d="M77.9711 46.677C75.5136 46.6801 71.0227 46.6801 65.591 46.6832C56.2192 46.6832 44.0372 46.6894 34.6407 46.6956C29.2522 46.6956 24.7799 46.6956 22.276 46.6987C22.276 46.6987 22.2636 21.9385 22.2605 12.6875C30.4716 12.6844 77.9556 12.6689 77.9556 12.6689C77.9618 21.0719 77.968 36.6739 77.9711 46.677Z" fill="#3D8DCC"/>
<path d="M64.8643 19.0225C64.7913 19.0225 50.8871 19.0225 35.368 19.0225V52.3574C45.8816 52.3574 54.3508 52.3574 64.8643 52.3574C64.8643 52.2113 64.8643 19.0305 64.8643 19.0225Z" fill="white"/>
<path d="M64.8643 18.2793C62.9704 18.2793 61.0762 18.2793 59.1824 18.2793C54.5265 18.2793 49.8707 18.2793 45.2148 18.2793C41.9326 18.2793 38.6503 18.2793 35.368 18.2793C34.9666 18.2793 34.6252 18.6197 34.6252 19.0221V52.357C34.6252 52.7584 34.9656 53.0998 35.368 53.0998C42.9657 53.0998 50.5637 53.0998 58.1613 53.0998C60.3957 53.0998 62.63 53.0998 64.8643 53.0998C65.2657 53.0998 65.6071 52.7594 65.6071 52.357C65.6071 51.2292 65.6071 50.1014 65.6071 48.9735C65.6071 46.3205 65.6071 43.6677 65.6071 41.0147C65.6071 37.8166 65.6071 34.6182 65.6071 31.4201C65.6071 28.6479 65.6071 25.8754 65.6071 23.1032C65.6071 21.7655 65.6575 20.4167 65.6071 19.0797C65.6064 19.0605 65.6071 19.0413 65.6071 19.0224C65.6071 18.0664 64.1215 18.0648 64.1215 19.0224C64.1215 20.1286 64.1215 21.2347 64.1215 22.3409C64.1215 24.9828 64.1215 27.6244 64.1215 30.2663C64.1215 33.4638 64.1215 36.6615 64.1215 39.859C64.1215 42.6411 64.1215 45.4235 64.1215 48.2057C64.1215 49.1209 64.1215 50.036 64.1215 50.9512C64.1215 51.3917 64.0843 51.851 64.1215 52.2901C64.1233 52.3121 64.1215 52.335 64.1215 52.3573L64.8643 51.6145C57.2666 51.6145 49.6686 51.6145 42.0709 51.6145C39.8366 51.6145 37.6023 51.6145 35.368 51.6145L36.1108 52.3573V19.0221L35.368 19.7649C40.9378 19.7649 46.5076 19.7649 52.0774 19.7649C55.7017 19.7649 59.326 19.7649 62.9503 19.7649C63.5885 19.7649 64.2264 19.7649 64.8646 19.7649C65.8206 19.7649 65.8222 18.2793 64.8646 18.2793H64.8643Z" fill="#211715"/>
<path d="M39.2632 28.5628H51.9683C52.9243 28.5628 52.9259 27.0771 51.9683 27.0771H39.2632C38.3071 27.0771 38.3056 28.5628 39.2632 28.5628Z" fill="#211715"/>
<path d="M39.6766 32.5117H39.2628V46.7244C50.7292 46.7244 60.9685 46.7244 60.9685 46.7244C60.9685 42.4241 60.9685 36.8119 60.9685 32.5117H60.9286C50.7927 32.5117 41.8313 32.5117 39.6766 32.5117Z" fill="white"/>
<path d="M49.3727 32.5106V46.7226C49.3727 47.6787 50.8583 47.6802 50.8583 46.7226V32.5106C50.8583 31.5545 49.3727 31.553 49.3727 32.5106Z" fill="#211715"/>
<path d="M39.3847 37.9924H60.9688C61.9249 37.9924 61.9264 36.5068 60.9688 36.5068H39.3847C38.4286 36.5068 38.4271 37.9924 39.3847 37.9924Z" fill="#211715"/>
<path d="M39.4612 42.7297C44.9914 42.7297 50.5216 42.7297 56.0515 42.7297C57.6906 42.7297 59.3297 42.7297 60.9689 42.7297C61.9249 42.7297 61.9265 41.2441 60.9689 41.2441C55.4387 41.2441 49.9085 41.2441 44.3786 41.2441H39.4612C38.5051 41.2441 38.5036 42.7297 39.4612 42.7297Z" fill="#211715"/>
<path d="M60.227 32.5106V46.7226C60.227 47.6787 61.7126 47.6802 61.7126 46.7226V32.5106C61.7126 31.5545 60.227 31.553 60.227 32.5106Z" fill="#211715"/>
<path d="M39.2632 47.4671C44.1038 47.4671 48.9447 47.4671 53.7854 47.4671C56.18 47.4671 58.5743 47.4671 60.9689 47.4671C61.925 47.4671 61.9265 45.9814 60.9689 45.9814C54.2168 45.9814 47.4647 45.9814 40.7126 45.9814H39.2632C38.3071 45.9814 38.3056 47.4671 39.2632 47.4671Z" fill="#211715"/>
<path d="M38.5203 32.5106V46.7232C38.5203 47.6793 40.0059 47.6808 40.0059 46.7232V32.5106C40.0059 31.5545 38.5203 31.553 38.5203 32.5106Z" fill="#211715"/>
<path d="M60.9688 31.7686C54.2006 31.7686 47.4324 31.7686 40.6642 31.7686H39.2628C38.3067 31.7686 38.3052 33.2542 39.2628 33.2542C44.1028 33.2542 48.9428 33.2542 53.7825 33.2542C56.1777 33.2542 58.5733 33.2542 60.9685 33.2542C61.9246 33.2542 61.9264 31.7686 60.9688 31.7686Z" fill="#211715"/>
<path d="M39.2632 24.8987H46.3697C47.3257 24.8987 47.3273 23.4131 46.3697 23.4131H39.2632C38.3071 23.4131 38.3056 24.8987 39.2632 24.8987Z" fill="#211715"/>
<path d="M91.1327 61.7292C88.9033 57.9224 84.3443 51.6379 82.2193 48.6515C82.2153 38.1251 82.2103 21.602 82.2113 11.429C82.2113 9.94429 81.0079 8.74188 79.5232 8.74219C65.802 8.74714 32.2698 8.75859 20.6975 8.762C19.2131 8.76231 18.0113 9.96348 18.0119 11.4479C18.0147 19.0316 18.0194 30.9112 18.0231 39.8741C18.0243 43.2919 18.0256 46.2854 18.0265 48.455C15.9315 51.3962 11.3539 57.8787 9.10042 61.7271C8.87789 62.1068 8.76306 62.5395 8.76306 62.9796C8.76306 65.3331 8.77204 62.23 8.77204 64.629C8.77204 65.4878 9.46842 66.1836 10.3273 66.1836C20.579 66.1836 78.4366 66.1836 89.5957 66.1836C90.6242 66.1836 91.4608 65.3492 91.4608 64.3207C91.4608 63.8351 91.4691 63.3649 91.4691 62.9765C91.4691 62.537 91.3552 62.1084 91.133 61.7289L91.1327 61.7292ZM65.5909 46.6831C56.2192 46.6831 44.0371 46.6893 34.6406 46.6955C29.2522 46.6955 24.7798 46.6955 22.276 46.6986C22.276 46.6986 22.2636 21.9384 22.2605 12.6874C30.4716 12.6843 77.9556 12.6688 77.9556 12.6688C77.9618 21.0718 77.968 36.6738 77.9711 46.6769C75.5136 46.68 71.0227 46.68 65.5909 46.6831Z" fill="white"/>
<path d="M18.7656 39.8747C18.7635 34.4073 18.7613 28.94 18.7591 23.4726C18.7582 20.8366 18.757 18.2009 18.756 15.5648C18.7557 14.4067 18.7551 13.2485 18.7548 12.0901C18.7548 11.6017 18.7155 11.1133 18.9192 10.6555C19.112 10.2216 19.4719 9.86413 19.9046 9.67007C20.5221 9.39307 21.3082 9.5048 21.9715 9.5048C22.662 9.5048 23.3522 9.50449 24.0427 9.50418C25.6821 9.50356 27.3219 9.50325 28.9613 9.50263C32.9777 9.50139 36.9941 9.49985 41.0106 9.49861C45.5194 9.49706 50.0285 9.49551 54.5374 9.49397C58.8847 9.49242 63.2323 9.49087 67.5795 9.48932C71.1261 9.48809 74.6727 9.48685 78.2193 9.48561C78.9946 9.48561 79.8603 9.35964 80.5508 9.77778C80.9321 10.0087 81.2305 10.3838 81.3679 10.8078C81.5186 11.273 81.4688 11.7734 81.4688 12.256C81.4688 14.5645 81.4688 16.8731 81.4688 19.1814C81.4694 24.4531 81.4707 29.7249 81.4722 34.9966C81.4728 37.5649 81.4738 40.1331 81.4747 42.7014C81.475 43.8821 81.4756 45.0629 81.4759 46.2436C81.4759 46.7973 81.4762 47.351 81.4765 47.9047C81.4765 48.1514 81.4601 48.4052 81.4765 48.6512C81.4982 48.9672 81.6867 49.1792 81.8622 49.4247C84.5378 53.1746 87.2621 56.9044 89.7065 60.8116C89.9733 61.2377 90.2476 61.6639 90.4914 62.1037C90.8365 62.7258 90.7233 63.4739 90.7183 64.1594C90.7149 64.6259 90.588 65.0381 90.1615 65.2876C89.8991 65.4411 89.6248 65.4405 89.3327 65.4405C88.5103 65.4405 87.688 65.4405 86.8659 65.4405C84.4614 65.4405 82.0566 65.4405 79.652 65.4405C76.483 65.4405 73.314 65.4405 70.145 65.4405C66.466 65.4405 62.7866 65.4405 59.1075 65.4405C55.2115 65.4405 51.3152 65.4405 47.4191 65.4405C43.603 65.4405 39.7871 65.4405 35.9709 65.4405C32.4837 65.4405 28.9963 65.4405 25.5091 65.4405C22.6484 65.4405 19.7876 65.4405 16.9269 65.4405C14.9742 65.4405 13.0216 65.4405 11.0689 65.4405C10.6972 65.4405 10.2104 65.5178 9.88785 65.3117C9.33105 64.9561 9.55235 64.2139 9.51304 63.6568C9.45764 62.8679 8.24253 62.5927 8.05404 63.4593C8.01969 63.6175 8.04074 63.7648 8.02278 63.9214H9.5084C9.4564 63.4241 9.44186 62.7809 9.63065 62.3198C9.92406 61.603 10.4493 60.9224 10.8612 60.269C11.8247 58.7413 12.8275 57.2384 13.8424 55.7447C14.847 54.2662 15.8665 52.7976 16.8944 51.3352C17.3271 50.7196 17.7616 50.105 18.1971 49.4915C18.3729 49.2439 18.6613 48.9477 18.7427 48.6522C18.8591 48.2291 18.769 47.6596 18.7687 47.2244C18.7678 44.7741 18.7669 42.3241 18.7656 39.8737C18.7653 38.9177 17.2797 38.9161 17.28 39.8737C17.2813 42.7342 17.2822 45.5943 17.2834 48.4547L17.3849 48.0799C14.4642 52.1811 11.5242 56.2968 8.90765 60.6011C8.49106 61.2863 8.09707 61.9394 8.03083 62.7605C8.00112 63.1288 7.98348 63.5503 8.02248 63.9217C8.12275 64.8797 9.39853 64.8728 9.50809 63.9217C9.52202 63.8004 9.56906 63.4739 9.48612 63.8546L8.02712 63.6571C8.04445 63.9013 8.02898 64.1517 8.02928 64.3962C8.02928 65.0638 8.17537 65.6695 8.6322 66.1771C9.22087 66.8314 10.007 66.9264 10.829 66.9264C11.6892 66.9264 12.5496 66.9264 13.4097 66.9264C15.9646 66.9264 18.5193 66.9264 21.0742 66.9264C24.4698 66.9264 27.8653 66.9264 31.2609 66.9264C35.1715 66.9264 39.0817 66.9264 42.9923 66.9264C47.0917 66.9264 51.191 66.9264 55.2907 66.9264C59.2533 66.9264 63.2155 66.9264 67.1781 66.9264C70.6777 66.9264 74.1772 66.9264 77.6768 66.9264C80.3877 66.9264 83.0983 66.9264 85.8093 66.9264C86.7672 66.9264 87.7248 66.9264 88.6827 66.9264C89.2271 66.9264 89.8167 66.979 90.341 66.8181C90.9526 66.6305 91.4818 66.2244 91.8192 65.6806C92.2033 65.0616 92.2014 64.3922 92.2073 63.6881C92.2144 62.8564 92.1897 62.0997 91.7746 61.3538C91.5125 60.883 91.2191 60.4268 90.9328 59.9706C90.2896 58.9462 89.622 57.9372 88.9452 56.935C87.518 54.8218 86.0457 52.7388 84.5651 50.6627C83.9974 49.8669 83.428 49.0725 82.8613 48.2761L82.9628 48.6509C82.9609 43.8109 82.9594 38.9709 82.9578 34.1312C82.9563 28.9418 82.955 23.7527 82.9547 18.5633C82.9547 16.3046 82.9544 14.0458 82.9547 11.7871C82.9547 10.6082 82.6267 9.51904 81.6706 8.75952C80.7969 8.06685 79.8284 7.99969 78.7607 8C75.3354 8.00124 71.9098 8.00248 68.4845 8.00372C64.2317 8.00526 59.9785 8.00681 55.7256 8.00805C51.2604 8.0096 46.7955 8.01114 42.3303 8.01269C38.2687 8.01393 34.2068 8.01548 30.1451 8.01671C27.0925 8.01764 24.0399 8.01857 20.9873 8.0195C19.8953 8.01981 18.8687 8.33117 18.1296 9.1792C17.2998 10.1312 17.2692 11.221 17.2695 12.4181C17.2704 14.8552 17.2714 17.2925 17.2723 19.7295C17.2745 25.1944 17.2766 30.6593 17.2788 36.1244C17.2794 37.3745 17.2797 38.6246 17.2803 39.8747C17.2806 40.8307 18.7659 40.8323 18.7656 39.8747Z" fill="#211715"/>
<path d="M85.0219 61.1927H17.6184C16.7063 61.1927 15.792 61.1744 14.8802 61.1927C14.8409 61.1936 14.8016 61.1927 14.7623 61.1927C13.8062 61.1927 13.8047 62.6783 14.7623 62.6783H82.1659C83.078 62.6783 83.9922 62.6966 84.904 62.6783C84.9433 62.6774 84.9826 62.6783 85.0219 62.6783C85.978 62.6783 85.9796 61.1927 85.0219 61.1927Z" fill="#211715"/>
<path d="M77.9712 45.9345C70.9238 45.9432 63.8764 45.9401 56.829 45.9423C49.0778 45.9444 41.3266 45.9531 33.5754 45.9531C29.8091 45.9531 26.0424 45.9515 22.2761 45.9562L23.0189 46.699C23.0173 43.7179 23.0158 40.7371 23.0145 37.7559C23.0118 32.0336 23.009 26.3109 23.0065 20.5885C23.0053 17.9549 23.0043 15.3214 23.0034 12.6878L22.2606 13.4306C25.1495 13.4294 28.0387 13.4285 30.9276 13.4275C35.5216 13.426 40.1152 13.4244 44.7092 13.4229C49.6993 13.4213 54.6894 13.4195 59.6795 13.4179C63.7925 13.4167 67.9055 13.4152 72.0182 13.4139C73.3472 13.4136 74.6759 13.413 76.0049 13.4127C76.623 13.4127 77.2584 13.4551 77.8755 13.4121C77.9018 13.4102 77.9291 13.4121 77.9557 13.4121L77.2129 12.6693C77.216 16.7816 77.2178 20.894 77.22 25.0063C77.2222 29.8101 77.2243 34.6139 77.2259 39.4173C77.2268 41.8373 77.2277 44.2573 77.2284 46.6773C77.2284 47.6334 78.7143 47.6349 78.714 46.6773C78.7124 42.1846 78.7109 37.6919 78.709 33.1991C78.7072 28.5018 78.705 23.8045 78.7025 19.1072C78.7013 16.9614 78.7 14.8153 78.6985 12.6696C78.6985 12.2681 78.3584 11.9268 77.9557 11.9268C76.3577 11.9274 74.7601 11.9277 73.1621 11.9283C69.232 11.9295 65.302 11.9308 61.3722 11.932C56.4195 11.9336 51.4666 11.9354 46.5139 11.937C41.8144 11.9385 37.1152 11.9401 32.4157 11.9416C29.2489 11.9425 26.082 11.9438 22.9152 11.945C22.697 11.945 22.4788 11.945 22.2606 11.945C21.8592 11.945 21.5178 12.2852 21.5178 12.6878C21.5196 17.8714 21.5221 23.0549 21.5243 28.2384C21.5268 33.3424 21.5292 38.4464 21.5317 43.5504C21.5323 44.5999 21.5326 45.6495 21.5333 46.699C21.5333 47.1001 21.8734 47.4424 22.2761 47.4418C29.368 47.4331 36.4597 47.4372 43.5516 47.4334C51.3025 47.4294 59.0534 47.4297 66.8043 47.4257C70.5267 47.4238 74.2488 47.4248 77.9712 47.4201C78.9269 47.4189 78.9288 45.9333 77.9712 45.9345Z" fill="#211715"/>
<path d="M107.259 71.6568C106.55 70.3727 105.219 68.0929 103.262 65.0712C101.922 63.0025 100.379 60.6088 98.4741 58.3368C97.4945 57.1684 96.1525 56.888 95.2602 57.2068C94.4308 57.503 93.5858 58.2356 93.6957 59.1684C93.0952 58.1786 91.6848 58.0536 90.5341 58.589C89.3834 59.1245 88.8473 60.3192 89.1447 61.286C88.6653 60.3535 87.5183 60.031 86.4672 60.403C85.1252 60.8784 84.5551 61.9159 84.6452 62.9902C82.6294 60.7079 78.6678 56.0706 76.8107 54.0304C75.7207 52.8326 74.5012 52.035 72.9568 52.862C71.3121 53.7422 72.1567 56.0551 72.9847 57.1523C75.3675 60.3108 79.2255 65.3328 81.6529 68.4878C81.6356 68.4888 81.6269 68.4897 81.6269 68.4897C80.9862 68.5401 80.6322 68.5993 80.0825 68.7518C79.6099 68.8831 78.9621 69.2823 78.7297 70.083C78.4031 71.2074 78.8553 72.1557 79.6953 72.9713C82.4425 75.6389 84.6904 77.9725 86.0228 79.1217C88.4251 81.1938 92.384 81.68 95.3784 81.9376" fill="white"/>
<path d="M84.2831 70.6969C81.5022 67.0813 78.7176 63.4681 75.9516 59.8411C75.2088 58.8668 74.4669 57.8919 73.7287 56.9141C73.1264 56.1165 72.5563 54.998 72.8148 54.1039C72.937 53.6814 73.418 53.3623 73.976 53.28C74.5721 53.1918 75.1342 53.492 75.578 53.8646C76.5065 54.6436 77.2797 55.6631 78.0763 56.5724C80.0807 58.8597 82.0544 61.1738 84.0658 63.4545C84.6994 64.1729 85.747 63.119 85.1163 62.4041C83.232 60.2676 81.3809 58.1017 79.5068 55.9565C78.6579 54.9847 77.8365 53.9451 76.8983 53.0568C76.3233 52.5121 75.6331 52.0144 74.8432 51.8513C74.0023 51.6777 73.0868 51.8606 72.3768 52.3477C71.162 53.1812 71.0846 54.7191 71.548 56.0036C71.9723 57.1797 72.7832 58.1122 73.5297 59.0946C75.2837 61.4035 77.0478 63.7049 78.8139 66.0048C80.2079 67.8201 81.6047 69.6328 82.9999 71.4468C83.2441 71.7644 83.6387 71.934 84.0163 71.7133C84.3286 71.5307 84.5288 71.0169 84.2828 70.6969H84.2831Z" fill="#211715"/>
<path d="M81.6273 67.7477C80.7805 67.818 79.8151 67.9087 79.0946 68.4057C78.2837 68.965 77.8458 69.913 77.8823 70.8948C77.9188 71.8709 78.4131 72.7233 79.0819 73.4095C79.8538 74.2012 80.6635 74.9585 81.4487 75.7372C82.6548 76.9334 83.8436 78.1532 85.1014 79.2959C86.3593 80.4386 87.8056 81.1978 89.4289 81.6927C91.3559 82.2801 93.3788 82.5082 95.3788 82.6812C95.779 82.7159 96.1216 82.3151 96.1216 81.9384C96.1216 81.5079 95.7802 81.2303 95.3788 81.1956C93.857 81.0641 92.337 80.8911 90.8489 80.5367C89.3791 80.1866 87.8616 79.6704 86.6743 78.7032C85.6332 77.8548 84.6947 76.8641 83.7421 75.9205C83.0965 75.281 82.4524 74.6394 81.8058 74.0009C81.4592 73.6586 81.1119 73.3166 80.7634 72.9762C80.4357 72.6558 80.0708 72.3497 79.7981 71.9789C79.375 71.4039 79.1577 70.5466 79.6204 69.9211C80.0537 69.3352 80.9191 69.2925 81.6273 69.2337C82.0271 69.2005 82.3701 68.9161 82.3701 68.4909C82.3701 68.1148 82.0293 67.7146 81.6273 67.7481V67.7477Z" fill="#211715"/>
<path d="M85.3886 62.9989C85.3338 62.2063 85.6969 61.5734 86.4514 61.2097C87.1692 60.864 88.0859 60.9033 88.5031 61.6612C88.9104 62.4006 90.0875 61.8989 89.8609 61.089C89.6526 60.344 90.158 59.5591 90.9089 59.231C91.5746 58.9401 92.6068 58.8522 93.0544 59.5439C93.4252 60.1171 94.4994 59.9497 94.4385 59.1691C94.3933 58.5907 94.8421 58.1982 95.3376 57.9738C95.7471 57.7885 96.1392 57.7857 96.5883 57.9166C97.2484 58.1088 97.7118 58.5737 98.1383 59.0905C98.653 59.7145 99.1463 60.3551 99.623 61.0085C101.475 63.5458 103.162 66.2196 104.792 68.9033C105.419 69.9355 106.033 70.976 106.618 72.0327C107.081 72.8692 108.364 72.1209 107.901 71.2827C106.495 68.7423 104.939 66.2861 103.357 63.8531C102.383 62.3564 101.387 60.8726 100.305 59.452C99.2661 58.089 98.2314 56.5993 96.3995 56.3725C94.8065 56.175 92.8148 57.396 92.9535 59.1691L94.3376 58.7943C93.4443 57.4136 91.6656 57.2815 90.2617 57.903C88.9076 58.5022 88.0175 60.0141 88.4288 61.4842L89.7866 60.9119C89.0234 59.5263 87.3273 59.2286 85.9522 59.8151C84.6678 60.3629 83.8058 61.5795 83.9039 62.9995C83.9315 63.3997 84.2255 63.7423 84.6467 63.7423C85.0274 63.7423 85.4174 63.4019 85.3895 62.9995L85.3886 62.9989Z" fill="#211715"/>
</g>
<defs>
<filter id="filter0_d_46_833" x="0" y="0" width="116" height="90.6836" filterUnits="userSpaceOnUse" color-interpolation-filters="sRGB">
<feFlood flood-opacity="0" result="BackgroundImageFix"/>
<feColorMatrix in="SourceAlpha" type="matrix" values="0 0 0 0 0 0 0 0 0 0 0 0 0 0 0 0 0 0 127 0" result="hardAlpha"/>
<feOffset/>
<feGaussianBlur stdDeviation="4"/>
<feComposite in2="hardAlpha" operator="out"/>
<feColorMatrix type="matrix" values="0 0 0 0 0 0 0 0 0 0 0 0 0 0 0 0 0 0 0.25 0"/>
<feBlend mode="normal" in2="BackgroundImageFix" result="effect1_dropShadow_46_833"/>
<feBlend mode="normal" in="SourceGraphic" in2="effect1_dropShadow_46_833" result="shape"/>
</filter>
</defs>
</svg>
