<svg width="48" height="48" viewBox="0 0 48 48" fill="none" xmlns="http://www.w3.org/2000/svg">
<g clip-path="url(#clip0_139_133)">
<path d="M37.1846 0C43.1575 0 48 4.84247 48 10.8154V37.1846C48 43.1575 43.1575 48 37.1846 48H10.8154C4.84247 48 0 43.1575 0 37.1846V10.8154C0 4.84247 4.84247 0 10.8154 0H37.1846ZM24.0049 9C15.1699 9.00005 8 14.8353 8 21.9902C8.00014 28.4101 13.685 33.7948 21.3799 34.7998C21.9048 34.9198 22.6099 35.1449 22.79 35.5947C22.955 35.9997 22.895 36.6298 22.835 37.0498C22.715 37.7998 22.6404 38.255 22.6104 38.415C22.5504 38.82 22.2949 39.9895 24.0049 39.2695C25.715 38.5494 33.2152 33.8553 36.5752 29.9854C38.8851 27.4354 40.0097 24.8551 40.0098 21.9902C40.0098 14.8352 32.8249 9 24.0049 9ZM14.4404 18.2852C14.6052 18.2854 14.7402 18.4201 14.7402 18.585V24.1348H17.7998C17.9647 24.1348 18.0994 24.2698 18.0996 24.4346V25.5752C18.0995 25.7401 17.9647 25.875 17.7998 25.875H13.2998C13.135 25.8749 13.0001 25.74 13 25.5752V18.585C13 18.42 13.1349 18.2853 13.2998 18.2852H14.4404ZM20.5 18.2852C20.6657 18.2852 20.7998 18.4193 20.7998 18.585V25.5752C20.7997 25.7408 20.6656 25.875 20.5 25.875H19.3604C19.1947 25.875 19.0607 25.7408 19.0605 25.5752V18.585C19.0606 18.4193 19.1947 18.2852 19.3604 18.2852H20.5ZM23.4248 18.2852C23.4249 18.295 23.4305 18.2998 23.4404 18.2998H23.4551C23.4551 18.2998 23.4597 18.3054 23.4697 18.3154H23.5V18.3301C23.5099 18.3301 23.5146 18.3349 23.5146 18.3447H23.5303C23.5304 18.3449 23.5351 18.3505 23.5449 18.3604C23.5549 18.3703 23.5653 18.3797 23.5752 18.3896C23.5852 18.3996 23.5898 18.4099 23.5898 18.4199L26.7852 22.7246V18.585C26.7852 18.4201 26.9348 18.2854 27.0996 18.2852H28.2246C28.4046 18.2852 28.54 18.42 28.54 18.585V25.5752C28.5399 25.7401 28.4045 25.875 28.2246 25.875H27.0996C27.07 25.875 27.0452 25.8702 27.0254 25.8604H26.9951V25.8447H26.9648C26.9559 25.8358 26.9511 25.8309 26.9502 25.8301C26.9403 25.8301 26.9347 25.8251 26.9346 25.8154H26.9199C26.8899 25.7954 26.8647 25.7702 26.8447 25.7402L23.6504 21.4199V25.5752C23.6503 25.7401 23.5149 25.875 23.335 25.875H22.21C22.0451 25.875 21.8956 25.7401 21.8955 25.5752V18.585C21.8955 18.42 22.045 18.2852 22.21 18.2852H23.4248ZM34.4346 18.2852C34.5996 18.2852 34.7353 18.42 34.7354 18.585V19.7246C34.7354 19.8896 34.5996 20.0254 34.4346 20.0254H31.375V21.21H34.4346C34.5995 21.21 34.7352 21.3449 34.7354 21.5098V22.6504C34.7351 22.8152 34.5994 22.9502 34.4346 22.9502H31.375V24.1348H34.4346C34.5994 24.1348 34.7351 24.2698 34.7354 24.4346V25.5752C34.7352 25.7401 34.5995 25.875 34.4346 25.875H29.9346C29.7698 25.8748 29.6349 25.7399 29.6348 25.5752V18.585C29.6348 18.4201 29.7698 18.2854 29.9346 18.2852H34.4346Z" fill="#06C755"/>
</g>
<defs>
<clipPath id="clip0_139_133">
<rect width="48" height="48" fill="white"/>
</clipPath>
</defs>
</svg>
