<svg width="350" height="247" viewBox="0 0 350 247" fill="none" xmlns="http://www.w3.org/2000/svg">
<path d="M292.7 131.027C292.459 132.794 291.723 135.241 291.327 136.194C290.718 138.178 287.626 144.345 283.181 148.475C283.18 149.179 283.18 149.671 283.18 149.671C282.533 150.193 274.854 156.735 271.204 159.78L268.969 159.922C264.773 157.688 255.917 152.857 255.177 152.479V152.239C252.521 151.079 250.057 149.244 247.654 146.798C244.254 143.336 242.197 139.502 240.988 136.292C239.655 136.72 238.157 136.327 237.135 135.619C234.827 134.022 233.759 131.653 233.099 130.102C232.168 127.913 231.882 124.294 232.922 122.251C233.27 121.567 234.107 120.386 236.239 120.173C237.219 120.075 238.387 120.299 239.291 121.037C239.291 121.037 235.466 99.1949 260.776 95.7681C295.122 91.1169 292.071 117.583 292.071 117.583C292.871 116.733 293.999 116.36 294.984 116.329C297.127 116.262 298.11 117.324 298.544 117.958C299.841 119.847 300.029 123.473 299.391 125.764C298.94 127.388 298.188 129.875 296.108 131.76C295.251 132.537 293.952 133.096 292.666 132.971" fill="white"/>
<path d="M1.66276 159.553C1.79075 157.902 2.08216 156.027 2.36551 154.708C3.22685 150.692 4.98575 146.227 6.67784 144.823C9.57741 142.135 12.3756 143.181 15.9127 144.191C16.9109 144.476 21.0171 146.076 21.3383 147.88C21.6458 146.758 22.413 145.858 23.6832 145.606C24.6806 145.408 26.5764 145.228 27.6768 147.165C29.0179 149.524 29.0879 155.687 27.7822 157.92C27.6019 158.229 27.3765 158.473 27.106 158.662C27.1439 159.527 27.1704 160.12 27.1704 160.12C27.255 162.04 27.8402 165.442 26.9797 167.452C25.6627 170.527 23.7235 172.389 21.29 173.238C21.2578 173.755 21.2337 174.146 21.2337 174.146C21.1958 174.769 21.1797 175.765 21.1676 176.831C16.415 177.397 11.6358 178.137 6.86379 179.008C6.39851 177.448 5.703 174.315 5.86722 172.52C6.01775 170.874 4.8151 169.426 3.9449 168.022C2.75996 166.11 1.75775 164.006 1.61607 161.761C1.57743 161.145 1.59997 160.378 1.66437 159.555L1.66276 159.553Z" fill="white"/>
<path d="M19.6213 174.143C19.4852 176.449 19.61 178.764 19.474 181.07C19.424 181.912 20.25 182.717 21.0839 182.68C21.9984 182.638 22.6408 181.972 22.6939 181.07C22.83 178.764 22.7052 176.449 22.8412 174.143C22.8911 173.301 22.0652 172.496 21.2312 172.533C20.3168 172.575 19.6744 173.241 19.6213 174.143Z" fill="#211715"/>
<path d="M20.7096 175.075C23.8273 174.341 26.3018 172.224 27.808 169.429C28.6484 167.87 29.0396 166.326 29.0517 164.554C29.0614 163.07 28.8529 161.599 28.7796 160.119C28.7361 159.25 28.0704 158.509 27.1696 158.509C26.3308 158.509 25.5162 159.246 25.5596 160.119C25.6249 161.432 25.7987 162.737 25.8277 164.053C25.8583 165.441 25.7488 166.415 25.1266 167.619C23.9328 169.926 22.2471 171.407 19.8547 171.971C17.839 172.446 18.6915 175.551 20.7096 175.075Z" fill="#211715"/>
<path d="M10.9555 152.152C12.3007 152.186 13.645 152.199 14.9869 152.306C16.4472 152.421 17.9316 152.615 19.3959 152.474C21.9195 152.23 23.5963 150.307 22.9861 147.72C22.5007 145.663 20.5599 144.448 18.7688 143.605C16.9044 142.727 14.8614 142.085 12.8344 141.722C10.3502 141.276 8.05839 141.639 6.04994 143.249C4.23389 144.704 3.24617 146.848 2.40817 148.967C1.41643 151.478 0.758752 154.108 0.373968 156.777C0.0149425 159.268 -0.271634 161.809 0.431927 164.27C0.89238 165.882 1.67 167.414 2.55227 168.833C3.18499 169.85 4.20008 170.967 4.26689 172.212C4.33854 173.55 4.32485 174.822 4.55347 176.161C4.75472 177.337 5.02278 178.506 5.37295 179.648C5.97911 181.623 9.08797 180.78 8.47779 178.792C7.95374 177.085 7.52227 175.269 7.45626 173.479C7.42004 172.495 7.53435 171.561 7.21154 170.601C6.84366 169.51 6.20289 168.564 5.58386 167.604C4.35947 165.707 3.24536 163.599 3.20511 161.29C3.1705 159.317 3.46754 157.308 3.8644 155.38C4.32083 153.164 4.96643 150.929 5.91954 148.873C6.64886 147.301 7.56976 145.672 9.27312 144.996C10.9765 144.32 12.9093 145.003 14.5619 145.479C15.9376 145.875 17.2345 146.343 18.4661 147.09C19.201 147.536 20.8811 149.094 19.1206 149.278C17.7609 149.42 16.3393 149.193 14.9845 149.086C13.6426 148.98 12.2983 148.967 10.9531 148.933C8.88029 148.88 8.8819 152.099 10.9531 152.153L10.9555 152.152Z" fill="#211715"/>
<path d="M18.1183 152.759C18.2061 152.783 18.293 152.811 18.3783 152.841C18.1996 152.76 18.1916 152.757 18.3542 152.834C18.4991 152.918 18.64 153.001 18.7792 153.093C18.4661 152.885 18.7494 153.086 18.8146 153.151C18.8686 153.206 18.9209 153.263 18.9708 153.322C18.8388 153.144 18.8219 153.126 18.9217 153.268C18.9603 153.337 19.1552 153.575 19.1334 153.654L19.0521 153.47C19.0763 153.537 19.0972 153.604 19.1157 153.673C19.234 154.112 19.1463 153.489 19.1415 153.757C19.1415 153.792 19.1133 154.035 19.1391 154.062C19.1809 153.8 19.1857 153.756 19.1535 153.93C19.1399 153.994 19.123 154.058 19.1028 154.12C19.0811 154.189 19.0328 154.272 19.0199 154.343C19.0956 153.922 19.1874 153.992 19.098 154.146C19.0602 154.211 19.0288 154.281 18.9893 154.347C18.9491 154.413 18.8807 154.483 18.8509 154.553C18.896 154.448 19.135 154.242 18.929 154.436C18.8992 154.464 18.7156 154.609 18.714 154.64C18.9386 154.471 18.9837 154.437 18.8485 154.534C18.8138 154.558 18.7784 154.582 18.7422 154.604C18.6528 154.66 18.5538 154.702 18.4661 154.76C18.2616 154.892 18.8058 154.648 18.3791 154.79C18.1087 154.88 17.8293 154.941 17.5484 154.984C17.9469 154.924 17.3182 154.993 17.2465 154.996C17.0879 155.003 16.9286 155.005 16.77 155.006C16.4101 155.009 16.0511 155.007 15.6913 155.004C14.198 154.99 12.7064 154.925 11.2147 154.873C10.3719 154.844 9.56693 155.635 9.60477 156.483C9.64502 157.381 10.3124 158.062 11.2147 158.093C12.5913 158.14 13.967 158.199 15.3443 158.22C16.6613 158.239 18.0797 158.317 19.3379 157.86C21.4067 157.11 22.7518 155.153 22.2479 152.92C21.8833 151.302 20.522 150.11 18.9756 149.654C18.1682 149.416 17.1862 149.942 16.9954 150.779C16.799 151.643 17.2554 152.505 18.1199 152.759H18.1183Z" fill="#211715"/>
<path d="M16.4383 158.155C16.5558 158.212 17.034 158.392 17.0614 158.522C17.0404 158.423 16.8561 158.349 17.0638 158.541C17.1523 158.623 17.2288 158.718 17.3174 158.8C17.4542 158.925 17.1676 158.556 17.323 158.805C17.3866 158.907 17.4454 159.007 17.5041 159.11C17.6579 159.383 17.4566 158.829 17.5178 159.158C17.5283 159.216 17.641 159.527 17.5629 159.284C17.4888 159.052 17.5532 159.349 17.5605 159.417C17.5959 159.742 17.649 159.166 17.5573 159.468C17.5436 159.527 17.5259 159.587 17.5057 159.645C17.4671 159.757 17.4832 159.724 17.554 159.545C17.546 159.647 17.4196 159.783 17.3721 159.867C17.2312 160.119 17.488 159.768 17.3584 159.886C17.2819 159.956 17.2167 160.04 17.1411 160.111C17.0799 160.168 17.0179 160.223 16.9527 160.275L17.0799 160.174C17.0461 160.24 16.7925 160.361 16.7297 160.397C16.6299 160.454 16.5277 160.507 16.4246 160.558C16.3626 160.588 16.2999 160.618 16.2371 160.646C16.3884 160.584 16.4093 160.575 16.3015 160.617C16.06 160.7 15.8225 160.791 15.5786 160.869C15.0562 161.033 14.5192 161.182 14.0378 161.451C13.3874 161.815 12.9149 162.383 12.6637 163.08C12.4077 163.791 12.5285 164.565 12.6637 165.286C12.8191 166.116 13.8648 166.663 14.644 166.411C15.5311 166.124 15.9352 165.319 15.7686 164.431C15.7436 164.297 15.7275 164.024 15.7412 164.31C15.7348 164.177 15.713 164.032 15.7364 163.899C15.7187 163.997 15.5891 164.313 15.7243 164.101C15.5866 164.274 15.5794 164.299 15.7026 164.175L15.5625 164.293C15.6285 164.252 15.6969 164.214 15.7678 164.18L15.6019 164.247C15.6003 164.235 15.9263 164.133 15.9424 164.127C16.1944 164.046 16.4488 163.974 16.6999 163.89C18.0032 163.453 19.1785 162.821 20.0068 161.697C20.7547 160.682 21.009 159.276 20.5438 158.086C20.0841 156.91 19.2075 155.932 18.0628 155.379C17.3053 155.013 16.2878 155.146 15.8603 155.956C15.4796 156.677 15.6285 157.769 16.4383 158.159V158.155Z" fill="#211715"/>
<path d="M25.3761 160.776C27.0247 160.661 28.5357 160.031 29.3053 158.478C29.8752 157.328 30.0885 156.069 30.227 154.805C30.4982 152.331 30.3928 149.505 29.4453 147.177C28.8504 145.714 27.7726 144.514 26.2157 144.07C24.9631 143.713 23.4844 143.849 22.3043 144.382C19.3926 145.698 19.007 149.821 19.2405 152.613C19.5327 156.111 21.1354 160.803 25.3761 160.777C27.4473 160.764 27.4522 157.544 25.3761 157.557C24.555 157.562 23.9819 157.084 23.5512 156.305C22.9941 155.296 22.6552 154.157 22.4999 153.014C22.3703 152.065 22.3856 150.776 22.52 149.901C22.6021 149.367 22.7229 148.836 22.8822 148.32C23.0094 147.906 23.1342 147.635 23.4779 147.379C23.614 147.279 23.9706 147.2 24.3216 147.12C24.5977 147.057 24.299 147.126 24.2483 147.129C24.357 147.122 24.464 147.11 24.5727 147.105C24.782 147.096 24.9937 147.097 25.2022 147.123C24.7828 147.072 25.6079 147.253 25.4614 147.199C25.3584 147.161 25.8567 147.426 25.8205 147.399C25.884 147.446 26.0829 147.66 26.173 147.792C26.2415 147.892 26.528 148.489 26.3912 148.155C27.1229 149.942 27.1744 151.622 27.0964 153.583C27.0505 154.733 27.0046 155.344 26.6641 156.453C26.6262 156.577 26.3687 157.15 26.5514 156.8C26.5152 156.869 26.487 156.943 26.4459 157.01C26.4314 157.034 26.2181 157.36 26.3389 157.197C26.1819 157.409 25.814 157.526 25.3761 157.557C24.5083 157.617 23.7661 158.254 23.7661 159.168C23.7661 159.992 24.5043 160.838 25.3761 160.777V160.776Z" fill="#211715"/>
<path d="M79.246 196.168C79.9399 198.959 80.6861 201.716 81.6843 205.551C85.7398 198.479 87.2902 195.764 90.8829 188.553C93.9121 182.474 97.1111 176.107 100.02 169.713C99.5406 169.876 99.2025 169.992 99.2025 169.992C95.0189 171.5 89.351 171.703 85.1168 170.955C80.8415 170.201 76.7819 168.483 73.0073 166.339C74.2792 173.275 75.8731 180.291 77.1748 186.834C77.9387 190.673 78.5674 193.437 79.246 196.168Z" fill="#7ABEE6"/>
<path d="M244.922 85.2242C244.778 85.3385 244.636 85.4536 244.494 85.5703C238.899 90.191 232.742 98.1724 233.009 110.42C233.076 113.48 233.731 116.969 234.964 120.455C235.327 120.321 235.748 120.221 236.237 120.173C237.218 120.075 238.385 120.298 239.289 121.037L240.419 121.96C241.396 117.631 244.845 108.843 249.231 106.526C252.618 104.833 258.496 106.199 262.428 106.229C268.938 106.277 280.592 102.894 283.712 105.557C286.078 106.903 290.626 120.57 292.069 117.583C292.869 116.733 293.998 116.36 294.982 116.329C295.424 116.315 295.816 116.349 296.165 116.418C296.905 112.569 297.141 109.711 296.763 106.25C295.483 94.5411 289.066 87.5015 282.883 83.5659C277.341 80.0755 270.99 77.9873 262.934 78.5146C255.709 78.9871 249.677 81.4415 244.922 85.2242Z" fill="#645D5C"/>
<path d="M243.359 244.483C241.491 234.434 239.211 222.189 237.079 211.608C229.769 216.949 224.719 221.052 217.133 227.265C217.133 227.265 216.098 228.219 214.898 229.326C214.777 226.474 214.678 223.814 214.629 221.678C214.379 211.595 213.538 199.402 213.222 189.057L214.034 188.165C217.596 184.461 225.147 173.216 229.94 169.524C235.795 165.012 244.176 161.045 251.554 158.218C252.839 156.361 254.369 153.665 255.177 152.479C255.918 152.857 264.773 157.689 268.969 159.922L271.204 159.78C274.855 156.735 282.534 150.193 283.18 149.671C284.207 150.661 286.238 152.963 287.87 154.52C295.261 157.538 307.983 162.572 311.862 163.856L342.721 188.171C343.178 188.194 343.588 188.214 344.219 188.223C344.849 188.231 345.424 188.595 345.681 189.169C346.481 190.902 347.147 193.206 347.492 194.878C348.326 198.96 348.588 203.885 348.27 207.962C347.82 213.808 347.307 218.637 343.784 223.271C340.365 227.761 334.931 230.495 329.829 227.716C327.759 226.579 326.119 225.426 324.655 223.575C321.066 219.005 317.665 214.283 314.477 209.424C316.636 219.845 319.456 232.532 322.119 244.483H243.359V244.483Z" fill="white"/>
<path d="M269.693 219.897C268.113 217.963 266.634 216.049 265.448 214.328C265.351 214.183 265.303 214.022 265.311 213.845C265.714 203.501 267.452 174.312 267.388 173.756C267.251 172.67 266.816 171.631 266.382 170.625C266.036 169.812 265.762 169.055 265.504 168.331L265.061 167.295C266.585 164.361 268.441 160.995 268.969 159.921L271.204 159.779C271.951 160.734 274.512 163.713 276.621 166.297C276.525 167.64 276.42 168.637 276.259 169.997C276.235 170.271 276.195 170.544 276.154 170.826C276.082 171.43 276.001 172.05 276.066 172.662C276.098 173 284.14 202.631 286.305 212.235C286.345 212.412 286.321 212.581 286.241 212.75C284.156 217.145 281.274 222.563 278.127 227.988C277.853 228.455 277.201 228.528 276.831 228.125C274.654 225.731 272.059 222.792 269.693 219.897Z" fill="#3D8DCC"/>
<path d="M203.167 111.846C204.027 111.057 205.181 110.768 206.165 110.811C208.307 110.902 209.208 112.034 209.595 112.698C210.748 114.678 210.668 118.307 209.862 120.546C209.291 122.132 208.359 124.557 206.145 126.283C205.233 126.993 203.896 127.455 202.623 127.236C202.623 127.236 202.501 127.215 202.287 127.178C201.872 128.471 201.361 129.736 201.05 130.35C200.228 132.461 196.086 139.323 190.689 142.978C190.689 144.048 190.689 145.122 190.689 145.122C189.992 145.575 181.681 151.291 177.736 153.944L175.499 153.855C171.554 151.202 163.243 145.485 162.545 145.032V142.946C160.476 141.636 158.558 139.877 156.713 137.698C153.579 133.994 151.809 130.019 150.842 126.729C149.48 127.057 148.016 126.555 147.048 125.773C144.865 124.009 143.974 121.569 143.431 119.973C142.665 117.721 142.646 114.09 143.834 112.131C144.232 111.474 145.154 110.358 147.297 110.304C148.281 110.279 149.429 110.587 150.276 111.39C150.276 111.39 146.83 89.6523 175.943 89.6523C206.801 89.6523 203.166 111.847 203.166 111.847L203.167 111.846Z" fill="white"/>
<path d="M176.688 153.901L175.499 153.854C171.554 151.201 163.243 145.484 162.545 145.031C161.487 146.286 159.287 149.406 157.743 151.053C160.481 162.637 165.046 175.02 168.695 186.227C171.655 195.32 172.524 198.083 176.628 208.139C180.267 198.774 181.848 195.18 184.812 186.112C188.431 175.043 192.95 162.82 195.701 151.362C194.154 149.79 191.797 146.434 190.689 145.121C189.992 145.575 181.68 151.291 177.736 153.944L176.687 153.902L176.688 153.901Z" fill="white"/>
<path d="M176.592 153.898L175.499 153.854C174.867 154.862 172.7 157.984 170.89 160.733L171.19 161.862C171.368 162.611 171.565 163.391 171.827 164.239C172.155 165.285 172.482 166.36 172.502 167.455C172.511 168.017 170.983 178.647 169.539 188.815C171.867 195.957 172.943 199.105 176.63 208.141C179.871 199.8 181.479 196.037 183.886 188.909C182.751 179.182 181.249 167.596 181.249 167.255C181.249 166.643 181.388 166.037 181.527 165.439C181.596 165.168 181.659 164.897 181.715 164.625C182.008 163.299 182.215 162.308 182.46 160.992C180.627 158.204 178.383 154.972 177.738 153.945L176.592 153.899L176.592 153.898Z" fill="#3D8DCC"/>
<path d="M136.086 244.483C136.376 237.585 136.899 227.611 137.036 221.678C137.307 210.7 138.191 199.377 138.41 188.662C134.954 185.221 133.168 182.573 129.987 178.915C127.304 175.83 124.605 172.369 121.671 169.963C120.265 168.81 118.772 167.761 117.218 166.795L123.681 162.725C129.852 158.432 143.54 153.849 150.293 152.883L154.029 152.293C155.197 151.257 156.369 150.35 157.42 149.677C160.118 161.656 164.901 174.577 168.694 186.225C171.655 195.319 172.523 198.082 176.627 208.138C180.266 198.773 181.847 195.179 184.811 186.111C188.613 174.482 193.409 161.579 196.106 149.625C197.127 150.237 198.285 151.095 199.457 152.096C201.632 152.407 202.995 152.6 202.995 152.6C211.917 153.866 221.572 157.231 229.133 161.247C229.133 161.247 232.826 163.164 236.636 165.14C234.205 166.523 231.926 167.991 229.938 169.522C225.146 173.214 217.595 184.459 214.033 188.163C214.033 188.163 213.692 188.574 213.22 189.139C213.541 199.468 214.379 211.621 214.627 221.676C214.764 227.609 215.287 237.583 215.577 244.482H136.085L136.086 244.483Z" fill="#B3B3B3"/>
<path d="M107.117 155.435C108.727 155.792 111.543 155.699 112.877 155.651C117.649 155.479 121.402 153.003 122.814 149.241C124.582 144.533 122.559 138.771 123.336 133.803L123.121 119.215C124.264 115.78 124.833 113.117 124.927 109.836C125.21 99.8152 121.26 92.6934 116.628 87.9488L112.692 84.5325C108.147 81.17 102.752 78.8774 95.8014 78.3775C88.5106 77.8535 82.1665 79.5407 76.955 82.7583C70.9039 86.4942 63.8578 93.4179 62.4765 105.344C62.1464 108.194 62.2857 111.498 62.9377 114.887L62.148 129.312C61.1257 133.192 58.8878 136.936 58.9442 140.993C59.0866 142.779 59.9874 145.202 60.6515 146.088C63.7902 150.273 66.0184 151.097 68.7908 151.545L70.982 154.317L104.702 159.437L107.117 155.435Z" fill="#645D5C"/>
<path d="M88.959 103.193C88.4269 106.097 86.2236 112.17 88.1604 111.716C96.4164 109.878 103.241 105.411 108.799 98.8291C110.09 106.709 115.549 118.367 118.851 120.212C119.741 119.493 120.886 119.281 121.847 119.384C123.936 119.606 124.748 120.768 125.084 121.441C126.091 123.449 125.787 126.994 124.861 129.134C124.205 130.65 123.142 132.964 120.871 134.514C119.935 135.153 118.599 135.523 117.367 135.229L117.043 135.152C116.555 136.39 115.978 137.597 115.636 138.178C114.529 140.563 108.453 149.181 101.584 151.306C101.332 153.361 101.287 155.439 101.424 157.498C101.473 158.142 101.537 158.794 101.754 159.398C101.98 160.018 102.958 160.936 104.076 161.741L107.854 164.134C107.854 164.134 105.504 166.847 104.031 167.689C102.153 168.763 99.2017 169.992 99.2017 169.992C95.0181 171.5 89.3502 171.702 85.116 170.955C80.8817 170.208 76.8584 168.515 73.112 166.405C73.112 166.405 70.2172 164.159 69.1812 162.591C67.7387 160.412 66.8218 157.359 66.8218 157.359L71.1148 156.106C71.9117 155.905 76.8053 154.67 77.4412 154.155C77.892 153.793 78.222 153.302 78.536 152.827C79.0431 152.062 79.6791 151.04 80.3231 149.945C77.0894 148.482 74.3404 146.015 71.8175 142.621C68.9808 138.805 67.4964 134.806 66.7534 131.529C65.4018 131.766 64.0003 131.185 63.1019 130.36C61.0758 128.499 60.3553 126.057 59.923 124.463C59.3128 122.212 59.5197 118.661 60.8029 116.817C61.2327 116.2 62.2028 115.166 64.3022 115.244C65.3084 115.282 66.4668 115.687 67.2484 116.604C74.4474 112.218 81.2456 107.628 88.7078 102.829" fill="white"/>
<path d="M120.687 169.182C116.916 166.296 112.597 164.082 108.238 162.105C107.036 160.724 105.778 159.5 104.679 158.659C100.862 168.661 95.6605 178.964 90.8829 188.552C87.2894 195.763 85.7398 198.478 81.6843 205.553C79.7097 197.964 78.7195 194.598 77.1747 186.834C75.0842 176.328 72.2418 164.601 71.1856 153.947C69.6674 154.566 67.7942 155.645 66.0047 156.916C62.6165 157.992 59.1301 158.763 55.6026 159.221C51.527 160.274 47.0561 162.964 44.5373 165.47C41.0581 168.931 37.5789 172.392 34.1006 175.853L28.6468 176.086C20.5244 176.724 12.2685 177.946 4.05437 179.523C2.77685 179.769 1.8318 180.864 1.78672 182.165C1.36732 194.265 4.07369 211.407 8.21616 218.24C10.227 221.557 13.385 224.551 16.6516 224.431C21.5259 224.252 24.1807 222.32 28.1139 219.436C32.2435 216.406 36.7248 211.967 41.9122 206.466L42.5449 205.796C41.4453 210.439 40.4841 214.135 39.8337 216.074C37.9444 221.691 29.9517 232.897 23.9634 240.91C22.8211 242.357 23.8482 244.484 25.6917 244.484C48.2273 244.484 105.923 244.484 105.923 244.484C107.832 232.787 110.591 216.583 112.977 203.664C120.728 208.87 128.27 215.035 135.875 220.989L137.032 221.788C137.034 221.751 137.035 221.715 137.035 221.679C137.307 210.701 138.19 199.378 138.41 188.664C134.954 185.222 133.167 182.574 129.986 178.916C127.303 175.83 124.605 172.369 121.671 169.963C121.347 169.698 121.018 169.438 120.686 169.183L120.687 169.182Z" fill="white"/>
<path d="M12.9052 138.083C12.1969 127.356 10.5539 102.817 10.4484 91.5924C10.4388 90.533 11.2518 89.6789 12.3047 89.5678C17.4156 89.0309 21.5436 89.1951 26.8758 89.9494C31.3628 90.5837 37.1338 91.9015 41.4373 93.6669C42.491 94.0991 43.032 95.2607 42.6423 96.3314C39.1761 105.86 29.9106 128.981 26.008 139.983L12.9044 138.082L12.9052 138.083Z" fill="#FFDA71"/>
<path d="M71.5447 157.659C73.2335 157.232 74.9288 156.801 76.5815 156.25C77.6183 155.904 78.474 155.55 79.18 154.671C79.7056 154.016 80.154 153.305 80.5992 152.595C80.8222 152.24 81.0411 151.883 81.2577 151.524C81.5531 151.034 81.9347 150.534 81.9347 149.937C81.9347 149.094 81.1941 148.288 80.3247 148.327C79.4553 148.365 78.7147 149.034 78.7147 149.937V149.945L78.9345 149.132C78.5304 149.817 78.1182 150.498 77.6932 151.171C77.5145 151.454 77.3325 151.735 77.1474 152.014C77.0323 152.188 76.918 152.364 76.7932 152.532C76.9494 152.321 76.6765 152.665 76.6483 152.694C76.5767 152.771 76.5026 152.845 76.4245 152.915C76.6161 152.779 76.6668 152.742 76.5766 152.804C76.5404 152.814 76.5042 152.85 76.4704 152.866C76.4084 152.895 76.344 152.925 76.2836 152.956C76.0671 153.069 76.6942 152.799 76.435 152.892C76.0671 153.022 75.7024 153.156 75.3305 153.274C73.801 153.759 72.2442 154.162 70.689 154.555C69.8719 154.761 69.3004 155.72 69.5644 156.535C69.8381 157.379 70.6696 157.879 71.5447 157.659Z" fill="#211715"/>
<path d="M60.5952 128.885C59.8296 131.694 58.5223 134.326 57.8228 137.154C57.141 139.91 57.2786 142.485 58.3565 145.115C60.0502 149.248 63.9858 152.372 68.3625 153.097C69.219 153.24 70.0957 152.873 70.3428 151.973C70.5545 151.202 70.0812 150.135 69.2182 149.992C67.6686 149.736 66.2381 149.315 64.9671 148.358C63.4344 147.205 61.9258 145.544 61.2529 143.729C60.8914 142.754 60.5485 141.694 60.5533 140.646C60.559 139.408 60.8496 138.188 61.2021 137.007C61.9355 134.55 63.0246 132.217 63.6992 129.74C64.245 127.738 61.1394 126.884 60.5944 128.885L60.5952 128.885Z" fill="#211715"/>
<path d="M106.69 156.989C109.363 157.531 112.432 157.479 115.118 157.022C117.863 156.555 120.584 155.195 122.393 153.044C124.465 150.583 125.173 147.531 125.174 144.365C125.174 141.005 124.407 137.583 124.89 134.231C125.014 133.372 124.678 132.502 123.765 132.251C123.009 132.044 121.91 132.51 121.785 133.376C121.337 136.486 121.737 139.541 121.903 142.656C122.046 145.343 121.99 148.221 120.337 150.482C118.96 152.365 116.799 153.426 114.553 153.864C113.468 154.075 112.342 154.071 111.241 154.085C110.017 154.101 108.75 154.128 107.546 153.883C105.523 153.472 104.658 156.576 106.69 156.988L106.69 156.989Z" fill="#211715"/>
<path d="M194.596 75.91C189.752 72.7786 184.109 70.7911 176.999 70.7299C169.54 70.6655 163.189 72.7923 158.088 76.4043C152.167 80.5983 145.437 88.1032 144.798 100.337C144.638 103.395 145.034 106.923 146.006 110.491C146.377 110.383 146.805 110.314 147.297 110.302C148.281 110.277 149.429 110.585 150.276 111.388L154.533 107.982C157.734 104.581 163.377 99.4616 167.323 97.4974C167.786 97.2672 168.374 97.5892 168.555 98.3378C168.729 99.0607 168.723 99.6089 168.66 100.127C168.564 100.913 169.347 101.493 170.019 101.138C172.836 99.6508 177.86 96.6522 181.417 95.2346L186.666 95.906C188.352 96.6337 189.632 97.3308 191.48 98.9005C194.647 101.59 197.673 105.269 198.999 108.586L203.165 111.846C204.026 111.057 205.179 110.768 206.163 110.811C206.619 110.83 207.019 110.897 207.368 110.999L207.449 110.558C208.392 106.987 208.801 104.238 208.683 100.89C208.324 90.5705 203.761 83.5373 198.681 79.0084L194.594 75.91H194.596Z" fill="#645D5C"/>
<path d="M107.476 244.912C109.702 231.284 112.024 217.671 114.531 204.092L112.166 205.054C119.997 210.33 127.312 216.311 134.739 222.127C135.423 222.663 136.349 222.795 137.015 222.127C137.572 221.57 137.703 220.389 137.015 219.851C129.373 213.866 121.848 207.702 113.791 202.274C112.977 201.726 111.609 202.247 111.426 203.236C108.92 216.815 106.597 230.428 104.371 244.055C104.231 244.913 104.594 245.788 105.496 246.036C106.265 246.247 107.335 245.774 107.476 244.911V244.912Z" fill="#211715"/>
<path d="M340.833 165.942C340.326 165.281 339.708 164.602 339.344 164.378C336.286 162.496 333.632 160.844 330.699 159.413C330.072 159.107 329.205 158.78 328.547 158.551C327.363 158.139 326.018 158.212 324.886 158.752C323.924 159.21 322.652 160.938 323 162.129L320.392 162.457C319.649 162.339 318.979 161.938 318.245 161.776C316.702 161.433 315.076 162.207 314.015 163.376C312.953 164.546 312.357 166.058 311.856 167.556C311.478 168.684 311.465 170.042 311.796 171.227C312.05 172.135 312.704 172.617 313.382 172.871C314.06 173.125 315.371 173.282 316.649 172.527L316.445 174.376C316.107 174.66 315.728 175.297 315.511 175.708C314.93 176.892 315.323 178.585 316.22 179.507C316.707 180.009 318.908 182.176 319.657 182.703L321.047 181.203C322.378 182.303 323.437 183.691 323.57 185.084C324.454 192.722 326.334 195.842 329.348 196.675C331.808 197.356 335.032 197.381 336.656 196.979C337.312 196.817 340.278 195.966 340.71 195.447C341.559 194.425 342.5 193.671 342.839 192.316C343.117 191.201 343.03 190.004 342.83 188.885C342.586 187.523 342.175 184.06 342.011 181.756C341.81 179.292 341.858 174.723 342.279 172.578C342.699 170.433 342.324 168.501 341.54 166.998C341.392 166.716 341.132 166.332 340.834 165.942H340.833Z" fill="white"/>
<path d="M28.6476 174.476C24.0753 174.841 19.5182 175.377 14.9797 176.041C12.6251 176.386 10.2761 176.767 7.93201 177.179C6.88714 177.362 5.84307 177.552 4.7998 177.749C3.81127 177.935 2.86058 178.092 2.02581 178.693C0.359481 179.893 0.170309 181.661 0.142134 183.561C0.11718 185.229 0.146964 186.898 0.219413 188.564C0.377996 192.239 0.742656 195.902 1.25865 199.544C2.13529 205.727 3.33311 212.259 6.17875 217.881C7.71628 220.919 10.1755 223.957 13.3576 225.344C16.6235 226.768 20.6033 225.815 23.6712 224.278C27.0755 222.571 30.202 219.999 33.0509 217.497C36.5743 214.403 39.8337 211.013 43.0505 207.606C44.4721 206.1 42.1996 203.818 40.774 205.329C35.9392 210.451 31.0102 215.505 25.2167 219.553C22.6585 221.34 19.9972 222.69 16.8199 222.815C13.5967 222.942 11.0578 219.863 9.5589 217.351C8.36027 215.342 7.58587 213.103 6.91934 210.87C6.0419 207.93 5.39227 204.923 4.86903 201.902C3.7678 195.546 3.19868 189.035 3.38302 182.582C3.40153 181.948 3.52228 181.436 4.1542 181.164C5.10731 180.753 6.39529 180.716 7.41601 180.531C9.76014 180.106 12.1091 179.712 14.4645 179.353C19.1713 178.636 23.8998 178.077 28.646 177.699C30.6979 177.535 30.7156 174.314 28.646 174.479L28.6476 174.476Z" fill="#211715"/>
<path d="M99.9358 151.638C99.7048 153.772 99.6275 155.977 99.8706 158.113C100 159.249 100.234 160.198 100.957 161.102C101.597 161.901 102.442 162.533 103.264 163.131C103.946 163.628 105.089 163.269 105.466 162.553C105.908 161.717 105.617 160.882 104.888 160.351C104.68 160.198 104.626 160.161 104.481 160.041C104.302 159.893 104.125 159.743 103.954 159.586C103.837 159.477 103.721 159.366 103.609 159.251C103.555 159.195 103.183 158.728 103.408 159.049C103.346 158.96 103.008 158.551 103.307 158.969C103.219 158.846 103.194 158.607 103.161 158.465C103.135 158.351 103.111 158.237 103.093 158.121C103.107 158.258 103.103 158.226 103.081 158.024C103.059 157.816 103.043 157.608 103.029 157.399C102.901 155.48 102.948 153.549 103.156 151.637C103.247 150.796 102.35 149.99 101.546 150.027C100.596 150.069 100.033 150.737 99.9358 151.637V151.638Z" fill="#211715"/>
<path d="M14.5152 138.083C14.0137 130.494 13.517 122.906 13.0775 115.314C12.8271 110.993 12.5929 106.671 12.3989 102.348C12.2427 98.8687 11.998 95.3533 12.0608 91.8693C12.0761 91.0289 12.6669 91.1359 13.4116 91.0707C14.813 90.9484 16.2194 90.8759 17.6265 90.8647C20.3345 90.8421 23.0392 91.053 25.7239 91.4032C28.2684 91.7349 30.7945 92.2138 33.2892 92.8127C35.7234 93.3972 38.2801 94.0202 40.5735 95.045C41.298 95.3686 41.1668 95.6954 40.918 96.3756C40.6629 97.0719 40.4045 97.7666 40.1444 98.4613C39.5479 100.053 38.9434 101.64 38.3348 103.227C36.8762 107.032 35.3998 110.83 33.9259 114.629C30.7108 122.913 27.4313 131.181 24.4568 139.555C23.7621 141.511 26.8718 142.353 27.5617 140.411C30.3598 132.532 33.4349 124.751 36.4592 116.958C38.0354 112.896 39.6156 108.834 41.1772 104.767C41.8261 103.078 42.4717 101.387 43.1084 99.693C43.7017 98.1136 44.7224 96.2895 44.2282 94.5773C43.4843 91.9989 40.0631 91.375 37.8357 90.7021C35.2018 89.9059 32.5123 89.2837 29.8044 88.7991C24.2701 87.8081 18.6553 87.3622 13.0469 87.8846C11.829 87.9981 10.7277 88.1728 9.83983 89.0864C8.95193 90.0001 8.83037 91.14 8.84808 92.3434C8.87304 94.0782 8.92456 95.8129 8.98573 97.5469C9.13707 101.835 9.3504 106.121 9.58304 110.405C10.0837 119.636 10.6875 128.86 11.2969 138.084C11.4329 140.14 14.6537 140.156 14.5168 138.084L14.5152 138.083Z" fill="#211715"/>
<path d="M35.2397 176.991C37.9662 174.279 40.6935 171.566 43.42 168.853C45.7955 166.49 48.0784 164.368 51.0553 162.77C52.4463 162.023 53.8896 161.404 55.4014 160.948C57.1257 160.428 59.0343 160.334 60.8029 159.958C64.3279 159.208 67.7741 158.14 71.1164 156.792C71.9222 156.467 72.4905 155.719 72.241 154.812C72.0309 154.047 71.0713 153.36 70.2607 153.687C66.8041 155.081 63.2348 156.177 59.5825 156.929C57.8172 157.293 55.948 157.401 54.2294 157.941C52.5735 158.46 50.9587 159.171 49.4308 159.991C46.3509 161.644 43.8852 163.848 41.4252 166.296C38.6045 169.103 35.7838 171.909 32.9632 174.716C31.4924 176.179 33.7689 178.457 35.2397 176.992V176.991Z" fill="#211715"/>
<path d="M342.722 189.781C343.071 189.798 343.93 189.659 344.219 189.833C344.235 189.842 344.471 190.391 344.557 190.606C344.999 191.717 345.348 192.87 345.643 194.027C346.217 196.273 346.514 198.58 346.671 200.89C346.984 205.506 346.789 210.366 345.801 214.898C344.896 219.049 342.754 223.13 339.138 225.536C337.488 226.634 335.612 227.331 333.61 227.212C331.565 227.09 329.618 225.904 328.033 224.681C325.795 222.953 324.182 220.385 322.517 218.139C320.669 215.645 318.88 213.109 317.145 210.535C315.993 208.826 313.202 210.436 314.365 212.161C316.172 214.841 318.038 217.482 319.967 220.075C321.669 222.363 323.308 224.93 325.516 226.764C327.448 228.368 329.798 229.852 332.309 230.279C334.783 230.7 337.243 230.208 339.466 229.078C344.116 226.714 347.291 221.877 348.618 216.943C349.286 214.46 349.556 211.877 349.772 209.321C350.004 206.569 350.08 203.827 349.902 201.069C349.707 198.048 349.304 195.004 348.453 192.093C348.05 190.713 347.629 188.92 346.691 187.8C345.647 186.554 344.207 186.634 342.721 186.563C340.65 186.463 340.655 189.683 342.721 189.783L342.722 189.781Z" fill="#211715"/>
<path d="M312.29 162.304C304.166 159.597 296.223 156.203 288.298 152.968C287.493 152.64 286.529 153.325 286.318 154.093C286.065 155.015 286.634 155.743 287.443 156.073C295.367 159.307 303.311 162.702 311.435 165.409C313.405 166.066 314.25 162.957 312.29 162.304Z" fill="#211715"/>
<path d="M324.552 161.795C324.572 160.601 325.82 159.928 326.868 159.898C328.397 159.853 330.023 160.848 331.332 161.538C332.831 162.326 334.293 163.182 335.742 164.059C336.505 164.521 337.265 164.988 338.025 165.456C338.345 165.653 338.465 165.715 338.617 165.852C338.858 166.07 339.077 166.324 339.285 166.572C340.047 167.48 340.554 168.487 340.755 169.665C340.984 171.009 340.665 172.303 340.51 173.632C340.21 176.201 340.205 178.848 340.376 181.427C340.551 184.065 340.861 186.703 341.277 189.313C341.502 190.724 341.503 192.061 340.553 193.199C340.334 193.462 340.095 193.708 339.868 193.966C339.769 194.079 339.675 194.199 339.572 194.309C339.788 194.08 339.752 194.191 339.627 194.266C339.278 194.475 338.947 194.583 338.558 194.72C336.373 195.488 334.358 195.766 332.029 195.541C331.32 195.473 330.614 195.348 329.925 195.163C329.73 195.11 329.537 195.055 329.346 194.986C329.137 194.912 329.388 195.043 329.05 194.845C328.484 194.512 328.078 194.179 327.74 193.739C326.184 191.717 325.726 188.865 325.355 186.418C325.09 184.666 324.916 183.21 323.806 181.759C322.696 180.307 321.201 179.164 319.581 178.33C317.742 177.383 316.111 180.16 317.956 181.11C319.385 181.846 320.871 182.859 321.653 184.31C322.031 185.011 322.046 185.816 322.153 186.591C322.279 187.502 322.426 188.41 322.613 189.311C323.121 191.743 323.915 194.261 325.587 196.158C327.277 198.074 329.752 198.561 332.192 198.778C334.855 199.015 337.354 198.617 339.839 197.672C342.779 196.554 344.742 193.595 344.617 190.43C344.561 188.992 344.226 187.556 344.054 186.128C343.861 184.528 343.693 182.923 343.589 181.315C343.412 178.583 343.385 175.714 343.831 173.007C344.397 169.571 343.61 166.471 341.222 163.909C339.902 162.494 337.908 161.591 336.26 160.615C334.363 159.491 332.429 158.368 330.384 157.531C328.37 156.707 326.28 156.3 324.231 157.294C322.58 158.095 321.364 159.958 321.334 161.795C321.299 163.868 324.519 163.868 324.553 161.795H324.552Z" fill="#211715"/>
<path d="M332.098 165.799C330.229 164.795 328.331 163.839 326.428 162.904C325.765 162.578 325.074 162.181 324.362 161.976C322.656 161.485 320.798 162.072 319.705 163.467C318.486 165.024 318.299 167.253 319.309 168.97C319.749 169.718 320.76 169.987 321.511 169.548C322.263 169.108 322.531 168.097 322.089 167.345C322.038 167.262 321.99 167.177 321.949 167.089C322.012 167.246 322.012 167.234 321.949 167.054C321.919 166.955 321.894 166.856 321.875 166.755C321.887 166.9 321.889 166.913 321.879 166.794C321.865 166.608 321.862 166.42 321.88 166.233C321.853 166.517 321.944 166.003 321.964 165.937C321.987 165.857 322.015 165.778 322.045 165.7C322 165.829 322.02 165.805 322.104 165.628C322.155 165.541 322.209 165.457 322.269 165.375C322.172 165.506 322.183 165.502 322.304 165.362C322.363 165.314 322.691 165.083 322.428 165.245C322.508 165.192 322.591 165.143 322.677 165.098C322.511 165.158 322.517 165.156 322.694 165.094C322.769 165.073 323.183 164.994 322.843 165.032C322.915 165.024 323.489 165.056 323.187 165.008C323.352 165.035 323.504 165.101 323.667 165.133C323.896 165.179 323.23 164.93 323.432 165.032C323.731 165.181 324.04 165.313 324.34 165.46C326.403 166.461 328.453 167.496 330.473 168.582C331.238 168.993 332.226 168.773 332.675 168.004C333.103 167.272 332.866 166.214 332.097 165.801L332.098 165.799Z" fill="#211715"/>
<path d="M327.267 169.518C325.552 168.739 323.762 168.027 321.944 167.529C321.095 167.298 320.235 167.001 319.348 167.121C318.401 167.249 317.498 167.715 316.855 168.429C315.509 169.923 315.357 172.318 316.652 173.905C317.465 174.902 318.767 175.591 319.922 176.137C321.189 176.737 322.483 177.28 323.773 177.831C324.545 178.161 325.535 178.088 325.975 177.253C326.341 176.561 326.225 175.403 325.397 175.05C323.521 174.249 321.597 173.506 319.865 172.417C319.731 172.332 319.601 172.239 319.467 172.155C319.41 172.119 319.228 171.968 319.468 172.165C319.417 172.124 319.366 172.082 319.317 172.038C319.309 172.031 318.997 171.729 319.005 171.723C319.001 171.726 319.204 171.978 319.069 171.779C318.912 171.548 319.114 171.982 319.077 171.802C319.075 171.79 318.957 171.397 318.974 171.392C319.01 171.382 318.987 171.718 318.987 171.447C318.987 171.364 318.979 171.282 318.98 171.198C318.98 171.137 318.989 171.074 318.987 171.013C318.977 170.797 318.889 171.276 318.974 171.088C318.993 171.046 319.005 170.968 319.012 170.922C319.06 170.61 318.884 171.113 318.988 170.953C319.06 170.841 319.25 170.567 319.051 170.801C319.162 170.671 319.286 170.563 319.404 170.44C319.387 170.457 319.175 170.587 319.327 170.503C319.398 170.464 319.464 170.414 319.537 170.374C319.59 170.345 319.645 170.32 319.699 170.291C319.389 170.458 319.602 170.332 319.707 170.311C320.118 170.227 319.5 170.305 319.793 170.297C320.13 170.288 319.689 170.285 319.703 170.27C319.712 170.261 319.934 170.328 319.923 170.325C320.265 170.413 320.607 170.503 320.949 170.596C321.763 170.815 322.561 171.067 323.345 171.376C323.79 171.551 324.237 171.723 324.682 171.898C324.875 171.974 325.067 172.051 325.259 172.129C325.556 172.249 325.336 172.161 325.275 172.135C325.398 172.188 325.521 172.243 325.643 172.298C326.408 172.646 327.412 172.543 327.846 171.72C328.219 171.014 328.087 169.89 327.268 169.518H327.267Z" fill="#211715"/>
<path d="M319.208 172.27C317.739 172.047 316.215 172.238 315.149 173.392C314.246 174.37 313.612 175.667 313.627 177.015C313.643 178.362 314.17 179.685 315.096 180.662C315.586 181.178 316.108 181.668 316.623 182.159C317.332 182.836 318.047 183.521 318.844 184.094C319.53 184.588 320.667 184.236 321.047 183.517C321.487 182.684 321.201 181.841 320.469 181.314C320.185 181.11 320.758 181.562 320.547 181.375C320.489 181.324 320.427 181.276 320.368 181.226C320.203 181.087 320.042 180.944 319.882 180.799C319.536 180.486 319.196 180.166 318.859 179.844C318.311 179.32 317.796 178.752 317.239 178.239C317.164 178.15 317.187 178.18 317.307 178.328C317.26 178.262 317.216 178.193 317.173 178.124C317.109 178.017 317.055 177.906 316.998 177.795C317.173 178.13 317.005 177.802 316.975 177.709C316.939 177.597 316.82 177.331 316.851 177.216L316.871 177.393C316.862 177.309 316.855 177.226 316.851 177.141C316.845 177.015 316.854 176.891 316.853 176.765C316.87 176.58 316.866 176.6 316.84 176.825C316.855 176.746 316.872 176.666 316.894 176.587C316.924 176.477 317.088 176.19 316.901 176.521C317.049 176.26 317.204 176.007 317.361 175.752C317.531 175.476 317.187 175.888 317.425 175.669C317.495 175.605 317.723 175.456 317.474 175.601C317.513 175.579 317.937 175.336 317.728 175.435C317.516 175.535 317.953 175.345 318.006 175.367C317.804 175.388 317.766 175.393 317.89 175.383C317.954 175.377 318.019 175.374 318.084 175.374C318.158 175.373 318.717 175.431 318.351 175.376C319.18 175.501 320.123 175.167 320.331 174.251C320.506 173.484 320.097 172.406 319.207 172.271L319.208 172.27Z" fill="#211715"/>
<path d="M320.821 160.905C319.995 160.748 319.256 160.312 318.424 160.179C317.532 160.036 316.621 160.074 315.759 160.369C313.991 160.974 312.616 162.26 311.688 163.861C310.802 165.392 310.093 167.222 309.966 168.994C309.833 170.845 310.304 172.81 311.894 173.909C313.53 175.04 315.794 174.846 317.462 173.917C318.221 173.495 318.472 172.454 318.04 171.715C317.592 170.949 316.599 170.713 315.837 171.137C315.621 171.258 315.507 171.312 315.312 171.37C315.265 171.384 314.787 171.486 315.041 171.449C314.881 171.473 314.713 171.473 314.551 171.47C314.449 171.469 314.348 171.462 314.247 171.453C314.437 171.481 314.443 171.479 314.263 171.448C314.147 171.416 314.028 171.383 313.912 171.354C313.63 171.287 314.127 171.51 313.819 171.312C313.736 171.269 313.656 171.221 313.578 171.17C313.694 171.268 313.709 171.279 313.623 171.204C313.567 171.156 313.515 171.106 313.466 171.052C313.559 171.189 313.552 171.179 313.446 171.019C313.279 170.8 313.42 171.09 313.349 170.799C313.297 170.587 313.241 170.379 313.207 170.163C313.183 170.007 313.162 169.512 313.176 169.182C313.202 168.563 313.479 167.732 313.757 166.996C314.007 166.333 314.373 165.599 314.82 164.928C314.96 164.717 315.151 164.501 315.389 164.27C315.44 164.22 315.855 163.876 315.719 163.974C315.857 163.874 316.003 163.783 316.151 163.697C316.747 163.355 317.062 163.267 317.747 163.313C317.495 163.296 318.013 163.378 318.089 163.4C318.3 163.462 318.505 163.54 318.711 163.618C319.124 163.774 319.529 163.926 319.964 164.009C320.818 164.171 321.701 163.771 321.945 162.884C322.161 162.098 321.679 161.067 320.82 160.904L320.821 160.905Z" fill="#211715"/>
<path d="M250.111 157.058C242.979 159.869 235.801 163.136 229.633 167.748C225.051 171.174 221.639 176.072 218.168 180.553C216.469 182.746 214.813 185.014 212.896 187.025C211.466 188.525 213.739 190.806 215.172 189.302C218.848 185.446 221.822 180.91 225.207 176.804C226.844 174.819 228.531 172.808 230.496 171.134C233.102 168.915 236.208 167.17 239.211 165.557C243.013 163.516 246.955 161.744 250.968 160.162C251.776 159.843 252.34 159.084 252.092 158.182C251.881 157.411 250.925 156.737 250.112 157.057L250.111 157.058Z" fill="#211715"/>
<path d="M202.569 154.154C211.525 155.45 220.326 158.415 228.322 162.639C230.153 163.607 231.782 160.828 229.947 159.859C221.713 155.509 212.651 152.385 203.424 151.049C202.565 150.925 201.694 151.262 201.444 152.174C201.236 152.93 201.702 154.029 202.569 154.154Z" fill="#211715"/>
<path d="M235.406 210.849C228.769 215.732 222.367 220.905 215.994 226.125C215.321 226.676 215.423 227.83 215.994 228.401C216.66 229.067 217.596 228.954 218.271 228.401C224.431 223.356 230.615 218.349 237.03 213.629C237.73 213.115 238.08 212.233 237.608 211.426C237.205 210.737 236.11 210.331 235.406 210.849Z" fill="#211715"/>
<path d="M124.494 164.116C128.386 161.437 132.91 159.637 137.337 158.059C141.67 156.515 146.159 155.104 150.722 154.436C151.583 154.309 152.056 153.219 151.846 152.455C151.593 151.532 150.73 151.204 149.866 151.331C145.207 152.013 140.621 153.466 136.201 155.055C131.62 156.702 126.901 158.56 122.868 161.335C121.172 162.502 122.781 165.295 124.494 164.116Z" fill="#211715"/>
<path d="M102.81 161.469C109.475 164.343 116.592 167.289 121.939 172.346C127.398 177.509 131.535 183.911 136.764 189.289C138.211 190.777 140.487 188.499 139.041 187.012C134.942 182.797 131.412 178.024 127.545 173.597C125.544 171.306 123.422 169.21 120.973 167.398C118.625 165.662 116.097 164.183 113.501 162.852C110.541 161.334 107.488 160.006 104.435 158.69C103.637 158.346 102.708 158.453 102.232 159.268C101.835 159.948 102.007 161.124 102.81 161.471V161.469Z" fill="#211715"/>
<path d="M240.103 119.647C238.259 118.25 235.541 118.217 233.553 119.343C232.006 120.219 231.122 121.833 230.836 123.548C230.163 127.595 231.491 131.769 234.045 134.931C235.793 137.094 238.311 138.475 241.132 137.924C241.987 137.757 242.475 136.736 242.257 135.943C242.012 135.051 241.132 134.651 240.277 134.819C238.412 135.183 236.799 133.436 235.889 132.03C234.912 130.522 234.255 129.034 233.985 127.279C233.755 125.785 233.723 123.968 234.541 122.669C234.717 122.391 234.4 122.795 234.634 122.556C234.71 122.478 234.957 122.25 234.96 122.248C235.157 122.104 235.57 121.935 235.896 121.854C236.849 121.619 237.704 121.841 238.478 122.427C239.172 122.952 240.278 122.536 240.68 121.849C241.163 121.023 240.798 120.173 240.102 119.646L240.103 119.647Z" fill="#211715"/>
<path d="M293.208 118.722C293.839 118.099 294.695 117.846 295.575 117.949C295.962 117.994 296.274 118.085 296.591 118.272C296.913 118.463 296.802 118.399 297.109 118.718C297.342 118.96 296.986 118.502 297.152 118.77C297.26 118.944 297.371 119.109 297.462 119.293C297.631 119.632 297.741 119.993 297.837 120.36C298.08 121.284 298.152 122.229 298.131 123.183C298.094 124.774 297.652 126.415 296.969 127.852C296.145 129.589 294.8 131.49 292.665 131.362C290.596 131.238 290.603 134.458 292.665 134.582C297.374 134.865 300.022 129.916 300.995 125.994C301.826 122.642 301.549 117.352 298.135 115.447C295.833 114.161 292.793 114.609 290.931 116.446C289.454 117.903 291.731 120.18 293.207 118.722H293.208Z" fill="#211715"/>
<path d="M291.148 130.599C290.535 134.756 289.116 137.868 286.923 141.327C284.557 145.061 281.286 149.18 276.875 150.492C274.894 151.082 275.737 154.19 277.73 153.597C282.839 152.077 286.638 147.669 289.447 143.351C291.786 139.755 293.623 135.727 294.253 131.454C294.379 130.595 294.039 129.724 293.128 129.474C292.37 129.266 291.275 129.733 291.148 130.599Z" fill="#211715"/>
<path d="M238.782 134.79C241.807 144.709 250.101 154.419 260.98 155.289C263.046 155.454 263.035 152.233 260.98 152.069C256.222 151.688 252.208 149.105 248.917 145.784C245.626 142.463 243.244 138.381 241.887 133.933C241.284 131.957 238.175 132.8 238.782 134.789V134.79Z" fill="#211715"/>
<path d="M281.678 80.9883C271.821 75.6592 259.56 75.4314 249.499 80.4119C241.348 84.4465 234.905 92.1454 232.523 100.931C230.778 107.369 231.152 114.128 233.255 120.43C233.908 122.386 237.018 121.548 236.36 119.575C234.631 114.392 234.093 108.954 235.202 103.575C236.079 99.3259 237.909 95.3243 240.563 91.8886C246.148 84.6606 254.582 80.5004 263.676 80.0818C269.419 79.8178 274.994 81.0333 280.054 83.7687C281.877 84.754 283.504 81.9752 281.678 80.9883Z" fill="#211715"/>
<path d="M297.8 116.411C298.439 112.917 298.754 109.436 298.333 105.897C297.949 102.666 297.194 99.5243 295.931 96.5216C293.859 91.5951 290.538 87.2965 286.31 84.029C285.623 83.4977 284.703 83.3593 284.034 84.029C283.48 84.5829 283.341 85.771 284.034 86.3055C287.877 89.2759 290.96 93.0731 292.894 97.5448C295.363 103.252 295.807 109.484 294.696 115.555C294.325 117.581 297.428 118.45 297.8 116.411H297.8Z" fill="#211715"/>
<path d="M262.437 141.442C264.185 142.198 265.981 142.494 267.893 142.346C269.777 142.2 271.693 141.749 273.153 140.487C273.792 139.935 273.762 138.769 273.153 138.211C272.472 137.585 271.559 137.621 270.877 138.211C270.595 138.454 271.146 138.036 270.936 138.169C270.836 138.233 270.74 138.304 270.637 138.366C270.527 138.432 270.415 138.493 270.3 138.55C270.272 138.565 270.096 138.669 270.067 138.661C270.127 138.677 270.443 138.516 270.148 138.623C269.78 138.758 269.407 138.873 269.024 138.958C268.896 138.987 268.768 139.012 268.639 139.036C268.599 139.043 268.224 139.106 268.437 139.073C268.653 139.038 268.248 139.094 268.207 139.098C268.049 139.115 267.89 139.127 267.73 139.138C267.206 139.172 266.68 139.178 266.156 139.145C266.048 139.139 265.941 139.131 265.834 139.12C265.773 139.115 265.713 139.108 265.652 139.101C265.526 139.086 265.572 139.093 265.789 139.121C265.65 139.149 265.405 139.057 265.265 139.027C264.955 138.961 264.649 138.875 264.351 138.77C264.244 138.732 264.138 138.69 264.033 138.65C263.69 138.518 264.448 138.83 264.062 138.662C263.291 138.329 262.299 138.408 261.859 139.24C261.492 139.934 261.611 141.086 262.437 141.443L262.437 141.442Z" fill="#211715"/>
<path d="M266.087 129.089C266.232 129.513 266.367 129.941 266.496 130.371C266.63 130.815 266.785 131.276 266.849 131.737L266.792 131.309C266.802 131.399 266.804 131.487 266.793 131.578L266.85 131.15C266.842 131.193 266.833 131.23 266.818 131.272L266.981 130.887C266.963 130.925 266.944 130.958 266.92 130.992L267.172 130.666C267.155 130.688 267.135 130.708 267.114 130.725L267.44 130.473C267.345 130.541 267.241 130.595 267.134 130.642L267.518 130.479C267.411 130.521 267.306 130.551 267.192 130.567L267.62 130.51C267.412 130.532 267.213 130.492 267.007 130.479C266.611 130.453 266.143 130.677 265.869 130.95C265.59 131.23 265.38 131.688 265.397 132.089C265.416 132.505 265.553 132.937 265.869 133.227C266.195 133.526 266.563 133.67 267.007 133.699C267.177 133.71 267.345 133.744 267.516 133.738C268.025 133.718 268.471 133.591 268.917 133.345C269.429 133.064 269.833 132.582 269.957 132.005C270.059 131.531 270.017 131.075 269.901 130.607C269.703 129.806 269.46 129.014 269.193 128.233C269.057 127.834 268.824 127.487 268.453 127.271C268.108 127.069 267.599 126.983 267.213 127.108C266.823 127.234 266.447 127.476 266.251 127.848C266.055 128.218 265.948 128.679 266.088 129.088L266.087 129.089Z" fill="#211715"/>
<path d="M252.061 122.81C251.714 124.216 252.207 127.366 254.915 127.46C258.47 127.206 258.408 123.363 257.093 121.64C256.017 120.229 253.095 119.804 252.062 122.809L252.061 122.81Z" fill="#211715"/>
<path d="M280.537 120.945C281.064 122.295 280.987 125.482 278.314 125.927C274.757 126.139 274.317 122.32 275.396 120.441C276.28 118.902 279.121 118.1 280.537 120.945Z" fill="#211715"/>
<path d="M97.7358 2.04147C104.103 17.647 110.47 33.2525 116.837 48.858C117.166 49.6622 117.908 50.2321 118.818 49.9826C119.58 49.7733 120.272 48.8121 119.942 48.0023C113.575 32.3968 107.208 16.7913 100.841 1.18577C100.512 0.381588 99.77 -0.188345 98.8603 0.061202C98.098 0.270499 97.4057 1.23166 97.7358 2.04147Z" fill="#211715"/>
<path d="M40.5928 26.7567C47.2726 34.9113 54.1673 42.8976 61.0758 50.8581C63.0818 53.1692 65.0951 55.4747 67.1252 57.7657C68.5026 59.3202 70.7726 57.0356 69.4018 55.4892C61.8767 46.9966 54.5014 38.3663 47.1994 29.6813C45.748 27.9546 44.299 26.2254 42.8701 24.4802C41.5564 22.8759 39.2887 25.1661 40.5928 26.7567Z" fill="#211715"/>
<path d="M254.115 1.18546C247.747 16.791 241.38 32.3965 235.013 48.002C234.685 48.8078 235.37 49.7714 236.138 49.9823C237.059 50.2359 237.788 49.6659 238.118 48.8577C244.485 33.2522 250.852 17.6467 257.219 2.04117C257.548 1.23537 256.863 0.271799 256.095 0.0608924C255.173 -0.192679 254.445 0.377253 254.115 1.18546Z" fill="#211715"/>
<path d="M312.086 24.4806C305.406 32.6351 298.511 40.6214 291.603 48.5819C289.597 50.8931 287.584 53.1985 285.553 55.4895C284.183 57.0359 286.453 59.3213 287.83 57.7661C295.355 49.2734 302.73 40.6431 310.032 31.9581C311.484 30.2314 312.933 28.5023 314.362 26.7571C315.664 25.1664 313.399 22.8754 312.085 24.4806H312.086Z" fill="#211715"/>
<path d="M68.2893 115.354C66.6898 113.755 64.1412 113.174 62.0055 113.974C60.278 114.622 59.2203 115.975 58.6093 117.676C57.2972 121.333 58.0748 125.772 60.0229 129.066C61.3905 131.379 63.6332 133.329 66.4692 133.178C68.5308 133.068 68.5437 129.847 66.4692 129.958C64.3947 130.069 63.0866 128.195 62.3066 126.499C61.6554 125.082 61.2327 123.489 61.2078 121.93C61.1925 120.997 61.2722 120.077 61.5145 119.174C61.6103 118.817 61.7214 118.468 61.888 118.14C61.9782 117.963 62.0852 117.795 62.1947 117.63C62.3863 117.341 61.9484 117.873 62.2341 117.587C62.5368 117.284 62.3935 117.362 62.7405 117.16C62.9611 117.032 63.3338 116.892 63.6952 116.855C64.5622 116.766 65.3945 117.013 66.012 117.63C67.4795 119.097 69.7576 116.821 68.2893 115.354Z" fill="#211715"/>
<path d="M119.664 121.601C120.42 121.036 121.246 120.826 122.173 121.068C122.513 121.156 122.812 121.271 123.101 121.479C122.95 121.37 123.296 121.667 123.337 121.705C123.388 121.758 123.437 121.812 123.484 121.87C123.388 121.742 123.372 121.723 123.436 121.813C124.246 123.045 124.221 124.887 123.977 126.363C123.697 128.058 123.088 129.438 122.143 130.906C121.245 132.3 119.646 134.051 117.796 133.677C116.944 133.505 116.057 133.923 115.816 134.802C115.598 135.596 116.084 136.609 116.94 136.782C121.594 137.723 124.73 133.538 126.333 129.754C127.127 127.882 127.468 125.726 127.277 123.699C127.117 121.992 126.624 120.244 125.261 119.105C123.284 117.453 120.127 117.261 118.039 118.82C117.344 119.339 116.988 120.213 117.461 121.023C117.862 121.709 118.963 122.124 119.664 121.601Z" fill="#211715"/>
<path d="M116.11 132.918C115.067 136.505 113.066 139.728 110.656 142.55C107.764 145.937 104.047 149.435 99.4713 150.135C98.6108 150.266 98.1359 151.347 98.3468 152.115C98.5995 153.034 99.4641 153.372 100.327 153.24C105.402 152.463 109.716 148.593 112.932 144.827C115.714 141.569 118.009 137.918 119.215 133.773C119.795 131.779 116.689 130.928 116.11 132.918Z" fill="#211715"/>
<path d="M64.827 129.995C66.4008 139.804 73.1707 150.385 83.4062 152.639C85.4259 153.083 86.288 149.98 84.2619 149.534C75.0536 147.506 69.335 137.889 67.9319 129.14C67.7942 128.281 66.7236 127.803 65.9516 128.015C65.0371 128.266 64.6886 129.134 64.827 129.995Z" fill="#211715"/>
<path d="M113.504 83.144C104.738 76.7145 92.7094 74.8671 82.4072 78.4203C73.9339 81.3424 66.7155 87.8644 63.2227 96.1446C60.6483 102.247 60.175 108.835 61.3857 115.316C61.7656 117.35 64.8697 116.489 64.4905 114.46C62.7308 105.039 65.3768 95.2639 72.2458 88.4754C78.8032 81.9945 87.7386 79.1617 96.868 80.081C102.347 80.6324 107.451 82.6763 111.879 85.9244C112.581 86.4388 113.675 86.042 114.082 85.3464C114.559 84.5302 114.207 83.6592 113.504 83.144Z" fill="#211715"/>
<path d="M124.674 119.644C126.749 113.341 127.18 106.689 125.457 100.237C124.105 95.171 121.407 90.5697 117.767 86.8112C116.323 85.3204 114.047 87.5985 115.491 89.0877C118.753 92.4558 121.143 96.5524 122.352 101.093C123.082 103.832 123.376 106.644 123.326 109.475C123.268 112.692 122.572 115.742 121.569 118.788C120.919 120.761 124.028 121.606 124.674 119.643V119.644Z" fill="#211715"/>
<path d="M87.0504 139.551C88.6024 140.493 90.317 140.917 92.1202 141.046C93.8308 141.17 95.7998 141.003 97.2802 140.043C97.9861 139.585 98.3444 138.594 97.8582 137.84C97.4033 137.135 96.4108 136.773 95.6557 137.262C95.4818 137.375 95.2653 137.442 95.1003 137.561C95.1582 137.519 95.5019 137.409 95.246 137.496C95.1824 137.517 95.1204 137.541 95.0568 137.563C94.8998 137.616 94.7404 137.661 94.5794 137.699C94.3935 137.744 94.2059 137.777 94.0175 137.811C93.7149 137.865 94.2566 137.793 94.0409 137.806C93.937 137.813 93.8332 137.826 93.7294 137.834C93.194 137.872 92.6555 137.865 92.1202 137.827C91.9866 137.818 91.8529 137.806 91.7201 137.793C91.5921 137.78 91.3812 137.751 91.6259 137.786C91.3804 137.75 91.1357 137.707 90.8934 137.655C90.5102 137.572 90.1319 137.467 89.7632 137.334C89.6827 137.305 89.5837 137.25 89.4991 137.232C89.5917 137.252 89.8421 137.389 89.6062 137.275C89.4806 137.215 89.3542 137.156 89.2311 137.091C89.0419 136.991 88.8592 136.881 88.6764 136.771C87.9552 136.334 86.8757 136.588 86.474 137.349C86.061 138.132 86.2824 139.085 87.052 139.552L87.0504 139.551Z" fill="#211715"/>
<path d="M92.0976 128.12C92.2176 128.736 92.3214 129.357 92.4051 129.979L92.348 129.551C92.389 129.86 92.4518 130.191 92.4172 130.502L92.4744 130.074C92.4639 130.139 92.4494 130.201 92.4253 130.263L92.5879 129.878C92.5718 129.912 92.5549 129.942 92.5331 129.974L92.7851 129.647C92.7601 129.677 92.7368 129.701 92.707 129.725L93.033 129.473C92.992 129.499 92.9533 129.518 92.9083 129.538L93.293 129.375C93.1755 129.423 93.058 129.46 92.9324 129.481L93.3607 129.424C93.2496 129.438 93.1401 129.44 93.029 129.427L93.4573 129.484C93.3035 129.462 93.1578 129.412 93.0065 129.382C92.5798 129.295 92.1508 129.319 91.766 129.544C91.4319 129.74 91.1131 130.122 91.0262 130.506C90.932 130.919 90.9529 131.381 91.1888 131.747C91.4078 132.086 91.7418 132.403 92.1508 132.487C92.451 132.548 92.7167 132.615 93.0298 132.647C93.3832 132.683 93.7607 132.626 94.094 132.504C94.4675 132.367 94.7541 132.236 95.0399 131.952C95.279 131.715 95.4456 131.401 95.5462 131.083C95.6468 130.767 95.667 130.417 95.6315 130.089C95.5309 129.142 95.3868 128.199 95.2049 127.264C95.1308 126.885 94.7879 126.491 94.4651 126.302C94.1198 126.1 93.611 126.015 93.2246 126.139C92.835 126.266 92.4591 126.507 92.2627 126.879C92.0517 127.278 92.0139 127.675 92.1001 128.12L92.0976 128.12Z" fill="#211715"/>
<path d="M79.3112 119.924C78.7863 121.242 78.8419 124.367 81.4581 124.821C84.9429 125.051 85.3977 121.312 84.352 119.463C83.4963 117.949 80.7167 117.145 79.3112 119.924Z" fill="#211715"/>
<path d="M107.205 121.931C107.536 123.311 107.033 126.395 104.379 126.469C100.898 126.198 100.982 122.432 102.282 120.752C103.346 119.376 106.212 118.979 107.205 121.931Z" fill="#211715"/>
<path d="M107.267 99.403C108.077 104.042 109.765 108.561 111.779 112.804C112.659 114.658 113.627 116.486 114.792 118.179C115.672 119.458 116.674 120.803 118.038 121.602C119.83 122.652 121.452 119.87 119.664 118.822C119.557 118.759 119.446 118.695 119.346 118.62C119.633 118.837 119.26 118.542 119.232 118.516C119.013 118.309 118.8 118.101 118.598 117.877C118.114 117.341 117.726 116.793 117.322 116.182C116.218 114.513 115.285 112.73 114.437 110.92C112.601 107.001 111.117 102.819 110.371 98.5473C110.221 97.69 109.171 97.2086 108.391 97.4227C107.486 97.6715 107.117 98.5433 107.267 99.403Z" fill="#211715"/>
<path d="M87.8972 101.438C80.8326 105.985 73.8582 110.675 66.6914 115.061C64.9268 116.141 66.5425 118.928 68.3167 117.842C75.4835 113.455 82.4579 108.765 89.5225 104.219C91.2596 103.101 89.6464 100.313 87.8972 101.438Z" fill="#211715"/>
<path d="M107.412 97.9828C103.471 102.541 98.6486 106.362 92.9992 108.564C91.5857 109.116 90.1375 109.575 88.6652 109.943C88.4591 109.994 88.2522 110.044 88.0453 110.091C87.6621 110.171 87.6283 110.184 87.9439 110.129L88.7634 110.467C88.8712 110.57 88.9485 110.691 88.9952 110.831C88.959 110.661 88.959 110.677 88.9952 110.879C88.9888 110.777 88.9872 110.676 88.9896 110.574C89.0016 110.435 89.0129 110.141 89.0202 110.074C89.2617 107.969 90.1029 105.767 90.5118 103.619C90.8982 101.593 87.795 100.726 87.407 102.763C87.0246 104.769 86.3621 106.711 85.9966 108.721C85.6964 110.375 85.4525 113.271 87.8972 113.342C89.0685 113.376 90.3911 112.836 91.4987 112.492C92.8704 112.065 94.2107 111.549 95.5269 110.975C98.0216 109.885 100.384 108.506 102.571 106.885C105.189 104.944 107.557 102.723 109.687 100.258C111.037 98.6969 108.769 96.4099 107.411 97.9812L107.412 97.9828Z" fill="#211715"/>
<path d="M282.899 106.947C283.181 107.114 282.795 106.85 282.796 106.853C282.843 106.916 282.93 106.972 282.987 107.029C283.048 107.09 283.104 107.156 283.163 107.22C283.468 107.551 283.076 107.072 283.184 107.235C283.493 107.701 283.807 108.156 284.088 108.641C284.781 109.838 285.392 111.081 286.007 112.319C286.639 113.594 287.261 114.876 287.949 116.122C288.467 117.061 289.03 118.085 289.817 118.828C290.932 119.882 292.703 119.895 293.46 118.397C293.851 117.621 293.665 116.652 292.882 116.195C292.166 115.776 291.072 115.993 290.68 116.773C290.652 116.826 290.623 116.905 290.579 116.947C290.966 116.572 290.836 116.635 290.75 116.721C290.617 116.853 291.026 116.521 290.989 116.543C290.791 116.667 291.344 116.431 291.402 116.424C291.868 116.367 291.266 116.396 291.73 116.425C292.038 116.444 291.926 116.456 291.84 116.434C291.696 116.395 292.296 116.646 292.042 116.512C291.786 116.376 292.306 116.789 292.175 116.623C292.071 116.488 291.919 116.364 291.802 116.237C291.555 115.967 291.976 116.496 291.835 116.282C291.778 116.195 291.712 116.112 291.654 116.027C291.505 115.81 291.365 115.587 291.228 115.361C290.925 114.861 290.644 114.346 290.371 113.83C289.148 111.514 288.1 109.101 286.769 106.843C286.193 105.865 285.528 104.764 284.526 104.168C282.741 103.106 281.119 105.889 282.901 106.948L282.899 106.947Z" fill="#211715"/>
<path d="M151.415 110.25C149.592 108.644 147.017 108.249 144.787 109.236C143.179 109.949 142.19 111.399 141.711 113.052C140.611 116.845 141.604 121.317 143.801 124.547C145.323 126.784 147.681 128.731 150.554 128.394C151.417 128.293 152.164 127.727 152.164 126.784C152.164 125.992 151.423 125.073 150.554 125.174C146.892 125.603 144.783 120.394 144.545 117.412C144.421 115.861 144.444 113.943 145.419 112.65C145.185 112.959 145.844 112.295 145.724 112.379C146.02 112.17 146.322 112.054 146.673 111.979C147.527 111.798 148.469 111.937 149.138 112.526C150.687 113.892 152.973 111.622 151.414 110.25H151.415Z" fill="#211715"/>
<path d="M204.305 112.984C204.939 112.446 205.833 112.322 206.629 112.473C207.369 112.613 207.737 112.877 208.124 113.352C207.963 113.154 208.084 113.289 208.151 113.421C208.228 113.571 208.323 113.709 208.39 113.865C208.534 114.198 208.621 114.573 208.696 114.929C208.892 115.849 208.888 116.819 208.815 117.753C208.688 119.366 208.108 120.945 207.344 122.346C206.543 123.814 204.992 125.945 203.052 125.684C202.191 125.568 201.323 125.891 201.071 126.809C200.865 127.558 201.328 128.672 202.196 128.789C207.131 129.454 210.126 124.912 211.482 120.779C212.58 117.433 212.546 112.264 209.279 110.101C207.052 108.627 203.998 109.033 202.029 110.708C201.366 111.271 201.449 112.405 202.029 112.984C202.685 113.641 203.641 113.55 204.305 112.984Z" fill="#211715"/>
<path d="M201.25 124.871C200.936 126.27 200.485 127.671 199.916 128.99C199.845 129.156 199.3 130.351 199.55 129.804C199.431 130.065 199.31 130.323 199.179 130.578C198.339 132.217 197.312 133.768 196.216 135.245C193.566 138.812 189.968 142.585 185.465 143.57C183.441 144.012 184.298 147.117 186.321 146.675C191.52 145.538 195.61 141.334 198.71 137.249C199.917 135.658 201.047 133.983 201.958 132.203C202.104 131.918 202.242 131.629 202.37 131.336C202.366 131.346 202.694 130.612 202.513 131.014C202.654 130.7 202.795 130.386 202.928 130.067C203.515 128.661 204.021 127.214 204.354 125.727C204.807 123.709 201.702 122.847 201.249 124.871L201.25 124.871Z" fill="#211715"/>
<path d="M148.781 125.182C151.004 135.031 158.511 145.463 169.067 147.097C169.925 147.23 170.798 146.879 171.047 145.973C171.257 145.21 170.787 144.126 169.922 143.993C160.402 142.519 153.887 133.192 151.886 124.327C151.429 122.306 148.325 123.161 148.781 125.182Z" fill="#211715"/>
<path d="M195.409 74.519C185.982 68.4808 173.614 67.3852 163.268 71.7193C154.855 75.2435 148.007 82.3443 144.975 90.9641C142.761 97.2567 142.702 104.022 144.331 110.454C144.84 112.461 147.945 111.61 147.436 109.598C145.03 100.098 147.007 89.9023 153.619 82.5222C156.219 79.6202 159.334 77.1892 162.821 75.4431C167.536 73.0821 172.847 72.1692 178.091 72.364C183.721 72.5733 189.046 74.2654 193.784 77.2994C195.534 78.42 197.15 75.6347 195.409 74.519Z" fill="#211715"/>
<path d="M209.004 110.987C210.715 104.421 210.776 97.5884 208.582 91.1139C206.854 86.0167 203.823 81.4653 199.822 77.8702C198.285 76.4889 196 78.7589 197.546 80.1467C201.133 83.3699 203.924 87.3868 205.477 91.9696C207.494 97.9209 207.473 104.09 205.899 110.13C205.376 112.137 208.481 112.993 209.004 110.987Z" fill="#211715"/>
<path d="M171.953 133.511C173.589 134.367 175.335 134.74 177.183 134.756C178.908 134.772 180.939 134.522 182.372 133.459C183.046 132.958 183.457 132.042 182.95 131.256C182.52 130.589 181.471 130.142 180.748 130.678C180.576 130.806 180.392 130.919 180.201 131.018C180.147 131.046 180.09 131.072 180.035 131.099C179.765 131.235 180.154 131.07 180.16 131.05C180.139 131.113 179.747 131.2 179.683 131.219C179.302 131.338 178.915 131.41 178.523 131.479C178.929 131.408 178.479 131.481 178.417 131.487C178.296 131.498 178.175 131.507 178.054 131.514C177.764 131.532 177.473 131.538 177.183 131.536C176.917 131.533 176.65 131.524 176.386 131.506C176.24 131.496 176.096 131.481 175.95 131.468C175.629 131.44 176.097 131.498 175.91 131.466C175.515 131.397 175.123 131.324 174.738 131.211C174.574 131.164 174.413 131.11 174.252 131.051C174.187 131.027 174.123 131 174.058 130.976C173.769 130.871 174.421 131.148 174.163 131.02C173.968 130.922 173.771 130.831 173.577 130.73C172.832 130.339 171.793 130.514 171.375 131.308C170.983 132.049 171.156 133.094 171.953 133.51V133.511Z" fill="#211715"/>
<path d="M176.432 121.515C176.651 122.353 176.861 123.205 176.984 124.063L176.927 123.635C176.941 123.752 176.947 123.868 176.933 123.986L176.99 123.558C176.981 123.612 176.968 123.663 176.949 123.715L177.112 123.331C177.095 123.368 177.077 123.398 177.054 123.432L177.306 123.106C177.29 123.127 177.271 123.146 177.252 123.162L177.578 122.91C177.506 122.965 177.424 123.001 177.343 123.038L177.728 122.875C177.616 122.919 177.505 122.952 177.386 122.972L177.815 122.914C177.695 122.929 177.577 122.927 177.457 122.911L177.885 122.968C177.766 122.951 177.649 122.922 177.53 122.905C177.316 122.838 177.102 122.828 176.888 122.876C176.674 122.886 176.474 122.949 176.289 123.067C175.955 123.262 175.636 123.645 175.549 124.029C175.455 124.441 175.476 124.904 175.712 125.269C175.922 125.595 176.271 125.953 176.674 126.009C176.973 126.051 177.264 126.122 177.568 126.142C178.063 126.174 178.526 126.017 178.969 125.817C179.509 125.574 179.899 125.097 180.07 124.533C180.216 124.054 180.158 123.6 180.077 123.119C179.939 122.291 179.751 121.47 179.54 120.657C179.438 120.268 179.144 119.897 178.8 119.695C178.455 119.494 177.946 119.408 177.559 119.533C176.72 119.804 176.207 120.64 176.435 121.513L176.432 121.515Z" fill="#211715"/>
<path d="M162.882 114.099C162.432 115.476 162.69 118.654 165.384 118.948C168.947 118.958 169.17 115.12 167.986 113.305C167.017 111.818 164.134 111.179 162.882 114.099Z" fill="#211715"/>
<path d="M191.417 114.347C191.843 115.731 191.531 118.904 188.832 119.151C185.269 119.099 185.112 115.259 186.328 113.464C187.323 111.994 190.216 111.404 191.418 114.347H191.417Z" fill="#211715"/>
<path d="M185.855 97.296C188.469 98.4334 190.606 100.105 192.59 102.14C194.516 104.116 196.454 106.576 197.448 109.014C197.777 109.819 198.52 110.388 199.428 110.139C200.191 109.929 200.883 108.968 200.553 108.159C199.303 105.093 197.306 102.402 195.022 100.024C192.835 97.7468 190.387 95.7802 187.48 94.5164C186.683 94.1694 185.752 94.2813 185.278 95.0943C184.879 95.7754 185.054 96.9482 185.856 97.2968L185.855 97.296Z" fill="#211715"/>
<path d="M155.672 109.121C157.78 106.892 160.031 104.786 162.396 102.831C163.53 101.894 164.698 100.998 165.925 100.187C166.438 99.8471 166.961 99.5219 167.499 99.2232C167.641 99.1443 167.784 99.0678 167.927 98.9938C167.552 99.0574 167.245 98.9809 167.003 98.7652C166.954 98.8521 167.082 99.7102 167.077 99.864C167.02 101.483 168.029 102.949 169.793 102.832C171.063 102.748 172.458 101.645 173.555 101.036C176.259 99.5347 178.973 97.9489 181.845 96.7865C182.651 96.4605 183.219 95.7143 182.97 94.8062C182.76 94.0423 181.8 93.3532 180.989 93.6817C177.94 94.9165 175.06 96.5192 172.188 98.1131C171.541 98.4721 170.896 98.832 170.248 99.1862C170.079 99.2787 169.744 99.4019 169.604 99.5355C169.229 99.6845 169.347 99.7489 169.957 99.7303C170.203 100.23 170.317 100.275 170.297 99.864C170.538 99.1789 170.175 97.8821 169.86 97.2639C169.505 96.57 168.88 96.0411 168.114 95.8728C166.71 95.5645 165.164 96.8211 164.066 97.5609C162.785 98.4246 161.559 99.3745 160.362 100.353C157.905 102.362 155.574 104.537 153.394 106.843C151.97 108.349 154.243 110.63 155.67 109.12L155.672 109.121Z" fill="#211715"/>
<path d="M241.762 123.483C242.196 120.653 243.258 117.835 244.472 115.256C245.223 113.66 246.078 112.1 247.117 110.67C247.927 109.553 248.935 108.522 250.044 107.917C251.864 106.925 250.24 104.144 248.418 105.137C245.289 106.841 243.269 110.325 241.784 113.436C240.41 116.314 239.143 119.456 238.656 122.627C238.525 123.485 238.874 124.359 239.781 124.608C240.543 124.817 241.629 124.348 241.761 123.483H241.762Z" fill="#211715"/>
<path d="M25.3544 241.723C30.3308 235.059 35.4361 228.291 39.3765 220.944C40.6677 218.537 41.5749 216.073 42.2889 213.444C43.3225 209.642 44.2128 205.799 45.0871 201.958C46.3581 196.371 47.5552 190.769 48.7039 185.155C49.1176 183.133 46.0152 182.268 45.599 184.3C43.7524 193.317 41.8631 202.348 39.5375 211.256C38.883 213.765 38.2092 216.177 37.0452 218.459C35.3121 221.86 33.2078 225.075 31.073 228.233C28.3481 232.263 25.484 236.2 22.5723 240.098C22.0515 240.795 22.4588 241.896 23.1503 242.3C23.9722 242.781 24.8311 242.422 25.3528 241.722L25.3544 241.723Z" fill="#211715"/>
<path d="M310.021 194.615C312.088 207.269 315.005 219.801 317.769 232.315C318.696 236.514 319.632 240.713 320.566 244.911C321.017 246.933 324.122 246.078 323.671 244.055C320.566 230.119 317.399 216.188 314.659 202.173C314.113 199.375 313.586 196.573 313.126 193.76C312.986 192.901 311.919 192.423 311.146 192.635C310.234 192.886 309.88 193.754 310.021 194.615Z" fill="#211715"/>
<path d="M233.885 204.098C236.773 217.652 239.275 231.288 241.806 244.911C242.185 246.946 245.288 246.084 244.911 244.055C242.379 230.432 239.878 216.796 236.99 203.243C236.559 201.217 233.454 202.074 233.885 204.098Z" fill="#211715"/>
<path d="M211.514 185.107C211.655 193.255 212.148 201.393 212.542 209.532C212.902 216.986 213.069 224.446 213.4 231.901C213.587 236.095 213.792 240.289 213.969 244.483C214.056 246.548 217.277 246.559 217.189 244.483C216.544 229.197 215.952 213.911 215.221 198.63C215.006 194.124 214.813 189.618 214.734 185.107C214.697 183.038 211.477 183.031 211.514 185.107Z" fill="#211715"/>
<path d="M137.696 244.483C138.306 230.036 138.843 215.586 139.551 201.144C139.775 196.576 139.97 192.007 140.047 187.434C140.081 185.361 136.861 185.361 136.827 187.434C136.689 195.632 136.172 203.818 135.788 212.008C135.458 219.074 135.306 226.145 134.987 233.211C134.817 236.969 134.635 240.725 134.476 244.484C134.389 246.556 137.609 246.551 137.696 244.483Z" fill="#211715"/>
<path d="M168.538 206.227C162.112 195.089 155.762 183.9 149.832 172.489C149.441 171.736 149.096 170.933 148.655 170.209C148.657 170.211 148.462 169.719 148.471 169.951C148.472 169.975 148.29 170.319 148.556 169.897C148.779 169.541 149.187 169.222 149.48 168.92C150.817 167.536 152.214 166.211 153.617 164.894C154.372 164.187 154.17 162.867 153.291 162.366C152.457 161.889 151.623 161.414 150.789 160.937C150.399 160.715 150.01 160.493 149.621 160.271C149.398 160.143 149.175 160.016 148.953 159.89C148.572 159.635 148.516 159.626 148.787 159.862L149.006 160.674C148.995 160.927 149.203 160.393 149.243 160.322C149.371 160.093 149.506 159.87 149.645 159.647C149.946 159.172 150.267 158.708 150.606 158.259C151.326 157.304 152.131 156.408 152.96 155.548C154.561 153.887 156.297 152.327 158.234 151.068L155.869 150.106C157.74 158.356 160.366 166.413 163.054 174.426C165.483 181.668 167.781 188.961 170.301 196.171C171.586 199.849 173.012 203.475 174.474 207.085C174.8 207.891 175.546 208.46 176.454 208.21C177.218 208 177.907 207.04 177.579 206.23C175.04 199.959 172.794 193.618 170.7 187.186C168.068 179.102 165.225 171.086 162.713 162.962C161.313 158.435 160.022 153.872 158.974 149.25C158.751 148.266 157.456 147.737 156.609 148.288C153.365 150.397 150.483 153.177 148.129 156.237C147.173 157.48 145.294 159.618 145.925 161.294C146.306 162.306 147.457 162.744 148.329 163.242C149.442 163.877 150.554 164.512 151.667 165.146L151.341 162.618C150.031 163.847 148.728 165.083 147.472 166.368C146.388 167.477 145.014 168.642 145.307 170.359C145.566 171.87 146.69 173.421 147.393 174.769C148.199 176.315 149.014 177.856 149.835 179.394C153.132 185.569 156.535 191.687 159.989 197.776C161.898 201.142 163.824 204.5 165.758 207.852C166.793 209.646 169.577 208.026 168.539 206.227H168.538Z" fill="#211715"/>
<path d="M178.739 207.143C181.311 200.556 183.911 193.995 186.124 187.275C188.729 179.366 191.511 171.515 193.973 163.56C195.354 159.1 196.625 154.606 197.66 150.053L195.295 151.015C197.309 152.242 199.097 153.823 200.746 155.5C201.632 156.4 202.491 157.34 203.259 158.343C203.573 158.752 203.871 159.177 204.152 159.609C204.294 159.827 204.431 160.048 204.563 160.272C204.624 160.375 204.926 161.028 204.918 160.824L205.137 160.011C205.408 159.774 205.352 159.783 204.971 160.037C204.749 160.163 204.526 160.29 204.303 160.416C203.914 160.638 203.525 160.859 203.135 161.08C202.301 161.555 201.467 162.029 200.633 162.503C199.754 163.003 199.552 164.326 200.307 165.031C201.57 166.211 202.826 167.399 204.041 168.629C204.407 169 205.383 169.753 205.472 170.132C205.404 169.84 205.127 170.593 205.047 170.747C204.864 171.102 204.68 171.456 204.495 171.809C203.016 174.64 201.493 177.447 199.944 180.239C196.708 186.07 193.352 191.833 189.953 197.569C188.05 200.778 186.132 203.979 184.208 207.176C183.136 208.956 185.92 210.577 186.988 208.802C194.228 196.77 201.459 184.702 207.906 172.221C208.346 171.37 208.798 170.528 208.616 169.537C208.447 168.616 207.88 167.98 207.253 167.317C205.756 165.737 204.174 164.239 202.583 162.753L202.257 165.282C203.37 164.65 204.482 164.017 205.594 163.385C206.517 162.86 207.767 162.384 208.079 161.25C208.549 159.537 206.503 157.299 205.535 156.065C203.161 153.044 200.209 150.238 196.918 148.234C196.06 147.711 194.782 148.188 194.553 149.196C192.71 157.311 190.128 165.236 187.477 173.116C185.004 180.469 182.676 187.888 179.959 195.156C178.565 198.884 177.079 202.578 175.631 206.285C175.315 207.095 175.979 208.052 176.756 208.266C177.668 208.516 178.419 207.954 178.736 207.141L178.739 207.143Z" fill="#211715"/>
<path d="M176.312 152.464C171.979 149.547 167.729 146.5 163.358 143.641C162.809 143.282 161.843 143.37 161.407 143.893C159.968 145.621 158.694 147.48 157.241 149.199C156.791 149.731 156.584 150.517 156.989 151.15C160.183 156.124 163.128 161.331 167.583 165.319C168.343 166 169.573 165.934 170.112 164.993C172.159 161.417 174.69 158.145 176.889 154.666C177.999 152.91 175.214 151.292 174.108 153.041C171.909 156.52 169.378 159.791 167.331 163.368L169.86 163.042C165.602 159.23 162.822 154.278 159.77 149.524L159.518 151.475C160.97 149.756 162.244 147.897 163.684 146.169L161.732 146.421C166.102 149.281 170.353 152.328 174.685 155.244C176.409 156.404 178.024 153.616 176.312 152.464Z" fill="#211715"/>
<path d="M180.849 163.898C178.152 163.897 175.455 163.842 172.758 163.841C171.916 163.841 171.109 164.581 171.148 165.451C171.186 166.32 171.855 167.061 172.758 167.061C175.455 167.062 178.152 167.117 180.849 167.118C181.691 167.118 182.498 166.377 182.459 165.508C182.421 164.639 181.752 163.898 180.849 163.898Z" fill="#211715"/>
<path d="M180.919 160.494C180.636 162.007 180.319 163.512 179.973 165.01C179.782 165.84 179.596 166.69 179.664 167.543C179.782 169.008 180.02 170.472 180.202 171.93C180.907 177.588 181.613 183.246 182.274 188.909C182.375 189.773 182.942 190.519 183.884 190.519C184.676 190.519 185.595 189.778 185.494 188.909C184.842 183.327 184.148 177.75 183.453 172.173C183.267 170.682 183.069 169.192 182.902 167.698C182.831 167.067 182.933 166.493 183.077 165.867C183.423 164.368 183.741 162.864 184.024 161.351C184.403 159.326 181.301 158.458 180.919 160.495V160.494Z" fill="#211715"/>
<path d="M171.094 189.22C171.887 183.631 172.692 178.044 173.466 172.452C173.675 170.941 173.905 169.43 174.069 167.913C174.303 165.735 173.241 163.514 172.742 161.431C172.259 159.417 169.154 160.27 169.637 162.287C170.074 164.107 171.056 166.065 170.844 167.96C170.684 169.397 170.492 170.66 170.29 172.114C169.538 177.533 168.758 182.947 167.99 188.363C167.867 189.223 168.201 190.092 169.114 190.343C169.868 190.551 170.971 190.085 171.094 189.219L171.094 189.22Z" fill="#211715"/>
<path d="M178.549 155.334C182.882 152.417 187.132 149.37 191.502 146.511L189.551 146.259C190.991 147.987 192.265 149.846 193.717 151.565L193.465 149.613C190.413 154.368 187.633 159.32 183.375 163.132L185.904 163.458C183.857 159.881 181.326 156.61 179.127 153.13C178.022 151.384 175.234 152.997 176.346 154.756C178.545 158.235 181.076 161.506 183.123 165.083C183.662 166.023 184.893 166.088 185.652 165.409C190.107 161.421 193.051 156.214 196.245 151.24C196.655 150.601 196.446 149.824 195.994 149.288C194.541 147.57 193.267 145.711 191.828 143.983C191.395 143.463 190.432 143.368 189.876 143.731C185.507 146.59 181.256 149.638 176.923 152.553C175.214 153.704 176.824 156.495 178.549 155.334Z" fill="#211715"/>
<path d="M174.33 216.117C172.839 217.433 173.421 219.246 173.983 219.93C174.921 221.071 176.966 221.183 177.938 220.297C179.267 219.084 178.995 217.442 178.071 216.352C177.285 215.425 175.369 215.2 174.329 216.117H174.33Z" fill="#211715"/>
<path d="M269.781 158.531C265.172 156.076 260.63 153.482 255.989 151.088C255.18 150.671 254.293 150.911 253.787 151.666C252.533 153.533 251.457 155.514 250.189 157.373C249.755 158.01 250.012 158.787 250.441 159.324C254.151 163.968 257.611 168.757 262.478 172.282C263.129 172.753 264.353 172.446 264.681 171.704C266.348 167.936 268.53 164.421 270.359 160.735C271.277 158.884 268.5 157.251 267.579 159.109C265.75 162.796 263.568 166.311 261.9 170.079L264.103 169.501C259.501 166.168 256.221 161.434 252.717 157.046L252.969 158.997C254.237 157.139 255.312 155.158 256.567 153.291L254.364 153.869C259.005 156.263 263.547 158.857 268.156 161.312C269.984 162.286 271.613 159.507 269.781 158.531Z" fill="#211715"/>
<path d="M275.49 169.352C272.807 169.629 270.119 169.851 267.435 170.127C266.601 170.214 265.784 170.806 265.826 171.737C265.861 172.536 266.538 173.44 267.435 173.347C270.119 173.071 272.807 172.848 275.49 172.572C276.325 172.486 277.142 171.894 277.1 170.962C277.065 170.164 276.388 169.26 275.49 169.352Z" fill="#211715"/>
<path d="M263.951 168.759C264.577 170.511 265.829 172.5 265.768 174.234C265.732 175.224 265.674 176.212 265.622 177.202C265.42 181.039 265.204 184.876 264.992 188.712C264.731 193.457 264.47 198.202 264.222 202.948C264.111 205.072 264.002 207.197 263.901 209.322C263.857 210.234 263.815 211.146 263.774 212.058C263.734 212.97 263.538 214.068 263.949 214.911C264.607 216.261 265.758 217.5 266.676 218.681C267.675 219.967 268.703 221.231 269.749 222.48C270.839 223.781 271.948 225.065 273.07 226.339C273.567 226.902 274.067 227.464 274.569 228.023C275.068 228.579 275.568 229.295 276.222 229.677C276.966 230.113 277.937 230.079 278.667 229.645C279.47 229.168 279.867 228.196 280.313 227.417C281.284 225.72 282.236 224.012 283.167 222.292C284.013 220.731 284.842 219.161 285.648 217.58C286.37 216.166 287.295 214.69 287.792 213.179C288.1 212.242 287.724 211.217 287.505 210.291C287.311 209.471 287.113 208.653 286.912 207.835C286.442 205.923 285.96 204.013 285.472 202.106C284.325 197.619 283.15 193.138 281.967 188.66C280.935 184.752 279.894 180.846 278.854 176.94C278.541 175.764 278.227 174.587 277.917 173.41C277.657 172.422 277.615 172.08 277.732 171.083C277.92 169.488 278.11 167.897 278.23 166.295C278.383 164.228 275.162 164.237 275.01 166.295C274.893 167.872 274.707 169.439 274.521 171.009C274.432 171.765 274.387 172.516 274.552 173.263C274.709 173.979 274.923 174.688 275.111 175.397C275.97 178.637 276.836 181.875 277.696 185.114C279.884 193.357 282.094 201.598 284.099 209.887C284.29 210.679 284.435 211.494 284.663 212.276C284.686 212.353 284.711 212.454 284.723 212.537C284.673 212.186 284.768 212.203 284.579 212.504C284.355 212.861 284.199 213.29 284.013 213.669C283.585 214.539 283.15 215.406 282.707 216.269C281.805 218.028 280.876 219.774 279.928 221.51C279.429 222.423 278.923 223.333 278.413 224.24C278.154 224.701 277.893 225.16 277.631 225.62C277.532 225.793 277.433 225.966 277.334 226.139C277.235 226.312 277.135 226.485 277.035 226.658C276.814 226.939 276.956 226.966 277.462 226.736L278.173 227.15C277.072 226.282 276.165 224.991 275.238 223.938C274.191 222.749 273.155 221.549 272.136 220.335C271.117 219.121 270.123 217.907 269.153 216.663C268.336 215.616 267.294 214.493 266.729 213.287L266.948 214.099C266.804 212.84 267.019 211.452 267.079 210.187C267.153 208.607 267.231 207.028 267.311 205.449C267.497 201.796 267.694 198.146 267.893 194.494C268.229 188.344 268.588 182.194 268.901 176.042C268.935 175.355 269.001 174.658 268.995 173.969C268.975 171.867 267.745 169.839 267.055 167.903C266.364 165.967 263.251 166.8 263.95 168.759H263.951Z" fill="#211715"/>
<path d="M272.343 160.918C276.352 157.571 280.267 154.104 284.318 150.809H282.042C283.651 152.38 285.111 154.097 286.732 155.658L286.48 153.707C283.943 158.731 281.697 164.001 277.87 168.216L280.398 168.542C277.913 165.083 274.973 161.984 272.343 158.641C271.804 157.958 270.63 158.078 270.066 158.641C269.391 159.317 269.527 160.233 270.066 160.918C272.526 164.044 275.295 166.933 277.619 170.167C278.189 170.962 279.394 171.323 280.147 170.493C284.181 166.051 286.587 160.628 289.261 155.333C289.581 154.7 289.544 153.897 289.009 153.382C287.388 151.821 285.928 150.104 284.319 148.532C283.65 147.879 282.725 147.977 282.043 148.532C277.99 151.826 274.076 155.295 270.067 158.641C268.475 159.97 270.762 162.238 272.343 160.918H272.343Z" fill="#211715"/>
<path d="M77.8791 216.282C76.2643 217.364 76.5927 219.196 77.0492 219.931C77.8115 221.159 79.7773 221.532 80.8342 220.799C82.28 219.796 82.2285 218.17 81.475 216.995C80.8334 215.994 79.0061 215.528 77.8791 216.282Z" fill="#211715"/>
<path d="M83.2846 206C89.8759 194.496 95.8924 182.648 101.386 170.579C103.108 166.795 104.744 162.97 106.232 159.086L103.541 159.797C105.26 161.135 106.769 162.759 108.116 164.465C108.784 165.312 109.405 166.203 109.966 167.124C110.311 167.689 111.25 168.899 111.189 169.592L111.66 168.454C111.463 168.67 110.95 168.784 110.685 168.908C110.22 169.125 109.758 169.35 109.298 169.577C108.438 170 107.582 170.43 106.715 170.836C105.774 171.277 105.693 172.696 106.389 173.365C107.078 174.028 107.793 174.662 108.494 175.313C108.824 175.62 109.152 175.93 109.467 176.253C109.722 176.514 110.067 177.1 110.381 177.265L110.562 177.496C110.718 177.153 110.706 177.134 110.525 177.441C110.22 177.748 109.983 178.19 109.727 178.54C109.182 179.285 108.633 180.027 108.081 180.767C105.925 183.655 103.716 186.504 101.478 189.328C96.8414 195.181 92.0832 200.938 87.3039 206.675C85.9862 208.257 88.2522 210.546 89.5804 208.951C93.6464 204.071 97.6955 199.176 101.67 194.22C105.612 189.304 109.585 184.363 113.207 179.202C115.41 176.063 110.635 172.979 108.666 171.087L108.34 173.616C109.26 173.184 110.167 172.727 111.079 172.28C111.955 171.85 113.164 171.528 113.851 170.826C115.227 169.419 113.693 167.094 112.895 165.747C111.077 162.678 108.64 159.717 105.817 157.52C104.819 156.743 103.59 157.019 103.126 158.231C100.55 164.954 97.5015 171.483 94.3444 177.951C91.4408 183.897 88.5428 189.863 85.3953 195.685C83.8143 198.61 82.156 201.492 80.5034 204.376C79.4714 206.177 82.2526 207.8 83.2838 206.001L83.2846 206Z" fill="#211715"/>
<path d="M83.2379 205.128C81.6843 199.161 80.1009 193.215 78.8805 187.168C77.4508 180.087 75.8674 173.035 74.5633 165.929C73.834 161.956 73.2013 157.966 72.7964 153.947C72.7046 153.039 71.8199 151.951 70.7582 152.394C67.3466 153.819 64.1589 155.983 61.4895 158.538C60.3843 159.597 58.2164 161.475 59.0882 163.176C59.5165 164.012 60.4849 164.581 61.1828 165.191C62.0345 165.936 62.8733 166.695 63.7354 167.428L64.0615 164.899C62.796 165.591 61.4807 166.194 60.241 166.932C58.9699 167.688 57.3382 168.653 57.3245 170.325C57.3132 171.684 58.1859 173.181 58.6705 174.421C59.2283 175.85 59.7982 177.273 60.377 178.694C62.8226 184.697 65.4147 190.641 68.0639 196.556C69.5442 199.863 71.0439 203.16 72.5493 206.455C72.9107 207.245 74.0554 207.44 74.7517 207.033C75.5639 206.558 75.6919 205.624 75.3297 204.83C72.1999 197.983 69.0967 191.123 66.1383 184.199C64.7014 180.837 63.3032 177.457 61.9661 174.053C61.6296 173.197 61.2971 172.338 60.9695 171.478C60.8616 171.195 60.786 170.778 60.6097 170.526C60.5251 170.169 60.4929 170.199 60.5131 170.614C60.6886 170.482 60.8681 170.354 61.05 170.231C62.5102 169.238 64.1412 168.526 65.6867 167.682C66.5432 167.214 66.7968 165.82 66.0128 165.153C65.2826 164.532 64.5694 163.893 63.8506 163.26C63.5076 162.957 63.1639 162.655 62.8153 162.359C62.5585 162.14 62.0232 161.853 61.8695 161.553L62.0321 162.794C62.1448 162.171 63.2251 161.343 63.6638 160.917C64.4704 160.135 65.3317 159.404 66.2333 158.734C67.8956 157.5 69.6972 156.302 71.6155 155.501L69.5772 153.948C70.3154 161.269 71.7266 168.499 73.2222 175.697C74.61 182.373 75.8642 189.094 77.479 195.72C78.3162 199.154 79.2436 202.565 80.1339 205.985C80.6555 207.989 83.762 207.14 83.2387 205.13L83.2379 205.128Z" fill="#211715"/>
<path d="M250.044 107.916C252.125 106.932 254.812 107.259 257.029 107.441C259.399 107.635 261.752 107.933 264.135 107.785C268.691 107.503 273.169 106.466 277.726 106.194C278.799 106.131 279.896 106.092 280.965 106.222C281.152 106.244 281.721 106.367 282.043 106.462C282.358 106.555 282.109 106.456 282.31 106.56C282.401 106.607 282.82 106.893 282.573 106.694C283.249 107.24 284.19 107.354 284.85 106.694C285.415 106.129 285.529 104.967 284.85 104.418C283.357 103.211 281.474 102.953 279.602 102.925C277.148 102.889 274.692 103.243 272.265 103.574C269.839 103.905 267.426 104.296 264.989 104.502C262.52 104.712 260.11 104.492 257.65 104.274C254.564 104 251.295 103.775 248.418 105.136C246.545 106.021 248.178 108.798 250.043 107.916H250.044Z" fill="#211715"/>
<path d="M98.775 168.44C90.3798 171.383 81.4508 169.223 73.9258 165.014C72.1154 164.002 70.4901 166.782 72.3005 167.795C80.5283 172.396 90.4506 174.764 99.6307 171.544C101.573 170.863 100.738 167.751 98.775 168.44Z" fill="#211715"/>
</svg>
