<svg width="48" height="19" viewBox="0 0 48 19" fill="none" xmlns="http://www.w3.org/2000/svg">
<mask id="mask0_139_95" style="mask-type:luminance" maskUnits="userSpaceOnUse" x="0" y="0" width="48" height="19">
<path d="M48 0H0V18.1026H48V0Z" fill="white"/>
</mask>
<g mask="url(#mask0_139_95)">
<path d="M10.13 5.40059C8.72307 5.36151 6.75335 5.43967 5.32297 5.43967V12.7557H7.37084V7.22179C7.37084 7.22179 9.19204 7.15926 9.84861 7.23743C10.4661 7.30777 10.6928 7.69077 10.7162 8.48804C10.7319 9.39473 10.7162 9.87152 10.7162 12.7557H12.7641C12.7641 12.7557 12.7875 9.45726 12.7641 8.30826C12.7328 6.2682 12.0216 5.44749 10.13 5.40059Z" fill="black"/>
<path d="M19.6034 5.37695C17.5789 5.37695 15.9297 7.03401 15.9297 9.07407C15.9297 11.1141 17.5789 12.7712 19.6034 12.7712C21.6278 12.7712 23.277 11.1141 23.277 9.07407C23.277 7.03401 21.6278 5.37695 19.6034 5.37695ZM19.6034 11.0047C18.5404 11.0047 17.6806 10.1371 17.6806 9.06625C17.6806 7.99542 18.5404 7.12781 19.6034 7.12781C20.6664 7.12781 21.5262 7.99542 21.5262 9.06625C21.5262 10.1449 20.6664 11.0047 19.6034 11.0047Z" fill="black"/>
<path d="M42.6302 9.07407C42.6302 7.03401 40.981 5.37695 38.9566 5.37695C36.9321 5.37695 35.2829 7.03401 35.2829 9.07407C35.2829 10.27 35.83 11.2939 36.682 11.9739C37.2761 12.4429 38.1046 12.7712 39.2145 12.7712C39.7538 12.7712 41.1529 12.6227 42.1613 11.5049L41.3327 10.395C40.981 10.7077 40.0977 11.1454 39.3943 11.1454C38.5032 11.1454 37.9639 10.9734 37.5731 10.6061C37.3308 10.3872 37.1588 10.0511 37.0806 9.63685H42.5755C42.6068 9.44925 42.6302 9.26948 42.6302 9.07407ZM37.0963 8.40187C37.2995 7.53426 37.9092 6.89332 38.9487 6.89332C40.0352 6.89332 40.6058 7.58115 40.7934 8.40187H37.0963Z" fill="black"/>
<path d="M30.2336 4.69727H28.3186V6.75296H26.3489V8.55071H28.3186V10.6846H30.2336V8.55071H32.2033V6.75296H30.2336V4.69727Z" fill="black"/>
</g>
</svg>
