<svg width="194" height="194" viewBox="0 0 194 194" fill="none" xmlns="http://www.w3.org/2000/svg">
<circle cx="118.5" cy="118.573" r="75" fill="#0E9F6E"/>
<mask id="mask0_31_112" style="mask-type:alpha" maskUnits="userSpaceOnUse" x="43" y="43" width="151" height="151">
<circle cx="118.5" cy="118.573" r="75" fill="#D9D9D9"/>
</mask>
<g mask="url(#mask0_31_112)">
<path d="M136.458 144.674L136.695 144.736C134.668 152.587 132.364 160.51 129.947 167.937C127.27 176.16 126.389 178.955 122.961 187.41H121.854C118.425 178.955 117.544 176.16 114.867 167.937C112.445 160.51 110.146 152.587 108.119 144.736L108.35 144.674C112.71 146.702 117.55 147.617 122.401 147.487C127.258 147.617 132.098 146.702 136.458 144.674Z" fill="white"/>
<path d="M87.5659 94.4047C87.5659 105.621 86.6459 113.71 85.3582 118.31C84.4829 121.457 83.734 126.697 83.7024 129.894C83.6645 134.538 88.1177 139.575 94.9631 139.41L148.301 138.131C155.775 140.811 162.276 134.038 162.228 128.807C162.2 125.608 161.68 123.14 160.613 120.052C159.283 116.202 156.707 108.38 156.521 94.4047C156.891 90.1752 156.507 84.065 156.339 81.7167C155.76 73.5757 152.12 64.4853 146.882 59.4324C145.34 57.9443 144.222 56.9808 142.964 56.0766L137.37 52.8383C133.052 51.0875 128.554 49.9258 122.165 49.9258C111.691 49.9258 102.368 55.3221 98.2308 59.2827C91.3679 65.8532 87.0141 77.8549 87.5631 94.4047" fill="#645D5C"/>
<path d="M133.057 146.003C129.643 147.1 126.026 147.586 122.404 147.489C117.443 147.623 112.493 146.661 108.061 144.536C107.252 141.401 106.487 138.279 105.776 135.206C107.004 134.694 108.103 134.129 109.191 133.258C109.952 132.638 110.43 131.847 110.78 130.939C111.043 130.245 111.099 129.479 111.154 128.767C111.264 127.288 111.234 126.796 111.251 125.708C108.19 124.37 105.478 122.096 102.907 118.968C99.8098 115.199 98.054 111.146 97.0888 107.79C95.7526 108.131 94.3113 107.625 93.3569 106.832C91.204 105.04 90.3173 102.551 89.7768 100.924C89.0133 98.6255 88.9788 94.9168 90.1372 92.9085C90.5252 92.2358 91.4254 91.0905 93.5302 91.0244C94.3486 90.9984 95.2827 91.2164 96.0559 91.7818L97.5536 91.0843C99.2885 90.2761 104.119 88.182 104.823 87.7663C106.911 86.5317 108.912 85.2198 110.775 83.8147C111.431 83.6633 111.793 83.5814 111.793 83.5814C119.547 81.8324 130.381 75.7719 133.41 71.386C134.586 75.0733 135.328 78.4094 139.285 83.7418C141.869 87.2236 145.186 89.4103 147.136 90.9262L148.67 92.1189C149.477 91.4621 150.491 91.217 151.37 91.2515C153.475 91.3345 154.365 92.4866 154.748 93.162C155.891 95.1794 155.828 98.8882 155.047 101.179C154.494 102.803 153.588 105.285 151.422 107.059C150.435 107.867 148.937 108.367 147.574 107.958C146.6 111.28 144.851 115.261 141.805 118.967C139.352 121.954 137.015 123.798 134.186 125.12C134.203 126.661 134.158 127.047 134.277 128.767C134.332 129.478 134.387 130.245 134.651 130.938C135.001 131.846 135.479 132.638 136.24 133.257C137.154 133.993 138.086 134.509 139.092 134.962C138.367 138.11 137.583 141.315 136.753 144.533C135.555 145.107 134.32 145.597 133.056 146.003H133.057Z" fill="white"/>
<path d="M65.7833 214.087C67.6267 217.132 70.3477 219.666 73.8289 220.634C78.6644 221.978 85.3246 221.346 88.9481 216.898C88.995 218.063 89.0396 219.162 89.0797 220.172L181.277 220.174C181.216 219.4 181.157 218.643 181.098 217.902C178.867 189.601 178.393 184.811 176.914 171.765C176.076 164.369 174.129 157.898 170.992 153.132C165.46 144.726 155.906 141.03 144.859 135.551L142.26 135.119C141.256 134.373 140.302 133.718 139.494 133.201C136.922 144.62 133.563 156.832 129.947 167.936C127.268 176.163 126.386 178.954 122.959 187.412H121.854C118.427 178.954 117.545 176.163 114.866 167.936C111.251 156.832 107.89 144.62 105.319 133.201C103.905 134.107 102.042 135.434 100.247 136.923C90.3979 141.698 81.9756 145.446 76.9199 153.132C74.7077 156.494 72.9569 161.496 71.7794 165.816L59.6642 171.564C60.0098 178.44 60.3916 183.646 60.8835 189.697C61.1941 193.523 61.5228 197.352 62.0378 201.158C62.4405 204.134 62.7235 206.364 63.9219 210.02C64.3788 211.414 65.0028 212.797 65.7845 214.088L65.7833 214.087Z" fill="#B3B3B3"/>
<path d="M88.9195 94.405C88.5959 84.1863 89.879 73.0814 95.7136 64.3908C97.9528 61.0553 100.961 58.4286 104.463 56.3667C109.293 53.5226 114.816 51.6447 120.432 51.3307C123.786 51.1432 127.211 51.3889 130.495 52.0988C131.888 52.3998 133.262 52.7867 134.61 53.247C135.295 53.4808 135.969 53.7406 136.645 53.9992C136.702 54.0212 136.981 54.167 136.708 54.0218C136.794 54.0676 136.878 54.1178 136.963 54.1658L137.471 54.4538C138.991 55.3145 140.358 52.9736 138.839 52.1129C136.819 50.9687 134.48 50.2752 132.233 49.7206C129.249 48.9836 126.168 48.6351 123.097 48.5792C116.836 48.4651 110.688 50.0628 105.128 52.9081C101.017 55.0124 97.3231 57.7803 94.5005 61.4558C91.6213 65.2046 89.6729 69.6228 88.3858 74.1521C86.5232 80.7085 85.9929 87.6138 86.2086 94.405C86.264 96.1451 88.9748 96.153 88.9195 94.405Z" fill="#211715"/>
<path d="M157.877 94.4053C158.115 91.5798 158.054 88.7294 157.934 85.8989C157.83 83.4235 157.698 80.9425 157.323 78.4915C156.424 72.6038 154.223 66.6433 150.698 61.8135C148.748 59.1428 146.324 56.8447 143.649 54.907C143.056 54.4773 142.139 54.8054 141.795 55.3933C141.394 56.0778 141.686 56.8171 142.281 57.248C146.757 60.4903 150.038 64.8971 152.138 69.9879C153.242 72.6654 154.056 75.4711 154.562 78.3226C154.965 80.5952 155.083 82.9051 155.192 85.2076C155.338 88.2663 155.423 91.3505 155.166 94.4053C155.104 95.1355 155.833 95.7607 156.521 95.7607C157.306 95.7607 157.815 95.1378 157.877 94.4053Z" fill="#211715"/>
<path d="M86.2103 94.4043C86.2075 98.7762 86.0809 103.152 85.7105 107.509C85.4541 110.527 85.1011 113.507 84.4256 116.464C84.1026 117.878 83.696 119.265 83.417 120.689C83.0273 122.676 82.7387 124.688 82.5399 126.704C82.3789 128.341 82.2236 130.007 82.5134 131.638C82.7737 133.103 83.4311 134.529 84.311 135.724C86.801 139.105 90.8063 140.831 94.9629 140.765C96.7058 140.737 96.7109 138.026 94.9629 138.054C91.8133 138.104 88.6868 136.945 86.7005 134.418C85.8895 133.387 85.3998 132.276 85.1418 130.994C85.0926 130.749 85.0734 130.555 85.061 130.199C85.0486 129.833 85.0632 129.465 85.0779 129.099C85.1113 128.263 85.1773 127.429 85.2609 126.596C85.4428 124.787 85.7144 122.985 86.0713 121.202C86.3424 119.848 86.7321 118.528 87.0388 117.184C87.7029 114.277 88.0723 111.298 88.3473 108.332C88.7766 103.704 88.9172 99.0501 88.92 94.4032C88.9211 92.6587 86.2103 92.6558 86.2091 94.4032L86.2103 94.4043Z" fill="#211715"/>
<path d="M155.166 94.4051C155.274 101.847 156.025 109.36 158.072 116.537C158.822 119.167 159.881 121.715 160.433 124.398C160.654 125.469 160.784 126.547 160.839 127.64C160.881 128.471 160.892 129.363 160.754 130.006C160.452 131.409 159.796 132.681 158.854 133.805C156.312 136.836 152.446 138.14 148.661 136.824C147.01 136.25 146.3 138.868 147.94 139.439C151.862 140.801 156.003 139.869 159.184 137.282C161.978 135.01 163.697 131.636 163.566 128.022C163.479 125.616 163.048 123.245 162.333 120.947C161.973 119.79 161.554 118.651 161.19 117.496C160.343 114.809 159.682 112.066 159.186 109.293C158.306 104.382 157.949 99.3908 157.877 94.4062C157.851 92.6634 155.14 92.6583 155.166 94.4062V94.4051Z" fill="#211715"/>
<path d="M117.573 113.784C119.165 114.625 120.881 114.979 122.681 114.967C124.521 114.955 126.37 114.589 127.842 113.442C128.404 113.005 128.336 111.979 127.842 111.525C127.246 110.978 126.525 111.058 125.926 111.525C126.338 111.204 126.025 111.445 125.919 111.513C125.817 111.579 125.711 111.639 125.604 111.695C125.548 111.725 125.491 111.751 125.435 111.78C125.242 111.879 125.405 111.723 125.496 111.759C125.435 111.735 125.131 111.894 125.061 111.917C124.666 112.044 124.257 112.133 123.846 112.194C124.049 112.164 123.827 112.194 123.739 112.203C123.62 112.215 123.5 112.225 123.381 112.233C123.094 112.251 122.805 112.259 122.517 112.257C122.259 112.255 122.001 112.247 121.743 112.229C121.625 112.221 121.507 112.212 121.389 112.2C121.368 112.198 120.942 112.133 121.227 112.182C120.843 112.115 120.465 112.042 120.092 111.93C119.932 111.883 119.778 111.826 119.621 111.772C119.277 111.655 119.828 111.878 119.518 111.732C119.323 111.64 119.131 111.545 118.941 111.444C118.314 111.113 117.438 111.265 117.086 111.93C116.755 112.557 116.903 113.432 117.572 113.785L117.573 113.784Z" fill="#211715"/>
<path d="M121.977 101.769C122.199 102.616 122.412 103.475 122.54 104.342L122.491 103.982C122.506 104.1 122.513 104.218 122.501 104.337L122.549 103.977C122.541 104.032 122.529 104.083 122.51 104.136L122.647 103.813C122.631 103.85 122.613 103.882 122.591 103.916L122.802 103.641C122.776 103.673 122.751 103.698 122.718 103.724L122.993 103.512C122.928 103.554 122.859 103.588 122.789 103.62L123.112 103.484C123 103.53 122.889 103.565 122.769 103.584L123.129 103.535C123.021 103.548 122.915 103.547 122.807 103.534L123.167 103.583C123.046 103.566 122.927 103.537 122.805 103.52C122.625 103.464 122.444 103.456 122.264 103.496C122.084 103.504 121.916 103.558 121.76 103.657C121.479 103.821 121.211 104.144 121.137 104.467C121.058 104.814 121.075 105.203 121.274 105.511C121.45 105.784 121.746 106.088 122.084 106.134C122.364 106.172 122.636 106.243 122.92 106.255C123.359 106.275 123.766 106.14 124.157 105.961C124.641 105.739 125.019 105.302 125.148 104.78C125.257 104.338 125.211 103.955 125.135 103.512C124.995 102.683 124.804 101.862 124.59 101.048C124.411 100.363 123.614 99.8781 122.923 100.102C122.217 100.33 121.784 101.034 121.977 101.769Z" fill="#211715"/>
<path d="M108.408 94.4729C107.978 95.869 108.258 99.0814 110.903 99.3547C114.4 99.3338 114.586 95.4505 113.409 93.6247C112.445 92.1297 109.612 91.5079 108.408 94.4729Z" fill="#211715"/>
<path d="M136.405 94.4725C136.835 95.8685 136.555 99.0809 133.909 99.3537C130.413 99.3328 130.227 95.4495 131.404 93.6236C132.368 92.1287 135.201 91.5069 136.405 94.4725Z" fill="#211715"/>
<path d="M118.329 74.1154C116.14 77.4746 113.195 80.3136 110.001 82.7121C108.257 84.0213 106.433 85.2208 104.564 86.3424C103.549 86.9512 102.451 87.4076 101.373 87.8916C99.8721 88.5653 98.3625 89.2205 96.871 89.9128C96.2068 90.2212 96.0402 91.1779 96.3847 91.7675C96.7829 92.4486 97.573 92.5633 98.2394 92.2538C100.636 91.1412 103.176 90.2297 105.488 88.9477C109.33 86.8168 113.024 84.0727 116.15 80.9879C117.843 79.3179 119.372 77.4768 120.671 75.4838C121.626 74.0176 119.279 72.6577 118.329 74.1154Z" fill="#211715"/>
<path d="M132.327 70.5738C132.259 70.6743 132.19 70.7731 132.119 70.8714C131.979 71.0662 132.177 70.8104 132.019 71.0018C131.813 71.2509 131.6 71.4937 131.377 71.7281C130.928 72.2003 130.449 72.643 129.955 73.0672C128.802 74.0572 127.553 74.9309 126.275 75.7509C123.306 77.6547 120.131 79.2903 116.844 80.5723C115.082 81.2602 113.279 81.8515 111.433 82.2739C109.733 82.663 110.453 85.2773 112.154 84.8882C115.729 84.0693 119.176 82.6523 122.452 81.0224C125.641 79.436 128.731 77.5802 131.483 75.311C132.679 74.3255 133.798 73.2338 134.666 71.9427C135.642 70.4913 133.295 69.1325 132.325 70.5743L132.327 70.5738Z" fill="#211715"/>
<path d="M148.095 89.9666C146.696 88.8845 145.256 87.8595 143.921 86.696C142.168 85.1684 140.672 83.4521 139.37 81.5268C138.257 79.8811 137.256 78.1416 136.495 76.3033C135.88 74.8174 135.418 73.2751 134.941 71.7412C134.425 70.0808 131.807 70.7896 132.327 72.4618C133.479 76.1666 134.842 79.6603 137.03 82.8952C138.417 84.9464 139.983 86.8288 141.842 88.47C142.641 89.1765 143.479 89.8384 144.325 90.4873C144.658 90.742 144.993 90.9933 145.328 91.2446C145.576 91.4304 146.08 91.8071 146.178 91.8834C146.756 92.3307 147.531 92.447 148.095 91.8834C148.561 91.4169 148.677 90.4173 148.095 89.9666Z" fill="#211715"/>
<path d="M95.2731 106.135C96.1259 110.001 97.6683 113.753 99.8387 117.067C102.167 120.621 105.231 123.955 108.954 126.069C110.868 127.155 112.966 127.896 115.14 128.229C115.863 128.339 116.598 128.046 116.807 127.282C116.984 126.641 116.589 125.726 115.861 125.615C108.182 124.439 102.469 117.706 99.5964 110.864C98.8588 109.107 98.2969 107.274 97.8869 105.415C97.5113 103.712 94.8976 104.433 95.2731 106.135Z" fill="#211715"/>
<path d="M146.826 105.415C145.855 109.819 143.972 114.045 141.178 117.599C139.811 119.339 138.244 120.996 136.425 122.269C134.694 123.479 132.79 124.338 130.788 124.991C129.137 125.529 129.843 128.148 131.509 127.605C134.993 126.469 138.129 124.733 140.749 122.148C143.784 119.153 146.105 115.512 147.731 111.584C148.46 109.822 149.029 107.997 149.44 106.135C149.815 104.435 147.203 103.709 146.826 105.415Z" fill="#211715"/>
<path d="M149.389 93.2817C150.07 92.6667 151.011 92.4871 151.898 92.6661C152.307 92.7486 152.689 92.8977 153.022 93.1541C152.948 93.097 153.532 93.7448 153.364 93.5054C154.325 94.8738 154.351 96.8183 154.225 98.4267C154.095 100.084 153.531 101.735 152.763 103.204C151.949 104.762 150.378 107.03 148.327 106.743C147.603 106.642 146.872 106.92 146.66 107.69C146.486 108.324 146.877 109.255 147.607 109.357C152.392 110.026 155.168 105.31 156.41 101.373C157.025 99.4246 157.111 97.278 156.816 95.2669C156.565 93.5534 155.892 91.8941 154.45 90.8578C152.353 89.3504 149.345 89.6763 147.472 91.3644C146.174 92.5351 148.096 94.4474 149.389 93.2812L149.389 93.2817Z" fill="#211715"/>
<path d="M97.4222 91.1607C95.6946 89.5782 93.1797 89.2422 91.0658 90.2452C89.5466 90.9658 88.6554 92.4647 88.2465 94.0415C87.2734 97.7932 88.1985 102.073 90.2655 105.309C91.6808 107.525 93.9884 109.575 96.806 109.204C97.5317 109.109 98.1615 108.65 98.1615 107.849C98.1615 107.191 97.5368 106.397 96.806 106.493C94.5453 106.791 93.0295 104.847 92.0858 103.04C91.3041 101.544 90.7416 99.8535 90.6225 98.1654C90.5095 96.5621 90.5451 94.6097 91.5266 93.2526C91.3583 93.4858 91.9446 92.8555 91.8751 92.9075C92.2117 92.655 92.5918 92.5082 93.0035 92.4308C93.8958 92.2637 94.8265 92.454 95.5054 93.0764C96.7896 94.2527 98.7121 92.341 97.4222 91.1595V91.1607Z" fill="#211715"/>
<path d="M105.957 136.589C108.094 135.705 110.409 134.588 111.564 132.468C112.606 130.554 112.587 128.309 112.602 126.184C112.607 125.451 111.975 124.828 111.247 124.828C110.507 124.828 109.896 125.448 109.891 126.184C109.886 126.933 109.873 127.681 109.823 128.428C109.789 128.947 109.765 129.406 109.686 129.813C109.64 130.047 109.58 130.278 109.5 130.503C109.483 130.55 109.372 130.815 109.443 130.654C109.395 130.763 109.343 130.869 109.289 130.975C108.879 131.77 108.447 132.181 107.679 132.692C106.926 133.193 105.942 133.682 105.236 133.974C104.56 134.254 104.078 134.874 104.289 135.642C104.465 136.281 105.276 136.87 105.957 136.588V136.589Z" fill="#211715"/>
<path d="M132.836 126.184C132.836 128.16 132.832 130.241 133.668 132.066C134.578 134.053 136.486 135.257 138.409 136.133C139.053 136.426 139.898 136.339 140.264 135.647C140.578 135.052 140.466 134.106 139.777 133.792C138.932 133.407 138.115 132.969 137.362 132.422C136.707 131.945 136.382 131.498 136.008 130.698C135.912 130.492 136.066 130.857 135.984 130.643C135.938 130.522 135.894 130.401 135.857 130.277C135.79 130.048 135.74 129.813 135.705 129.577C135.69 129.472 135.699 129.56 135.685 129.387C135.676 129.283 135.665 129.179 135.657 129.075C135.635 128.815 135.617 128.555 135.602 128.294C135.56 127.591 135.547 126.888 135.547 126.184C135.547 125.475 134.923 124.796 134.191 124.828C133.459 124.861 132.836 125.424 132.836 126.184Z" fill="#211715"/>
<path d="M145.771 137.465C149.504 139.288 153.283 141.032 156.934 143.018C160.109 144.745 163.212 146.669 165.877 149.128C171.657 154.464 174.191 161.98 175.356 169.585C176.007 173.834 176.371 178.149 176.808 182.425C177.245 186.702 177.632 190.993 177.997 195.281C178.6 202.356 179.16 209.434 179.719 216.512C179.816 217.732 179.912 218.952 180.008 220.172C180.065 220.901 180.589 221.527 181.363 221.527C182.052 221.527 182.776 220.905 182.718 220.172C182.114 212.487 181.509 204.801 180.864 197.119C180.483 192.586 180.084 188.054 179.631 183.527C179.233 179.561 178.801 175.598 178.342 171.638C177.406 163.564 175.19 155.227 169.622 149.057C164.386 143.255 157.018 139.901 150.107 136.563C149.117 136.086 148.127 135.607 147.14 135.125C146.482 134.804 145.674 134.946 145.285 135.611C144.937 136.207 145.111 137.143 145.771 137.466L145.771 137.465Z" fill="#211715"/>
<path d="M73.1735 166.176C74.4781 161.394 76.0928 156.424 79.1408 152.441C81.9324 148.793 85.727 146.096 89.6787 143.836C92.189 142.401 94.7841 141.119 97.3854 139.857C98.0439 139.537 98.2207 138.599 97.8717 138.002C97.4786 137.329 96.6783 137.195 96.017 137.516C91.4006 139.755 86.7606 142.06 82.6802 145.204C78.7455 148.235 75.6602 151.997 73.6513 156.553C72.3817 159.432 71.3878 162.421 70.5598 165.454C70.1001 167.14 72.7144 167.859 73.1741 166.175L73.1735 166.176Z" fill="#211715"/>
<path d="M157.906 167.996C157.793 175.115 157.549 182.224 157.224 189.336C156.919 196.003 156.627 202.671 156.341 209.339C156.186 212.949 156.034 216.56 155.89 220.171C155.821 221.916 158.531 221.912 158.601 220.171C158.87 213.43 159.163 206.69 159.46 199.95C159.74 193.59 160.064 187.23 160.297 180.867C160.454 176.578 160.549 172.287 160.616 167.996C160.644 166.251 157.933 166.25 157.906 167.996V167.996Z" fill="#211715"/>
<path d="M85.7934 167.996C85.9064 175.115 86.1504 182.224 86.4751 189.336C86.7801 196.003 87.072 202.671 87.3578 209.339C87.5126 212.949 87.665 216.56 87.8091 220.171C87.8785 221.91 90.5899 221.919 90.5199 220.171C90.2511 213.43 89.9574 206.69 89.6609 199.95C89.3808 193.59 89.0566 187.23 88.8234 180.867C88.6664 176.578 88.572 172.287 88.5043 167.996C88.4766 166.253 85.7658 166.248 85.7934 167.996V167.996Z" fill="#211715"/>
<path d="M107.666 145.842C112.352 147.998 117.272 148.844 122.404 148.844C127.536 148.844 132.456 147.998 137.142 145.842C137.807 145.536 137.972 144.575 137.628 143.988C137.229 143.305 136.441 143.194 135.773 143.501C131.535 145.452 127.032 146.133 122.403 146.133C117.774 146.133 113.272 145.452 109.033 143.501C108.368 143.196 107.573 143.313 107.178 143.988C106.837 144.572 106.996 145.534 107.665 145.842H107.666Z" fill="#211715"/>
<path d="M58.393 171.564C58.6539 176.729 58.9944 181.889 59.3999 187.046C59.8269 192.475 60.2815 197.899 61.0586 203.292C61.7036 207.767 62.8766 212.417 65.5948 216.115C66.9367 217.941 68.5716 219.552 70.5494 220.682C72.4239 221.752 74.5005 222.273 76.6313 222.507C81.3443 223.024 86.557 221.751 89.7858 218.1C90.9379 216.797 89.0273 214.873 87.869 216.183C85.3151 219.072 81.4273 220.072 77.6818 219.881C75.9045 219.79 74.06 219.442 72.4623 218.634C70.7093 217.749 69.2008 216.422 68.017 214.859C65.4564 211.478 64.371 207.201 63.7463 203.074C62.9901 198.077 62.5874 193.035 62.1859 188C61.7493 182.526 61.38 177.048 61.1032 171.564C61.0157 169.828 58.3043 169.818 58.3924 171.564L58.393 171.564Z" fill="#211715"/>
<path d="M84.5016 153.275C84.0402 156.078 81.8602 159.374 80.8013 160.75C80.3331 161.359 79.8937 161.862 79.4284 162.288C78.3486 163.279 78.4666 164.646 78.235 166.191C78.1091 167.033 78.182 167.802 78.1221 168.409C75.1266 169.4 66.837 169.978 62.9842 170.293C62.4466 168.548 60.2564 163.508 59.9904 163.235C57.6506 160.835 55.0347 155.015 54.8731 149.45C54.9415 148.455 55.0143 147.396 55.0143 147.396C55.0652 146.659 55.692 144.615 57.1892 144.256C58.3668 143.974 59.5335 144.477 60.2435 145.504C60.4456 144.631 60.6653 143.684 60.6653 143.684C60.8461 142.903 61.7762 141.653 63.3784 141.432C64.6299 141.259 65.1021 142.057 65.7149 142.916C65.738 141.855 66.2028 140.621 67.1815 140.129C68.6855 139.373 71.6047 139.403 71.4935 142.759C70.8118 137.027 70.0703 130.033 70.0799 128.474C70.0895 126.893 71.5172 125.205 73.2674 125.032C75.0018 124.86 76.7576 127.436 76.935 128.559C77.7832 133.938 78.2684 137.831 78.8885 144.345C79.8802 144.606 80.8245 144.895 81.8811 145.209C82.5656 145.413 83.6251 146.267 83.9098 146.922C84.8501 149.088 85.1556 150.996 84.5016 153.275" fill="white"/>
<path d="M80.1948 143.836C79.7741 139.475 79.281 135.124 78.6389 130.79C78.5 129.853 78.4441 128.837 78.1769 127.928C77.9425 127.131 77.4879 126.412 76.9802 125.764C75.7445 124.186 73.9305 123.186 71.9408 123.981C70.0839 124.723 68.7347 126.551 68.7245 128.573C68.7206 129.411 68.8177 130.257 68.89 131.091C69.1498 134.094 69.483 137.091 69.8241 140.086C70.185 143.257 70.5538 146.428 71.0016 149.588C71.1044 150.314 72.0278 150.711 72.6688 150.534C73.4487 150.32 73.7187 149.595 73.6153 148.867C73.5871 148.668 73.5594 148.468 73.5318 148.269C73.5165 148.157 73.4883 147.944 73.5199 148.184C73.4984 148.024 73.4775 147.864 73.4566 147.704C73.3827 147.141 73.3109 146.577 73.2403 146.013C73.0658 144.619 72.8981 143.223 72.7354 141.827C72.4005 138.959 72.0803 136.087 71.7979 133.213C71.6918 132.133 71.589 131.052 71.5093 129.969C71.4557 129.244 71.2993 128.391 71.6291 127.716C71.9222 127.117 72.4734 126.593 73.1325 126.432C73.3832 126.37 73.5826 126.385 73.6425 126.41C73.939 126.532 74.188 126.728 74.4145 126.946C74.8629 127.376 75.3305 128.034 75.5163 128.504C75.7298 129.043 75.8038 130.049 75.9088 130.742C76.5673 135.092 77.0615 139.459 77.4834 143.837C77.5534 144.566 78.0561 145.192 78.8388 145.192C79.5171 145.192 80.2648 144.57 80.1942 143.837L80.1948 143.836Z" fill="#211715"/>
<path d="M61.4046 144.808C60.8104 143.992 60.0423 143.331 59.0309 143.108C58.0815 142.898 57.0553 142.995 56.1794 143.422C54.9188 144.035 53.9791 145.471 53.7311 146.836C53.4471 148.401 53.6402 150.136 54.0214 151.663C54.2586 152.615 54.5512 153.591 55.1899 154.354C55.7101 154.976 56.5013 155.457 57.297 155.622C59.2528 156.025 61.1177 154.815 62.0122 153.115C62.3534 152.467 62.1771 151.642 61.526 151.261C60.9143 150.903 60.0135 151.097 59.6713 151.747C59.5595 151.959 59.4431 152.169 59.3008 152.362C59.4527 152.155 59.2534 152.394 59.185 152.465C59.1455 152.506 59.1015 152.542 59.0597 152.58C59.1602 152.49 59.1483 152.522 59.0472 152.588C58.8078 152.743 58.5593 152.899 58.2961 153.011C58.5147 152.918 58.3023 152.978 58.2012 153.015C58.2317 153.004 58.4311 153.018 58.2842 153.004C58.2137 152.997 58.1289 153.006 58.0578 153.007C57.9042 153.011 58.1103 153.025 58.1323 153.028C58.0561 153.018 57.9787 153 57.9042 152.981C57.8183 152.959 57.5715 152.866 57.7822 152.959C57.6715 152.91 57.5721 152.844 57.4659 152.788C57.4524 152.78 57.2908 152.665 57.4066 152.753C57.519 152.839 57.3321 152.68 57.3129 152.662C57.2682 152.621 57.2276 152.575 57.1858 152.531C57.2016 152.548 57.2959 152.693 57.2095 152.563C57.1768 152.514 57.0226 152.249 57.0694 152.344C57.1423 152.492 57.0226 152.213 57.022 152.212C56.9813 152.096 56.9401 151.98 56.9017 151.862C56.8373 151.666 56.7775 151.468 56.7221 151.27C56.3878 150.066 56.2906 149.156 56.3426 147.866C56.3471 147.748 56.3556 147.63 56.3612 147.511C56.3765 147.184 56.4109 147.512 56.346 147.556C56.4002 147.52 56.4844 147.05 56.5081 146.966C56.5747 146.73 56.4115 147.136 56.5307 146.906C56.5815 146.808 56.6278 146.708 56.6826 146.612C56.7391 146.513 56.8034 146.419 56.8627 146.321C56.8729 146.305 56.9876 146.151 56.8944 146.272C56.8012 146.392 56.9565 146.203 56.9751 146.184C57.0293 146.127 57.0841 146.072 57.14 146.017C57.1604 145.997 57.3479 145.847 57.2293 145.934C57.1073 146.023 57.2711 145.911 57.2858 145.903C57.3569 145.868 57.423 145.823 57.4941 145.787C57.2784 145.895 57.6139 145.762 57.702 145.743C57.7737 145.727 57.8477 145.709 57.9211 145.701C57.7731 145.717 57.933 145.707 57.99 145.708C58.0595 145.711 58.1301 145.711 58.1995 145.711C58.4215 145.711 58.0324 145.669 58.2458 145.709C58.3119 145.721 58.3763 145.741 58.4424 145.754C58.7869 145.818 58.3825 145.701 58.5548 145.783C58.6135 145.811 58.9202 146.011 58.7908 145.907C58.8456 145.951 58.8964 146.002 58.9456 146.052C58.9659 146.072 59.137 146.275 59.0647 146.176C59.4951 146.767 60.2423 147.058 60.9194 146.662C61.5028 146.321 61.8389 145.403 61.4057 144.808L61.4046 144.808Z" fill="#211715"/>
<path d="M66.8832 142.23C66.3727 141.51 65.865 140.75 65.0427 140.359C64.0148 139.871 62.8525 140.038 61.8444 140.492C61.0402 140.855 60.3619 141.459 59.8717 142.189C59.3815 142.92 59.2443 143.77 59.1262 144.625C58.8393 146.701 58.9319 148.837 59.3996 150.882C59.56 151.583 59.7655 152.344 60.1321 152.968C60.6556 153.862 61.6044 154.515 62.5859 154.805C63.7318 155.143 64.8992 154.898 65.9118 154.305C66.72 153.831 67.7032 153.049 67.8507 152.057C67.958 151.333 67.6699 150.6 66.9041 150.39C66.2648 150.214 65.3448 150.608 65.2369 151.336C65.2042 151.479 65.2172 151.478 65.2765 151.335C65.1951 151.462 65.1895 151.479 65.2607 151.389C65.1517 151.495 65.054 151.611 64.9359 151.708C64.7699 151.843 64.4011 152.069 64.1255 152.182C64.3045 152.109 63.9278 152.245 63.9035 152.249C63.7776 152.27 63.6178 152.259 63.4924 152.239C63.1778 152.187 62.8892 152.025 62.6565 151.815C62.5261 151.697 62.512 151.664 62.4069 151.475C62.2742 151.236 62.4764 151.707 62.3725 151.392C62.2714 151.084 62.1686 150.782 62.0884 150.468C61.8952 149.712 61.7744 148.943 61.7168 148.165C61.6445 147.183 61.6456 146.183 61.7631 145.204C61.8139 144.783 61.8924 144.364 61.9958 143.953C62.0664 143.67 61.8529 144.158 62.0218 143.877C62.0455 143.838 62.2934 143.443 62.1596 143.619C62.5001 143.17 62.9542 142.832 63.5686 142.769C63.7725 142.748 63.6709 142.766 63.8595 142.789C63.7714 142.779 63.921 142.831 63.934 142.841C64.2051 143.069 64.3102 143.272 64.5428 143.6C64.9659 144.196 65.726 144.478 66.3975 144.086C66.9871 143.741 67.3096 142.832 66.8838 142.231L66.8832 142.23Z" fill="#211715"/>
<path d="M71.8773 139.639C70.5959 138.138 68.3549 138.116 66.6736 138.876C64.9697 139.648 64.2237 141.713 64.3835 143.478C64.5603 145.427 64.8653 147.373 65.2126 149.299C65.373 150.187 65.4622 151.037 66.1043 151.724C66.7239 152.386 67.6478 152.876 68.5345 153.05C69.755 153.289 71.0296 153.022 72.0021 152.235C72.6064 151.746 72.943 151.074 73.3361 150.423C74.2392 148.925 71.896 147.561 70.9952 149.055C70.8483 149.299 70.7083 149.548 70.5693 149.797C70.5298 149.861 70.4891 149.924 70.4462 149.986C70.5125 149.906 70.5119 149.906 70.4445 149.986C70.4016 150.029 70.0577 150.309 70.2519 150.181C69.8018 150.478 69.1761 150.507 68.622 150.238C68.5582 150.207 68.164 149.957 68.2583 150.031C68.19 149.975 68.1245 149.915 68.0624 149.851C67.9528 149.729 67.9517 149.732 68.059 149.863C67.9822 149.724 67.9923 149.754 68.09 149.95C68.0691 149.85 68.0488 149.75 68.029 149.65C67.9861 149.435 67.9449 149.221 67.9042 149.006C67.7348 148.101 67.5834 147.193 67.4468 146.283C67.322 145.455 67.2101 144.625 67.1243 143.79C67.0842 143.4 67.0379 143.005 67.0859 142.612C67.0667 142.77 67.1638 142.291 67.1808 142.232C67.248 142.002 67.2514 141.997 67.3299 141.852C67.4711 141.592 67.5513 141.483 67.7337 141.37C67.8133 141.324 67.8952 141.281 67.9799 141.243C67.8607 141.295 67.8788 141.292 68.0336 141.234C68.2148 141.177 68.399 141.125 68.5865 141.095C68.4063 141.124 68.8993 141.083 68.9586 141.084C69.2405 141.089 69.1563 141.084 69.3269 141.13C69.6719 141.225 69.7143 141.27 69.9594 141.557C70.4349 142.114 71.3877 142.046 71.8762 141.557C72.4285 141.004 72.3529 140.199 71.8762 139.64L71.8773 139.639Z" fill="#211715"/>
<path d="M78.8844 150.267C78.2259 149.994 77.5719 149.71 76.9297 149.401C76.3351 149.114 75.6398 148.827 75.1457 148.382C74.756 148.031 74.4725 147.489 74.3736 146.976C74.2985 146.586 74.3527 146.226 74.5273 145.952C74.9147 145.344 75.8855 145.113 76.7626 145.238C78.2795 145.454 79.8202 145.965 81.2739 146.437C83.7142 147.23 83.8554 150.487 83.2669 152.656C82.5785 155.194 81.3575 157.726 79.7948 159.847C78.8612 161.113 77.5911 161.959 77.2262 163.578C76.8688 165.163 76.8902 166.801 76.7665 168.409L77.7616 167.102C75.5297 167.823 73.0956 168.017 70.7755 168.259C68.1822 168.53 65.582 168.726 62.9835 168.938L64.2904 169.933C63.5551 167.591 62.5323 165.26 61.4434 163.061C60.9623 162.09 60.1405 161.374 59.569 160.453C58.6315 158.94 57.9103 157.306 57.3619 155.615C56.6588 153.45 56.2324 151.215 56.2109 148.935C56.1945 147.192 53.4837 147.188 53.5001 148.935C53.5385 153.004 54.6736 157.106 56.5808 160.693C56.9575 161.4 57.3721 162.09 57.842 162.74C58.0893 163.083 58.3474 163.42 58.6208 163.742C58.7202 163.859 58.8196 163.979 58.9286 164.087C59.1929 164.348 58.8393 163.856 58.8862 164.017C58.9845 164.356 59.2397 164.71 59.3888 165.032C59.6622 165.624 59.9242 166.221 60.1812 166.82C60.7081 168.046 61.2655 169.346 61.6761 170.653C61.8433 171.185 62.3826 171.698 62.983 171.648C65.6475 171.431 68.3132 171.231 70.9721 170.949C73.4593 170.686 76.0871 170.489 78.4811 169.716C79.09 169.519 79.4282 169.03 79.4763 168.409C79.5389 167.593 79.5164 166.785 79.6203 165.972C79.7112 165.26 79.6943 164.426 79.9964 163.758C80.2556 163.185 80.8978 162.759 81.2982 162.284C81.781 161.711 82.2295 161.109 82.6367 160.481C83.5437 159.079 84.3021 157.583 84.9465 156.045C85.6412 154.388 86.2494 152.603 86.3229 150.792C86.3872 149.208 85.9309 147.356 85.0279 146.043C83.9808 144.52 82.5045 143.958 80.8001 143.456C79.2052 142.986 77.3917 142.351 75.7104 142.528C74.2048 142.687 72.7178 143.439 72.0412 144.858C71.2279 146.566 71.743 148.511 72.8962 149.93C74.1325 151.45 76.413 152.157 78.1632 152.882C78.8398 153.163 79.6536 152.579 79.8304 151.935C80.0444 151.156 79.5627 150.55 78.8838 150.268L78.8844 150.267Z" fill="#211715"/>
<path d="M114.561 187.091C108.397 176.406 102.305 165.673 96.6219 154.723C96.2294 153.966 95.8313 153.211 95.4501 152.448C95.4365 152.421 95.4088 152.364 95.4083 152.327C95.4111 152.478 95.3981 152.403 95.598 152.18C95.8957 151.848 96.2097 151.529 96.5203 151.21C97.7656 149.927 99.0623 148.696 100.366 147.473C101.002 146.878 100.832 145.767 100.092 145.345C99.3108 144.899 98.5291 144.453 97.7481 144.007C97.3962 143.806 97.0449 143.605 96.6931 143.405C96.4977 143.294 96.3023 143.182 96.1069 143.071L95.8725 142.937C95.6133 142.764 95.5664 142.749 95.733 142.893L95.9182 143.577C95.9109 143.745 95.977 143.5 96.0148 143.44C96.0848 143.33 96.1441 143.212 96.2119 143.1C96.3418 142.888 96.4813 142.68 96.6253 142.476C96.9111 142.073 97.2307 141.696 97.5594 141.328C98.4213 140.361 99.3644 139.468 100.34 138.617C102.119 137.065 104.018 135.648 106.003 134.371L104.012 133.561C107.365 148.426 111.582 163.135 116.621 177.517C117.832 180.972 119.173 184.379 120.547 187.771C120.822 188.45 121.451 188.928 122.215 188.718C122.858 188.541 123.438 187.733 123.161 187.051C117.752 173.692 113.485 159.852 109.823 145.921C108.682 141.58 107.613 137.219 106.626 132.84C106.437 132.007 105.349 131.57 104.634 132.03C101.607 133.977 98.6607 136.226 96.1735 138.835C95.5523 139.487 94.9723 140.173 94.4369 140.897C93.9523 141.552 93.3892 142.339 93.2418 143.149C92.9724 144.63 94.3894 145.212 95.4416 145.812C96.5355 146.437 97.6295 147.061 98.7234 147.686L98.4489 145.557C97.2104 146.719 95.9787 147.888 94.7904 149.101C93.7134 150.202 92.3168 151.384 92.807 153.103C93.0131 153.826 93.4655 154.514 93.8083 155.179C94.2025 155.943 94.5984 156.705 94.9971 157.466C95.7245 158.857 96.4593 160.244 97.1991 161.628C100.304 167.435 103.507 173.19 106.757 178.918C108.565 182.106 110.389 185.285 112.22 188.46C113.091 189.971 115.435 188.607 114.561 187.091V187.091Z" fill="#211715"/>
<path d="M132.594 188.46C139.099 177.184 145.53 165.854 151.473 154.27C151.901 153.434 152.281 152.625 152.014 151.669C151.765 150.778 151.016 150.129 150.397 149.487C149.094 148.134 147.733 146.841 146.364 145.557L146.09 147.685C147.184 147.061 148.278 146.437 149.372 145.812C150.389 145.231 151.685 144.723 151.596 143.329C151.54 142.467 150.879 141.576 150.376 140.897C149.841 140.173 149.261 139.486 148.64 138.835C146.153 136.225 143.206 133.977 140.179 132.03C139.465 131.57 138.376 132.007 138.188 132.84C134.834 147.704 130.618 162.413 125.578 176.796C124.368 180.251 123.026 183.657 121.652 187.05C121.377 187.729 121.952 188.539 122.599 188.717C123.374 188.93 123.99 188.452 124.266 187.771C129.675 174.412 133.942 160.572 137.604 146.641C138.745 142.299 139.814 137.939 140.802 133.56L138.81 134.37C140.795 135.646 142.695 137.064 144.473 138.615C145.424 139.445 146.345 140.315 147.19 141.255C147.522 141.624 147.847 142.002 148.138 142.405C148.3 142.631 148.456 142.862 148.601 143.099C148.656 143.189 148.709 143.28 148.761 143.372C148.785 143.415 148.902 143.732 148.895 143.576L149.08 142.892C149.197 142.667 148.965 142.921 148.823 143.002C148.628 143.114 148.433 143.226 148.237 143.337C147.846 143.56 147.456 143.783 147.065 144.006C146.284 144.452 145.503 144.898 144.722 145.344C143.982 145.766 143.812 146.877 144.447 147.473C145.62 148.573 146.787 149.68 147.917 150.825C148.168 151.08 148.418 151.337 148.665 151.595C148.879 151.819 149.277 152.093 149.396 152.375C149.421 152.435 149.445 152.282 149.363 152.448C149.176 152.829 148.975 153.204 148.781 153.582C147.387 156.286 145.966 158.976 144.523 161.655C141.568 167.144 138.531 172.589 135.453 178.01C133.731 181.043 131.995 184.068 130.252 187.089C129.379 188.604 131.721 189.97 132.593 188.458L132.594 188.46Z" fill="#211715"/>
</g>
<path d="M16.799 91.1535C21.229 91.4235 24.689 93.0535 27.169 96.0535C29.659 99.0435 30.749 102.883 30.469 107.563L37.589 108.284L36.799 121.174L19.329 120.784C14.829 120.714 8.63901 120.653 0.769011 120.604C0.439011 118.144 0.409011 114.564 0.699011 109.864C1.04901 104.144 2.47901 99.6235 4.97901 96.3235C7.81901 92.5735 11.769 90.8435 16.799 91.1535ZM20.129 101.104C17.699 100.954 16.389 102.323 16.209 105.203C16.189 105.543 16.189 105.904 16.209 106.264L24.379 107.004C24.479 103.254 23.059 101.284 20.119 101.104H20.129Z" fill="#FFD633" stroke="#00A2E9" stroke-miterlimit="10"/>
<path d="M35.029 57.2935C39.989 59.7135 43.559 63.0335 45.739 67.2535C48.019 71.6835 48.129 75.9835 46.089 80.1735C43.989 84.4835 40.479 87.0935 35.569 88.0035C30.949 88.8635 26.149 88.0835 21.199 85.6735C15.899 83.0935 12.409 79.7035 10.729 75.4935C9.14901 71.5235 9.37901 67.4535 11.409 63.2835C13.409 59.1835 16.459 56.5335 20.569 55.3335C24.939 54.0735 29.759 54.7235 35.019 57.2935H35.029ZM33.809 69.2335C29.909 67.3335 27.309 67.7035 26.019 70.3435C24.769 72.9135 26.109 75.1535 30.039 77.0735C31.609 77.8435 33.249 78.2135 34.939 78.2035C36.839 78.1935 38.059 77.6335 38.599 76.5235C39.129 75.4435 38.809 74.1035 37.659 72.5235C36.609 71.0735 35.329 69.9835 33.809 69.2435V69.2335Z" fill="#FFD633" stroke="#00A2E9" stroke-miterlimit="10"/>
<path d="M37.669 30.0835L50.909 43.9535C53.779 46.9235 57.709 50.9435 62.699 56.0135L53.629 65.5335L26.459 41.8635L37.679 30.0835H37.669Z" fill="#FFD633" stroke="#00A2E9" stroke-miterlimit="10"/>
<path d="M70.109 8.87354C71.479 11.7235 73.939 16.6635 77.489 23.6835C80.149 28.8235 83.269 34.6935 86.849 41.3035C84.269 40.9135 80.379 40.3735 75.159 39.6835C72.959 39.4835 69.669 39.1735 65.289 38.7435L71.229 49.6535L64.669 53.3835C62.989 50.6935 59.779 45.6335 55.029 38.2135C51.159 32.2135 47.839 27.1835 45.059 23.1235L55.279 17.3035L66.939 20.1535C65.999 18.5135 65.239 17.2335 64.649 16.3335C64.139 15.5335 63.429 14.4735 62.529 13.1735L70.089 8.87354H70.109Z" fill="#FFD633" stroke="#00A2E9" stroke-miterlimit="10"/>
<path d="M110.019 0.573486L111.569 15.2535C110.949 15.2535 109.969 15.2835 108.619 15.3535C107.789 15.4335 106.459 15.5935 104.609 15.8235C104.659 16.7535 104.829 18.9735 105.129 22.5035C105.479 25.9135 105.959 30.9235 106.569 37.5235L95.359 39.2335C94.759 36.1335 93.779 31.2635 92.419 24.6235C91.909 22.3335 91.399 20.0935 90.899 17.9135L87.259 18.6135L83.999 19.4635L81.189 4.98349L110.019 0.573486Z" fill="#FFD633" stroke="#00A2E9" stroke-miterlimit="10"/>
</svg>
