<svg width="24" height="24" viewBox="0 0 24 24" fill="none" xmlns="http://www.w3.org/2000/svg">
<path d="M12 22C17.5228 22 22 17.5228 22 12C22 6.47715 17.5228 2 12 2C6.47715 2 2 6.47715 2 12C2 17.5228 6.47715 22 12 22Z" stroke="#00A2E9" stroke-width="1.5"/>
<path d="M10.125 8.87475C10.125 8.54639 10.2113 8.2238 10.3752 7.93925C10.5391 7.65471 10.7748 7.41819 11.0588 7.25336C11.3428 7.08853 11.6651 7.00116 11.9934 7.00001C12.3218 6.99886 12.6447 7.08396 12.9298 7.2468C13.215 7.40963 13.4523 7.64449 13.6182 7.92788C13.7841 8.21127 13.8726 8.53325 13.875 8.8616C13.8773 9.18995 13.7934 9.51316 13.6316 9.79889C13.4698 10.0846 13.2358 10.3229 12.953 10.4897C12.478 10.7707 12 11.1977 12 11.7497V12.9997" stroke="#00A2E9" stroke-width="1.5" stroke-linecap="round"/>
<path d="M12 17C12.5523 17 13 16.5523 13 16C13 15.4477 12.5523 15 12 15C11.4477 15 11 15.4477 11 16C11 16.5523 11.4477 17 12 17Z" fill="#00A2E9"/>
</svg>
