<svg width="2161" height="371" viewBox="0 0 2161 371" fill="none" xmlns="http://www.w3.org/2000/svg">
<mask id="path-1-outside-1_150_173" maskUnits="userSpaceOnUse" x="-0.555725" y="-0.919983" width="2161" height="372" fill="black">
<rect fill="white" x="-0.555725" y="-0.919983" width="2161" height="372"/>
<path d="M134.204 367.32C80.7643 367.32 37.4043 347.64 4.12428 308.28L47.3243 267.48C71.6443 296.6 101.884 311.16 138.044 311.16C158.844 311.16 174.684 306.68 185.564 297.72C196.764 288.44 202.364 275.64 202.364 259.32C202.364 246.52 198.524 236.44 190.844 229.08C183.164 221.4 170.204 216.12 151.964 213.24L119.324 207.96C84.1243 202.2 57.8843 190.84 40.6043 173.88C23.3243 156.92 14.6843 134.2 14.6843 105.72C14.6843 84.92 19.8043 66.84 30.0443 51.48C40.2843 36.12 55.0043 24.28 74.2043 15.96C93.4043 7.31999 115.804 2.99999 141.404 2.99999C192.284 2.99999 231.964 20.44 260.444 55.32L217.244 95.64C207.644 83.8 196.444 74.84 183.644 68.76C170.844 62.36 155.484 59.16 137.564 59.16C118.044 59.16 103.164 62.84 92.9243 70.2C83.0043 77.56 78.0443 88.28 78.0443 102.36C78.0443 115.8 82.0443 126.04 90.0443 133.08C98.0443 139.8 111.164 144.76 129.404 147.96L162.044 154.2C197.564 160.6 223.644 172.12 240.284 188.76C257.244 205.08 265.724 227.48 265.724 255.96C265.724 278.04 260.444 297.56 249.884 314.52C239.644 331.16 224.604 344.12 204.764 353.4C184.924 362.68 161.404 367.32 134.204 367.32ZM330.378 9.24H392.778V225.72C392.778 254.52 398.218 275.96 409.098 290.04C420.298 303.8 438.538 310.68 463.818 310.68C489.098 310.68 507.338 303.8 518.538 290.04C529.738 276.28 535.338 254.84 535.338 225.72V9.24H597.258V217.08C597.258 252.28 592.778 280.92 583.818 303C575.178 324.76 561.098 340.92 541.578 351.48C522.378 362.04 496.458 367.32 463.818 367.32C431.178 367.32 405.098 362.04 385.578 351.48C366.058 340.92 351.978 324.76 343.338 303C334.698 280.92 330.378 252.28 330.378 217.08V9.24ZM814.064 367.32C767.024 367.32 730.224 351.96 703.664 321.24C677.104 290.52 663.824 246.04 663.824 187.8C663.824 148.76 669.904 115.48 682.064 87.96C694.224 60.12 711.504 39 733.904 24.6C756.304 10.2 783.024 2.99999 814.064 2.99999C844.784 2.99999 870.544 9.71999 891.344 23.16C912.464 36.6 929.104 56.92 941.264 84.12L887.024 112.44C874.864 77.24 850.544 59.64 814.064 59.64C788.784 59.64 768.624 68.44 753.584 86.04C738.864 103.32 731.504 127.48 731.504 158.52V212.76C731.504 243.8 738.864 267.96 753.584 285.24C768.304 302.2 788.464 310.68 814.064 310.68C832.944 310.68 848.784 305.56 861.584 295.32C874.704 285.08 884.464 271.48 890.864 254.52L942.704 284.28C930.224 311.16 913.264 331.8 891.824 346.2C870.384 360.28 844.464 367.32 814.064 367.32ZM1130 367.32C1082.96 367.32 1046.16 351.96 1019.6 321.24C993.042 290.52 979.762 246.04 979.762 187.8C979.762 148.76 985.842 115.48 998.002 87.96C1010.16 60.12 1027.44 39 1049.84 24.6C1072.24 10.2 1098.96 2.99999 1130 2.99999C1160.72 2.99999 1186.48 9.71999 1207.28 23.16C1228.4 36.6 1245.04 56.92 1257.2 84.12L1202.96 112.44C1190.8 77.24 1166.48 59.64 1130 59.64C1104.72 59.64 1084.56 68.44 1069.52 86.04C1054.8 103.32 1047.44 127.48 1047.44 158.52V212.76C1047.44 243.8 1054.8 267.96 1069.52 285.24C1084.24 302.2 1104.4 310.68 1130 310.68C1148.88 310.68 1164.72 305.56 1177.52 295.32C1190.64 285.08 1200.4 271.48 1206.8 254.52L1258.64 284.28C1246.16 311.16 1229.2 331.8 1207.76 346.2C1186.32 360.28 1160.4 367.32 1130 367.32ZM1546.59 304.92V361.08H1317.15V9.24H1546.59V65.4H1380.51V154.68H1527.87V210.84H1380.51V304.92H1546.59ZM1725.61 367.32C1672.17 367.32 1628.81 347.64 1595.53 308.28L1638.73 267.48C1663.05 296.6 1693.29 311.16 1729.45 311.16C1750.25 311.16 1766.09 306.68 1776.97 297.72C1788.17 288.44 1793.77 275.64 1793.77 259.32C1793.77 246.52 1789.93 236.44 1782.25 229.08C1774.57 221.4 1761.61 216.12 1743.37 213.24L1710.73 207.96C1675.53 202.2 1649.29 190.84 1632.01 173.88C1614.73 156.92 1606.09 134.2 1606.09 105.72C1606.09 84.92 1611.21 66.84 1621.45 51.48C1631.69 36.12 1646.41 24.28 1665.61 15.96C1684.81 7.31999 1707.21 2.99999 1732.81 2.99999C1783.69 2.99999 1823.37 20.44 1851.85 55.32L1808.65 95.64C1799.05 83.8 1787.85 74.84 1775.05 68.76C1762.25 62.36 1746.89 59.16 1728.97 59.16C1709.45 59.16 1694.57 62.84 1684.33 70.2C1674.41 77.56 1669.45 88.28 1669.45 102.36C1669.45 115.8 1673.45 126.04 1681.45 133.08C1689.45 139.8 1702.57 144.76 1720.81 147.96L1753.45 154.2C1788.97 160.6 1815.05 172.12 1831.69 188.76C1848.65 205.08 1857.13 227.48 1857.13 255.96C1857.13 278.04 1851.85 297.56 1841.29 314.52C1831.05 331.16 1816.01 344.12 1796.17 353.4C1776.33 362.68 1752.81 367.32 1725.61 367.32ZM2025.61 367.32C1972.17 367.32 1928.81 347.64 1895.53 308.28L1938.73 267.48C1963.05 296.6 1993.29 311.16 2029.45 311.16C2050.25 311.16 2066.09 306.68 2076.97 297.72C2088.17 288.44 2093.77 275.64 2093.77 259.32C2093.77 246.52 2089.93 236.44 2082.25 229.08C2074.57 221.4 2061.61 216.12 2043.37 213.24L2010.73 207.96C1975.53 202.2 1949.29 190.84 1932.01 173.88C1914.73 156.92 1906.09 134.2 1906.09 105.72C1906.09 84.92 1911.21 66.84 1921.45 51.48C1931.69 36.12 1946.41 24.28 1965.61 15.96C1984.81 7.31999 2007.21 2.99999 2032.81 2.99999C2083.69 2.99999 2123.37 20.44 2151.85 55.32L2108.65 95.64C2099.05 83.8 2087.85 74.84 2075.05 68.76C2062.25 62.36 2046.89 59.16 2028.97 59.16C2009.45 59.16 1994.57 62.84 1984.33 70.2C1974.41 77.56 1969.45 88.28 1969.45 102.36C1969.45 115.8 1973.45 126.04 1981.45 133.08C1989.45 139.8 2002.57 144.76 2020.81 147.96L2053.45 154.2C2088.97 160.6 2115.05 172.12 2131.69 188.76C2148.65 205.08 2157.13 227.48 2157.13 255.96C2157.13 278.04 2151.85 297.56 2141.29 314.52C2131.05 331.16 2116.01 344.12 2096.17 353.4C2076.33 362.68 2052.81 367.32 2025.61 367.32Z"/>
</mask>
<path d="M4.12428 308.28L2.06441 306.099L2.09808e-05 308.049L1.83341 310.217L4.12428 308.28ZM47.3243 267.48L49.6269 265.557L47.5828 263.109L45.2644 265.299L47.3243 267.48ZM185.564 297.72L187.471 300.036L187.478 300.03L185.564 297.72ZM190.844 229.08L188.723 231.201L188.746 231.224L188.769 231.246L190.844 229.08ZM151.964 213.24L151.485 216.202L151.496 216.203L151.964 213.24ZM119.324 207.96L118.84 210.921L118.845 210.922L119.324 207.96ZM40.6043 173.88L42.7057 171.739L40.6043 173.88ZM30.0443 51.48L27.5481 49.8159V49.8159L30.0443 51.48ZM74.2043 15.96L75.3971 18.7127L75.4163 18.7043L75.4354 18.6958L74.2043 15.96ZM260.444 55.32L262.491 57.5132L264.544 55.5974L262.768 53.4226L260.444 55.32ZM217.244 95.64L214.914 97.5294L216.94 100.028L219.291 97.8332L217.244 95.64ZM183.644 68.76L182.303 71.4433L182.33 71.4568L182.357 71.4698L183.644 68.76ZM92.9243 70.2L91.1734 67.764L91.155 67.7772L91.1367 67.7907L92.9243 70.2ZM90.0443 133.08L88.0624 135.332L88.0883 135.355L88.1147 135.377L90.0443 133.08ZM129.404 147.96L129.968 145.013L129.945 145.009L129.923 145.005L129.404 147.96ZM162.044 154.2L161.481 157.147L161.497 157.15L161.512 157.152L162.044 154.2ZM240.284 188.76L238.163 190.881L238.183 190.902L238.204 190.922L240.284 188.76ZM249.884 314.52L247.338 312.934L247.333 312.941L247.329 312.948L249.884 314.52ZM204.764 353.4L203.493 350.683L204.764 353.4ZM134.204 367.32V364.32C81.6098 364.32 39.1015 345.001 6.41514 306.343L4.12428 308.28L1.83341 310.217C35.7071 350.279 79.9187 370.32 134.204 370.32V367.32ZM4.12428 308.28L6.18414 310.461L49.3841 269.661L47.3243 267.48L45.2644 265.299L2.06441 306.099L4.12428 308.28ZM47.3243 267.48L45.0217 269.403C69.8795 299.167 100.946 314.16 138.044 314.16V311.16V308.16C102.823 308.16 73.4091 294.033 49.6269 265.557L47.3243 267.48ZM138.044 311.16V314.16C159.22 314.16 175.85 309.606 187.471 300.036L185.564 297.72L183.657 295.404C173.518 303.754 158.469 308.16 138.044 308.16V311.16ZM185.564 297.72L187.478 300.03C199.456 290.106 205.364 276.41 205.364 259.32H202.364H199.364C199.364 274.87 194.073 286.774 183.65 295.41L185.564 297.72ZM202.364 259.32H205.364C205.364 245.881 201.308 234.953 192.92 226.914L190.844 229.08L188.769 231.246C195.74 237.927 199.364 247.159 199.364 259.32H202.364ZM190.844 229.08L192.966 226.959C184.62 218.613 170.904 213.193 152.432 210.277L151.964 213.24L151.496 216.203C169.504 219.047 181.709 224.187 188.723 231.201L190.844 229.08ZM151.964 213.24L152.443 210.279L119.803 204.999L119.324 207.96L118.845 210.922L151.485 216.202L151.964 213.24ZM119.324 207.96L119.809 204.999C84.9448 199.294 59.3802 188.105 42.7057 171.739L40.6043 173.88L38.5029 176.021C56.3884 193.575 83.3038 205.106 118.84 210.921L119.324 207.96ZM40.6043 173.88L42.7057 171.739C26.1014 155.442 17.6843 133.548 17.6843 105.72H14.6843H11.6843C11.6843 134.852 20.5472 158.398 38.5029 176.021L40.6043 173.88ZM14.6843 105.72H17.6843C17.6843 85.4346 22.6695 67.9504 32.5404 53.1441L30.0443 51.48L27.5481 49.8159C16.939 65.7296 11.6843 84.4054 11.6843 105.72H14.6843ZM30.0443 51.48L32.5404 53.1441C42.4185 38.327 56.6544 26.8345 75.3971 18.7127L74.2043 15.96L73.0115 13.2073C53.3541 21.7255 38.15 33.913 27.5481 49.8159L30.0443 51.48ZM74.2043 15.96L75.4354 18.6958C94.1741 10.2633 116.139 5.99999 141.404 5.99999V2.99999V-7.62939e-06C115.47 -7.62939e-06 92.6344 4.37667 72.9732 13.2242L74.2043 15.96ZM141.404 2.99999V5.99999C191.515 5.99999 230.289 23.1314 258.121 57.2174L260.444 55.32L262.768 53.4226C233.64 17.7486 193.053 -7.62939e-06 141.404 -7.62939e-06V2.99999ZM260.444 55.32L258.397 53.1268L215.197 93.4468L217.244 95.64L219.291 97.8332L262.491 57.5132L260.444 55.32ZM217.244 95.64L219.575 93.7506C209.714 81.5895 198.166 72.3366 184.931 66.0502L183.644 68.76L182.357 71.4698C194.722 77.3434 205.574 86.0105 214.914 97.5294L217.244 95.64ZM183.644 68.76L184.986 66.0767C171.678 59.4226 155.835 56.16 137.564 56.16V59.16V62.16C155.133 62.16 170.011 65.2974 182.303 71.4433L183.644 68.76ZM137.564 59.16V56.16C117.738 56.16 102.134 59.886 91.1734 67.764L92.9243 70.2L94.6752 72.6361C104.195 65.794 118.351 62.16 137.564 62.16V59.16ZM92.9243 70.2L91.1367 67.7907C80.3396 75.8015 75.0443 87.4823 75.0443 102.36H78.0443H81.0443C81.0443 89.0777 85.6689 79.3186 94.7118 72.6093L92.9243 70.2ZM78.0443 102.36H75.0443C75.0443 116.42 79.2533 127.58 88.0624 135.332L90.0443 133.08L92.0262 130.828C84.8353 124.5 81.0443 115.18 81.0443 102.36H78.0443ZM90.0443 133.08L88.1147 135.377C96.7228 142.608 110.473 147.684 128.886 150.915L129.404 147.96L129.923 145.005C111.856 141.836 99.3657 136.992 91.9739 130.783L90.0443 133.08ZM129.404 147.96L128.841 150.907L161.481 157.147L162.044 154.2L162.608 151.253L129.968 145.013L129.404 147.96ZM162.044 154.2L161.512 157.152C196.73 163.498 222.13 174.849 238.163 190.881L240.284 188.76L242.406 186.639C225.158 169.391 198.398 157.702 162.576 151.248L162.044 154.2ZM240.284 188.76L238.204 190.922C254.456 206.56 262.724 228.112 262.724 255.96H265.724H268.724C268.724 226.848 260.033 203.6 242.364 186.598L240.284 188.76ZM265.724 255.96H262.724C262.724 277.54 257.571 296.499 247.338 312.934L249.884 314.52L252.431 316.106C263.318 298.621 268.724 278.54 268.724 255.96H265.724ZM249.884 314.52L247.329 312.948C237.433 329.03 222.869 341.62 203.493 350.683L204.764 353.4L206.035 356.117C226.34 346.62 241.856 333.29 252.439 316.092L249.884 314.52ZM204.764 353.4L203.493 350.683C184.135 359.737 161.069 364.32 134.204 364.32V367.32V370.32C161.74 370.32 185.713 365.623 206.035 356.117L204.764 353.4ZM330.378 9.24V6.24H327.378V9.24H330.378ZM392.778 9.24H395.778V6.24H392.778V9.24ZM409.098 290.04L406.724 291.874L406.747 291.904L406.771 291.934L409.098 290.04ZM518.538 290.04L516.211 288.146L518.538 290.04ZM535.338 9.24V6.24H532.338V9.24H535.338ZM597.258 9.24H600.258V6.24H597.258V9.24ZM583.818 303L581.038 301.872L581.034 301.882L581.03 301.893L583.818 303ZM541.578 351.48L540.151 348.841L540.141 348.846L540.132 348.851L541.578 351.48ZM385.578 351.48L387.005 348.841L385.578 351.48ZM343.338 303L340.544 304.093L340.547 304.1L340.55 304.107L343.338 303ZM330.378 9.24V12.24H392.778V9.24V6.24H330.378V9.24ZM392.778 9.24H389.778V225.72H392.778H395.778V9.24H392.778ZM392.778 225.72H389.778C389.778 254.804 395.255 277.032 406.724 291.874L409.098 290.04L411.472 288.206C401.181 274.888 395.778 254.236 395.778 225.72H392.778ZM409.098 290.04L406.771 291.934C418.753 306.654 438.035 313.68 463.818 313.68V310.68V307.68C439.041 307.68 421.843 300.946 411.425 288.146L409.098 290.04ZM463.818 310.68V313.68C489.601 313.68 508.883 306.654 520.865 291.934L518.538 290.04L516.211 288.146C505.793 300.946 488.595 307.68 463.818 307.68V310.68ZM518.538 290.04L520.865 291.934C532.703 277.39 538.338 255.121 538.338 225.72H535.338H532.338C532.338 254.559 526.773 275.17 516.211 288.146L518.538 290.04ZM535.338 225.72H538.338V9.24H535.338H532.338V225.72H535.338ZM535.338 9.24V12.24H597.258V9.24V6.24H535.338V9.24ZM597.258 9.24H594.258V217.08H597.258H600.258V9.24H597.258ZM597.258 217.08H594.258C594.258 252.061 589.801 280.279 581.038 301.872L583.818 303L586.598 304.128C595.755 281.562 600.258 252.499 600.258 217.08H597.258ZM583.818 303L581.03 301.893C572.634 323.037 559.015 338.636 540.151 348.841L541.578 351.48L543.005 354.119C563.181 343.204 577.722 326.483 586.606 304.107L583.818 303ZM541.578 351.48L540.132 348.851C521.54 359.077 496.181 364.32 463.818 364.32V367.32V370.32C496.735 370.32 523.216 365.003 543.024 354.109L541.578 351.48ZM463.818 367.32V364.32C431.459 364.32 405.929 359.079 387.005 348.841L385.578 351.48L384.151 354.119C404.267 365.001 430.897 370.32 463.818 370.32V367.32ZM385.578 351.48L387.005 348.841C368.141 338.636 354.522 323.037 346.126 301.893L343.338 303L340.55 304.107C349.434 326.483 363.975 343.204 384.151 354.119L385.578 351.48ZM343.338 303L346.132 301.907C337.677 280.301 333.378 252.07 333.378 217.08H330.378H327.378C327.378 252.49 331.719 281.539 340.544 304.093L343.338 303ZM330.378 217.08H333.378V9.24H330.378H327.378V217.08H330.378ZM703.664 321.24L705.934 319.278L703.664 321.24ZM682.064 87.96L684.808 89.1725L684.813 89.1608L682.064 87.96ZM891.344 23.16L889.716 25.6797L889.725 25.6854L889.734 25.691L891.344 23.16ZM941.264 84.12L942.653 86.7793L945.155 85.4728L944.003 82.8956L941.264 84.12ZM887.024 112.44L884.189 113.42L885.326 116.711L888.413 115.099L887.024 112.44ZM753.584 86.04L751.304 84.091L751.301 84.0946L753.584 86.04ZM753.584 285.24L751.301 287.185L751.31 287.196L751.319 287.206L753.584 285.24ZM861.584 295.32L859.738 292.955L859.724 292.966L859.71 292.977L861.584 295.32ZM890.864 254.52L892.358 251.918L889.302 250.164L888.057 253.461L890.864 254.52ZM942.704 284.28L945.425 285.543L946.584 283.048L944.198 281.678L942.704 284.28ZM891.824 346.2L893.471 348.708L893.484 348.699L893.497 348.69L891.824 346.2ZM814.064 367.32V364.32C767.743 364.32 731.831 349.231 705.934 319.278L703.664 321.24L701.395 323.202C728.618 354.689 766.306 370.32 814.064 370.32V367.32ZM703.664 321.24L705.934 319.278C680.013 289.298 666.824 245.628 666.824 187.8H663.824H660.824C660.824 246.453 674.195 291.742 701.395 323.202L703.664 321.24ZM663.824 187.8H666.824C666.824 149.059 672.859 116.215 684.808 89.1725L682.064 87.96L679.32 86.7475C666.949 114.745 660.824 148.461 660.824 187.8H663.824ZM682.064 87.96L684.813 89.1608C696.771 61.7845 713.692 41.16 735.527 27.1235L733.904 24.6L732.282 22.0765C709.316 36.84 691.678 58.4555 679.315 86.7592L682.064 87.96ZM733.904 24.6L735.527 27.1235C757.367 13.0833 783.502 5.99999 814.064 5.99999V2.99999V-7.62939e-06C782.546 -7.62939e-06 755.242 7.31669 732.282 22.0765L733.904 24.6ZM814.064 2.99999V5.99999C844.346 5.99999 869.506 12.621 889.716 25.6797L891.344 23.16L892.972 20.6402C871.582 6.81897 845.223 -7.62939e-06 814.064 -7.62939e-06V2.99999ZM891.344 23.16L889.734 25.691C910.27 38.7594 926.559 58.5773 938.526 85.3444L941.264 84.12L944.003 82.8956C931.65 55.2627 914.659 34.4405 892.955 20.629L891.344 23.16ZM941.264 84.12L939.876 81.4607L885.636 109.781L887.024 112.44L888.413 115.099L942.653 86.7793L941.264 84.12ZM887.024 112.44L889.86 111.46C883.627 93.4192 874.192 79.65 861.423 70.4097C848.649 61.1656 832.797 56.64 814.064 56.64V59.64V62.64C831.811 62.64 846.359 66.9144 857.905 75.2704C869.457 83.6301 878.261 96.2608 884.189 113.42L887.024 112.44ZM814.064 59.64V56.64C787.998 56.64 766.97 65.7577 751.304 84.0911L753.584 86.04L755.865 87.989C770.278 71.1223 789.57 62.64 814.064 62.64V59.64ZM753.584 86.04L751.301 84.0946C735.973 102.088 728.504 127.029 728.504 158.52H731.504H734.504C734.504 127.931 741.756 104.552 755.868 87.9854L753.584 86.04ZM731.504 158.52H728.504V212.76H731.504H734.504V158.52H731.504ZM731.504 212.76H728.504C728.504 244.251 735.973 269.192 751.301 287.185L753.584 285.24L755.868 283.295C741.756 266.728 734.504 243.349 734.504 212.76H731.504ZM753.584 285.24L751.319 287.206C766.692 304.919 787.73 313.68 814.064 313.68V310.68V307.68C789.198 307.68 769.917 299.481 755.85 283.274L753.584 285.24ZM814.064 310.68V313.68C833.517 313.68 850.047 308.391 863.458 297.663L861.584 295.32L859.71 292.977C847.521 302.729 832.372 307.68 814.064 307.68V310.68ZM861.584 295.32L863.43 297.685C877.023 287.076 887.095 273.007 893.671 255.579L890.864 254.52L888.057 253.461C881.834 269.953 872.386 283.084 859.738 292.955L861.584 295.32ZM890.864 254.52L889.371 257.122L941.211 286.882L942.704 284.28L944.198 281.678L892.358 251.918L890.864 254.52ZM942.704 284.28L939.983 283.017C927.699 309.474 911.073 329.658 890.152 343.71L891.824 346.2L893.497 348.69C915.456 333.942 932.749 312.846 945.425 285.543L942.704 284.28ZM891.824 346.2L890.177 343.692C869.311 357.396 843.989 364.32 814.064 364.32V367.32V370.32C844.939 370.32 871.457 363.164 893.471 348.708L891.824 346.2ZM1019.6 321.24L1021.87 319.278L1019.6 321.24ZM998.002 87.96L1000.75 89.1725L1000.75 89.1608L998.002 87.96ZM1207.28 23.16L1205.65 25.6797L1205.66 25.6854L1205.67 25.691L1207.28 23.16ZM1257.2 84.12L1258.59 86.7793L1261.09 85.4728L1259.94 82.8956L1257.2 84.12ZM1202.96 112.44L1200.13 113.42L1201.26 116.711L1204.35 115.099L1202.96 112.44ZM1069.52 86.04L1067.24 84.091L1067.24 84.0946L1069.52 86.04ZM1069.52 285.24L1067.24 287.185L1067.25 287.196L1067.26 287.206L1069.52 285.24ZM1177.52 295.32L1175.68 292.955L1175.66 292.966L1175.65 292.977L1177.52 295.32ZM1206.8 254.52L1208.3 251.918L1205.24 250.164L1203.99 253.461L1206.8 254.52ZM1258.64 284.28L1261.36 285.543L1262.52 283.048L1260.14 281.678L1258.64 284.28ZM1207.76 346.2L1209.41 348.708L1209.42 348.699L1209.43 348.69L1207.76 346.2ZM1130 367.32V364.32C1083.68 364.32 1047.77 349.231 1021.87 319.278L1019.6 321.24L1017.33 323.202C1044.56 354.689 1082.24 370.32 1130 370.32V367.32ZM1019.6 321.24L1021.87 319.278C995.951 289.298 982.762 245.628 982.762 187.8H979.762H976.762C976.762 246.453 990.133 291.742 1017.33 323.202L1019.6 321.24ZM979.762 187.8H982.762C982.762 149.059 988.797 116.215 1000.75 89.1725L998.002 87.96L995.258 86.7475C982.887 114.745 976.762 148.461 976.762 187.8H979.762ZM998.002 87.96L1000.75 89.1608C1012.71 61.7845 1029.63 41.16 1051.46 27.1235L1049.84 24.6L1048.22 22.0765C1025.25 36.84 1007.62 58.4555 995.253 86.7592L998.002 87.96ZM1049.84 24.6L1051.46 27.1235C1073.3 13.0833 1099.44 5.99999 1130 5.99999V2.99999V-7.62939e-06C1098.48 -7.62939e-06 1071.18 7.31669 1048.22 22.0765L1049.84 24.6ZM1130 2.99999V5.99999C1160.28 5.99999 1185.44 12.621 1205.65 25.6797L1207.28 23.16L1208.91 20.6402C1187.52 6.81897 1161.16 -7.62939e-06 1130 -7.62939e-06V2.99999ZM1207.28 23.16L1205.67 25.691C1226.21 38.7594 1242.5 58.5773 1254.46 85.3444L1257.2 84.12L1259.94 82.8956C1247.59 55.2627 1230.6 34.4405 1208.89 20.629L1207.28 23.16ZM1257.2 84.12L1255.81 81.4607L1201.57 109.781L1202.96 112.44L1204.35 115.099L1258.59 86.7793L1257.2 84.12ZM1202.96 112.44L1205.8 111.46C1199.56 93.4192 1190.13 79.65 1177.36 70.4097C1164.59 61.1656 1148.73 56.64 1130 56.64V59.64V62.64C1147.75 62.64 1162.3 66.9144 1173.84 75.2704C1185.39 83.6301 1194.2 96.2608 1200.13 113.42L1202.96 112.44ZM1130 59.64V56.64C1103.94 56.64 1082.91 65.7577 1067.24 84.0911L1069.52 86.04L1071.8 87.989C1086.22 71.1223 1105.51 62.64 1130 62.64V59.64ZM1069.52 86.04L1067.24 84.0946C1051.91 102.088 1044.44 127.029 1044.44 158.52H1047.44H1050.44C1050.44 127.931 1057.69 104.552 1071.81 87.9854L1069.52 86.04ZM1047.44 158.52H1044.44V212.76H1047.44H1050.44V158.52H1047.44ZM1047.44 212.76H1044.44C1044.44 244.251 1051.91 269.192 1067.24 287.185L1069.52 285.24L1071.81 283.295C1057.69 266.728 1050.44 243.349 1050.44 212.76H1047.44ZM1069.52 285.24L1067.26 287.206C1082.63 304.919 1103.67 313.68 1130 313.68V310.68V307.68C1105.14 307.68 1085.85 299.481 1071.79 283.274L1069.52 285.24ZM1130 310.68V313.68C1149.45 313.68 1165.98 308.391 1179.4 297.663L1177.52 295.32L1175.65 292.977C1163.46 302.729 1148.31 307.68 1130 307.68V310.68ZM1177.52 295.32L1179.37 297.685C1192.96 287.076 1203.03 273.007 1209.61 255.579L1206.8 254.52L1203.99 253.461C1197.77 269.953 1188.32 283.084 1175.68 292.955L1177.52 295.32ZM1206.8 254.52L1205.31 257.122L1257.15 286.882L1258.64 284.28L1260.14 281.678L1208.3 251.918L1206.8 254.52ZM1258.64 284.28L1255.92 283.017C1243.64 309.474 1227.01 329.658 1206.09 343.71L1207.76 346.2L1209.43 348.69C1231.39 333.942 1248.69 312.846 1261.36 285.543L1258.64 284.28ZM1207.76 346.2L1206.12 343.692C1185.25 357.396 1159.93 364.32 1130 364.32V367.32V370.32C1160.88 370.32 1187.39 363.164 1209.41 348.708L1207.76 346.2ZM1546.59 304.92H1549.59V301.92H1546.59V304.92ZM1546.59 361.08V364.08H1549.59V361.08H1546.59ZM1317.15 361.08H1314.15V364.08H1317.15V361.08ZM1317.15 9.24V6.24H1314.15V9.24H1317.15ZM1546.59 9.24H1549.59V6.24H1546.59V9.24ZM1546.59 65.4V68.4H1549.59V65.4H1546.59ZM1380.51 65.4V62.4H1377.51V65.4H1380.51ZM1380.51 154.68H1377.51V157.68H1380.51V154.68ZM1527.87 154.68H1530.87V151.68H1527.87V154.68ZM1527.87 210.84V213.84H1530.87V210.84H1527.87ZM1380.51 210.84V207.84H1377.51V210.84H1380.51ZM1380.51 304.92H1377.51V307.92H1380.51V304.92ZM1546.59 304.92H1543.59V361.08H1546.59H1549.59V304.92H1546.59ZM1546.59 361.08V358.08H1317.15V361.08V364.08H1546.59V361.08ZM1317.15 361.08H1320.15V9.24H1317.15H1314.15V361.08H1317.15ZM1317.15 9.24V12.24H1546.59V9.24V6.24H1317.15V9.24ZM1546.59 9.24H1543.59V65.4H1546.59H1549.59V9.24H1546.59ZM1546.59 65.4V62.4H1380.51V65.4V68.4H1546.59V65.4ZM1380.51 65.4H1377.51V154.68H1380.51H1383.51V65.4H1380.51ZM1380.51 154.68V157.68H1527.87V154.68V151.68H1380.51V154.68ZM1527.87 154.68H1524.87V210.84H1527.87H1530.87V154.68H1527.87ZM1527.87 210.84V207.84H1380.51V210.84V213.84H1527.87V210.84ZM1380.51 210.84H1377.51V304.92H1380.51H1383.51V210.84H1380.51ZM1380.51 304.92V307.92H1546.59V304.92V301.92H1380.51V304.92ZM1595.53 308.28L1593.47 306.099L1591.41 308.049L1593.24 310.217L1595.53 308.28ZM1638.73 267.48L1641.03 265.557L1638.99 263.109L1636.67 265.299L1638.73 267.48ZM1776.97 297.72L1778.88 300.036L1778.88 300.03L1776.97 297.72ZM1782.25 229.08L1780.13 231.201L1780.15 231.224L1780.17 231.246L1782.25 229.08ZM1743.37 213.24L1742.89 216.202L1742.9 216.203L1743.37 213.24ZM1710.73 207.96L1710.25 210.921L1710.25 210.922L1710.73 207.96ZM1632.01 173.88L1634.11 171.739L1632.01 173.88ZM1621.45 51.48L1618.95 49.8159V49.8159L1621.45 51.48ZM1665.61 15.96L1666.8 18.7127L1666.82 18.7043L1666.84 18.6958L1665.61 15.96ZM1851.85 55.32L1853.9 57.5132L1855.95 55.5974L1854.17 53.4226L1851.85 55.32ZM1808.65 95.64L1806.32 97.5294L1808.35 100.028L1810.7 97.8332L1808.65 95.64ZM1775.05 68.76L1773.71 71.4433L1773.74 71.4568L1773.76 71.4698L1775.05 68.76ZM1684.33 70.2L1682.58 67.764L1682.56 67.7772L1682.54 67.7907L1684.33 70.2ZM1681.45 133.08L1679.47 135.332L1679.49 135.355L1679.52 135.377L1681.45 133.08ZM1720.81 147.96L1721.37 145.013L1721.35 145.009L1721.33 145.005L1720.81 147.96ZM1753.45 154.2L1752.89 157.147L1752.9 157.15L1752.92 157.152L1753.45 154.2ZM1831.69 188.76L1829.57 190.881L1829.59 190.902L1829.61 190.922L1831.69 188.76ZM1841.29 314.52L1838.74 312.934L1838.74 312.941L1838.74 312.948L1841.29 314.52ZM1796.17 353.4L1794.9 350.683L1796.17 353.4ZM1725.61 367.32V364.32C1673.02 364.32 1630.51 345.001 1597.82 306.343L1595.53 308.28L1593.24 310.217C1627.11 350.279 1671.33 370.32 1725.61 370.32V367.32ZM1595.53 308.28L1597.59 310.461L1640.79 269.661L1638.73 267.48L1636.67 265.299L1593.47 306.099L1595.53 308.28ZM1638.73 267.48L1636.43 269.403C1661.29 299.167 1692.35 314.16 1729.45 314.16V311.16V308.16C1694.23 308.16 1664.82 294.033 1641.03 265.557L1638.73 267.48ZM1729.45 311.16V314.16C1750.63 314.16 1767.26 309.606 1778.88 300.036L1776.97 297.72L1775.06 295.404C1764.92 303.754 1749.88 308.16 1729.45 308.16V311.16ZM1776.97 297.72L1778.88 300.03C1790.86 290.106 1796.77 276.41 1796.77 259.32H1793.77H1790.77C1790.77 274.87 1785.48 286.774 1775.06 295.41L1776.97 297.72ZM1793.77 259.32H1796.77C1796.77 245.881 1792.71 234.953 1784.33 226.914L1782.25 229.08L1780.17 231.246C1787.15 237.927 1790.77 247.159 1790.77 259.32H1793.77ZM1782.25 229.08L1784.37 226.959C1776.03 218.613 1762.31 213.193 1743.84 210.277L1743.37 213.24L1742.9 216.203C1760.91 219.047 1773.12 224.187 1780.13 231.201L1782.25 229.08ZM1743.37 213.24L1743.85 210.279L1711.21 204.999L1710.73 207.96L1710.25 210.922L1742.89 216.202L1743.37 213.24ZM1710.73 207.96L1711.22 204.999C1676.35 199.294 1650.79 188.105 1634.11 171.739L1632.01 173.88L1629.91 176.021C1647.79 193.575 1674.71 205.106 1710.25 210.921L1710.73 207.96ZM1632.01 173.88L1634.11 171.739C1617.51 155.442 1609.09 133.548 1609.09 105.72H1606.09H1603.09C1603.09 134.852 1611.95 158.398 1629.91 176.021L1632.01 173.88ZM1606.09 105.72H1609.09C1609.09 85.4346 1614.08 67.9504 1623.95 53.1441L1621.45 51.48L1618.95 49.8159C1608.35 65.7296 1603.09 84.4054 1603.09 105.72H1606.09ZM1621.45 51.48L1623.95 53.1441C1633.82 38.327 1648.06 26.8345 1666.8 18.7127L1665.61 15.96L1664.42 13.2073C1644.76 21.7255 1629.56 33.913 1618.95 49.8159L1621.45 51.48ZM1665.61 15.96L1666.84 18.6958C1685.58 10.2633 1707.55 5.99999 1732.81 5.99999V2.99999V-7.62939e-06C1706.88 -7.62939e-06 1684.04 4.37667 1664.38 13.2242L1665.61 15.96ZM1732.81 2.99999V5.99999C1782.92 5.99999 1821.7 23.1314 1849.53 57.2174L1851.85 55.32L1854.17 53.4226C1825.05 17.7486 1784.46 -7.62939e-06 1732.81 -7.62939e-06V2.99999ZM1851.85 55.32L1849.8 53.1268L1806.6 93.4468L1808.65 95.64L1810.7 97.8332L1853.9 57.5132L1851.85 55.32ZM1808.65 95.64L1810.98 93.7506C1801.12 81.5895 1789.57 72.3366 1776.34 66.0502L1775.05 68.76L1773.76 71.4698C1786.13 77.3434 1796.98 86.0105 1806.32 97.5294L1808.65 95.64ZM1775.05 68.76L1776.39 66.0767C1763.08 59.4226 1747.24 56.16 1728.97 56.16V59.16V62.16C1746.54 62.16 1761.42 65.2974 1773.71 71.4433L1775.05 68.76ZM1728.97 59.16V56.16C1709.14 56.16 1693.54 59.886 1682.58 67.764L1684.33 70.2L1686.08 72.6361C1695.6 65.794 1709.76 62.16 1728.97 62.16V59.16ZM1684.33 70.2L1682.54 67.7907C1671.75 75.8015 1666.45 87.4823 1666.45 102.36H1669.45H1672.45C1672.45 89.0777 1677.08 79.3186 1686.12 72.6093L1684.33 70.2ZM1669.45 102.36H1666.45C1666.45 116.42 1670.66 127.58 1679.47 135.332L1681.45 133.08L1683.43 130.828C1676.24 124.5 1672.45 115.18 1672.45 102.36H1669.45ZM1681.45 133.08L1679.52 135.377C1688.13 142.608 1701.88 147.684 1720.29 150.915L1720.81 147.96L1721.33 145.005C1703.26 141.836 1690.77 136.992 1683.38 130.783L1681.45 133.08ZM1720.81 147.96L1720.25 150.907L1752.89 157.147L1753.45 154.2L1754.01 151.253L1721.37 145.013L1720.81 147.96ZM1753.45 154.2L1752.92 157.152C1788.14 163.498 1813.54 174.849 1829.57 190.881L1831.69 188.76L1833.81 186.639C1816.56 169.391 1789.8 157.702 1753.98 151.248L1753.45 154.2ZM1831.69 188.76L1829.61 190.922C1845.86 206.56 1854.13 228.112 1854.13 255.96H1857.13H1860.13C1860.13 226.848 1851.44 203.6 1833.77 186.598L1831.69 188.76ZM1857.13 255.96H1854.13C1854.13 277.54 1848.98 296.499 1838.74 312.934L1841.29 314.52L1843.84 316.106C1854.72 298.621 1860.13 278.54 1860.13 255.96H1857.13ZM1841.29 314.52L1838.74 312.948C1828.84 329.03 1814.28 341.62 1794.9 350.683L1796.17 353.4L1797.44 356.117C1817.75 346.62 1833.26 333.29 1843.85 316.092L1841.29 314.52ZM1796.17 353.4L1794.9 350.683C1775.54 359.737 1752.47 364.32 1725.61 364.32V367.32V370.32C1753.15 370.32 1777.12 365.623 1797.44 356.117L1796.17 353.4ZM1895.53 308.28L1893.47 306.099L1891.41 308.049L1893.24 310.217L1895.53 308.28ZM1938.73 267.48L1941.03 265.557L1938.99 263.109L1936.67 265.299L1938.73 267.48ZM2076.97 297.72L2078.88 300.036L2078.88 300.03L2076.97 297.72ZM2082.25 229.08L2080.13 231.201L2080.15 231.224L2080.17 231.246L2082.25 229.08ZM2043.37 213.24L2042.89 216.202L2042.9 216.203L2043.37 213.24ZM2010.73 207.96L2010.25 210.921L2010.25 210.922L2010.73 207.96ZM1932.01 173.88L1934.11 171.739L1932.01 173.88ZM1921.45 51.48L1918.95 49.8159V49.8159L1921.45 51.48ZM1965.61 15.96L1966.8 18.7127L1966.82 18.7043L1966.84 18.6958L1965.61 15.96ZM2151.85 55.32L2153.9 57.5132L2155.95 55.5974L2154.17 53.4226L2151.85 55.32ZM2108.65 95.64L2106.32 97.5294L2108.35 100.028L2110.7 97.8332L2108.65 95.64ZM2075.05 68.76L2073.71 71.4433L2073.74 71.4568L2073.76 71.4698L2075.05 68.76ZM1984.33 70.2L1982.58 67.764L1982.56 67.7772L1982.54 67.7907L1984.33 70.2ZM1981.45 133.08L1979.47 135.332L1979.49 135.355L1979.52 135.377L1981.45 133.08ZM2020.81 147.96L2021.37 145.013L2021.35 145.009L2021.33 145.005L2020.81 147.96ZM2053.45 154.2L2052.89 157.147L2052.9 157.15L2052.92 157.152L2053.45 154.2ZM2131.69 188.76L2129.57 190.881L2129.59 190.902L2129.61 190.922L2131.69 188.76ZM2141.29 314.52L2138.74 312.934L2138.74 312.941L2138.74 312.948L2141.29 314.52ZM2096.17 353.4L2094.9 350.683L2096.17 353.4ZM2025.61 367.32V364.32C1973.02 364.32 1930.51 345.001 1897.82 306.343L1895.53 308.28L1893.24 310.217C1927.11 350.279 1971.33 370.32 2025.61 370.32V367.32ZM1895.53 308.28L1897.59 310.461L1940.79 269.661L1938.73 267.48L1936.67 265.299L1893.47 306.099L1895.53 308.28ZM1938.73 267.48L1936.43 269.403C1961.29 299.167 1992.35 314.16 2029.45 314.16V311.16V308.16C1994.23 308.16 1964.82 294.033 1941.03 265.557L1938.73 267.48ZM2029.45 311.16V314.16C2050.63 314.16 2067.26 309.606 2078.88 300.036L2076.97 297.72L2075.06 295.404C2064.92 303.754 2049.87 308.16 2029.45 308.16V311.16ZM2076.97 297.72L2078.88 300.03C2090.86 290.106 2096.77 276.41 2096.77 259.32H2093.77H2090.77C2090.77 274.87 2085.48 286.774 2075.06 295.41L2076.97 297.72ZM2093.77 259.32H2096.77C2096.77 245.881 2092.71 234.953 2084.33 226.914L2082.25 229.08L2080.17 231.246C2087.15 237.927 2090.77 247.159 2090.77 259.32H2093.77ZM2082.25 229.08L2084.37 226.959C2076.03 218.613 2062.31 213.193 2043.84 210.277L2043.37 213.24L2042.9 216.203C2060.91 219.047 2073.12 224.187 2080.13 231.201L2082.25 229.08ZM2043.37 213.24L2043.85 210.279L2011.21 204.999L2010.73 207.96L2010.25 210.922L2042.89 216.202L2043.37 213.24ZM2010.73 207.96L2011.22 204.999C1976.35 199.294 1950.79 188.105 1934.11 171.739L1932.01 173.88L1929.91 176.021C1947.79 193.575 1974.71 205.106 2010.25 210.921L2010.73 207.96ZM1932.01 173.88L1934.11 171.739C1917.51 155.442 1909.09 133.548 1909.09 105.72H1906.09H1903.09C1903.09 134.852 1911.95 158.398 1929.91 176.021L1932.01 173.88ZM1906.09 105.72H1909.09C1909.09 85.4346 1914.08 67.9504 1923.95 53.1441L1921.45 51.48L1918.95 49.8159C1908.35 65.7296 1903.09 84.4054 1903.09 105.72H1906.09ZM1921.45 51.48L1923.95 53.1441C1933.82 38.327 1948.06 26.8345 1966.8 18.7127L1965.61 15.96L1964.42 13.2073C1944.76 21.7255 1929.56 33.913 1918.95 49.8159L1921.45 51.48ZM1965.61 15.96L1966.84 18.6958C1985.58 10.2633 2007.55 5.99999 2032.81 5.99999V2.99999V-7.62939e-06C2006.88 -7.62939e-06 1984.04 4.37667 1964.38 13.2242L1965.61 15.96ZM2032.81 2.99999V5.99999C2082.92 5.99999 2121.7 23.1314 2149.53 57.2174L2151.85 55.32L2154.17 53.4226C2125.05 17.7486 2084.46 -7.62939e-06 2032.81 -7.62939e-06V2.99999ZM2151.85 55.32L2149.8 53.1268L2106.6 93.4468L2108.65 95.64L2110.7 97.8332L2153.9 57.5132L2151.85 55.32ZM2108.65 95.64L2110.98 93.7506C2101.12 81.5895 2089.57 72.3366 2076.34 66.0502L2075.05 68.76L2073.76 71.4698C2086.13 77.3434 2096.98 86.0105 2106.32 97.5294L2108.65 95.64ZM2075.05 68.76L2076.39 66.0767C2063.08 59.4226 2047.24 56.16 2028.97 56.16V59.16V62.16C2046.54 62.16 2061.42 65.2974 2073.71 71.4433L2075.05 68.76ZM2028.97 59.16V56.16C2009.14 56.16 1993.54 59.886 1982.58 67.764L1984.33 70.2L1986.08 72.6361C1995.6 65.794 2009.76 62.16 2028.97 62.16V59.16ZM1984.33 70.2L1982.54 67.7907C1971.75 75.8015 1966.45 87.4823 1966.45 102.36H1969.45H1972.45C1972.45 89.0777 1977.08 79.3186 1986.12 72.6093L1984.33 70.2ZM1969.45 102.36H1966.45C1966.45 116.42 1970.66 127.58 1979.47 135.332L1981.45 133.08L1983.43 130.828C1976.24 124.5 1972.45 115.18 1972.45 102.36H1969.45ZM1981.45 133.08L1979.52 135.377C1988.13 142.608 2001.88 147.684 2020.29 150.915L2020.81 147.96L2021.33 145.005C2003.26 141.836 1990.77 136.992 1983.38 130.783L1981.45 133.08ZM2020.81 147.96L2020.25 150.907L2052.89 157.147L2053.45 154.2L2054.01 151.253L2021.37 145.013L2020.81 147.96ZM2053.45 154.2L2052.92 157.152C2088.14 163.498 2113.54 174.849 2129.57 190.881L2131.69 188.76L2133.81 186.639C2116.56 169.391 2089.8 157.702 2053.98 151.248L2053.45 154.2ZM2131.69 188.76L2129.61 190.922C2145.86 206.56 2154.13 228.112 2154.13 255.96H2157.13H2160.13C2160.13 226.848 2151.44 203.6 2133.77 186.598L2131.69 188.76ZM2157.13 255.96H2154.13C2154.13 277.54 2148.98 296.499 2138.74 312.934L2141.29 314.52L2143.84 316.106C2154.72 298.621 2160.13 278.54 2160.13 255.96H2157.13ZM2141.29 314.52L2138.74 312.948C2128.84 329.03 2114.28 341.62 2094.9 350.683L2096.17 353.4L2097.44 356.117C2117.75 346.62 2133.26 333.29 2143.85 316.092L2141.29 314.52ZM2096.17 353.4L2094.9 350.683C2075.54 359.737 2052.47 364.32 2025.61 364.32V367.32V370.32C2053.15 370.32 2077.12 365.623 2097.44 356.117L2096.17 353.4Z" fill="#FEFFFF" style="mix-blend-mode:difference" mask="url(#path-1-outside-1_150_173)"/>
</svg>
