<svg width="100" height="100" viewBox="0 0 100 100" fill="none" xmlns="http://www.w3.org/2000/svg">
<rect width="100" height="100" rx="50" fill="#2C2C2C"/>
<path d="M34.7945 36.5269L48.8488 22.6947C49.1555 22.3913 49.5694 22.2212 50.0008 22.2212C50.4321 22.2212 50.8461 22.3913 51.1527 22.6947L65.2071 36.5239C65.5156 36.8271 65.9309 36.997 66.3635 36.997C66.7961 36.997 67.2114 36.8271 67.5199 36.5239C67.6719 36.3758 67.7926 36.1987 67.8751 36.0032C67.9575 35.8077 68 35.5976 68 35.3855C68 35.1733 67.9575 34.9632 67.8751 34.7677C67.7926 34.5722 67.6719 34.3951 67.5199 34.247L53.4686 20.4179C52.5431 19.5091 51.2978 19 50.0008 19C48.7037 19 47.4585 19.5091 46.5329 20.4179L32.4816 34.247C32.3292 34.3952 32.2081 34.5724 32.1253 34.7682C32.0426 34.964 32 35.1744 32 35.387C32 35.5995 32.0426 35.8099 32.1253 36.0057C32.2081 36.2015 32.3292 36.3787 32.4816 36.5269C32.7902 36.8301 33.2054 37 33.638 37C34.0706 37 34.4859 36.8301 34.7945 36.5269Z" fill="#F8FAFC"/>
<path d="M39.944 53.408V55.808H34.616V71H31.904V55.808H26.576V53.408H39.944ZM48.9202 71.312C47.4002 71.312 46.0722 70.96 44.9362 70.256C43.8002 69.552 42.9202 68.52 42.2962 67.16C41.6882 65.8 41.3842 64.152 41.3842 62.216C41.3842 60.28 41.6882 58.632 42.2962 57.272C42.9202 55.896 43.7922 54.856 44.9122 54.152C46.0482 53.448 47.3842 53.096 48.9202 53.096C50.4562 53.096 51.7842 53.448 52.9042 54.152C54.0402 54.856 54.9122 55.888 55.5202 57.248C56.1442 58.608 56.4562 60.264 56.4562 62.216C56.4562 64.152 56.1442 65.8 55.5202 67.16C54.9122 68.52 54.0402 69.552 52.9042 70.256C51.7842 70.96 50.4562 71.312 48.9202 71.312ZM48.9442 68.888C50.3522 68.888 51.4722 68.416 52.3042 67.472C53.1522 66.512 53.5762 65.216 53.5762 63.584V60.824C53.5762 59.192 53.1522 57.904 52.3042 56.96C51.4722 56 50.3522 55.52 48.9442 55.52C47.5362 55.52 46.4002 56 45.5362 56.96C44.6882 57.904 44.2642 59.192 44.2642 60.824V63.584C44.2642 65.216 44.6882 66.512 45.5362 67.472C46.4002 68.416 47.5362 68.888 48.9442 68.888ZM62.7476 71H60.0356V53.408H67.5476C69.1316 53.408 70.3636 53.88 71.2436 54.824C72.1396 55.768 72.5876 57.04 72.5876 58.64C72.5876 60.256 72.1396 61.536 71.2436 62.48C70.3636 63.424 69.1316 63.896 67.5476 63.896H62.7476V71ZM62.7476 55.784V61.544H67.3556C68.1076 61.544 68.6916 61.344 69.1076 60.944C69.5236 60.544 69.7316 59.984 69.7316 59.264V58.064C69.7316 57.328 69.5236 56.768 69.1076 56.384C68.6916 55.984 68.1076 55.784 67.3556 55.784H62.7476Z" fill="#F8FAFC"/>
</svg>
