<svg width="200" height="200" viewBox="0 0 200 200" fill="none" xmlns="http://www.w3.org/2000/svg">
<circle cx="100" cy="100" r="100" fill="#F8FAFC"/>
<mask id="mask0_299_446" style="mask-type:alpha" maskUnits="userSpaceOnUse" x="0" y="0" width="200" height="200">
<circle cx="100" cy="100" r="100" fill="#D9D9D9"/>
</mask>
<g mask="url(#mask0_299_446)">
<path d="M80.37 131.165C69.2736 131.165 55.6769 126.622 51.3087 118.51C47.4953 111.426 48.3913 103.077 49.7778 95.0776C53.2685 75.8993 51.348 54.2718 66.7051 39.5693C72.4114 34.1057 85.2722 26.6626 99.7202 26.6626C108.609 26.6626 118.072 28.4807 125.785 33.072C130.097 35.6392 133.882 39.1272 136.57 43.401C142.852 50.0977 145.12 57.8504 146.388 66.5436C147.797 76.2049 149.104 85.8925 151.085 95.4581C152.88 104.13 153.808 112.688 148.092 120.267C141.263 129.321 129.006 131.628 118.014 131.628" fill="#645D5C"/>
<path d="M80.3703 128.542C74.7283 128.51 69.0102 127.448 63.7946 125.261C59.3187 123.384 54.9885 120.532 52.9671 115.962C50.2661 109.854 51.124 102.726 52.2102 96.349C53.1953 90.5627 53.867 84.7515 54.5228 78.9206C55.7822 67.7284 57.4022 56.0509 64.0477 46.6152C70.3142 37.7173 80.9698 32.2511 91.4418 30.1194C98.595 28.6634 106.249 29.1172 113.311 30.8737C120.421 32.642 126.985 36.0015 131.909 41.5084C134.165 44.031 137.866 40.3094 135.619 37.7987C126.057 27.1036 110.224 23.066 96.2876 24.1783C84.1981 25.1425 71.3439 30.5051 63.0482 39.5578C54.2592 49.1496 51.4087 61.7611 49.8227 74.2979C49.0356 80.5171 48.5358 86.7769 47.4969 92.962C46.3045 100.06 45.0609 107.392 46.9355 114.495C50.6675 128.644 67.2734 133.715 80.3703 133.787C83.7469 133.806 83.7508 128.56 80.3703 128.542Z" fill="#211715"/>
<path d="M136.081 46.8002C140.482 52.1969 142.496 58.8411 143.608 65.6112C144.935 73.6971 145.905 81.8354 147.353 89.9043C148.578 96.7295 150.845 103.959 149.445 110.935C148.163 117.322 143.815 122.214 138.102 125.117C131.962 128.236 124.808 128.986 118.016 129.007C114.641 129.018 114.634 134.265 118.016 134.255C131.791 134.213 147.782 130.284 153.384 116.111C156.27 108.811 154.856 100.95 153.362 93.5156C151.606 84.7712 150.383 75.9324 149.104 67.1093C147.825 58.2862 145.497 50.0849 139.792 43.0904C138.896 41.9912 137.012 42.1604 136.082 43.0904C134.996 44.1766 135.182 45.6996 136.081 46.8002Z" fill="#211715"/>
<path d="M65.6321 85.6059C73.0936 83.3234 82.0557 80.6723 90.2859 76.7632C105.53 69.5221 110.111 66.5614 118.548 59.521C124.68 65.773 130.323 74.4019 133.892 82.9561L136.975 87.4752C138.152 86.3445 139.738 85.9194 141.094 85.9667C144.047 86.0703 145.304 87.6681 145.844 88.606C147.458 91.4053 147.389 96.5633 146.306 99.7549C145.538 102.015 144.282 105.473 141.252 107.951C140.003 108.973 138.165 109.646 136.408 109.349L135.944 109.271C135.387 111.112 134.698 112.917 134.278 113.794C133.046 117.137 126.237 128.865 117.62 133.427C117.75 135.08 117.963 136.713 118.251 138.354C118.701 140.931 118.562 143.229 122.147 144.525C122.24 144.559 123.94 145.362 125.963 146.319C124.075 147.919 122.372 149.36 122.372 149.36C117.429 153.411 108.448 155.175 100.368 155.175C93.5077 155.175 85.1266 153.63 78.6503 149.36C78.6503 149.36 76.8781 148.18 75.0731 146.977C77.7833 145.721 80.2704 144.563 80.378 144.524C83.9644 143.228 83.8083 140.931 84.274 138.353C84.5298 136.863 84.7318 135.489 84.8564 134.045C84.6806 133.957 84.5049 133.877 84.5049 133.877C80.4029 132.014 76.7391 128.943 73.2563 124.775C68.8919 119.551 66.4061 113.924 65.034 109.263C63.1607 109.744 61.1367 109.048 59.7934 107.95C56.7631 105.47 55.5065 102.012 54.7391 99.7536C53.6555 96.562 53.5873 91.404 55.2008 88.6047C55.7413 87.6667 56.998 86.0703 59.9508 85.9653C61.3072 85.9181 62.8931 86.3418 64.0698 87.4739L65.4183 85.6689C65.4879 85.6479 65.5587 85.6256 65.6282 85.6046L65.6321 85.6059Z" fill="white"/>
<path d="M116.694 57.6657C110.612 62.7318 104.181 66.9203 97.1232 70.5094C91.956 73.1369 86.7351 75.6778 81.3043 77.7164C75.8735 79.7549 70.2866 81.4392 64.7259 83.1406C61.5055 84.1257 62.8789 89.1919 66.1204 88.2002C71.8712 86.4411 77.6326 84.7042 83.2576 82.566C88.9179 80.4134 94.3776 77.7846 99.7717 75.0416C107.24 71.244 113.97 66.7367 120.405 61.3767C123.002 59.2136 119.273 55.5183 116.695 57.667L116.694 57.6657Z" fill="#211715"/>
<path d="M116.694 61.3767C122.891 67.7375 127.92 75.4718 131.363 83.6535C131.913 84.9587 133.098 85.8966 134.59 85.486C135.821 85.1476 136.977 83.5734 136.423 82.259C132.614 73.2077 127.273 64.7178 120.405 57.6669C118.045 55.244 114.334 58.9564 116.694 61.3767Z" fill="#211715"/>
<path d="M68.8147 152.674C69.9572 152.274 71.067 151.699 72.1663 151.195C73.8519 150.423 75.535 149.644 77.218 148.863C78.539 148.25 79.8599 147.635 81.1835 147.027C81.3199 146.964 81.459 146.905 81.5941 146.839C81.7109 146.781 81.9457 146.685 81.3803 146.927C80.7073 147.215 81.2911 146.973 81.4642 146.905C81.7961 146.772 82.128 146.638 82.4507 146.482C83.7454 145.858 84.9247 144.832 85.6121 143.557C86.2496 142.374 86.4792 141.125 86.6812 139.816C86.9777 137.895 87.3083 135.984 87.4827 134.046C87.606 132.676 86.188 131.364 84.8592 131.423C83.3322 131.491 82.3681 132.579 82.2356 134.046C82.0375 136.248 81.6322 138.625 81.0668 140.981C80.9894 141.303 81.3252 140.57 81.1206 140.83C81.051 140.918 81.0038 141.037 80.9487 141.135C80.6562 141.653 81.1835 140.962 80.8608 141.252C80.7769 141.327 80.6588 141.432 80.5814 141.521C80.8648 141.19 80.7887 141.39 80.6181 141.491C80.4883 141.568 80.3663 141.653 80.2338 141.728C80.1853 141.756 79.6382 142.03 79.873 141.924C80.1039 141.819 79.6828 141.996 79.6828 141.995C79.4821 142.076 79.246 142.176 79.0479 142.262C79.0191 142.274 78.9915 142.287 78.9627 142.3C78.8302 142.358 78.7003 142.42 78.5691 142.48C75.7553 143.772 72.952 145.088 70.1369 146.38C69.4076 146.716 68.6769 147.05 67.9449 147.379C67.7128 147.484 67.4793 147.587 67.2471 147.69C66.6633 147.95 67.903 147.445 67.4202 147.614C66.1281 148.067 65.1312 149.43 65.5877 150.841C66.0009 152.119 67.4281 153.159 68.8147 152.674Z" fill="#211715"/>
<path d="M115.032 133.837C115.196 135.646 115.458 137.441 115.753 139.232C115.907 140.159 115.992 141.109 116.27 142.011C116.639 143.202 117.264 144.359 118.201 145.201C118.718 145.666 119.295 146.091 119.917 146.404C120.335 146.614 120.771 146.797 121.206 146.964C122.043 147.285 120.598 146.669 120.918 146.833C123.417 148.112 126.011 149.237 128.55 150.437C129.763 151.01 130.969 151.606 132.207 152.124C133.477 152.656 135.147 151.552 135.434 150.291C135.783 148.756 134.962 147.634 133.601 147.064C134.904 147.61 133.71 147.09 133.405 146.947C132.862 146.692 132.318 146.436 131.775 146.179C130.305 145.483 128.836 144.787 127.365 144.092C126.228 143.554 125.092 143.013 123.952 142.481C123.829 142.423 123.705 142.364 123.582 142.309C123.55 142.295 123.519 142.28 123.487 142.267C123.299 142.184 123.045 142.077 122.854 141.999C122.776 141.968 122.375 141.776 122.774 141.974C122.539 141.858 122.313 141.738 122.086 141.606C122.012 141.563 121.638 141.316 121.94 141.525C122.207 141.709 121.958 141.54 121.909 141.49C121.828 141.409 121.739 141.317 121.652 141.24C121.271 140.899 121.785 141.34 121.735 141.375C121.709 141.393 121.387 140.786 121.357 140.741C121.212 140.522 121.473 140.97 121.459 140.998C121.475 140.963 121.316 140.581 121.303 140.538C121.242 140.327 121.191 140.113 121.145 139.898C121.038 139.392 120.97 138.88 120.893 138.368C120.781 137.628 120.647 136.893 120.536 136.153C120.489 135.837 120.482 135.789 120.43 135.346C120.371 134.844 120.321 134.341 120.275 133.837C120.152 132.474 119.156 131.147 117.651 131.214C116.336 131.273 114.895 132.373 115.028 133.837H115.032Z" fill="#211715"/>
<path d="M134.092 105.893C133.698 107.778 133.116 109.627 132.431 111.427C132.179 112.091 132.006 112.43 131.691 113.215C131.426 113.873 131.882 112.832 131.655 113.303C131.575 113.469 131.5 113.64 131.42 113.807C130.288 116.172 128.875 118.416 127.365 120.554C123.848 125.538 119.035 130.982 112.854 132.434C109.568 133.207 110.96 138.266 114.248 137.494C121.593 135.767 127.244 129.636 131.5 123.756C133.147 121.481 134.681 119.079 135.906 116.544C136.171 115.996 136.409 115.437 136.643 114.876C136.924 114.203 136.427 115.343 136.738 114.659C136.938 114.217 137.12 113.765 137.299 113.315C138.073 111.363 138.723 109.345 139.151 107.288C139.839 103.993 134.782 102.583 134.092 105.893Z" fill="#211715"/>
<path d="M61.7704 107.158C64.9213 120.977 75.3264 136.044 90.2598 138.296C91.6595 138.508 93.0802 137.945 93.4868 136.464C93.8279 135.224 93.0644 133.449 91.6543 133.237C78.4157 131.24 69.6149 117.979 66.83 105.764C66.0796 102.473 61.0187 103.866 61.7704 107.158Z" fill="#211715"/>
<path d="M93.3594 118.919C95.7102 120.16 98.2393 120.696 100.9 120.679C103.702 120.661 106.427 120.065 108.66 118.326C109.748 117.478 109.616 115.494 108.66 114.616C107.506 113.557 106.11 113.712 104.95 114.616C105.858 113.909 104.931 114.592 104.643 114.742C104.422 114.859 103.833 115.042 104.664 114.759C104.46 114.828 104.26 114.914 104.054 114.981C103.501 115.159 102.89 115.187 102.346 115.37C102.625 115.276 102.781 115.318 102.387 115.357C102.219 115.374 102.051 115.387 101.883 115.399C101.479 115.425 101.074 115.436 100.67 115.433C100.308 115.431 99.9446 115.419 99.5839 115.394C99.4173 115.382 99.252 115.369 99.0867 115.353C98.9922 115.344 98.8978 115.334 98.8034 115.322C98.5974 115.297 98.6787 115.307 99.05 115.354C99.0303 115.424 97.6004 115.044 97.4548 115C97.2318 114.933 97.0141 114.853 96.7937 114.777C96.2086 114.577 97.3512 115.044 96.8212 114.793C96.5471 114.664 96.2782 114.529 96.0105 114.389C94.7971 113.749 93.1023 114.041 92.4215 115.331C91.7813 116.543 92.0673 118.236 93.3634 118.92L93.3594 118.919Z" fill="#211715"/>
<path d="M99.2167 101.609C99.5289 102.799 99.828 104.006 100.006 105.223L99.9133 104.525C99.9342 104.692 99.9434 104.857 99.9264 105.024L100.02 104.326C100.008 104.403 99.9907 104.477 99.9644 104.55L100.229 103.923C100.206 103.976 100.182 104.02 100.151 104.068L100.561 103.536C100.525 103.581 100.489 103.616 100.443 103.653L100.974 103.242C100.883 103.302 100.787 103.349 100.689 103.393L101.316 103.128C101.158 103.194 101.002 103.242 100.833 103.269L101.531 103.176C101.379 103.194 101.23 103.193 101.078 103.176L101.776 103.269C101.605 103.245 101.438 103.203 101.267 103.181C100.918 103.072 100.569 103.056 100.22 103.134C99.8713 103.149 99.546 103.253 99.2442 103.444C98.6999 103.763 98.1804 104.386 98.0387 105.012C97.8852 105.684 97.9193 106.438 98.3037 107.034L98.7143 107.565C99.0422 107.89 99.4279 108.114 99.8726 108.239C100.329 108.301 100.774 108.415 101.238 108.436C101.989 108.469 102.672 108.233 103.338 107.924C104.177 107.535 104.839 106.737 105.062 105.836C105.252 105.063 105.176 104.447 105.045 103.673C104.848 102.508 104.579 101.355 104.28 100.212C104.114 99.5786 103.637 98.9739 103.075 98.6447C102.512 98.3154 101.683 98.1763 101.053 98.3797C100.418 98.5856 99.8057 98.9792 99.4856 99.5852C99.1537 100.215 99.037 100.906 99.2206 101.607L99.2167 101.609Z" fill="#211715"/>
<path d="M65.9181 85.6158C63.263 83.2467 59.5283 82.6945 56.2843 84.1807C53.9677 85.2419 52.5444 87.434 51.8911 89.8319C50.3996 95.3139 51.7927 101.725 54.9358 106.401C57.0923 109.61 60.5004 112.504 64.6286 111.968C66.0335 111.786 67.2522 110.893 67.2522 109.345C67.2522 108.068 66.044 106.538 64.6286 106.721C61.7728 107.091 59.914 104.727 58.6757 102.442C57.68 100.607 56.8287 98.3061 56.6411 96.1206C56.4378 93.7555 56.586 91.3391 57.7233 89.5105C57.2957 90.1979 58.395 88.9386 57.9883 89.235C58.5117 88.852 58.6416 88.8074 59.1925 88.6841C60.2656 88.4453 61.353 88.5634 62.2083 89.3255C64.7204 91.5674 68.4446 87.8695 65.9181 85.6158Z" fill="#211715"/>
<path d="M138.819 89.3256C139.628 88.6055 140.66 88.4612 141.669 88.6488C142.322 88.7708 142.482 88.8285 143.039 89.2351C142.642 88.9452 143.722 90.1796 143.304 89.5106C144.446 91.3419 144.59 93.749 144.387 96.1207C144.199 98.3009 143.343 100.615 142.352 102.442C141.114 104.726 139.256 107.091 136.399 106.721C134.992 106.539 133.776 108.058 133.776 109.345C133.776 110.914 134.988 111.785 136.399 111.968C143.112 112.839 147.239 105.597 148.916 100.17C150.424 95.2956 150.346 87.7515 145.582 84.6347C142.335 82.5109 137.926 83.1025 135.11 85.6172C132.585 87.8696 136.306 91.5688 138.819 89.3256Z" fill="#211715"/>
<path d="M80.8478 91.1688C80.2444 93.13 80.6379 97.6425 84.3542 98.0269C89.2656 97.998 89.5266 92.5423 87.8738 89.9764C86.52 87.8762 82.54 87.0026 80.8478 91.1688Z" fill="#211715"/>
<path d="M120.179 91.1688C120.783 93.13 120.389 97.6425 116.674 98.0269C111.763 97.9967 111.5 92.5423 113.155 89.9764C114.508 87.8762 118.487 87.0026 120.179 91.1688Z" fill="#211715"/>
<path d="M74.934 139.066C77.2835 156.74 92.2733 201.037 95.6656 202.93C98.6748 204.609 102.02 204.609 105.029 202.93C108.008 201.268 120.533 165.643 124.829 146.542C125.557 144.003 126.12 141.735 126.456 139.877C127.507 141.261 128.934 143.456 131.22 145.929C137.201 148.309 146.547 152.177 151.157 154.524C152.56 155.244 156.471 156.981 158.776 158.719C165.226 163.583 166.974 170.361 168.833 181.11C172.208 203.138 178.781 280.626 180.41 299.427C180.6 301.615 179.585 303.796 177.491 304.464C171.092 306.505 163.139 307.915 153.825 310.067C153.825 310.067 153.174 307.4 152.417 304.277C144.623 304.879 130.424 305.746 122.955 304.507C117.7 303.626 114.109 302.622 110.771 299.768C107.355 296.836 105.045 293.601 103.742 289.342C103.249 287.726 102.165 282.753 101.41 277.969C101.336 277.508 100.963 277.096 100.599 277.112C100.236 277.095 99.862 277.507 99.7885 277.969C99.0329 282.751 97.9494 287.726 97.4561 289.342C96.1535 293.601 93.8435 296.835 90.4276 299.768C87.0891 302.622 83.4974 303.626 78.2424 304.507C72.5794 305.447 63.0479 305.175 55.3713 304.727C52.8383 304.578 50.5085 304.412 48.5854 304.262C48.4805 304.253 48.3808 304.232 48.2877 304.2C47.763 307.03 47.1976 310.068 47.1976 310.068C37.8852 307.917 29.9318 306.507 23.5316 304.465C21.4393 303.798 20.424 301.618 20.6129 299.428C20.8306 296.919 21.1363 293.364 21.5101 289.035C23.9396 260.931 29.2641 200.199 32.1894 181.111C34.0482 170.363 35.7968 163.585 42.2469 158.72C44.5517 156.982 48.4621 155.244 49.8658 154.525C54.5462 152.143 64.1065 148.192 70.0739 145.823C72.1885 143.544 73.638 141.512 74.7255 140.146C74.8147 140.59 74.9144 141.056 75.0193 141.529" fill="#7ABEE6"/>
<path d="M41.2815 158.159C42.2168 170.205 43.3791 182.235 44.5649 194.258C45.9908 208.719 47.5099 223.172 49.408 237.581C49.4448 237.857 49.4159 238.523 49.4422 237.922C49.4382 238.011 49.4343 238.102 49.4251 238.19C49.391 238.513 49.3884 238.843 49.37 239.168C49.3202 240.113 49.2742 241.057 49.2283 242.002C49.0827 244.986 48.9371 247.971 48.7836 250.954C48.4137 258.161 48.0307 265.373 47.4377 272.565C46.69 281.627 45.6485 290.661 44.9362 299.728C44.7564 302.014 44.2239 304.711 46.4788 306.192C47.9756 307.175 50.1479 307.009 51.8847 307.128C55.9185 307.406 59.9575 307.622 63.9991 307.716C71.8265 307.897 80.3348 307.914 87.6165 304.648C91.4391 302.932 94.6556 299.809 96.9998 296.378C99.239 293.103 100.254 289.372 101.054 285.543C101.545 283.199 101.641 280.467 102.482 278.239L101.807 279.397L102.101 279.084L100.943 279.758L101.298 279.646H99.904L100.26 279.758L99.1012 279.084L99.3951 279.397L98.7208 278.239C99.5315 280.39 99.6246 283.02 100.094 285.284C100.442 286.962 100.779 288.661 101.296 290.295C102.643 294.563 105.175 298.308 108.513 301.272C114.559 306.64 123.062 307.573 130.843 307.737C135.027 307.825 139.217 307.694 143.396 307.484C145.301 307.388 147.206 307.274 149.108 307.144C150.889 307.022 153.194 307.196 154.724 306.192C156.907 304.758 156.459 302.206 156.286 299.983C156.117 297.811 155.936 295.638 155.747 293.469C155.321 288.586 154.852 283.709 154.364 278.833C153.045 265.673 152.532 252.461 151.838 239.259C151.729 237.186 152.101 235.165 152.351 233.105C152.752 229.792 153.133 226.476 153.502 223.158C154.345 215.6 155.129 208.034 155.887 200.467C157.193 187.442 158.452 174.411 159.529 161.365C159.604 160.455 159.677 159.544 159.748 158.634C160.009 155.266 154.76 155.283 154.501 158.634C153.092 176.768 151.262 194.878 149.356 212.967C148.834 217.921 148.296 222.873 147.725 227.823C147.468 230.057 147.203 232.291 146.928 234.522C146.76 235.884 146.475 237.252 146.554 238.624C147.03 246.93 147.357 255.244 147.876 263.548C148.253 269.574 148.796 275.573 149.387 281.582C149.76 285.364 150.118 289.149 150.45 292.935C150.597 294.602 150.737 296.268 150.874 297.937C150.943 298.789 151.01 299.642 151.077 300.495C151.129 301.175 151.396 302.288 151.14 302.907L151.814 301.749C151.899 301.648 152.812 301.68 151.89 301.697C151.703 301.701 151.512 301.726 151.325 301.739C150.863 301.774 150.401 301.808 149.94 301.84C148.856 301.917 147.773 301.989 146.688 302.056C144.443 302.193 142.199 302.307 139.952 302.389C135.438 302.553 130.894 302.637 126.385 302.285C122.388 301.973 117.975 301.282 114.481 299.216C110.612 296.928 107.564 292.936 106.274 288.649C105.728 286.834 105.365 284.954 104.991 283.098C104.722 281.76 104.47 280.418 104.24 279.072C103.988 277.605 103.85 276.118 102.547 275.169C101.495 274.403 100.064 274.297 98.9228 274.965C97.5232 275.783 97.2634 277.317 97.0155 278.773C96.5774 281.349 96.0802 283.92 95.4886 286.466C94.4811 290.803 92.4977 294.379 89.1776 297.386C85.8574 300.392 81.5233 301.41 77.2022 302.037C72.6162 302.702 67.8689 302.578 63.25 302.453C60.6435 302.382 58.0383 302.263 55.4344 302.111C54.2512 302.041 53.0679 301.966 51.886 301.885C51.3456 301.848 50.8051 301.809 50.2646 301.77C50.0718 301.755 49.879 301.741 49.6875 301.726C49.5012 301.712 49.3162 301.699 49.1299 301.684C48.7994 301.653 48.8846 301.674 49.3884 301.749L50.0626 302.907C49.6442 301.897 50.1754 299.839 50.266 298.709C50.3919 297.142 50.5231 295.573 50.6582 294.005C50.9481 290.655 51.259 287.307 51.583 283.959C52.1169 278.445 52.6928 272.939 53.0732 267.41C53.6976 258.33 54.1121 249.238 54.5699 240.15C54.7274 237.034 54.1974 234.185 53.8117 231.079C53.207 226.22 52.6521 221.354 52.1182 216.488C50.9507 205.846 49.8855 195.193 48.8742 184.536C48.0399 175.751 47.216 166.962 46.5326 158.164C46.2729 154.819 41.0231 154.792 41.2855 158.164L41.2815 158.159Z" fill="#211715"/>
<path d="M47.8942 307.543C42.8898 306.393 37.8551 305.371 32.8507 304.22C30.7137 303.728 28.5821 303.212 26.4714 302.613C24.9143 302.173 23.3664 302.028 23.2261 300.133C23.0975 298.397 23.4976 296.486 23.6458 294.755C23.8334 292.574 24.021 290.394 24.2099 288.213C25.2724 275.913 26.3534 263.617 27.4697 251.321C28.7303 237.445 30.0264 223.573 31.451 209.713C32.0413 203.962 32.6539 198.213 33.3281 192.472C33.5984 190.167 33.8817 187.865 34.1834 185.564C34.207 185.38 34.2779 184.857 34.2136 185.33C34.2438 185.106 34.2739 184.882 34.3054 184.657C34.3736 184.162 34.4432 183.667 34.5153 183.171C34.7239 181.727 34.9784 180.292 35.2486 178.858C36.542 171.989 38.2513 164.415 44.5085 160.337C47.4391 158.427 50.729 156.952 53.8983 155.478C57.65 153.732 61.4699 152.129 65.2977 150.56C67.1172 149.814 68.9419 149.079 70.7692 148.355C72.0863 147.833 73.0058 146.6 72.6018 145.128C72.2568 143.875 70.6997 142.771 69.3748 143.295C61.8989 146.257 54.4912 149.364 47.262 152.888C43.6086 154.67 40.0327 156.602 37.3239 159.708C34.8249 162.573 33.1852 165.971 32.0544 169.581C30.2074 175.477 29.419 181.68 28.6477 187.794C27.9551 193.285 27.3516 198.788 26.7679 204.291C25.2672 218.458 23.9305 232.643 22.6305 246.83C21.4276 259.953 20.2706 273.08 19.1333 286.209C18.7699 290.399 18.4105 294.589 18.0484 298.78C17.891 300.602 18.0891 302.436 19.0637 304.033C20.348 306.136 22.3629 306.892 24.6139 307.544C29.1225 308.85 33.7282 309.803 38.3129 310.794C41.0428 311.384 43.7726 311.98 46.4946 312.605C49.7806 313.361 51.1842 308.304 47.889 307.546L47.8942 307.543Z" fill="#211715"/>
<path d="M154.527 312.603C159.705 311.412 164.914 310.364 170.089 309.161C172.283 308.651 174.471 308.109 176.633 307.477C178.795 306.844 180.725 306.049 181.957 304.032C183.428 301.623 182.982 298.896 182.754 296.249C182.57 294.117 182.387 291.986 182.203 289.853C181.124 277.345 180.027 264.839 178.894 252.336C177.588 237.936 176.245 223.54 174.763 209.158C173.606 197.929 172.716 186.515 170.438 175.445C168.865 167.803 166.105 160.447 159.361 155.935C156.281 153.874 152.752 152.321 149.389 150.769C145.422 148.939 141.388 147.252 137.348 145.593C135.452 144.815 133.552 144.049 131.647 143.293C130.328 142.771 128.766 143.865 128.42 145.126C128.011 146.617 128.93 147.829 130.252 148.353C137.309 151.148 144.289 154.09 151.111 157.417C154.494 159.067 157.801 160.756 160.237 163.71C162.361 166.283 163.539 169.488 164.4 172.671C165.34 176.144 166.007 179.712 166.521 183.272C166.582 183.697 166.641 184.121 166.7 184.546C166.732 184.769 166.762 184.992 166.792 185.217C166.834 185.523 166.78 185.13 166.775 185.093C166.796 185.249 166.817 185.407 166.838 185.563C166.981 186.654 167.122 187.746 167.257 188.838C167.93 194.276 168.525 199.724 169.098 205.173C170.539 218.842 171.83 232.525 173.085 246.212C174.252 258.943 175.378 271.678 176.482 284.414C176.859 288.752 177.231 293.091 177.605 297.43C177.681 298.306 177.86 299.254 177.796 300.131C177.655 302.026 176.107 302.17 174.55 302.611C170.093 303.873 165.547 304.814 161.02 305.792C158.386 306.362 155.754 306.937 153.127 307.542C149.837 308.299 151.231 313.359 154.522 312.602L154.527 312.603Z" fill="#211715"/>
<path d="M121.05 143.314C124.045 145.231 126.881 147.399 129.581 149.709C131.597 151.435 134.3 153.52 135.234 155.726L134.969 153.705C135.04 153.209 135.85 152.477 135.16 153.122C134.861 153.402 134.571 153.69 134.272 153.97C133.466 154.719 132.645 155.451 131.822 156.181C130.154 157.665 128.468 159.128 126.802 160.614C125.772 161.533 125.805 163.4 126.802 164.324C127.937 165.376 128.956 166.567 129.977 167.728C130.551 168.381 131.113 169.046 131.672 169.712C131.794 169.861 131.914 170.009 132.034 170.158C131.884 169.959 131.891 169.967 132.052 170.183C132.289 170.426 132.414 171.022 132.108 170.08V168.685C132.327 167.679 132.188 168.447 131.929 168.907C131.594 169.501 131.245 170.088 130.898 170.674C129.646 172.783 128.366 174.876 127.078 176.963C123.218 183.209 119.262 189.395 115.206 195.514C113.335 198.337 117.878 200.967 119.737 198.163C125.17 189.963 130.491 181.667 135.502 173.201C136.593 171.356 137.947 169.653 136.583 167.536C134.985 165.057 132.671 162.617 130.512 160.615V164.325C132.68 162.389 134.884 160.493 137.039 158.541C139.027 156.743 141.139 155.107 139.317 152.25C137.618 149.586 134.997 147.423 132.602 145.416C129.768 143.042 126.811 140.774 123.697 138.782C120.844 136.956 118.21 141.496 121.049 143.313L121.05 143.314Z" fill="#211715"/>
<path d="M84.4655 194.243C80.6115 188.425 76.9148 182.502 73.3691 176.492C72.2409 174.578 71.1259 172.657 70.0437 170.717C69.7105 170.122 69.3786 169.525 69.0612 168.921C68.7844 168.395 68.7424 167.894 68.9051 168.687V170.081C68.5679 171.062 68.7371 170.396 68.9667 170.185C68.5299 170.587 69.271 169.811 69.3511 169.714C69.9033 169.041 70.474 168.384 71.0472 167.729C72.0652 166.569 73.0831 165.381 74.2112 164.325C75.2043 163.395 75.2449 161.537 74.2112 160.615C72.5479 159.129 70.8636 157.666 69.1976 156.183C68.3764 155.452 67.5565 154.72 66.7524 153.971C66.4533 153.693 66.1634 153.404 65.8656 153.124C65.215 152.512 65.9837 153.189 66.0572 153.706L65.7922 155.728C66.7721 153.407 69.2461 151.494 71.1968 149.792C73.9515 147.386 76.8807 145.172 79.9766 143.224C82.8284 141.429 80.1969 136.888 77.3281 138.693C74.0565 140.752 70.9541 143.109 68.0183 145.623C65.699 147.608 63.0742 149.821 61.5394 152.512C59.9718 155.262 62.1166 156.852 63.9819 158.544C66.1332 160.496 68.3344 162.393 70.5002 164.328V160.618C68.3423 162.638 66.3182 164.995 64.5617 167.371C63.086 169.366 64.2272 171.047 65.2478 172.892C69.7879 181.095 74.7583 189.08 79.9346 196.894C81.7908 199.697 86.3374 197.072 84.4655 194.246V194.243Z" fill="#211715"/>
<path d="M111.538 189.214C108.645 196.821 106.155 202.302 105.028 202.93C102.019 204.609 98.6737 204.609 95.6645 202.93C92.7549 201.306 81.3135 168.488 76.6343 148.028C77.9094 148.87 78.6532 149.36 78.6532 149.36C85.1282 153.629 93.5092 155.175 100.371 155.175C108.45 155.175 117.432 153.41 122.375 149.36C122.375 149.36 123.246 148.646 124.603 147.532C121.837 159.42 116.17 177.041 111.538 189.214Z" fill="white"/>
<path d="M77.3294 151.627C84.3133 156.135 92.9292 157.91 101.165 157.793C109.096 157.68 117.864 156.281 124.23 151.216C125.34 150.333 125.152 148.427 124.23 147.506C123.133 146.41 121.632 146.621 120.52 147.506C118.053 149.469 114.871 150.521 111.852 151.258C108.181 152.155 104.41 152.534 100.636 152.551C93.4434 152.583 86.0764 151.032 79.9792 147.096C77.1339 145.259 74.4985 149.799 77.3294 151.627Z" fill="#211715"/>
<path d="M71.8975 139.903C73.3523 150.656 76.654 161.26 79.8876 171.584C82.9769 181.448 86.1514 191.534 90.6377 200.871C91.1532 201.945 91.6924 203.017 92.3968 203.982C94.1244 206.353 97.2439 207.246 100.081 207.33C102.637 207.405 106.013 206.66 107.783 204.642C108.671 203.63 109.302 202.403 109.893 201.204C114.274 192.334 117.379 182.709 120.447 173.329C124.019 162.407 127.794 151.132 129.241 139.686C129.455 137.997 127.641 136.538 126.093 136.538C124.214 136.538 123.158 137.992 122.944 139.686C122.85 140.431 123.059 138.94 122.941 139.709C122.912 139.898 122.884 140.086 122.855 140.275C122.786 140.716 122.711 141.156 122.632 141.594C122.456 142.571 122.261 143.544 122.052 144.515C121.564 146.79 121.011 149.051 120.424 151.302C119.071 156.501 117.546 161.656 115.937 166.781C114.28 172.055 112.528 177.298 110.666 182.502C109.816 184.879 108.942 187.247 108.032 189.601C107.663 190.555 107.288 191.507 106.905 192.456C106.727 192.896 106.546 193.337 106.365 193.777C106.329 193.863 105.974 194.711 106.262 194.026C106.144 194.304 106.026 194.582 105.906 194.859C105.3 196.259 104.675 197.656 103.956 199.002C103.714 199.455 103.446 199.89 103.185 200.333C103.016 200.619 102.473 201.152 103.269 200.265C103.164 200.382 103.066 200.505 102.944 200.605C104.207 199.581 102.596 200.626 102.141 200.766C101.377 201.001 100.615 201.102 99.815 201.027C99.0883 200.959 98.4402 200.706 97.7568 200.477C96.3112 199.993 97.9837 200.841 97.5771 200.447C97.0445 199.932 97.9509 201.14 97.64 200.543C97.543 200.357 97.4039 200.185 97.2937 200.005C96.9763 199.488 96.6969 198.949 96.424 198.407C96.1079 197.779 95.8088 197.14 95.5189 196.499C95.3182 196.055 95.124 195.609 94.9299 195.163C94.8604 195.006 94.7935 194.847 94.7266 194.688C95.0243 195.386 94.5705 194.312 94.5206 194.191C93.6889 192.174 92.9032 190.136 92.1423 188.091C90.2166 182.919 88.4418 177.692 86.7587 172.435C83.1972 161.307 79.54 149.842 77.9685 138.226C77.7402 136.539 75.5771 135.62 74.0961 136.028C72.2766 136.528 71.6679 138.208 71.8975 139.9V139.903Z" fill="#3D8DCC"/>
<path d="M98.1187 198.78H103.083C104.192 198.78 105.092 199.68 105.092 200.79V211.453C105.092 212.563 104.192 213.463 103.083 213.463H98.1148C97.0076 213.463 96.1091 212.564 96.1091 211.457V200.788C96.1091 199.679 97.009 198.779 98.1187 198.779V198.78Z" fill="white"/>
<path d="M93.4856 200.789V208.925C93.4856 210.083 93.3439 211.394 93.6155 212.534C94.0274 214.259 95.4743 215.677 97.2281 215.985C97.9562 216.114 98.6711 216.087 99.4057 216.087C100.934 216.087 102.655 216.296 104.162 215.958C106.067 215.529 107.406 213.884 107.659 211.996C107.716 211.575 107.716 211.179 107.716 210.756V201.566C107.716 200.94 107.732 200.33 107.586 199.71C107.068 197.501 105.066 196.173 102.873 196.156C102.062 196.15 101.251 196.156 100.441 196.156C99.3769 196.156 98.2776 196.075 97.2268 196.258C95.0112 196.648 93.5892 198.62 93.4856 200.789C93.42 202.163 94.7384 203.475 96.1092 203.413C97.5863 203.347 98.6632 202.26 98.7328 200.789C98.7052 201.382 98.6488 201.081 98.7196 200.923C98.4612 201.507 98.6003 201.154 98.6803 201.048C98.3235 201.525 98.5045 201.258 98.6173 201.162C98.5491 201.22 98.1425 201.469 98.5347 201.262C98.4612 201.301 97.9877 201.466 98.4337 201.347C98.2815 201.388 97.8355 201.368 98.3694 201.405C98.7511 201.431 99.146 201.405 99.529 201.405C100.173 201.405 100.819 201.405 101.463 201.405C101.784 201.405 102.104 201.405 102.425 201.405C102.566 201.405 102.731 201.419 102.874 201.405C103.37 201.353 102.624 201.287 102.864 201.369C103.206 201.487 102.446 201.117 102.749 201.308C103.051 201.496 102.399 200.976 102.65 201.226C102.9 201.477 102.378 200.827 102.567 201.128C102.759 201.431 102.386 200.673 102.504 201.015C102.58 201.233 102.511 200.565 102.469 200.917C102.427 201.271 102.469 201.658 102.469 202.015V210.419C102.469 210.716 102.403 211.097 102.469 211.389C102.469 211.391 102.465 211.449 102.469 211.452C102.47 211.452 102.524 211.147 102.526 211.138C102.407 211.584 102.572 211.111 102.612 211.037C102.536 211.183 102.347 211.382 102.711 210.954C102.614 211.067 102.347 211.25 102.826 210.893C102.718 210.973 102.366 211.112 102.95 210.853C102.555 211.028 103.052 210.676 103.08 210.84C103.064 210.748 99.8045 210.84 99.5382 210.84H98.6173C98.5189 210.84 98.2225 210.785 98.1425 210.84C98.2172 210.789 98.6055 211.007 98.254 210.853C98.3523 210.897 98.7196 211.149 98.3786 210.893C98.456 210.95 98.7734 211.284 98.4927 210.954C98.5504 211.023 98.801 211.429 98.5924 211.037C98.6318 211.111 98.797 211.584 98.6777 211.138C98.6869 211.173 98.6816 211.509 98.7354 211.42C98.8338 211.256 98.7354 210.738 98.7354 210.55V200.788C98.7354 199.416 97.5285 198.102 96.1118 198.164C94.6951 198.227 93.4882 199.318 93.4882 200.788L93.4856 200.789Z" fill="#211715"/>
<path d="M137.967 108.468C135.047 108.468 133.029 110.522 133.029 112.925C133.029 115.614 135.092 117.465 137.967 117.465C140.954 117.465 142.905 115.596 142.905 112.925C142.905 110.506 140.877 108.468 137.967 108.468Z" fill="white"/>
<path d="M137.967 105.843C134.723 105.883 131.861 107.707 130.748 110.795C130.275 112.11 130.294 113.744 130.718 115.068C131.21 116.608 132.153 117.837 133.464 118.77C135.863 120.478 139.36 120.465 141.917 119.137C144.688 117.697 145.891 114.525 145.381 111.55C144.779 108.041 141.336 105.884 137.967 105.843C136.595 105.826 135.28 107.062 135.343 108.467C135.408 109.902 136.496 111.072 137.967 111.091C138.115 111.092 138.263 111.105 138.412 111.106C138.848 111.113 138.166 111.06 138.143 111.06C138.364 111.063 138.61 111.146 138.822 111.206C138.952 111.243 139.078 111.29 139.207 111.331C139.612 111.458 138.943 111.217 138.945 111.217C139.136 111.228 139.458 111.485 139.617 111.592C139.695 111.643 140.042 111.904 139.655 111.609C139.272 111.318 139.603 111.58 139.672 111.644C139.822 111.785 139.944 111.949 140.089 112.09C139.596 111.61 139.81 111.695 139.929 111.9C139.98 111.987 140.038 112.069 140.088 112.156C140.137 112.242 140.175 112.338 140.227 112.422C140.323 112.576 139.979 111.733 140.164 112.297C140.192 112.38 140.36 112.844 140.311 112.885C140.29 112.902 140.249 112.133 140.265 112.552C140.27 112.677 140.281 112.8 140.281 112.924C140.281 113.21 140.11 113.865 140.319 112.991C140.266 113.209 140.238 113.43 140.172 113.646C140.143 113.739 140.099 113.834 140.078 113.928C140.23 113.277 140.302 113.454 140.179 113.677C140.085 113.847 139.988 114.011 139.889 114.177C139.757 114.392 139.569 114.417 140.057 113.967C140.003 114.017 139.956 114.085 139.904 114.139C139.826 114.223 139.743 114.304 139.658 114.382C139.456 114.564 139.243 114.588 139.826 114.265C139.653 114.361 139.496 114.486 139.321 114.58C139.239 114.623 139.085 114.733 138.991 114.74C138.978 114.74 139.67 114.497 139.27 114.613C139.062 114.673 138.86 114.743 138.649 114.79C138.532 114.816 138.374 114.871 138.254 114.863L138.679 114.804C138.586 114.815 138.493 114.823 138.398 114.828C138.16 114.844 137.92 114.846 137.681 114.836C137.588 114.832 137.495 114.821 137.402 114.817C136.874 114.794 138.068 114.942 137.559 114.84C137.344 114.796 137.131 114.75 136.921 114.686C136.84 114.661 136.76 114.63 136.679 114.605C136.252 114.474 137.324 114.924 136.731 114.621C136.55 114.527 136.381 114.417 136.209 114.31C136.032 114.198 135.99 114.03 136.453 114.504C136.372 114.42 136.272 114.349 136.187 114.268C136.088 114.173 135.69 113.692 135.999 114.095C136.298 114.483 136.05 114.155 135.998 114.074C135.934 113.974 135.873 113.873 135.817 113.768C135.697 113.545 135.678 113.248 135.88 113.961C135.859 113.885 135.822 113.809 135.796 113.733C135.73 113.536 135.688 113.335 135.641 113.133C135.527 112.648 135.683 113.828 135.667 113.322C135.665 113.234 135.656 113.146 135.654 113.058C135.652 112.931 135.653 112.804 135.659 112.678C135.677 112.377 135.823 112.254 135.623 112.89C135.695 112.663 135.739 112.421 135.809 112.191C135.927 111.798 135.69 112.511 135.68 112.485C135.657 112.416 135.867 112.124 135.905 112.06C135.947 111.992 135.993 111.926 136.035 111.857C136.272 111.47 135.564 112.36 135.96 111.958C136.113 111.8 136.302 111.652 136.443 111.485C136.039 111.962 136.066 111.76 136.311 111.596C136.418 111.525 136.527 111.458 136.637 111.396C136.73 111.344 136.835 111.304 136.924 111.248C137.109 111.161 137 111.205 136.597 111.38C136.68 111.348 136.764 111.316 136.848 111.289C137.11 111.199 137.377 111.143 137.647 111.085C137.901 111.032 137.863 111.182 137.374 111.121C137.556 111.144 137.779 111.095 137.964 111.092C139.336 111.075 140.652 109.897 140.588 108.468C140.525 107.061 139.435 105.826 137.964 105.845L137.967 105.843Z" fill="#211715"/>
</g>
</svg>
