<svg width="208" height="208" viewBox="0 0 208 208" fill="none" xmlns="http://www.w3.org/2000/svg">
<circle cx="104" cy="100" r="100" fill="#F8FAFC"/>
<mask id="mask0_299_391" style="mask-type:alpha" maskUnits="userSpaceOnUse" x="4" y="0" width="200" height="200">
<circle cx="104" cy="100" r="100" fill="#D9D9D9"/>
</mask>
<g mask="url(#mask0_299_391)">
<path d="M102.217 218.706C95.9439 201.197 81.5875 162.935 77.0789 147.269H77.8559C77.2734 145.695 78.0288 143.515 79.0556 142.326C80.7993 140.309 82.9968 137.391 84.779 135.399C85.5353 136.013 100.959 148.188 102.128 149.017L104.846 149.019C106.016 148.191 121.453 136.034 122.21 135.421C123.99 137.415 126.184 140.335 127.926 142.354C128.951 143.543 129.704 145.725 129.12 147.298H129.924C125.398 162.958 110.996 201.204 104.704 218.707" fill="white"/>
<path d="M140.758 87.9006C141.986 86.7206 143.641 86.2771 145.057 86.3269C148.139 86.4359 149.45 88.1026 150.014 89.0815C151.699 92.0033 151.627 97.3866 150.497 100.717C149.697 103.076 148.384 106.685 145.222 109.272C143.919 110.338 142.001 111.041 140.168 110.731C140.168 110.731 139.992 110.701 139.683 110.649C139.101 112.572 138.383 114.455 137.944 115.37C136.738 118.644 130.41 129.616 122.211 134.899C122.211 135.223 122.211 135.423 122.211 135.423C121.454 136.035 106.017 148.192 104.846 149.021L102.129 149.019C101.123 148.306 89.5864 139.209 85.881 136.289C81.6477 134.333 77.8596 131.147 74.2567 126.834C69.7011 121.381 67.1072 115.508 65.6745 110.643C63.7194 111.144 61.6065 110.419 60.2048 109.272C57.0424 106.685 55.7309 103.076 54.9295 100.717C53.7984 97.3866 53.7279 92.0024 55.4124 89.0815C55.9771 88.1026 57.2876 86.4359 60.3701 86.3269C61.7859 86.2771 63.4413 86.7206 64.6692 87.9006C64.6692 87.9006 63.9411 54.2114 102.714 54.2114C141.176 54.2114 140.758 87.9006 140.758 87.9006Z" fill="white"/>
<path d="M102.231 218.706C100.186 212.998 97.2817 205.084 94.1401 196.466C95.7832 181.343 97.1812 168.398 97.1812 167.91C97.1633 166.284 96.6663 164.678 96.1881 163.117C95.8978 162.187 95.2599 160.3 94.7254 158.534C97.2338 155.154 100.297 151.105 102.155 149.018L104.873 149.019C106.728 151.109 109.787 155.163 112.293 158.545C111.756 160.31 111.117 162.197 110.825 163.126C110.345 164.685 109.846 166.291 109.827 167.916C109.827 168.405 111.21 181.349 112.835 196.474C109.683 205.089 106.77 213 104.718 218.706L102.231 218.704V218.706Z" fill="#FEBE69"/>
<path d="M187.053 255.359C187.371 255.149 187.683 254.927 187.988 254.695C192.711 251.101 195.76 245.002 195.46 237.986C195.126 230.156 193.76 223.083 192.392 218.206C189.132 206.584 186.718 197.11 183.885 188.503C182.653 184.76 179.363 176.859 177.216 173.481C173.201 167.163 167.708 162.245 161.371 158.845C154.484 155.148 146.834 152.239 138.594 149.071C138.143 148.897 137.602 148.696 137.009 148.473C134.924 146.557 132.749 144.871 130.872 143.737C127.976 156.117 111.546 199.676 104.703 218.708L102.216 218.706C95.3953 199.666 79.0154 156.089 76.133 143.706C74.394 144.755 72.3976 146.276 70.4538 148.016C61.1528 151.047 53.7074 154.132 46.8312 157.6C40.4089 160.838 34.3031 166.445 30.3554 172.804C26.7769 178.57 19.7956 201.297 15.9512 216.378C14.6998 221.286 12.5502 229.842 12.2073 237.671C11.7902 247.175 17.8874 253.958 25.3151 257.146L42.9371 263.379L74.8102 238.62C93.5981 238.62 122.849 238.62 141.905 238.62L173.779 258.912L182.4 257.502C184.055 257.033 185.619 256.306 187.052 255.358L187.053 255.359Z" fill="#3D8DCC"/>
<path d="M129.554 148.083C133.578 149.746 137.725 151.135 141.787 152.705C146.914 154.686 152.031 156.71 156.972 159.123C161.388 161.28 165.54 163.777 169.118 167.174C172.317 170.211 174.973 173.71 176.941 177.658C180.821 185.437 183.259 193.731 185.595 202.073C187.051 207.275 188.455 212.492 189.907 217.695C191.214 222.376 192.209 227.121 192.742 231.955C193.316 237.171 193.756 242.496 191.258 247.308C189.274 251.13 185.962 254.107 181.801 255.328C179.022 256.144 180.205 260.496 183 259.677C192.13 256.999 197.83 248.024 197.734 238.706C197.617 227.413 194.286 216.642 191.324 205.862C188.815 196.734 186.344 187.612 182.498 178.938C180.617 174.695 178.424 170.825 175.409 167.268C172.071 163.328 167.969 159.992 163.484 157.438C157.892 154.254 151.85 151.831 145.873 149.482C140.858 147.51 135.729 145.793 130.751 143.735C129.626 143.269 128.272 144.238 127.978 145.309C127.622 146.605 128.422 147.616 129.552 148.083H129.554Z" fill="#211715"/>
<path d="M75.6952 143.704C70.0789 145.676 64.4166 147.586 58.8773 149.771C53.8539 151.752 48.7346 153.854 44.0409 156.542C39.2364 159.293 34.9194 163.045 31.4724 167.373C29.0777 170.38 27.3537 173.434 25.8984 176.963C22.4298 185.373 19.8209 194.175 17.2955 202.903C14.51 212.529 11.714 222.294 10.4373 232.252C9.68755 238.101 9.68661 243.805 12.6779 249.072C15.2381 253.58 19.4601 257.035 24.1764 259.093C25.2915 259.58 26.5965 259.421 27.2616 258.284C27.8206 257.329 27.5745 255.69 26.4527 255.199C22.707 253.564 19.2788 251.09 17.0597 247.604C14.5306 243.631 14.2375 239.344 14.6659 234.762C15.5565 225.235 18.3111 215.843 20.9107 206.665C23.3778 197.955 25.9905 189.24 29.2148 180.776C30.2502 178.057 31.1399 175.694 32.8262 173.124C35.6663 168.798 39.444 164.975 43.7206 162.063C48.3175 158.933 53.6369 156.717 58.7749 154.639C64.7275 152.231 70.8371 150.179 76.8939 148.053C78.042 147.65 78.8077 146.512 78.4685 145.28C78.1623 144.166 76.8488 143.298 75.6952 143.704Z" fill="#211715"/>
<path d="M83.1837 133.805C82.0582 135.074 80.9994 136.399 79.9369 137.72C78.9128 138.993 77.7601 140.209 76.8281 141.549C75.2977 143.752 74.8956 146.705 76.27 149.052C78.5182 152.888 81.1366 156.567 83.9504 160.006C85.6527 162.086 87.4998 164.135 89.7611 165.621C90.8622 166.344 92.1474 165.744 92.8464 164.812C96.4155 160.051 99.7742 155.075 103.721 150.612C104.749 149.45 104.489 147.948 103.264 147.071C103.133 146.977 103.005 146.878 102.876 146.781C102.719 146.663 101.959 146.074 102.54 146.524C101.874 146.007 101.21 145.49 100.546 144.971C98.6252 143.47 96.7096 141.964 94.794 140.457C91.9839 138.244 89.1542 136.052 86.3714 133.806C85.4244 133.041 84.1082 132.881 83.1828 133.806C82.3918 134.597 82.2302 136.226 83.1828 136.995C86.0304 139.294 88.924 141.536 91.7998 143.799C94.8447 146.196 97.8379 148.706 100.988 150.966L100.531 147.425C96.3319 152.175 92.7506 157.471 88.9522 162.538L92.0375 161.729C91.1967 161.176 90.3868 160.419 89.4736 159.471C88.4862 158.445 87.5636 157.357 86.6749 156.246C84.9678 154.109 83.4026 151.853 81.9079 149.564C81.3687 148.738 80.8378 147.906 80.3305 147.06C80.1943 146.832 80.0581 146.604 79.9284 146.372C79.8204 146.178 79.8955 146.086 79.9341 146.37C79.8993 146.111 79.9012 145.852 79.9425 145.59C80.1887 144.034 81.5659 142.842 82.5111 141.673C83.7813 140.101 85.0298 138.509 86.3714 136.997C88.2908 134.832 85.1125 131.631 83.1828 133.808L83.1837 133.805Z" fill="#211715"/>
<path d="M120.615 137.015C121.955 138.53 123.201 140.123 124.471 141.697C125.415 142.867 126.789 144.061 127.033 145.617C127.075 145.879 127.076 146.139 127.039 146.397C127.079 146.112 127.152 146.207 127.044 146.399C126.914 146.631 126.778 146.859 126.642 147.087C126.134 147.932 125.602 148.764 125.061 149.589C123.564 151.876 121.996 154.13 120.286 156.265C119.396 157.375 118.472 158.462 117.484 159.487C116.569 160.435 115.759 161.189 114.917 161.741L118.002 162.55C114.209 157.478 110.634 152.179 106.44 147.424L105.983 150.965C109.135 148.709 112.131 146.202 115.179 143.809C118.058 141.549 120.954 139.31 123.803 137.014C124.752 136.25 124.599 134.622 123.803 133.826C122.866 132.888 121.567 133.059 120.615 133.826C117.829 136.069 114.998 138.258 112.185 140.467C110.294 141.951 108.402 143.436 106.507 144.914C106.14 145.2 105.773 145.486 105.405 145.771C105.234 145.905 105.062 146.038 104.89 146.172C104.381 146.566 105.064 146.038 104.783 146.254C104.426 146.529 104.072 146.81 103.706 147.071C102.48 147.948 102.224 149.45 103.249 150.612C107.19 155.08 110.543 160.06 114.107 164.824C114.807 165.76 116.08 166.362 117.192 165.633C121.349 162.909 124.427 158.439 127.223 154.426C128.349 152.811 129.44 151.169 130.46 149.485C131.768 147.323 131.832 145.068 130.787 142.729C130.05 141.081 128.658 139.748 127.536 138.355C126.309 136.83 125.1 135.291 123.803 133.825C121.876 131.647 118.696 134.846 120.614 137.013L120.615 137.015Z" fill="#211715"/>
<path d="M119.453 217.629C129.321 201.316 136.957 187.761 144.945 171.192C145.101 170.842 145.285 170.482 145.266 170.094C145.247 169.638 145.014 169.19 144.694 168.86C142.49 166.536 140.072 164.31 137.712 162.171C139.811 161.007 141.91 159.852 144.01 158.697C144.243 158.571 144.496 158.415 144.564 158.153C144.623 157.93 144.516 157.706 144.409 157.493C142.051 152.779 135.535 146.557 130.873 143.737C127.977 156.117 111.547 199.676 104.704 218.708" fill="#3D8DCC"/>
<path d="M102.217 218.706C95.3962 199.666 79.0162 156.089 76.1339 143.706C71.4683 146.52 64.9455 152.735 62.5817 157.446C62.4746 157.659 62.3675 157.882 62.4258 158.106C62.4934 158.368 62.7461 158.524 62.9791 158.65C65.077 159.807 67.1749 160.965 69.2728 162.132C66.9109 164.268 64.4898 166.491 62.283 168.812C61.9626 169.142 61.7287 169.589 61.7089 170.046C61.6892 170.435 61.8733 170.794 62.0293 171.144C69.998 187.723 77.6182 201.287 87.4679 217.611" fill="#3D8DCC"/>
<path d="M92.5515 159.132C93.1067 160.952 93.738 162.748 94.2745 164.573C94.6221 165.754 94.9791 166.959 94.9068 168.202C94.8062 169.925 94.5592 171.652 94.3778 173.368C93.5633 181.07 92.7225 188.769 91.8863 196.469C91.7548 197.682 93.0165 198.724 94.1411 198.724C95.4695 198.724 96.2634 197.685 96.3959 196.469C97.2414 188.684 98.0916 180.898 98.9146 173.11C99.0894 171.459 99.3327 169.796 99.422 168.138C99.6052 164.713 97.8831 161.15 96.9004 157.933C96.0558 155.165 91.7012 156.345 92.5515 159.132Z" fill="#211715"/>
<path d="M115.091 196.48C114.263 188.779 113.432 181.079 112.625 173.376C112.447 171.671 112.213 169.957 112.106 168.245C112.032 167.064 112.348 165.924 112.676 164.797C113.229 162.899 113.889 161.032 114.468 159.143C115.32 156.362 110.969 155.172 110.119 157.944C109.133 161.16 107.408 164.72 107.587 168.146C107.673 169.804 107.916 171.468 108.089 173.119C108.902 180.908 109.744 188.694 110.581 196.481C110.712 197.692 111.524 198.736 112.836 198.736C113.954 198.736 115.221 197.698 115.091 196.48Z" fill="#211715"/>
<path d="M109.635 163.716C105.613 163.716 101.592 163.796 97.5711 163.795C96.392 163.795 95.2618 164.832 95.3163 166.05C95.3708 167.268 96.3075 168.305 97.5711 168.305C101.593 168.305 105.614 168.225 109.635 168.226C110.814 168.226 111.944 167.189 111.89 165.971C111.835 164.754 110.899 163.716 109.635 163.716Z" fill="#211715"/>
<path d="M93.9643 28.0001C86.9069 29.2468 80.7175 32.0164 75.4705 35.9181C67.0038 42.2146 57.4173 53.4293 56.6497 71.5821C56.458 76.1179 57.0706 81.3452 58.5118 86.6205C59.0454 86.458 59.6598 86.3509 60.3673 86.3264C61.7831 86.2766 63.4385 86.7201 64.6664 87.9001L70.7467 82.7939C75.3098 77.7094 83.3641 70.0451 89.0161 67.08C89.6784 66.7324 90.5305 67.2031 90.7983 68.3098C91.0576 69.3799 91.0566 70.1926 90.9721 70.9611C90.8443 72.1289 91.9773 72.9782 92.9403 72.4436C96.9754 70.202 104.164 65.6905 109.262 63.5429C112.384 63.4048 115.534 63.9111 116.821 64.4711C119.254 65.5289 121.106 66.5455 123.784 68.85C128.372 72.7987 132.772 78.2149 134.72 83.1181L140.755 87.8991C141.984 86.7191 143.638 86.2757 145.054 86.3255C145.689 86.348 146.249 86.4363 146.742 86.5716C148.168 80.9478 148.775 76.7408 148.557 71.5811C147.797 53.5843 138.727 42.4062 129.964 36.0806C122.512 30.7124 113.81 27.2598 102.6 27.2598C99.5919 27.2598 96.7105 27.5144 93.9615 28.0001H93.9643Z" fill="#645D5C"/>
<path d="M95.4902 120.306C97.8681 121.561 100.426 122.095 103.115 122.077C105.893 122.059 108.652 121.492 110.872 119.762C111.807 119.034 111.695 117.328 110.872 116.574C109.881 115.663 108.682 115.797 107.684 116.574C108.384 116.028 107.907 116.398 107.728 116.514C107.579 116.609 107.424 116.699 107.267 116.781C107.06 116.889 106.534 117.02 107.173 116.847C106.958 116.905 106.749 117.011 106.536 117.078C105.953 117.265 105.357 117.388 104.754 117.485C105.088 117.431 104.886 117.467 104.668 117.489C104.493 117.506 104.319 117.521 104.143 117.532C103.721 117.559 103.298 117.57 102.876 117.568C102.498 117.566 102.12 117.553 101.743 117.527C101.569 117.515 101.396 117.502 101.223 117.484C101.14 117.476 100.505 117.363 101.056 117.468C100.495 117.361 99.9396 117.262 99.391 117.099C99.158 117.029 98.9306 116.946 98.7005 116.867C98.1537 116.68 99.1073 117.068 98.6131 116.835C98.3275 116.701 98.0466 116.56 97.7666 116.412C96.7238 115.862 95.2676 116.113 94.6813 117.221C94.1308 118.263 94.3769 119.718 95.4902 120.306Z" fill="#211715"/>
<path d="M101.825 102.529C102.15 103.77 102.463 105.031 102.65 106.301L102.569 105.701C102.592 105.875 102.601 106.047 102.583 106.222L102.664 105.622C102.652 105.703 102.634 105.779 102.607 105.856L102.834 105.318C102.81 105.373 102.784 105.42 102.751 105.468L103.104 105.012C103.065 105.059 103.029 105.095 102.981 105.133L103.437 104.781C103.341 104.842 103.241 104.892 103.138 104.939L103.677 104.711C103.512 104.78 103.349 104.831 103.173 104.858L103.773 104.777C103.614 104.796 103.459 104.795 103.3 104.777L103.899 104.858C103.721 104.833 103.546 104.789 103.368 104.766C103.068 104.672 102.768 104.659 102.469 104.725C102.169 104.738 101.889 104.828 101.631 104.993C101.163 105.266 100.716 105.803 100.594 106.34C100.463 106.917 100.491 107.565 100.822 108.077C101.115 108.532 101.606 109.038 102.169 109.114C102.603 109.172 103.024 109.282 103.466 109.302C104.159 109.332 104.798 109.117 105.414 108.833C106.183 108.479 106.786 107.769 106.99 106.942C107.164 106.238 107.092 105.645 106.973 104.94C106.767 103.725 106.486 102.52 106.174 101.328C106.031 100.784 105.622 100.264 105.138 99.9809C104.654 99.6981 103.942 99.5778 103.401 99.7535C102.226 100.133 101.505 101.305 101.826 102.527L101.825 102.529Z" fill="#211715"/>
<path d="M82.108 91.7592C81.4776 93.8063 81.8891 98.516 85.7673 98.9172C90.8931 98.8862 91.1665 93.1929 89.4407 90.5153C88.0277 88.3235 83.8733 87.4122 82.108 91.7592Z" fill="#211715"/>
<path d="M123.317 91.76C123.947 93.8072 123.537 98.5168 119.658 98.9171C114.532 98.8861 114.258 93.1918 115.984 90.5152C117.397 88.3234 121.552 87.4121 123.317 91.76Z" fill="#211715"/>
<path d="M66.2627 86.3065C63.6087 83.938 59.83 83.4222 56.6142 84.9639C54.3434 86.0528 52.9849 88.3057 52.3836 90.676C50.9594 96.2876 52.3817 102.766 55.6296 107.517C57.796 110.686 61.1622 113.528 65.2584 112.986C66.4656 112.826 67.5132 112.064 67.5132 110.731C67.5132 109.637 66.4741 108.316 65.2584 108.477C62.1684 108.885 60.0799 106.389 58.7083 103.918C57.5433 101.82 56.6517 99.3813 56.4413 96.9828C56.2365 94.6454 56.2412 91.8072 57.6194 89.8061C57.874 89.4359 57.362 90.0259 57.7575 89.6539C57.921 89.5007 58.0675 89.326 58.2498 89.1935C58.0253 89.3579 58.588 89.0094 58.6416 88.9831C58.9225 88.845 59.2034 88.7557 59.5162 88.6881C60.7676 88.4156 62.1027 88.6279 63.075 89.496C65.2349 91.4229 68.4348 88.2446 66.2636 86.3074L66.2627 86.3065Z" fill="#211715"/>
<path d="M142.352 89.4955C143.325 88.6265 144.657 88.4141 145.911 88.6875C146.168 88.7439 146.425 88.8153 146.66 88.9205C146.76 88.9647 147.338 89.3132 147.177 89.193C147.357 89.3264 147.511 89.4964 147.669 89.6533C148.113 90.0921 147.491 89.3461 147.807 89.8055C149.184 91.8057 149.194 94.6448 148.986 96.9823C148.771 99.3836 147.884 101.816 146.719 103.918C145.348 106.39 143.258 108.885 140.168 108.476C138.959 108.316 137.914 109.627 137.914 110.731C137.914 112.082 138.956 112.825 140.168 112.986C146.942 113.882 151.068 106.496 152.762 101.042C154.266 96.2016 154.282 88.6199 149.618 85.4313C146.421 83.246 141.978 83.7965 139.165 86.3059C136.995 88.2422 140.194 91.4224 142.354 89.4946L142.352 89.4955Z" fill="#211715"/>
<path d="M138.226 107.257C137.654 110.025 136.579 112.747 135.646 115.087C135.502 115.448 135.85 114.652 135.666 115.034C135.59 115.192 135.521 115.354 135.446 115.513C135.258 115.91 135.06 116.302 134.855 116.691C134.399 117.557 133.912 118.407 133.405 119.244C130.66 123.773 127.312 128.016 123.214 131.399C121.006 133.222 118.488 134.653 115.723 135.295C112.897 135.951 114.093 140.3 116.922 139.644C122.788 138.28 127.67 134.001 131.493 129.537C134.62 125.885 137.551 121.78 139.53 117.375C139.674 117.053 139.811 116.727 139.947 116.4C140.003 116.265 140.215 115.764 139.972 116.331C140.291 115.585 140.611 114.844 140.897 114.085C141.584 112.252 142.179 110.372 142.575 108.454C143.159 105.622 138.814 104.412 138.226 107.257Z" fill="#211715"/>
<path d="M62.7423 108.32C64.4785 115.966 68.0701 123.111 73.1885 129.05C78.1368 134.79 84.5084 139.347 92.1389 140.482C93.3415 140.661 94.5628 140.181 94.9123 138.907C95.2045 137.843 94.5496 136.314 93.3377 136.134C86.3798 135.098 80.8885 131.096 76.3771 125.861C71.7614 120.506 68.6517 113.997 67.0902 107.121C66.4476 104.292 62.0997 105.489 62.7423 108.32Z" fill="#211715"/>
<path d="M129.119 32.7698C115.391 23.8606 97.4509 22.5369 82.4989 29.1932C70.4217 34.5699 60.8305 45.4332 56.7606 57.9688C53.7496 67.2425 53.7514 77.1316 56.1565 86.5359C56.8752 89.3459 61.2251 88.1546 60.5054 85.3371C56.9513 71.4373 59.503 56.304 68.8707 45.1917C72.6465 40.7123 76.9183 37.1582 82.0179 34.4346C88.6563 30.889 96.1685 29.3783 103.661 29.5258C111.987 29.6892 119.865 32.1357 126.843 36.664C129.285 38.2489 131.547 34.3463 129.119 32.7698Z" fill="#211715"/>
<path d="M149.079 86.536C151.001 78.6762 151.371 70.8249 149.767 62.8665C148.476 56.4611 145.856 50.268 142.014 44.9739C140.089 42.3218 137.919 39.8716 135.495 37.6666C133.351 35.7181 130.153 38.8982 132.306 40.8552C141.378 49.1002 146.145 60.6324 146.343 72.8411C146.412 77.096 145.739 81.2157 144.731 85.3372C144.041 88.1557 148.389 89.3582 149.08 86.536H149.079Z" fill="#211715"/>
<path d="M115.685 66.42C119.489 68.0857 122.58 70.5509 125.449 73.5338C128.279 76.4763 131.039 79.9947 132.548 83.7188C133.006 84.8462 134.05 85.6429 135.322 85.2934C136.391 84.9993 137.357 83.6549 136.896 82.52C135.077 78.033 132.181 74.0806 128.863 70.581C125.71 67.2552 122.176 64.3719 117.961 62.5258C116.847 62.0373 115.541 62.1989 114.876 63.3347C114.317 64.2911 114.563 65.9286 115.684 66.42H115.685Z" fill="#211715"/>
<path d="M72.343 84.389C76.8478 79.3862 81.8262 74.4736 87.418 70.6893C87.9977 70.2966 88.5886 69.918 89.1927 69.5638C89.3261 69.4859 89.5544 69.391 89.6794 69.2848C90.0016 69.0133 90.0242 69.3778 89.4792 69.2228C88.6356 68.9823 88.5999 68.443 88.737 69.4173C88.8526 70.2393 88.6271 71.0539 88.7953 71.8712C89.0048 72.8906 89.6108 73.8235 90.5202 74.3628C92.3005 75.4178 93.9352 74.4868 95.5061 73.583C96.9379 72.759 98.3602 71.9191 99.7892 71.0896C103.243 69.0838 106.723 67.0601 110.402 65.4912C111.522 65.013 111.771 63.3632 111.211 62.4059C110.532 61.2465 109.251 61.1169 108.125 61.597C104.834 63.0006 101.707 64.7771 98.6092 66.5603C97.1192 67.419 95.6367 68.2918 94.1495 69.1561C93.52 69.5216 92.8896 69.8861 92.2554 70.244C92.2 70.275 91.8007 70.4911 91.8026 70.4977L92.2987 70.4836C92.6312 70.3427 92.8624 70.4197 92.9939 70.7157C93.675 70.9778 92.9704 71.068 93.241 70.8171C93.3142 70.7495 93.2785 70.1285 93.2776 70.0674C93.2645 68.0701 92.6726 65.6199 90.5428 64.9115C88.8197 64.3384 87.3118 65.3897 85.9129 66.286C82.9028 68.2138 80.1238 70.5306 77.4679 72.915C74.5564 75.5287 71.7708 78.2926 69.1515 81.2004C67.2143 83.3518 70.3935 86.5508 72.3401 84.389H72.343Z" fill="#211715"/>
<path d="M121.399 218.767C130.457 203.789 139.199 188.56 146.698 172.73C147.283 171.494 147.732 170.363 147.326 168.993C146.964 167.77 145.934 166.883 145.065 166.008C143.205 164.135 141.259 162.351 139.305 160.577L138.849 164.118C140.291 163.318 141.734 162.522 143.179 161.726C144.493 161.002 146.296 160.359 146.737 158.751C147.365 156.468 144.643 153.518 143.336 151.888C140.197 147.978 136.29 144.414 132.01 141.789C130.802 141.048 129.028 141.734 128.697 143.136C126.668 151.748 123.459 160.15 120.527 168.481C116.512 179.887 112.345 191.24 108.184 202.594C106.29 207.762 104.391 212.927 102.529 218.106C102.116 219.253 102.994 220.575 104.103 220.88C105.355 221.224 106.463 220.455 106.877 219.305C110.49 209.258 114.21 199.25 117.862 189.216C121.825 178.327 125.785 167.429 129.42 156.425C130.737 152.437 132.081 148.426 133.045 144.334L129.733 145.681C132.416 147.327 134.82 149.401 137.037 151.626C139.154 153.751 141.406 156.158 142.599 158.955L142.291 157.818L142.307 158.152L142.615 157.014C142.813 156.642 142.92 156.757 142.476 156.965C142.207 157.091 141.949 157.256 141.689 157.399C141.098 157.724 140.508 158.049 139.918 158.374C138.802 158.989 137.686 159.605 136.572 160.224C135.346 160.904 135.05 162.798 136.116 163.765C137.689 165.193 139.257 166.627 140.779 168.111C141.147 168.469 141.513 168.83 141.876 169.196C142.173 169.495 142.584 170.125 142.947 170.295C143.159 170.395 143.122 170.525 143.038 170.353C142.897 170.068 143.221 169.771 142.803 170.453C142.5 170.948 142.285 171.522 142.032 172.042C140.25 175.696 138.424 179.328 136.549 182.936C132.859 190.033 128.976 197.027 124.958 203.943C122.515 208.149 120.022 212.327 117.505 216.49C115.999 218.979 119.897 221.25 121.399 218.767Z" fill="#211715"/>
<path d="M104.391 218.107C100.789 208.056 97.0798 198.043 93.4402 188.006C89.4896 177.112 85.5428 166.209 81.9202 155.201C80.6068 151.211 79.268 147.2 78.3078 143.106C77.979 141.702 76.2034 141.02 74.9952 141.759C70.713 144.378 66.8019 147.941 63.6593 151.846C62.3478 153.476 59.6233 156.42 60.2518 158.707C60.6933 160.312 62.4915 160.957 63.8087 161.684C65.2517 162.481 66.6948 163.279 68.136 164.08L67.6794 160.54C65.9949 162.064 64.3179 163.598 62.6954 165.188C61.0729 166.779 58.9788 168.487 59.5763 171.027C59.8074 172.008 60.4171 172.977 60.854 173.879C61.3623 174.927 61.8743 175.973 62.3901 177.018C63.3671 178.997 64.3574 180.969 65.3626 182.932C69.2587 190.55 73.3774 198.05 77.6568 205.457C80.2329 209.915 82.8634 214.341 85.5222 218.75C87.0197 221.232 90.9205 218.968 89.4164 216.474C80.9722 202.473 72.9105 188.256 65.7083 173.572C65.4509 173.048 65.1954 172.524 64.9398 171.998C64.7322 171.572 64.4231 170.498 64.0736 170.208C63.7279 169.92 64.1366 170.068 63.9374 170.308C63.6762 170.623 64.2653 170.006 64.3329 169.935C64.7407 169.514 65.1531 169.098 65.5693 168.686C67.2886 166.983 69.0745 165.351 70.868 163.728C71.9362 162.761 71.6356 160.867 70.4114 160.187C69.2981 159.568 68.183 158.95 67.0678 158.334C66.5436 158.044 66.0193 157.754 65.4941 157.465C65.232 157.32 64.9699 157.175 64.7078 157.031C64.5763 156.958 64.4457 156.886 64.3141 156.814C64.0238 156.628 64.0436 156.68 64.3733 156.969L64.6815 158.107L64.6975 157.774L64.3893 158.911C65.5862 156.116 67.841 153.711 69.9605 151.59C72.1805 149.367 74.5865 147.296 77.2725 145.654L73.9599 144.307C75.9788 152.92 79.1787 161.327 82.1015 169.661C86.1028 181.072 90.2563 192.43 94.4051 203.788C96.2934 208.958 98.1865 214.126 100.044 219.307C100.454 220.454 101.58 221.222 102.817 220.882C103.925 220.578 104.805 219.26 104.392 218.109L104.391 218.107Z" fill="#211715"/>
</g>
</svg>
