<svg width="300" height="300" viewBox="0 0 300 300" fill="none" xmlns="http://www.w3.org/2000/svg">
<rect width="300" height="300" rx="150" fill="#00A2E9"/>
<mask id="mask0_27_69" style="mask-type:alpha" maskUnits="userSpaceOnUse" x="0" y="0" width="300" height="300">
<circle cx="150" cy="150" r="150" fill="#00A2E9"/>
</mask>
<g mask="url(#mask0_27_69)">
<path d="M190.718 67.2828C190.377 67.4916 190.051 67.7395 189.75 68.029C189.75 68.029 195.999 32.6814 149.792 32.6814C103.584 32.6814 109.326 68.029 109.326 68.029C108.027 66.7814 106.278 66.3127 104.781 66.3655C101.524 66.4807 100.138 68.2425 99.5413 69.2766C97.761 72.3645 97.8362 78.0547 99.0311 81.5753C99.8772 84.0689 101.264 87.8829 104.607 90.6181C106.089 91.8305 108.323 92.5975 110.388 92.0672C111.902 97.2097 114.644 103.417 119.459 109.18C122.671 113.024 126.021 116.022 129.676 118.106C129.676 120.6 129.676 124.049 129.676 124.049C129.676 125.152 129.676 126.354 129.269 127.426C128.723 128.836 127.988 130.057 126.807 131.011C124.304 133.027 121.732 133.99 118.564 135.181L114.247 136.881C121.399 142.785 134.139 146.335 148.095 146.37C160.571 146.401 177.386 141.566 184.067 136.58L180.524 135.182C177.356 133.99 174.784 133.028 172.281 131.011C171.099 130.058 170.365 128.837 169.819 127.427C169.412 126.354 169.412 125.153 169.412 124.05C169.412 124.05 169.412 120.96 169.412 118.161C178.434 112.78 185.467 100.621 186.777 97.0641C187.241 96.0972 188.001 94.1066 188.617 92.0744L189.128 92.1608C191.067 92.4879 193.093 91.7457 194.471 90.6189C197.814 87.8837 199.2 84.0697 200.047 81.576C201.242 78.0555 201.318 72.3653 199.537 69.2774C198.941 68.2425 197.555 66.4807 194.297 66.3663C193.148 66.3255 191.85 66.5926 190.721 67.2836L190.718 67.2828Z" fill="white"/>
<path d="M189.749 68.0291C191.048 66.7815 192.797 66.3128 194.294 66.3656C194.965 66.3896 195.557 66.4832 196.079 66.6255C197.585 60.6801 198.227 56.2335 197.996 50.7808C197.192 31.7586 187.605 19.943 178.343 13.257C170.467 7.58276 161.269 3.93347 149.42 3.93347C146.172 3.93347 143.064 4.21419 140.102 4.74922C132.72 6.08241 126.242 8.99512 120.742 13.0851C111.793 19.7398 101.66 31.5946 100.849 50.7808C100.646 55.5745 101.293 61.1 102.819 66.6791C103.381 66.5047 104.031 66.3912 104.779 66.3656C106.277 66.3128 108.026 66.7815 109.324 68.0291L110.175 68.8464C112.962 65.7394 115.751 62.6323 115.751 62.6323C120.575 57.258 129.088 49.1564 135.061 46.023C135.762 45.6559 136.662 46.1526 136.946 47.3234C137.22 48.4543 137.218 49.3132 137.13 50.1258C136.994 51.3598 138.192 52.2579 139.21 51.6925C143.475 49.3236 151.073 44.5555 156.462 42.2841L164.452 43.2654C167.024 44.3835 168.981 45.4584 171.812 47.8936C176.662 52.0668 181.312 57.7922 183.371 62.9746L189.749 68.0291Z" fill="#645D5C"/>
<path d="M177.214 10.1571C162.862 0.829595 144.038 -0.594769 128.395 6.3807C115.769 12.0102 105.722 23.3259 101.44 36.4347C98.2582 46.1781 98.2398 56.5766 100.776 66.4623C101.389 68.8536 105.093 67.8403 104.478 65.4418C102.333 57.0804 102.152 48.4414 104.37 40.0728C106.08 33.6204 109.196 27.5638 113.516 22.467C117.53 17.7308 122.142 13.9136 127.58 11.0353C134.621 7.30921 142.577 5.7105 150.509 5.86246C159.394 6.032 167.832 8.63281 175.278 13.4713C177.356 14.8213 179.281 11.4991 177.216 10.1563L177.214 10.1571Z" fill="#211715"/>
<path d="M198.097 66.463C199.107 62.3435 199.856 58.152 199.95 53.9021C200.042 49.8073 199.63 45.6694 198.818 41.6562C197.456 34.9199 194.7 28.4274 190.656 22.8619C188.65 20.102 186.384 17.5532 183.858 15.2603C182.032 13.6032 179.31 16.3096 181.143 17.9746C185.409 21.8479 188.913 26.4337 191.439 31.6185C194.57 38.0421 196.04 45.2399 196.119 52.3633C196.168 56.8124 195.451 61.1334 194.395 65.4425C193.807 67.8418 197.509 68.8655 198.097 66.463Z" fill="#211715"/>
<path d="M163.483 44.9232C167.535 46.6979 170.842 49.3379 173.897 52.5153C176.953 55.6928 179.851 59.366 181.52 63.4848C181.909 64.4445 182.798 65.1227 183.881 64.8252C184.791 64.5748 185.613 63.4304 185.221 62.4643C183.33 57.8001 180.297 53.6862 176.849 50.0497C173.541 46.5596 169.843 43.5453 165.42 41.6083C164.471 41.1924 163.36 41.3299 162.794 42.2969C162.318 43.111 162.528 44.505 163.483 44.9232Z" fill="#211715"/>
<path d="M117.108 63.9894C121.873 58.695 127.143 53.5158 133.047 49.4979C133.685 49.0636 134.334 48.6453 135.001 48.2542C135.148 48.1679 135.797 47.8056 135.789 47.7944C135.784 47.7848 135.339 47.7616 135.191 47.7544C134.911 47.74 135.012 47.2849 135.095 47.8344C135.384 49.745 134.828 51.8763 136.677 53.1671C138.435 54.3948 140.101 53.4079 141.704 52.4857C143.215 51.6164 144.715 50.7303 146.223 49.8546C149.869 47.736 153.545 45.5967 157.431 43.9428C158.385 43.5365 158.595 42.1305 158.119 41.3164C157.542 40.3295 156.451 40.2199 155.493 40.6278C152.033 42.1001 148.745 43.9676 145.491 45.8422C143.916 46.7491 142.35 47.6712 140.779 48.5845C140.129 48.962 139.478 49.3387 138.823 49.709C138.724 49.765 138.392 49.8825 138.335 49.9833C138.176 50.26 138.416 49.7786 138.802 49.9945C138.857 50.0249 139.193 50.3208 139.039 50.4048C139.063 50.392 139.09 49.6218 139.092 49.5754C139.186 47.5688 138.678 44.8625 136.491 44.1499C134.836 43.6101 133.322 44.7457 131.991 45.5999C128.795 47.6512 125.849 50.1153 123.032 52.6537C120.01 55.3769 117.115 58.2512 114.393 61.2759C112.744 63.1081 115.451 65.8313 117.108 63.9902L117.108 63.9894Z" fill="#211715"/>
<path d="M144.074 104.026C144.369 103.87 144.666 103.721 144.968 103.58C145.032 103.549 145.347 103.427 145.054 103.54C144.741 103.661 145.138 103.51 145.17 103.499C145.389 103.422 145.606 103.343 145.829 103.275C146.428 103.091 147.041 102.96 147.66 102.863C147.386 102.906 147.756 102.851 147.855 102.841C148.035 102.822 148.216 102.805 148.397 102.792C148.833 102.76 149.271 102.744 149.708 102.741C151.25 102.732 152.191 102.802 153.626 103.251C153.88 103.33 154.125 103.426 154.373 103.519C153.924 103.351 154.419 103.549 154.583 103.636C154.736 103.716 154.887 103.801 155.032 103.893C155.188 103.992 155.693 104.375 155.119 103.928C155.935 104.564 157.036 104.724 157.833 103.928C158.496 103.265 158.655 101.854 157.833 101.213C155.592 99.4675 152.758 98.9213 149.962 98.9029C147.203 98.8853 144.575 99.4235 142.136 100.712C141.22 101.196 140.94 102.471 141.447 103.338C141.991 104.266 143.153 104.512 144.074 104.026Z" fill="#211715"/>
<path d="M149.046 84.1673C149.39 85.4789 149.72 86.8121 149.918 88.1549L149.849 87.6447C149.872 87.8286 149.882 88.0101 149.864 88.1949L149.933 87.6846C149.92 87.7702 149.901 87.8502 149.872 87.9318L150.065 87.4735C150.04 87.5311 150.014 87.5807 149.978 87.6327L150.278 87.244C150.237 87.2936 150.198 87.332 150.148 87.3727L150.537 87.0728C150.436 87.1376 150.329 87.1896 150.221 87.24L150.679 87.0464C150.505 87.1192 150.333 87.172 150.146 87.2016L150.657 87.1328C150.489 87.1528 150.325 87.1512 150.157 87.132L150.667 87.2008C150.478 87.1744 150.293 87.1288 150.105 87.1032C149.57 87.0312 149.115 87.0113 148.627 87.2968C148.228 87.5295 147.849 87.9862 147.745 88.4436C147.633 88.9347 147.657 89.4865 147.938 89.9224C148.188 90.3094 148.606 90.7397 149.085 90.8045C149.502 90.8605 149.908 90.9676 150.333 90.986C150.979 91.014 151.58 90.8181 152.158 90.5542C152.868 90.2295 153.421 89.5977 153.611 88.8323C153.771 88.1853 153.701 87.6119 153.592 86.9641C153.375 85.6797 153.077 84.4064 152.747 83.146C152.493 82.1751 151.364 81.4889 150.386 81.8056C149.386 82.1287 148.772 83.1268 149.046 84.1673Z" fill="#211715"/>
<path d="M127.758 72.9084C127.092 75.0726 127.526 80.0502 131.626 80.4741C137.044 80.4413 137.333 74.4231 135.509 71.5936C134.015 69.2767 129.624 68.313 127.758 72.9084Z" fill="#211715"/>
<path d="M171.315 72.9085C171.981 75.0726 171.547 80.0503 167.448 80.4741C162.029 80.4414 161.74 74.4232 163.565 71.5937C165.058 69.2768 169.449 68.3131 171.315 72.9085Z" fill="#211715"/>
<path d="M110.682 66.6719C108.046 64.2783 104.185 63.8008 100.988 65.3531C98.6502 66.488 97.3154 68.8473 96.7372 71.2929C95.3664 77.0872 96.8404 83.6995 100.205 88.5804C102.613 92.0738 106.041 94.6218 110.459 94.0108C111.486 93.8684 112.048 92.5552 111.799 91.6499C111.495 90.543 110.469 90.1664 109.438 90.3095C107.007 90.6462 104.88 88.5796 103.605 86.7658C102.381 85.0239 101.545 83.0781 100.881 81.0651C100.139 78.8202 99.9522 76.4226 100.154 74.0729C100.245 73.0084 100.454 71.8959 100.865 70.9058C101.003 70.5731 101.184 70.2564 101.377 69.9517C101.417 69.8894 101.664 69.5615 101.554 69.6966C101.467 69.803 101.807 69.4343 101.888 69.3551C103.319 67.9539 106.313 67.8852 107.967 69.3863C109.793 71.0434 112.516 68.337 110.682 66.6719Z" fill="#211715"/>
<path d="M191.107 69.3863C192.632 68.0019 195.169 67.9035 196.852 69.072C197.334 69.4071 197.543 69.6678 197.877 70.2452C198.408 71.1633 198.666 72.2398 198.829 73.2811C199.51 77.615 198.313 82.1992 196.036 85.9036C194.733 88.0238 192.434 90.6958 189.637 90.3087C188.611 90.1671 187.576 90.5574 187.276 91.6491C187.03 92.5456 187.583 93.8676 188.616 94.0099C195.846 95.0096 200.021 87.8894 201.935 81.9656C202.905 78.9641 203.038 75.6476 202.574 72.5437C202.182 69.9189 201.124 67.3661 198.881 65.8178C195.708 63.6272 191.183 64.1367 188.392 66.6711C186.559 68.3354 189.28 71.0442 191.107 69.3863Z" fill="#211715"/>
<path d="M187.521 88.6114C186.914 91.5697 185.798 94.3824 184.744 97.0112C184.968 96.4506 184.579 97.3583 184.482 97.5614C184.286 97.9709 184.08 98.3756 183.867 98.7779C183.359 99.7408 182.813 100.685 182.245 101.614C179.32 106.392 175.756 110.914 171.388 114.455C169.025 116.37 166.361 117.893 163.412 118.573C161.005 119.127 162.024 122.829 164.432 122.275C170.515 120.874 175.572 116.424 179.543 111.811C182.846 107.974 185.92 103.654 188.019 99.0234C188.223 98.5739 188.403 98.1141 188.594 97.659C188.399 98.1213 188.535 97.8094 188.58 97.7126C188.707 97.4383 188.82 97.1576 188.936 96.8793C189.094 96.501 189.246 96.1203 189.391 95.7372C190.145 93.753 190.796 91.7128 191.223 89.6319C191.431 88.617 190.928 87.5581 189.882 87.271C188.933 87.0103 187.73 87.5917 187.521 88.6114Z" fill="#211715"/>
<path d="M107.735 89.4889C109.073 95.3999 111.473 101.127 114.833 106.175C118.453 111.614 123.207 116.705 128.961 119.908C131.914 121.552 135.141 122.666 138.483 123.159C139.508 123.31 140.546 122.904 140.844 121.818C141.093 120.915 140.536 119.609 139.504 119.457C127.56 117.696 118.614 107.343 114.08 96.7307C112.942 94.0699 112.076 91.2884 111.437 88.4684C110.891 86.0596 107.19 87.0793 107.735 89.4889Z" fill="#211715"/>
<path d="M127.755 119.82V123.577C127.755 124.818 127.813 126.028 127.301 127.186C126.314 129.424 124.212 130.666 122.086 131.69C119.395 132.986 116.494 133.944 113.712 135.039C112.748 135.418 112.076 136.324 112.372 137.4C112.624 138.318 113.762 139.123 114.732 138.74C118.067 137.428 121.579 136.305 124.751 134.638C127.384 133.256 129.634 131.424 130.826 128.641C131.994 125.915 131.594 122.722 131.594 119.819C131.594 117.348 127.755 117.344 127.755 119.819V119.82Z" fill="#211715"/>
<path d="M167.49 118.885V123.038C167.49 124.668 167.411 126.375 167.966 127.935C169.023 130.912 171.225 132.925 173.937 134.425C177.196 136.227 180.878 137.373 184.341 138.74C185.305 139.121 186.448 138.323 186.702 137.4C187.001 136.31 186.329 135.42 185.361 135.039C182.456 133.893 179.404 132.906 176.617 131.502C174.475 130.424 172.301 129.045 171.566 126.621C171.163 125.291 171.329 123.782 171.329 122.41V118.887C171.329 116.417 167.49 116.413 167.49 118.887V118.885Z" fill="#211715"/>
<path d="M129.661 94.4346C129.533 94.433 129.404 94.433 129.277 94.4194C129.553 94.4498 129.244 94.3978 129.13 94.3658C129.093 94.3554 128.77 94.2307 128.913 94.2987C129.059 94.3682 128.748 94.1939 128.72 94.1763C128.455 94.0107 128.992 94.4458 128.582 94.0611C128.521 94.0027 128.377 93.8532 128.506 94.0115C128.347 93.8164 128.216 93.5741 128.114 93.3453C128.22 93.5821 128.095 93.2614 128.067 93.1694C128.031 93.0446 127.999 92.9199 127.971 92.7927C127.963 92.7567 127.914 92.4136 127.927 92.5592C127.941 92.7055 127.923 92.3321 127.922 92.2953C127.917 92.1185 127.923 91.9434 127.931 91.7674C127.933 91.7058 127.959 91.4435 127.932 91.6467C127.974 91.3324 128.055 91.0181 128.143 90.715C128.402 89.8248 128.87 89.0147 129.488 88.1229C130.065 87.2896 130.699 86.4954 131.258 85.6485L128.243 86.0372C128.542 86.3883 128.833 86.7458 129.122 87.1049C129.335 87.3712 129.075 87.0401 129.205 87.2112C129.28 87.3096 129.354 87.408 129.428 87.5071C129.597 87.7343 129.762 87.963 129.924 88.1957C130.237 88.6468 130.538 89.1082 130.805 89.5889C131.136 90.1847 131.242 90.3966 131.436 91.0229C131.477 91.1556 131.514 91.2892 131.546 91.4243C131.558 91.4699 131.636 91.8938 131.603 91.6307C131.636 91.8938 131.603 92.1521 131.614 92.4136C131.626 92.6855 131.686 92.1593 131.617 92.4224C131.58 92.5632 131.558 92.7071 131.518 92.8471C131.486 92.9591 131.448 93.0686 131.411 93.179C131.498 92.9223 131.427 93.1454 131.358 93.2758C131.305 93.3781 131.247 93.4781 131.186 93.5757C131.11 93.6956 130.951 93.8764 131.13 93.6748C131.054 93.7612 130.977 93.8468 130.895 93.9276C130.893 93.93 130.523 94.2331 130.695 94.1131C130.859 93.9979 130.529 94.2043 130.498 94.2219C130.415 94.2683 130.089 94.3834 130.323 94.309C130.196 94.349 130.069 94.3834 129.94 94.4138C129.397 94.541 130.218 94.4138 129.662 94.4346C128.66 94.4706 127.696 95.2919 127.743 96.354C127.788 97.3633 128.587 98.3118 129.662 98.2734C133.387 98.1407 135.866 94.7641 135.383 91.1684C134.979 88.1629 132.861 85.5581 130.958 83.322C130.112 82.3279 128.572 82.7574 127.943 83.7107C127.264 84.74 126.477 85.6925 125.808 86.729C124.954 88.0526 124.377 89.5289 124.167 91.0916C123.95 92.7047 124.191 94.5034 125.137 95.8694C126.199 97.4033 127.794 98.2446 129.662 98.2734C130.667 98.2886 131.627 97.3801 131.582 96.3548C131.534 95.3015 130.739 94.4506 129.662 94.4346H129.661Z" fill="#211715"/>
<path d="M126.377 66.5703C127.788 66.4807 129.104 66.088 130.373 65.4746C131.499 64.9308 132.517 64.1494 133.225 63.1122C133.495 62.7179 133.542 62.0797 133.419 61.6334C133.296 61.1872 132.952 60.7057 132.537 60.4866C132.091 60.2514 131.551 60.1331 131.058 60.293C130.564 60.453 130.205 60.7441 129.911 61.1752C129.878 61.2231 129.845 61.2703 129.809 61.3167L130.109 60.928C129.893 61.2055 129.636 61.4431 129.359 61.6598L129.748 61.3599C129.21 61.7726 128.613 62.0973 127.989 62.3612L128.447 62.1677C127.767 62.4492 127.059 62.6547 126.329 62.7555L126.839 62.6867C126.686 62.7059 126.531 62.7211 126.377 62.7307C125.866 62.7627 125.39 62.9226 125.02 63.2929C124.687 63.6256 124.436 64.1718 124.458 64.6501C124.501 65.6354 125.304 66.6383 126.377 66.5703Z" fill="#211715"/>
<path d="M93.9675 144.353C100.286 141.774 106.106 139.23 112.362 136.557C112.927 136.315 113.582 136.376 114.079 136.738C121.196 142.728 134.026 146.334 148.093 146.369C160.925 146.401 178.344 141.285 184.61 136.151C191.398 138.462 195.541 139.425 202.18 142.134C207.614 144.588 211.635 146.419 215.983 150.132C223.991 157.148 228.277 164.839 232.755 174.528C239.637 191.503 245.713 208.891 249.454 226.832C250.57 232.182 251.055 237.82 249.484 243.054C247.293 250.359 241.509 254.374 233.84 254.468C230.704 254.506 228.047 254.274 225.394 253.568C220.529 252.273 215.983 249.526 210.465 245.416C210.465 245.416 210.465 250.374 210.465 254.575H59.9243C61.9221 230.523 63.8143 206.307 67.7115 182.472C68.9903 174.648 70.9425 166.708 75.0189 159.828C79.4847 152.292 86.1379 147.884 93.9699 144.353" fill="white"/>
<path d="M61.8438 254.576C63.2394 237.77 64.579 220.954 66.5848 204.207C67.5597 196.065 68.5874 187.887 70.1181 179.827C71.5129 172.48 73.6386 165.014 77.9565 158.807C82.1216 152.82 88.4109 148.969 94.9393 146.011C95.8838 145.583 96.1125 144.213 95.6279 143.384C95.0601 142.413 93.95 142.266 93.0015 142.696C86.921 145.451 81.0523 149.003 76.7121 154.167C71.7424 160.08 68.9568 167.51 67.2246 174.955C65.3196 183.144 64.3327 191.594 63.2738 199.925C62.1861 208.488 61.2896 217.075 60.4866 225.669C59.5869 235.298 58.8047 244.937 58.005 254.575C57.9194 255.609 58.9487 256.495 59.9244 256.495C61.0345 256.495 61.7574 255.612 61.8438 254.575V254.576Z" fill="#211715"/>
<path d="M94.4778 146.204C98.1263 144.714 101.756 143.177 105.379 141.626C107.195 140.848 109.01 140.067 110.826 139.288C111.549 138.978 112.385 138.45 113.161 138.313C112.873 138.364 112.901 138.239 113.194 138.483C113.542 138.773 113.908 139.044 114.27 139.314C119.034 142.865 124.884 144.977 130.621 146.323C137.273 147.884 144.289 148.576 151.116 148.208C157.468 147.865 163.812 146.66 169.912 144.879C175.481 143.253 181.399 141.203 185.967 137.509L184.099 138.002C192.198 140.75 200.396 142.964 207.981 147.027C214.973 150.772 220.493 156.651 224.691 163.318C227.138 167.206 229.169 171.334 231.098 175.499C231.533 176.439 232.89 176.675 233.724 176.187C234.689 175.622 234.85 174.505 234.413 173.561C229.97 163.964 224.618 154.479 216.173 147.818C207.351 140.86 196.303 138.059 185.851 134.548C184.862 134.215 184.124 134.117 183.254 134.794C182.987 135.002 183.347 134.735 183.065 134.944C182.884 135.078 182.7 135.208 182.515 135.336C181.781 135.841 181.015 136.299 180.234 136.726C178.427 137.713 176.537 138.542 174.612 139.272C169.812 141.093 164.809 142.417 159.759 143.33C149.146 145.25 137.956 144.732 127.632 141.535C123.361 140.212 119.13 138.359 115.624 135.538C114.148 134.35 112.741 134.326 111.034 135.055C109.552 135.687 108.073 136.324 106.593 136.959C103.713 138.196 100.833 139.434 97.9407 140.647C96.4492 141.272 94.9544 141.891 93.4573 142.503C92.4984 142.895 91.8186 143.779 92.1169 144.864C92.3664 145.772 93.5125 146.599 94.4778 146.204Z" fill="#211715"/>
<path d="M86.0684 188.092C86.7977 203.674 87.4352 219.261 88.1101 234.846C88.3949 241.422 88.6804 248 88.9635 254.576C89.0691 257.037 92.9087 257.05 92.8023 254.576C91.933 234.369 91.0548 214.161 90.1671 193.955C90.0815 192.001 89.9984 190.046 89.9072 188.092C89.792 185.632 85.9524 185.619 86.0684 188.092Z" fill="#211715"/>
<path d="M203.57 205.187C208.388 208.499 213.205 211.811 218.023 215.122C218.878 215.71 220.153 215.282 220.65 214.434C221.206 213.482 220.817 212.397 219.961 211.807C215.143 208.496 210.325 205.184 205.508 201.872C204.653 201.284 203.378 201.712 202.881 202.561C202.325 203.512 202.713 204.598 203.57 205.187Z" fill="#211715"/>
<path d="M230.904 175.039C237.141 190.436 242.72 206.149 246.499 222.347C248.178 229.541 250.178 237.901 246.724 244.911C244.166 250.101 239.1 252.519 233.467 252.553C229.578 252.576 225.78 252.01 222.202 250.43C218.33 248.72 214.82 246.272 211.435 243.759C210.602 243.14 209.292 243.622 208.809 244.447C208.237 245.425 208.662 246.453 209.497 247.074C215.789 251.748 222.452 255.749 230.447 256.304C236.992 256.757 243.752 255.363 248.023 249.981C253.138 243.535 252.958 234.736 251.453 227.054C249.779 218.512 247.419 210.081 244.774 201.794C241.775 192.397 238.308 183.159 234.605 174.019C234.217 173.059 233.327 172.381 232.245 172.679C231.334 172.929 230.512 174.073 230.904 175.04V175.039Z" fill="#211715"/>
<path d="M126.424 255.194C123.857 256.389 121.469 258.237 119.67 260.425C117.947 262.52 116.746 265.074 115.851 267.625C114.988 270.084 114.455 272.827 114.904 275.415C115.373 278.123 117.705 279.539 120.321 279.617C121.618 279.656 122.881 279.292 124.094 278.87C125.521 278.374 126.966 277.707 128.009 276.577C130.155 274.25 130.278 270.736 127.695 268.688C122.81 264.814 115.43 267.891 111.087 271.126C106.087 274.849 102.417 280.142 100.815 286.181C100.181 288.571 103.883 289.591 104.517 287.201C105.588 283.167 107.695 279.491 110.646 276.536C113.657 273.522 117.921 270.697 122.338 270.802C123.452 270.829 126.049 271.21 125.833 272.833C125.589 274.659 122.653 275.471 121.174 275.733C120.579 275.838 119.856 275.826 119.261 275.567C118.742 275.341 118.677 275.023 118.582 274.255C118.36 272.46 118.931 270.454 119.51 268.768C120.176 266.827 121.097 264.746 122.385 263.14C123.974 261.158 126.066 259.577 128.362 258.508C129.302 258.071 129.539 256.718 129.051 255.882C128.487 254.918 127.368 254.755 126.424 255.194Z" fill="#211715"/>
<path d="M138.204 212.465C135.61 217.734 135.898 224.11 136.551 230.029C139.878 230.251 140.992 235.367 141.835 237.753C146.164 249.995 156.936 258.567 168.652 260.526C179.876 262.402 190.332 260.033 200.791 250.405C202.822 248.535 205.622 244.509 208.781 245.709C210.725 243.806 211.985 240.251 212.954 237.727C214.13 234.66 214.866 231.385 214.564 228.086C213.798 219.739 206.76 213.165 199.612 209.662C194.076 206.956 188.124 205.179 182.097 203.967C176.222 202.785 170.368 201.385 164.361 201.058C158.63 200.746 152.747 201.407 147.546 203.831C144.158 205.409 141.064 207.772 139.063 210.928C138.747 211.428 138.46 211.941 138.203 212.464L138.204 212.465Z" fill="#F2635F"/>
<path d="M157.081 275.406C155.071 272.596 156.728 269.685 157.929 268.713C159.933 267.09 163.339 267.696 164.706 269.527C166.625 272.097 165.282 274.766 163.322 276.305C161.655 277.615 158.483 277.367 157.081 275.406Z" fill="white"/>
<path d="M158.738 274.438C158.576 274.204 158.438 273.963 158.3 273.714C158.125 273.397 158.399 274.024 158.283 273.692C158.228 273.534 158.175 273.377 158.133 273.214C158.105 273.106 158.103 272.962 158.057 272.86C158.054 272.852 158.098 273.288 158.085 273.078C158.082 273.021 158.074 272.962 158.07 272.905C158.053 272.658 158.074 272.417 158.079 272.171C158.083 271.962 158.039 272.424 158.043 272.408C158.056 272.356 158.061 272.3 158.071 272.247C158.093 272.124 158.12 272.002 158.151 271.88C158.178 271.778 158.207 271.677 158.24 271.577C158.267 271.495 158.423 271.109 158.287 271.42C158.152 271.729 158.3 271.398 158.335 271.328C158.378 271.24 158.422 271.153 158.47 271.067C158.576 270.877 158.694 270.697 158.818 270.518C158.838 270.49 158.869 270.43 158.897 270.411C158.938 270.383 158.591 270.775 158.729 270.632C158.786 270.574 158.834 270.507 158.89 270.447C158.998 270.329 159.119 270.225 159.234 270.113C159.401 269.95 158.866 270.356 159.138 270.19C159.223 270.138 159.304 270.081 159.39 270.031C159.489 269.973 159.601 269.93 159.697 269.869C159.857 269.768 159.453 269.966 159.465 269.963C159.528 269.947 159.59 269.914 159.651 269.892C159.838 269.826 160.03 269.773 160.224 269.731C160.312 269.713 160.429 269.671 160.519 269.678C160.559 269.681 160.042 269.718 160.256 269.715C160.322 269.715 160.39 269.703 160.456 269.699C160.673 269.686 160.891 269.686 161.108 269.699C161.194 269.703 161.329 269.691 161.408 269.724C161.445 269.739 160.937 269.643 161.146 269.689C161.21 269.703 161.278 269.711 161.342 269.723C161.538 269.761 161.73 269.809 161.921 269.867C162.03 269.901 162.137 269.942 162.246 269.979C162.528 270.073 161.833 269.775 162.19 269.957C162.361 270.044 162.53 270.131 162.692 270.234C162.771 270.284 162.845 270.343 162.924 270.392C163.099 270.498 162.68 270.222 162.72 270.233C162.764 270.245 162.827 270.322 162.86 270.352C162.94 270.422 163.015 270.497 163.088 270.574C163.145 270.634 163.353 270.893 163.143 270.618C162.917 270.322 163.203 270.711 163.251 270.785C163.338 270.918 163.419 271.055 163.492 271.196C163.523 271.253 163.547 271.315 163.579 271.372C163.679 271.553 163.511 271.216 163.511 271.206C163.514 271.311 163.599 271.453 163.628 271.556C163.661 271.672 163.685 271.788 163.712 271.904C163.749 272.065 163.678 272.159 163.694 271.74C163.691 271.814 163.708 271.894 163.711 271.968C163.716 272.082 163.716 272.195 163.711 272.308C163.709 272.364 163.7 272.421 163.7 272.477C163.7 272.683 163.739 272.235 163.736 272.245C163.671 272.479 163.642 272.718 163.566 272.95C163.542 273.023 163.399 273.383 163.524 273.088C163.649 272.793 163.471 273.187 163.429 273.266C163.314 273.484 163.184 273.693 163.042 273.895C163.01 273.94 162.969 273.985 162.941 274.034C162.936 274.042 163.202 273.719 163.065 273.871C162.988 273.956 162.917 274.046 162.84 274.132C162.66 274.329 162.469 274.516 162.269 274.693C162.209 274.746 161.897 274.994 162.167 274.788C162.427 274.591 162.169 274.781 162.105 274.823C161.992 274.895 161.737 275.097 161.601 275.093C161.552 275.091 162.05 274.933 161.851 274.983C161.793 274.998 161.737 275.025 161.68 275.043C161.564 275.081 161.446 275.114 161.327 275.142C161.263 275.157 161.068 275.232 161.009 275.205C160.975 275.19 161.49 275.158 161.287 275.168C161.225 275.171 161.162 275.181 161.099 275.186C160.878 275.203 160.655 275.204 160.433 275.191C160.334 275.186 160.192 275.197 160.099 275.162C160.056 275.146 160.578 275.251 160.371 275.195C160.295 275.175 160.213 275.167 160.136 275.15C159.915 275.101 159.704 275.03 159.489 274.961C159.21 274.872 159.904 275.168 159.55 274.986C159.451 274.935 159.351 274.886 159.253 274.83C159.156 274.774 159.065 274.711 158.971 274.651C158.629 274.429 159.273 274.932 158.984 274.656C158.903 274.579 158.82 274.504 158.743 274.423C158.638 274.31 158.375 273.947 158.736 274.437C158.43 274.021 158.105 273.697 157.589 273.555C157.13 273.429 156.518 273.485 156.11 273.749C155.312 274.264 154.785 275.51 155.422 276.375C156.262 277.517 157.336 278.314 158.697 278.741C159.876 279.111 161.197 279.128 162.393 278.833C163.615 278.532 164.67 277.804 165.516 276.888C166.452 275.875 167.238 274.596 167.445 273.211C167.688 271.593 167.382 269.958 166.403 268.615C165.572 267.474 164.499 266.718 163.172 266.244C160.867 265.42 157.951 265.861 156.226 267.674C154.001 270.015 153.547 273.681 155.422 276.374C155.994 277.196 157.129 277.655 158.048 277.063C158.866 276.536 159.35 275.318 158.737 274.436L158.738 274.438Z" fill="#211715"/>
<path d="M168.653 260.526C179.877 262.402 190.333 260.033 200.792 250.405C202.968 248.403 206.025 243.924 209.463 246.048C210.861 246.913 211.153 248.414 211.117 249.985C211.082 251.557 209.925 254.033 208.985 255.297C198.729 269.097 182.666 274.731 165.906 270.542C148.777 266.261 137.033 257.404 132.745 239.725C132.384 238.237 132.168 234.338 132.708 232.912C133.248 231.486 133.929 230.447 135.482 230.108C139.652 229.197 140.907 235.128 141.835 237.752C146.164 249.994 156.936 258.567 168.652 260.525L168.653 260.526Z" fill="white"/>
<path d="M168.143 262.378C175.655 263.608 183.129 263.013 190.133 259.913C193.894 258.248 197.32 255.913 200.453 253.261C201.772 252.144 202.956 250.935 204.166 249.706C205.042 248.815 206.237 247.574 207.389 247.417C207.725 247.37 208.197 247.441 208.58 247.76C209.107 248.196 209.184 248.905 209.198 249.547C209.232 251.058 208.445 252.659 207.602 253.938C205.668 256.867 202.976 259.476 200.27 261.685C194.995 265.991 188.465 268.797 181.714 269.67C174.592 270.59 167.543 269.337 160.794 267.052C155.12 265.13 149.652 262.322 145.238 258.232C140.846 254.163 137.692 249.003 135.785 243.344C134.741 240.244 134.091 237.62 134.356 234.372C134.421 233.58 134.842 232.198 135.994 231.961C136.236 231.911 136.219 231.913 136.551 231.943C136.319 231.921 136.888 232.055 136.771 232.001C136.912 232.066 137.047 232.147 137.175 232.234C137.111 232.191 136.934 232.021 137.234 232.284C137.374 232.407 137.79 232.88 137.717 232.783C139.191 234.744 139.572 237.328 140.522 239.682C141.931 243.172 143.811 246.375 146.166 249.31C150.566 254.793 156.602 258.956 163.272 261.168C164.864 261.695 166.491 262.095 168.143 262.378C169.164 262.554 170.211 262.107 170.504 261.038C170.758 260.115 170.191 258.853 169.164 258.677C162.029 257.452 155.521 253.863 150.591 248.572C148.057 245.852 146.012 242.708 144.501 239.313C143.321 236.662 142.845 233.653 141.264 231.187C140.434 229.894 139.311 228.79 137.818 228.318C136.065 227.763 133.963 228.257 132.618 229.494C129.992 231.909 130.265 236.105 130.73 239.316C131.226 242.745 132.62 246.219 134.084 249.339C135.477 252.309 137.254 255.07 139.347 257.594C143.532 262.637 149.093 266.38 155.083 268.949C162.012 271.921 169.577 273.909 177.153 273.819C184.779 273.729 192.338 271.562 198.78 267.462C202.111 265.343 205.154 262.746 207.782 259.803C210.282 257.004 213.13 253.532 213.038 249.55C212.989 247.392 212.168 245.333 210.194 244.257C208.47 243.317 206.564 243.444 204.842 244.298C203.321 245.052 202.073 246.34 200.913 247.552C199.483 249.047 197.96 250.431 196.325 251.703C190.062 256.575 182.621 259.373 174.65 259.193C172.811 259.151 170.979 258.976 169.164 258.679C168.142 258.512 167.098 258.945 166.803 260.019C166.551 260.937 167.115 262.211 168.143 262.38L168.143 262.378Z" fill="#211715"/>
<path d="M210.185 247.022C211.559 245.597 212.503 243.85 213.284 242.048C214.114 240.132 214.914 238.164 215.517 236.164C216.789 231.947 216.962 227.403 215.422 223.232C212.605 215.602 205.808 210.267 198.571 207.07C194.132 205.108 189.505 203.643 184.774 202.577C180.084 201.52 175.339 200.512 170.582 199.806C161.495 198.458 151.42 198.635 143.495 203.895C139.424 206.597 136.44 210.455 135.135 215.191C133.814 219.982 134.093 225.05 134.621 229.934C134.733 230.965 135.424 231.853 136.541 231.853C137.492 231.853 138.572 230.971 138.46 229.934C138.04 226.044 137.7 222.001 138.403 218.124C139.086 214.363 140.76 211.088 143.654 208.56C149.878 203.123 158.979 202.382 166.845 203.172C171.309 203.62 175.699 204.61 180.088 205.513C184.476 206.417 188.775 207.423 192.979 208.936C199.772 211.381 206.579 215.128 210.381 221.518C212.539 225.144 213.205 229.252 212.282 233.378C211.815 235.467 211.035 237.47 210.241 239.453C209.556 241.16 208.764 242.968 207.471 244.309C205.756 246.088 208.468 248.806 210.185 247.023V247.022Z" fill="#211715"/>
<path d="M161.757 208.022C161.9 203.926 162.216 200.884 163.797 197.076C165.216 193.658 168.465 190.952 172.158 189.742C174.108 189.103 176.236 188.607 180.508 188.637C183.534 188.591 187.549 189.596 189.634 190.45C193.875 192.188 199.15 194.672 202.282 198.882C204.396 201.723 204.589 204.302 204.469 209.578C203.636 214.856 200.802 218.517 197.859 221.698C196.465 223.285 194.722 224.069 193.474 224.42C192.341 224.74 191.09 224.87 190.013 224.393C188.937 223.916 188.136 222.679 188.473 221.551C188.052 222.887 187.389 224.197 186.298 225.077C185.207 225.957 183.591 226.261 182.454 225.893C180.68 225.318 179.619 224.033 180.01 221.261C178.871 223.537 176.807 224.528 174.87 224.171C173.355 223.892 171.97 222.693 171.564 221.677C170.772 219.698 170.272 217.51 170.601 214.74C170.386 217.009 168.302 218.773 166.063 218.344C164.542 218.052 163.073 217.052 162.297 214.74C161.671 212.875 161.678 210.305 161.758 208.022H161.757Z" fill="white"/>
<path d="M165.607 280.076C162.655 275.947 165.088 271.673 166.853 270.244C169.797 267.86 174.801 268.75 176.809 271.439C179.629 275.216 177.655 279.134 174.777 281.397C172.327 283.322 167.667 282.956 165.607 280.076Z" fill="white"/>
<path d="M167.265 279.108C167.027 278.765 166.817 278.413 166.621 278.045C166.621 278.045 166.477 277.755 166.554 277.92C166.629 278.082 166.507 277.801 166.505 277.796C166.421 277.566 166.345 277.332 166.285 277.095C166.241 276.923 166.214 276.748 166.174 276.574C166.248 276.895 166.17 276.541 166.161 276.401C166.136 276.038 166.17 275.684 166.174 275.323C166.177 275.101 166.158 275.404 166.154 275.432C166.166 275.353 166.179 275.275 166.194 275.195C166.226 275.015 166.266 274.835 166.313 274.656C166.352 274.507 166.395 274.358 166.443 274.211C166.467 274.138 166.492 274.066 166.517 273.994C166.533 273.951 166.644 273.634 166.557 273.873C166.476 274.097 166.64 273.696 166.672 273.629C166.735 273.5 166.801 273.373 166.871 273.247C167.026 272.967 167.2 272.702 167.382 272.439C167.41 272.399 167.456 272.309 167.497 272.283C167.508 272.275 167.243 272.579 167.392 272.425C167.475 272.339 167.547 272.242 167.627 272.154C167.787 271.98 167.964 271.827 168.134 271.663C168.318 271.484 167.874 271.827 168.175 271.636C168.298 271.558 168.418 271.476 168.545 271.402C168.69 271.318 168.856 271.256 168.996 271.165C169.17 271.053 168.893 271.204 168.87 271.213C168.961 271.178 169.051 271.142 169.143 271.109C169.418 271.013 169.7 270.934 169.986 270.873C170.129 270.842 170.274 270.821 170.419 270.794C170.025 270.866 170.383 270.806 170.566 270.794C170.884 270.774 171.204 270.774 171.523 270.793C171.67 270.802 171.817 270.822 171.964 270.83C171.569 270.808 171.924 270.826 172.107 270.862C172.393 270.917 172.677 270.989 172.956 271.074C173.118 271.124 173.275 271.182 173.435 271.237C173.477 271.252 173.706 271.345 173.472 271.248C173.23 271.148 173.523 271.273 173.568 271.296C173.82 271.421 174.067 271.552 174.305 271.702C174.421 271.776 174.531 271.863 174.648 271.934C174.827 272.043 174.54 271.851 174.53 271.841C174.596 271.902 174.669 271.956 174.736 272.016C174.852 272.12 174.964 272.229 175.071 272.342C175.119 272.392 175.409 272.703 175.222 272.497C175.027 272.283 175.25 272.536 175.278 272.578C175.336 272.663 175.396 272.749 175.452 272.835C175.579 273.03 175.699 273.231 175.806 273.438C175.847 273.516 176.029 273.94 175.924 273.667C175.989 273.836 176.047 274.008 176.097 274.181C176.146 274.35 176.18 274.522 176.22 274.693C176.24 274.779 176.252 275.06 176.226 274.691C176.234 274.803 176.246 274.915 176.251 275.027C176.258 275.193 176.258 275.36 176.251 275.526C176.245 275.678 176.2 276.016 176.256 275.672C176.199 276.024 176.118 276.369 176.006 276.708C175.983 276.78 175.823 277.198 175.899 277.017C175.985 276.812 175.875 277.064 175.862 277.09C175.812 277.189 175.765 277.288 175.713 277.386C175.544 277.706 175.353 278.014 175.145 278.309C175.097 278.378 175.048 278.445 174.998 278.513C175.018 278.486 175.184 278.295 175.039 278.455C174.926 278.58 174.822 278.713 174.709 278.837C174.445 279.128 174.164 279.403 173.869 279.662C173.811 279.712 173.442 280.021 173.628 279.872C173.814 279.724 173.501 279.958 173.445 279.993C173.275 280.103 172.911 280.392 172.705 280.39C172.692 280.39 173.076 280.266 172.859 280.32C172.775 280.341 172.691 280.381 172.608 280.408C172.437 280.463 172.264 280.511 172.089 280.553C172.002 280.574 171.699 280.686 171.621 280.647C171.613 280.643 172.021 280.611 171.791 280.625C171.699 280.63 171.607 280.644 171.515 280.651C171.19 280.675 170.862 280.678 170.537 280.659C170.386 280.65 170.191 280.663 170.046 280.616C170.048 280.616 170.423 280.693 170.207 280.634C170.094 280.603 169.974 280.591 169.86 280.567C169.536 280.495 169.225 280.393 168.91 280.29C168.868 280.275 168.638 280.191 168.878 280.282C169.124 280.375 168.833 280.259 168.785 280.235C168.638 280.161 168.492 280.088 168.35 280.006C168.207 279.924 168.071 279.833 167.935 279.743C167.878 279.705 167.649 279.512 167.847 279.684C168.046 279.856 167.807 279.643 167.771 279.609C167.651 279.496 167.531 279.386 167.417 279.266C167.332 279.176 166.988 278.727 167.266 279.105C166.673 278.299 165.575 277.815 164.64 278.417C163.841 278.932 163.314 280.178 163.951 281.043C166.058 283.906 169.741 285.087 173.176 284.241C174.827 283.834 176.225 282.853 177.366 281.616C178.643 280.232 179.689 278.498 179.969 276.612C180.287 274.469 179.816 272.319 178.529 270.554C177.456 269.083 176.03 268.096 174.32 267.485C171.226 266.38 167.317 266.91 164.992 269.355C161.984 272.519 161.429 277.421 163.951 281.043C164.524 281.865 165.658 282.324 166.577 281.732C167.395 281.205 167.879 279.987 167.266 279.105L167.265 279.108Z" fill="#211715"/>
<path d="M163.677 208.022C163.793 204.851 164.101 201.778 165.187 198.774C166.142 196.131 167.893 194.058 170.328 192.651C174.713 190.117 180.557 190.052 185.372 191.158C187.901 191.741 190.273 192.71 192.595 193.859C195.158 195.128 197.639 196.634 199.63 198.712C201.181 200.332 202.131 202.058 202.418 204.153C202.816 207.046 202.682 210.001 201.648 212.741C200.572 215.59 198.634 218.016 196.599 220.237C195.613 221.312 194.48 222.123 193.071 222.538C192.425 222.73 191.637 222.932 190.975 222.701C190.737 222.618 190.254 222.381 190.325 222.062C190.86 219.646 187.397 218.692 186.623 221.041C186.105 222.61 185.017 224.44 183.09 224.076C182.757 224.013 182.698 223.973 182.365 223.744C182.312 223.707 182.105 223.472 182.08 223.431C181.802 222.967 181.838 222.007 181.93 221.26C182.167 219.335 179.198 218.696 178.354 220.292C177.421 222.054 175.62 223.049 173.934 221.653C173.135 220.992 172.919 219.879 172.693 218.908C172.374 217.532 172.372 216.14 172.521 214.741C172.631 213.708 171.561 212.821 170.602 212.821C169.453 212.821 168.817 213.708 168.682 214.741C168.428 216.699 166.173 216.811 165.075 215.769C163.192 213.983 163.601 210.343 163.678 208.023C163.759 205.552 159.92 205.555 159.839 208.023C159.708 211.994 159.716 217.296 163.717 219.507C165.44 220.46 167.5 220.598 169.275 219.705C171.227 218.723 172.248 216.837 172.52 214.741H168.682C168.295 218.373 168.957 223.125 172.331 225.203C175.772 227.323 179.875 225.617 181.668 222.23L178.092 221.261C177.718 224.299 179.171 227.165 182.327 227.838C186.323 228.689 189.186 225.519 190.325 222.063L186.623 221.042C186.19 222.999 187.078 224.91 188.803 225.928C190.443 226.896 192.563 226.734 194.308 226.174C197.731 225.075 200.026 222.382 202.121 219.598C204.233 216.789 205.963 213.368 206.356 209.834C206.543 208.153 206.465 206.341 206.311 204.657C206.181 203.248 205.945 201.864 205.406 200.551C202.845 194.297 195.884 190.838 189.944 188.519C184.266 186.303 177.301 185.962 171.503 187.94C167.788 189.208 164.329 191.769 162.51 195.312C160.494 199.239 159.998 203.676 159.839 208.022C159.748 210.493 163.586 210.489 163.677 208.022Z" fill="#211715"/>
<path d="M190.324 222.062C190.564 220.345 191.146 218.653 191.704 217.019C192.05 216.005 192.42 214.998 192.819 214.004C192.915 213.763 193.015 213.523 193.113 213.283C193.204 213.061 192.979 213.59 193.126 213.253C193.175 213.141 193.223 213.028 193.273 212.916C193.466 212.478 193.669 212.043 193.882 211.613C194.327 210.715 194.152 209.494 193.193 208.987C192.325 208.528 191.043 208.715 190.567 209.675C189.581 211.663 188.775 213.75 188.053 215.847C187.474 217.529 186.869 219.272 186.622 221.041C186.484 222.032 186.862 223.152 187.963 223.402C188.867 223.609 190.176 223.126 190.324 222.062Z" fill="#211715"/>
<path d="M181.901 221.114C182.209 218.056 182.469 214.987 182.993 211.956C183.409 209.551 184.095 207.312 184.959 205.03C185.327 204.061 184.551 202.925 183.619 202.669C182.54 202.373 181.627 203.037 181.258 204.01C180.357 206.388 179.663 208.717 179.242 211.227C178.694 214.503 178.395 217.812 178.063 221.114C177.959 222.147 179.019 223.034 179.982 223.034C181.107 223.034 181.797 222.15 181.901 221.114Z" fill="#211715"/>
<path d="M172.521 214.74C172.613 213.864 172.703 212.989 172.808 212.115C172.838 211.871 172.868 211.628 172.9 211.384C172.872 211.594 172.888 211.468 172.907 211.333C172.924 211.206 172.943 211.08 172.961 210.953C173.042 210.398 173.131 209.846 173.231 209.295C173.425 208.221 173.659 207.153 173.954 206.102C174.103 205.574 174.266 205.051 174.45 204.534C174.677 203.891 174.735 203.747 174.984 203.211C175.42 202.271 175.249 201.143 174.295 200.584C173.466 200.099 172.107 200.329 171.669 201.273C169.702 205.514 169.168 210.14 168.682 214.739C168.576 215.741 169.64 216.701 170.601 216.658C171.732 216.608 172.407 215.812 172.521 214.739V214.74Z" fill="#211715"/>
</g>
</svg>
