<svg width="300" height="300" viewBox="0 0 300 300" fill="none" xmlns="http://www.w3.org/2000/svg">
<rect width="300" height="300" rx="150" fill="#FFD633"/>
<mask id="mask0_27_65" style="mask-type:alpha" maskUnits="userSpaceOnUse" x="0" y="0" width="300" height="300">
<circle cx="150" cy="150" r="150" fill="#FFD633"/>
</mask>
<g mask="url(#mask0_27_65)">
<path d="M187.941 66.5792C189.122 65.7745 190.566 65.4529 191.977 65.6806C192.87 65.7454 193.73 66.0465 194.468 66.5531C195.206 67.0597 195.796 67.7536 196.178 68.5635C197.404 71.2496 196.807 75.8623 195.452 78.6077C194.304 81.2824 192.384 83.554 189.938 85.1322C188.17 86.0645 186.176 86.4804 184.183 86.3323C183.923 86.8735 183.758 87.2211 183.758 87.2211C183.127 88.544 181.635 90.8594 181.635 90.8594C180.103 93.1841 178.366 95.3673 176.446 97.3831C173.336 100.379 169.813 102.914 165.985 104.91C162.601 106.502 159.055 107.722 155.407 108.547C154.132 108.792 152.846 108.974 151.553 109.09C143.276 109.843 136.408 107.69 129.926 102.41C123.743 97.3757 121.038 89.4196 120.049 80.6175C119.479 75.5419 118.978 70.0248 118.236 64.5117C118.236 64.5117 111.784 35.5999 145.556 35.5999C195.817 35.5974 187.941 66.5792 187.941 66.5792Z" fill="white"/>
<path d="M162.295 169.617C161.561 171.335 160.929 172.783 160.434 173.886L158.688 174.223C156.274 168.128 155.055 165.163 152.946 159.438C148.886 148.417 142.205 119.134 141.398 109.967C141.398 109.967 141.341 109.329 141.256 108.346C144.619 109.19 148.103 109.441 151.552 109.088C152.845 108.971 154.132 108.79 155.407 108.544C159.054 107.719 162.601 106.5 165.984 104.907C169.813 102.911 173.335 100.376 176.445 97.3805C177.368 96.4217 178.609 94.9497 179.399 93.9613C182.619 96.8327 185.146 99.4636 185.146 99.4636C185.146 99.4636 185.953 100.067 187.098 100.901C186.53 103.207 185.857 105.828 185.502 107.084C183.838 112.982 181.82 118.394 180.082 123.698C175.643 137.241 166.925 158.791 162.295 169.617Z" fill="white"/>
<path d="M185.499 107.082C186.066 105.074 186.592 103.008 187.053 100.871C189.424 102.6 193.291 105.347 194.399 105.716C199.857 107.538 206.837 110.063 212.314 112.043C218.719 114.358 224.097 117.239 228.797 122.166C233.021 126.595 237.239 135.79 240.343 145.528C246.979 166.349 251.316 188.452 251.314 198.392C251.205 201.973 250.695 205.531 249.793 208.999C248.42 213.049 246.923 217.324 241.35 221.492C233.456 227.395 220.757 232.337 213.847 234.625H121.367L96.4092 181.832C95.3804 178.933 94.7989 173.7 95.7148 168.232C97.5385 157.345 101.365 143.65 104.808 132.502C105.894 129.333 107.273 126.273 108.926 123.359C110.618 120.852 112.823 118.733 115.395 117.141C121.848 113.05 133.89 108.515 141.08 106.216C141.255 108.313 141.401 109.97 141.401 109.97C142.208 119.134 148.888 148.42 152.947 159.437C155.055 165.159 156.275 168.124 158.693 174.22L160.438 173.882C164.054 165.832 174.942 139.392 180.082 123.7C181.819 118.39 183.834 112.983 185.499 107.082Z" fill="#B3B3B3"/>
<path d="M164.309 164.846C165.536 161.907 166.908 158.566 168.336 155.022L166.966 149.511C166.167 146.298 163.613 131.019 163.58 130.006C164.429 126.951 165.401 123.384 166.391 120.337C163.174 118.141 159.464 115.907 157.344 114.523C155.171 116.411 153.463 117.958 151.545 119.932L151.733 120.461C152.557 122.779 154.049 126.581 154.926 128.673C154.405 131.347 153.765 134.278 153.431 136.77C152.448 143.162 151.904 149.613 151.802 156.079C152.2 157.325 152.583 158.453 152.945 159.436C155.052 165.158 156.272 168.122 158.691 174.219L160.435 173.881C161.34 171.869 162.699 168.705 164.309 164.846Z" fill="#3D8DCC"/>
<path d="M149.827 120.988C150.815 123.752 151.886 126.491 153.019 129.2V128.149C151.402 136.072 150.383 144.105 149.971 152.181C149.861 154.726 153.814 154.72 153.925 152.181C154.149 146.907 154.661 141.649 155.46 136.431C155.698 134.882 156.003 133.344 156.31 131.808C156.471 131.001 156.65 130.194 156.793 129.384C156.916 128.647 156.795 127.89 156.449 127.229C155.464 124.818 154.513 122.39 153.636 119.937C153.486 119.439 153.15 119.017 152.698 118.76C152.246 118.503 151.712 118.429 151.207 118.555C150.704 118.698 150.278 119.033 150.019 119.488C149.761 119.943 149.692 120.481 149.827 120.986V120.988Z" fill="#211715"/>
<path d="M164.483 119.811C163.948 121.474 163.452 123.148 162.973 124.828C162.403 126.43 161.957 128.074 161.639 129.744C161.626 130.93 161.767 132.112 162.058 133.261C162.677 137.218 163.35 141.167 164.074 145.109C164.376 146.756 164.66 148.412 165.063 150.038C165.669 152.509 169.483 151.462 168.875 148.987C168.069 145.7 167.567 142.322 166.994 138.988C166.665 137.085 166.348 135.179 166.042 133.271C165.925 132.54 165.809 131.809 165.7 131.078C165.662 130.821 165.626 130.564 165.588 130.307C165.531 129.929 165.616 130.558 165.609 130.468C165.589 130.378 165.578 130.287 165.576 130.196C165.583 130.145 165.558 130.09 165.562 130.038C165.536 130.389 165.827 129.316 165.874 129.145C166.125 128.24 166.378 127.334 166.633 126.427C167.16 124.563 167.704 122.704 168.298 120.859C169.081 118.432 165.265 117.392 164.486 119.808L164.483 119.811Z" fill="#211715"/>
<path d="M155.38 131.361C157.669 131.272 159.958 131.176 162.248 131.136C162.773 131.136 163.275 130.927 163.646 130.557C164.017 130.186 164.225 129.683 164.225 129.159C164.225 128.635 164.017 128.132 163.646 127.761C163.275 127.39 162.773 127.182 162.248 127.182C159.958 127.222 157.669 127.318 155.38 127.408C154.856 127.408 154.353 127.616 153.983 127.987C153.612 128.357 153.403 128.86 153.403 129.385C153.403 129.909 153.612 130.412 153.983 130.782C154.353 131.153 154.856 131.361 155.38 131.361Z" fill="#211715"/>
<path d="M151.162 123.221C153.551 120.649 156.081 118.212 158.74 115.922L156.345 116.231C159.969 118.589 163.697 120.778 167.199 123.315C167.652 123.575 168.19 123.647 168.697 123.514C169.203 123.382 169.636 123.055 169.904 122.605C170.157 122.15 170.224 121.615 170.092 121.111C169.96 120.607 169.639 120.173 169.195 119.9C165.692 117.362 161.963 115.172 158.34 112.817C157.961 112.603 157.522 112.518 157.091 112.574C156.659 112.629 156.257 112.823 155.945 113.126C153.285 115.416 150.755 117.853 148.367 120.425C146.646 122.296 149.437 125.099 151.162 123.221Z" fill="#211715"/>
<path d="M200.486 233.244L161.38 231.466C164.565 241.614 167.581 251.235 169.662 257.89C169.989 258.932 169.938 260.056 169.518 261.064C169.098 262.072 168.336 262.9 167.367 263.402L166.9 263.643L167.566 263.365C177.52 259.213 209.745 244.894 215.855 242.086L212.094 231.207C208.425 232.742 204.459 233.438 200.486 233.244Z" fill="white"/>
<path d="M193.059 239.019C189.637 241.769 187.053 245.501 183.51 249.192C183.002 249.723 180.917 251.114 179.31 249.874C178.252 249.059 178.1 247.01 178.486 246.174C180.568 241.623 181.421 240.244 182.968 237.056C181.083 239.044 179.612 240.708 177.378 242.966L175.102 245.267L172.243 248.157C172.243 248.157 170.222 250.315 168.031 252.658C165.7 245.215 162.707 235.672 159.685 226.047C162.419 222.619 164.826 218.752 168.164 215.819C170.485 213.642 173.436 212.254 176.594 211.854C177.899 211.775 179.209 211.82 180.506 211.987C182.98 212.239 185.446 212.562 187.904 212.954C192.37 213.665 197.377 214.501 200.948 211.478C205.577 215.575 209.78 223.66 212.1 231.207C211.266 231.612 210.464 232.08 209.7 232.607C209.183 232.961 207.521 234.433 206.972 234.732C202.736 236.986 198.11 238.416 193.34 238.944" fill="white"/>
<path d="M246.979 218.304C251.128 218.304 255.278 218.298 259.428 218.284L279.102 218.253C280.765 218.253 282.428 218.25 284.091 218.245C286.634 218.245 286.638 214.291 284.091 214.291C279.802 214.291 275.513 214.298 271.223 214.311L251.665 214.343C250.103 214.343 248.541 214.346 246.979 214.351C244.435 214.351 244.431 218.304 246.979 218.304Z" fill="#211715"/>
<path d="M16.9092 218.309C23.5664 218.309 30.2235 218.271 36.8798 218.253C38.0124 218.253 39.1442 218.244 40.2759 218.244C42.8203 218.244 42.8244 214.291 40.2759 214.291C33.5068 214.291 26.7376 214.328 19.9684 214.347C18.9487 214.351 17.929 214.353 16.9092 214.356C14.3656 214.356 14.3615 218.309 16.9092 218.309Z" fill="#211715"/>
<path d="M214.373 236.531C220.108 234.636 225.716 232.372 231.159 229.754C237.159 226.854 243.558 223.441 247.633 218.014C251.067 213.441 252.396 207.738 253.022 202.166C253.57 197.284 253.014 192.435 252.336 187.591C250.176 173.069 246.781 158.758 242.188 144.814C239.939 137.8 237.225 130.604 233.092 124.458C229.413 118.987 223.954 114.952 218.002 112.234C214.777 110.761 211.412 109.618 208.083 108.419C204.58 107.159 201.073 105.907 197.551 104.699C196.776 104.433 196.003 104.16 195.223 103.908C194.761 103.759 194.888 103.749 195.107 103.888C194.956 103.792 194.777 103.723 194.621 103.635C193.798 103.179 193.018 102.646 192.24 102.124C190.503 100.95 188.802 99.7198 187.113 98.476C186.788 98.2361 186.463 97.9953 186.139 97.7537C185.685 97.4924 185.147 97.4204 184.641 97.5531C184.135 97.6859 183.702 98.0127 183.435 98.4629C183.182 98.9184 183.115 99.4537 183.247 99.9576C183.379 100.461 183.7 100.895 184.144 101.168C186.792 103.254 189.562 105.182 192.438 106.941C193.382 107.435 194.373 107.835 195.396 108.134C197.029 108.689 198.659 109.254 200.284 109.827C203.615 110.999 206.938 112.196 210.258 113.395C216.477 115.642 222.345 118.41 227.038 123.191C228.974 125.273 230.609 127.614 231.898 130.147C233.567 133.266 235.026 136.492 236.263 139.806C238.943 147.125 241.216 154.586 243.072 162.155C244.835 168.981 246.387 175.869 247.603 182.814C249.284 192.411 250.656 202.547 246.67 211.792C244.136 217.67 238.916 221.145 233.491 224.12C228.088 227.027 222.468 229.512 216.682 231.554C215.569 231.956 214.451 232.344 213.327 232.717C210.924 233.516 211.954 237.335 214.378 236.53L214.373 236.531Z" fill="#211715"/>
<path d="M202.777 205.449C206.835 203.728 210.735 201.723 214.698 199.802C215.149 199.536 215.476 199.102 215.609 198.596C215.742 198.089 215.669 197.551 215.407 197.097C215.134 196.655 214.7 196.335 214.197 196.203C213.694 196.071 213.159 196.137 212.703 196.388C208.74 198.308 204.839 200.314 200.781 202.035C200.329 202.3 200.001 202.734 199.868 203.241C199.735 203.748 199.809 204.287 200.072 204.74C200.348 205.18 200.781 205.499 201.284 205.631C201.786 205.762 202.32 205.697 202.777 205.449Z" fill="#211715"/>
<path d="M139.401 104.684C133.432 106.631 127.576 108.908 121.861 111.505C116.337 114.041 110.549 117.048 107.217 122.362C104.051 127.41 102.446 133.338 100.792 139C98.7642 145.929 96.8746 152.908 95.3277 159.961C93.7413 167.192 92.0123 175.117 94.504 182.361C95.3277 184.75 99.1488 183.725 98.3169 181.31C96.2577 175.336 97.4825 168.882 98.7362 162.884C100.136 156.195 101.874 149.579 103.748 143.01C105.378 137.293 106.901 131.535 109.606 126.213C112.201 121.106 116.86 118.296 121.854 115.869C127.882 113.001 134.095 110.539 140.452 108.5C142.857 107.705 141.826 103.887 139.401 104.687V104.684Z" fill="#211715"/>
<path d="M205.399 168.202L211.426 190.266C212.096 192.718 215.911 191.677 215.238 189.215L209.211 167.153C208.541 164.702 204.726 165.743 205.399 168.204V168.202Z" fill="#211715"/>
<path d="M199.185 210.343C196.376 212.136 192.89 211.736 189.75 211.257C185.866 210.664 181.895 209.888 177.957 209.834C169.928 209.722 164.657 216.124 160.294 221.997C160.032 222.451 159.96 222.989 160.093 223.495C160.226 224.001 160.553 224.434 161.003 224.701C161.458 224.954 161.993 225.021 162.497 224.889C163.001 224.757 163.434 224.436 163.707 223.992C165.766 221.22 167.904 218.284 170.753 216.261C172.07 215.288 173.552 214.56 175.127 214.113C176.829 213.746 178.583 213.69 180.305 213.948C183.973 214.312 187.589 215.001 191.248 215.422C194.649 215.813 198.214 215.655 201.18 213.761C203.321 212.396 201.337 208.973 199.185 210.348V210.343Z" fill="#211715"/>
<path d="M168.659 224.737L162.613 230.731C162.247 231.102 162.043 231.604 162.046 232.125C162.048 232.647 162.256 233.146 162.625 233.515C162.993 233.884 163.493 234.092 164.014 234.094C164.536 234.096 165.037 233.892 165.409 233.526L171.455 227.532C171.821 227.161 172.025 226.659 172.022 226.138C172.02 225.616 171.812 225.117 171.443 224.748C171.075 224.379 170.575 224.171 170.054 224.169C169.532 224.167 169.031 224.371 168.659 224.737Z" fill="#211715"/>
<path d="M169.219 241.938C172.267 238.375 175.608 235.062 178.939 231.767C179.305 231.395 179.509 230.894 179.506 230.373C179.504 229.851 179.296 229.352 178.927 228.983C178.559 228.614 178.059 228.406 177.538 228.404C177.016 228.402 176.515 228.606 176.143 228.971C172.809 232.266 169.471 235.579 166.419 239.142C166.236 239.326 166.09 239.545 165.991 239.785C165.892 240.025 165.841 240.282 165.841 240.542C165.841 240.802 165.893 241.059 165.992 241.299C166.092 241.539 166.238 241.757 166.422 241.941C166.606 242.124 166.824 242.27 167.064 242.369C167.304 242.468 167.562 242.519 167.821 242.519C168.081 242.519 168.339 242.467 168.578 242.368C168.818 242.268 169.036 242.122 169.22 241.938H169.219Z" fill="#211715"/>
<path d="M173.635 249.555C175.881 247.285 178.155 245.04 180.358 242.729C182.305 240.687 184.191 238.591 186.173 236.582C186.538 236.211 186.742 235.709 186.74 235.188C186.738 234.666 186.53 234.167 186.161 233.798C185.793 233.429 185.293 233.221 184.772 233.219C184.25 233.217 183.749 233.421 183.377 233.787C181.395 235.795 179.506 237.891 177.562 239.933C175.359 242.244 173.085 244.489 170.84 246.759C170.474 247.131 170.27 247.632 170.272 248.154C170.274 248.675 170.482 249.175 170.851 249.543C171.22 249.912 171.719 250.12 172.241 250.122C172.762 250.125 173.263 249.921 173.635 249.555Z" fill="#211715"/>
<path d="M193.335 240.921C197.371 240.452 201.321 239.415 205.068 237.842C206.646 237.207 208.126 236.355 209.468 235.311C209.739 235.091 210.007 234.867 210.277 234.647C210.41 234.539 210.542 234.43 210.675 234.323C210.93 234.12 210.454 234.479 210.644 234.349C211.431 233.813 212.254 233.33 213.107 232.906C213.56 232.642 213.889 232.208 214.022 231.701C214.155 231.193 214.081 230.654 213.816 230.201C213.551 229.748 213.118 229.419 212.61 229.286C212.103 229.153 211.564 229.227 211.111 229.492C209.754 230.182 208.478 231.022 207.306 231.994C206.931 232.325 206.539 232.636 206.13 232.924C205.357 233.39 204.55 233.798 203.717 234.144C200.415 235.592 196.918 236.543 193.338 236.967C192.819 236.983 192.325 237.197 191.958 237.564C191.591 237.931 191.377 238.425 191.361 238.944C191.364 239.467 191.573 239.969 191.943 240.339C192.313 240.709 192.815 240.918 193.338 240.921H193.335Z" fill="#211715"/>
<path d="M198.825 212.276C202.009 214.652 204.328 218.462 206.174 221.967C208.365 226.137 210.025 230.565 211.116 235.147C211.706 237.618 215.519 236.573 214.929 234.096C213.718 229.076 211.871 224.232 209.431 219.681C207.256 215.61 204.553 211.647 200.818 208.862C200.365 208.6 199.826 208.528 199.32 208.661C198.814 208.794 198.38 209.121 198.114 209.571C197.861 210.026 197.794 210.561 197.926 211.065C198.058 211.569 198.379 212.002 198.823 212.275L198.825 212.276Z" fill="#211715"/>
<path d="M180.664 237.261C179.856 238.874 179.016 240.474 178.225 242.093C177.596 243.263 177.037 244.468 176.551 245.704C176.236 246.75 176.226 247.865 176.524 248.916C176.682 249.553 176.976 250.148 177.388 250.659C177.799 251.17 178.316 251.585 178.904 251.876C179.492 252.167 180.137 252.326 180.792 252.343C181.448 252.359 182.1 252.232 182.701 251.972C185.077 251.027 186.643 248.734 188.259 246.857C190.131 244.531 192.205 242.377 194.459 240.418C194.826 240.046 195.032 239.544 195.032 239.021C195.032 238.497 194.826 237.995 194.459 237.623C194.082 237.263 193.582 237.062 193.061 237.062C192.54 237.062 192.039 237.263 191.663 237.623C188.019 240.588 185.362 244.506 182.083 247.829C182.031 247.881 181.749 248.097 181.971 247.936C182.207 247.764 181.713 248.088 181.658 248.119C181.566 248.172 181.188 248.341 181.477 248.229C181.361 248.274 180.891 248.409 180.997 248.393C180.914 248.427 180.822 248.436 180.734 248.42C180.645 248.404 180.562 248.364 180.496 248.304C180.687 248.416 180.385 248.115 180.562 248.382C180.498 248.284 180.44 248.181 180.388 248.076C180.48 248.258 180.425 248.202 180.388 248.045C180.347 247.866 180.293 247.692 180.262 247.511C180.326 247.886 180.275 247.37 180.269 247.244C180.269 247.161 180.285 247.079 180.277 246.996C180.277 247.04 180.179 247.326 180.257 247.143C180.282 247.082 180.282 247.003 180.304 246.939C180.402 246.649 180.214 247.116 180.365 246.793C180.803 245.862 181.234 244.928 181.683 244.004C182.46 242.412 183.285 240.846 184.077 239.264C184.329 238.808 184.396 238.273 184.264 237.769C184.132 237.265 183.811 236.832 183.368 236.558C182.914 236.299 182.376 236.228 181.871 236.36C181.365 236.493 180.932 236.819 180.664 237.268V237.261Z" fill="#211715"/>
<path d="M168.092 265.272C174.541 262.578 180.935 259.753 187.332 256.935C194.717 253.687 202.094 250.416 209.462 247.124C211.933 246.02 214.398 244.921 216.854 243.793C217.303 243.526 217.63 243.092 217.763 242.586C217.895 242.08 217.824 241.542 217.563 241.089C217.29 240.645 216.857 240.324 216.353 240.192C215.849 240.06 215.313 240.127 214.858 240.38C201.968 246.299 188.955 251.972 175.95 257.631C174.207 258.39 172.464 259.145 170.719 259.896C169.989 260.209 169.259 260.52 168.529 260.831C168.364 260.901 167.41 261.305 167.903 261.097L167.041 261.459C166.545 261.613 166.126 261.95 165.869 262.402C165.613 262.853 165.538 263.386 165.66 263.89C165.802 264.394 166.137 264.822 166.592 265.08C167.047 265.339 167.586 265.408 168.092 265.272Z" fill="#211715"/>
<path d="M37.6927 184.717C63.0536 185.138 120.946 185.27 141.617 185.408C143.149 185.417 144.638 185.912 145.871 186.82C147.103 187.729 148.016 189.006 148.478 190.466C153.396 206.022 164.457 241.24 169.662 257.89C169.881 258.586 169.931 259.324 169.811 260.044C169.69 260.764 169.401 261.445 168.968 262.032C168.535 262.619 167.969 263.096 167.317 263.423C166.665 263.751 165.944 263.92 165.214 263.917C142.81 263.834 82.464 263.62 59.2604 263.151C58.2863 263.132 57.3428 262.807 56.5644 262.22C55.786 261.634 55.2124 260.818 54.9253 259.886C50.3489 245.089 38.5996 207.802 33.1863 190.769C32.9626 190.066 32.9095 189.321 33.0314 188.593C33.1532 187.866 33.4464 187.178 33.8868 186.587C34.3272 185.996 34.9021 185.518 35.5639 185.192C36.2257 184.867 36.9555 184.704 37.6927 184.717Z" fill="white"/>
<path d="M37.6926 186.694C49.5374 186.889 61.3839 186.966 73.2303 187.043C87.0684 187.132 100.907 187.202 114.745 187.254C120.566 187.28 126.386 187.306 132.207 187.333C134.481 187.344 136.754 187.356 139.027 187.369C141.554 187.384 144.152 187.231 145.823 189.529C146.497 190.663 146.984 191.898 147.267 193.187L148.431 196.877C149.357 199.812 150.282 202.748 151.206 205.684C153.354 212.507 155.499 219.33 157.642 226.153C159.754 232.877 161.864 239.601 163.972 246.327C164.861 249.162 165.75 251.999 166.638 254.836C167.277 256.878 169.152 260.423 166.37 261.694C165.433 262.123 164.228 261.937 163.217 261.933L159.943 261.921L152.389 261.893C146.368 261.87 140.348 261.845 134.328 261.817C120.633 261.754 106.937 261.672 93.2404 261.57C82.1287 261.488 71.0145 261.4 59.9045 261.184C58.664 261.16 57.4927 260.866 56.9252 259.628C56.5305 258.6 56.2004 257.549 55.9367 256.48C55.1438 253.924 54.3475 251.371 53.548 248.819C51.5536 242.44 49.5533 236.063 47.5474 229.688C43.6079 217.157 39.6539 204.631 35.6853 192.111C35.3385 191.019 34.6968 189.755 35.0477 188.618C35.2189 188.053 35.5699 187.559 36.0474 187.212C36.5248 186.866 37.1026 186.684 37.6926 186.696C40.2354 186.662 40.242 182.708 37.6926 182.742C36.7045 182.746 35.7293 182.968 34.837 183.392C33.9448 183.817 33.1575 184.434 32.5317 185.199C31.9058 185.963 31.4568 186.857 31.217 187.816C30.9771 188.774 30.9523 189.774 31.1442 190.744C31.4699 192.031 31.8614 193.302 32.3172 194.55C32.7488 195.911 33.1801 197.272 33.6112 198.633C35.6732 205.143 37.73 211.654 39.7815 218.166C43.849 231.067 47.898 243.973 51.9286 256.886C52.8347 259.807 53.4525 263.033 56.5109 264.473C58.8221 265.561 61.8978 265.18 64.4101 265.219C70.0492 265.307 75.6882 265.376 81.3272 265.423C95.2571 265.558 109.187 265.656 123.118 265.716C135.456 265.78 147.794 265.833 160.131 265.876L163.468 265.888C164.88 266.007 166.301 265.85 167.653 265.425C168.588 265.053 169.428 264.474 170.11 263.733C170.791 262.991 171.297 262.105 171.589 261.142C172.127 259.372 171.685 257.72 171.154 256.025C169.251 249.939 167.344 243.854 165.434 237.77C161.139 224.078 156.835 210.388 152.523 196.701C151.688 194.053 151.057 191.165 149.875 188.649C148.202 185.082 144.647 183.448 140.871 183.424C135.947 183.392 131.022 183.366 126.098 183.348C112.424 183.286 98.7509 183.222 85.0775 183.156C71.7402 183.083 58.4029 183.005 45.0664 182.842C42.6085 182.812 40.1505 182.778 37.6926 182.738C35.1474 182.698 35.1474 186.651 37.6926 186.694Z" fill="#211715"/>
<path d="M191.429 26.325C197.689 32.7737 200.503 39.2233 200.18 53.0902C200.054 58.5266 198.31 63.7283 196.173 68.5568C195.791 67.7481 195.2 67.0555 194.462 66.5501C193.724 66.0447 192.865 65.7446 191.972 65.6805C190.561 65.4528 189.117 65.7744 187.936 66.5791L180.122 65.1566L179.688 63.4375C179.055 60.7203 178.041 58.1063 176.676 55.6734C174.449 51.7699 170.986 48.7185 166.834 46.9998C166.834 46.9998 165.011 46.2074 164.139 45.9397C160.117 44.7042 149.625 44.0411 149.625 44.0411C144.842 43.6741 140.04 43.6039 135.248 43.831C133.431 43.8053 131.646 44.3215 130.123 45.3137C128.196 46.7684 127.417 49.2864 126.223 51.4091C124.148 55.0992 119.658 56.8249 118.712 61.0282L117.724 61.118C117.265 57.9501 117.041 54.7526 117.053 51.5516C116.878 41.4794 120.89 31.371 125.824 26.7797C127.999 23.9226 130.562 21.3842 133.441 19.2387C141.239 13.6393 150.656 10.7464 160.252 11.0017C169.774 11.1121 179.411 13.4028 186.589 21.3671L191.429 26.325Z" fill="#645D5C"/>
<path d="M153.764 73.1991C153.274 71.4035 153.764 67.3237 157.141 67.084C161.594 67.2545 161.672 72.2082 160.098 74.4857C158.81 76.3506 155.176 77.026 153.764 73.1991Z" fill="#211715"/>
<path d="M127.299 73.177C126.851 71.3756 127.299 67.2826 130.393 67.0421C134.471 67.2126 134.541 72.182 133.1 74.4669C131.92 76.3376 128.588 77.0155 127.299 73.177Z" fill="#211715"/>
<path d="M140.868 77.1851C140.292 78.1563 139.743 79.1464 139.256 80.1636C138.96 80.7052 138.779 81.3024 138.726 81.9173C138.712 82.2974 138.782 82.676 138.932 83.0257C139.081 83.3753 139.307 83.6875 139.592 83.9395C140.043 84.3654 140.59 84.6762 141.186 84.8455C141.571 84.922 141.961 84.9735 142.353 84.9996L141.827 84.9287L141.871 84.9353C142.126 85.0172 142.398 85.0294 142.659 84.9707C142.921 84.959 143.174 84.878 143.394 84.736C143.618 84.605 143.814 84.4311 143.971 84.2242C144.128 84.0174 144.243 83.7816 144.309 83.5304C144.375 83.2792 144.391 83.0175 144.355 82.7602C144.32 82.5029 144.234 82.2551 144.103 82.031C143.977 81.8082 143.808 81.6131 143.605 81.4574C143.402 81.3018 143.17 81.1886 142.922 81.1249C142.592 81.0771 142.257 81.0475 141.924 81.0055L142.45 81.0763C142.3 81.0543 142.152 81.0151 142.011 80.9593L142.483 81.1587C142.354 81.0999 142.231 81.0279 142.116 80.9437L142.517 81.2526C142.406 81.1682 142.304 81.0736 142.211 80.97L142.521 81.3704C142.495 81.337 142.474 81.3008 142.457 81.2625L142.656 81.7344C142.634 81.6767 142.618 81.6168 142.61 81.5557L142.68 82.0812C142.675 82.0165 142.675 81.9515 142.68 81.8868L142.609 82.4123C142.635 82.2505 142.681 82.0925 142.746 81.942L142.547 82.414C143.059 81.3037 143.637 80.2249 144.277 79.1834C144.408 78.9593 144.494 78.7116 144.529 78.4543C144.564 78.1971 144.548 77.9355 144.483 77.6843C144.417 77.4332 144.302 77.1975 144.145 76.9906C143.988 76.7838 143.792 76.6099 143.568 76.4788C143.344 76.3478 143.096 76.2622 142.839 76.2269C142.582 76.1916 142.32 76.2073 142.069 76.2731C141.818 76.3389 141.582 76.4535 141.375 76.6105C141.168 76.7674 140.995 76.9635 140.863 77.1876L140.868 77.1851Z" fill="#211715"/>
<path d="M188.939 68.2858C189.484 67.9171 190.111 67.6875 190.766 67.6168C191.421 67.5462 192.082 67.6367 192.694 67.8806C193.057 67.9888 193.392 68.1732 193.678 68.4215C193.964 68.6698 194.193 68.9763 194.351 69.3204C195.403 71.4447 194.845 74.5311 194.104 76.7024C193.304 79.0748 191.852 81.1738 189.914 82.7591C189.043 83.4681 188.01 83.9493 186.907 84.1593C185.708 84.527 184.424 84.5022 183.24 84.0885C182.784 83.839 182.25 83.7735 181.747 83.9054C181.244 84.0373 180.811 84.3565 180.536 84.7977C180.276 85.2513 180.204 85.7891 180.337 86.2951C180.47 86.801 180.796 87.2345 181.245 87.5019C182.675 88.0863 184.212 88.3614 185.755 88.309C187.299 88.2566 188.813 87.878 190.2 87.198C192.794 85.8762 194.921 83.7919 196.295 81.2253C197.728 78.7955 198.578 76.0665 198.779 73.2527C198.959 70.6828 198.552 67.8361 196.724 65.8914C195.445 64.6467 193.785 63.869 192.01 63.6836C190.235 63.4981 188.449 63.9158 186.94 64.8691C184.836 66.2768 186.813 69.7034 188.936 68.2834L188.939 68.2858Z" fill="#211715"/>
<path d="M143.631 94.9753C143.772 94.893 143.917 94.8254 144.059 94.7496C144.434 94.552 143.758 94.86 143.996 94.7711C144.078 94.7398 144.161 94.7068 144.243 94.6772C144.61 94.5448 144.985 94.4348 145.365 94.3477C145.551 94.3032 145.739 94.2653 145.927 94.2299C146.022 94.2126 146.118 94.1978 146.213 94.1813C146.689 94.0989 145.914 94.2077 146.196 94.1813C146.608 94.1434 147.025 94.1047 147.442 94.0989C147.827 94.0918 148.212 94.1042 148.595 94.136C148.666 94.1418 149.071 94.2011 148.749 94.145L148.824 94.1582C148.999 94.1868 149.173 94.2214 149.345 94.262C150.183 94.486 151.003 94.7732 151.798 95.1211C152.304 95.2588 152.843 95.1909 153.299 94.9323C153.754 94.6736 154.089 94.2453 154.23 93.7406C154.354 93.2355 154.28 92.7022 154.023 92.25C153.766 91.7978 153.346 91.4609 152.849 91.3082C152.016 90.9401 151.153 90.6434 150.269 90.4211C147.346 89.8134 144.304 90.2165 141.64 91.5644C141.187 91.8291 140.858 92.2627 140.725 92.77C140.592 93.2773 140.666 93.8167 140.931 94.2694C141.196 94.7222 141.629 95.0513 142.137 95.1843C142.644 95.3173 143.183 95.2433 143.636 94.9786L143.631 94.9753Z" fill="#211715"/>
<path d="M166.982 106.611C170.902 104.59 174.505 102.004 177.675 98.9374C179.392 97.1882 180.956 95.2953 182.351 93.2794C183.525 91.6792 184.566 89.9845 185.461 88.2128C185.712 87.7571 185.779 87.2221 185.647 86.7186C185.515 86.2151 185.194 85.7816 184.752 85.5078C184.298 85.2481 183.76 85.1769 183.255 85.3095C182.749 85.4422 182.315 85.768 182.047 86.217C178.403 93.6904 172.225 99.4011 164.986 103.198C162.733 104.38 164.728 107.793 166.982 106.611Z" fill="#211715"/>
<path d="M116.261 64.5083C117.085 70.7009 117.497 76.9462 118.398 83.1297C119.011 88.1072 120.583 92.9186 123.028 97.2973C128.258 106.159 138.7 111.333 148.844 111.202C155.213 111.12 161.243 109.261 166.982 106.609C167.432 106.342 167.758 105.908 167.891 105.402C168.023 104.896 167.952 104.359 167.691 103.905C167.419 103.461 166.985 103.14 166.481 103.007C165.977 102.875 165.442 102.943 164.986 103.196C156.371 107.175 146.174 109.102 137.287 104.804C133.137 102.921 129.578 99.9432 126.991 96.1911C124.61 92.2772 123.053 87.9189 122.415 83.3826C121.357 77.1472 121.05 70.7742 120.213 64.5042C120.197 63.9851 119.983 63.4918 119.616 63.1246C119.249 62.7574 118.756 62.5438 118.236 62.5273C117.279 62.5273 116.118 63.4383 116.26 64.5042L116.261 64.5083Z" fill="#211715"/>
<path d="M187.988 19.9775C183.063 14.6921 176.548 11.1571 169.433 9.90865C162.224 8.53235 154.804 8.7214 147.675 10.463C140.734 12.1705 134.324 15.5684 129.015 20.354C127.627 21.6183 126.335 22.9851 125.151 24.4428C124.14 25.7039 122.998 26.839 122.021 28.1396C119.952 31.0082 118.351 34.1868 117.277 37.5569C114.358 46.2058 114.662 55.5457 116.276 64.4252C116.419 64.9282 116.755 65.3548 117.21 65.613C117.665 65.8712 118.203 65.9404 118.708 65.8057C119.208 65.6565 119.63 65.3203 119.887 64.8673C120.144 64.4142 120.217 63.8792 120.089 63.3741C118.771 56.1256 118.411 48.4652 120.29 41.2842C121.106 38.0311 122.401 34.9175 124.133 32.0456C124.815 30.9162 125.611 29.8599 126.508 28.8933C127.687 27.647 128.708 26.2673 129.898 25.0219C139.153 15.3566 152.982 11.7208 166.148 13.3682C173.447 14.28 180.202 17.2981 185.196 22.7765C186.913 24.6611 189.703 21.8589 187.991 19.9808L187.988 19.9775Z" fill="#211715"/>
<path d="M199.143 66.5503C200.548 63.0939 201.497 59.4698 201.967 55.7689C202.309 52.358 202.309 48.9214 201.967 45.5105C201.531 40.4522 200.362 35.4614 197.701 31.0826C196.309 28.8572 194.675 26.7928 192.829 24.9271C191.058 23.0936 188.264 25.8909 190.033 27.7228C192.941 30.5801 195.16 34.062 196.522 37.9045C198.207 43.0304 198.476 48.6999 198.17 54.049C197.835 57.991 196.879 61.8553 195.337 65.4984C195.201 66.0038 195.27 66.5424 195.528 66.9975C195.787 67.4526 196.214 67.7876 196.718 67.93C197.223 68.0571 197.757 67.9846 198.21 67.7274C198.663 67.4702 198.999 67.0483 199.149 66.5494L199.143 66.5503Z" fill="#211715"/>
<path d="M149.63 42.0642C144.877 41.5934 140.093 41.5218 135.327 41.8501C131.786 42.0337 128.732 43.1251 126.737 46.2C125.927 47.4504 125.377 48.8424 124.668 50.1488C124.056 51.2205 123.282 52.1903 122.371 53.0235C120.084 55.2368 117.61 57.2722 116.811 60.5077C116.202 62.9788 120.013 64.0314 120.624 61.5587C121.194 59.2466 123.103 57.7697 124.764 56.2047C125.743 55.3075 126.629 54.314 127.409 53.2393C128.132 52.0925 128.772 50.8954 129.324 49.6571C129.783 48.5625 130.496 47.5927 131.403 46.8277C132.59 46.126 133.949 45.7715 135.327 45.8046C137.429 45.6959 139.54 45.6811 141.644 45.6852C144.311 45.6421 146.979 45.7535 149.633 46.0188C150.157 46.0158 150.658 45.8065 151.028 45.4364C151.398 45.0664 151.607 44.5653 151.61 44.0419C151.598 43.5214 151.386 43.0255 151.018 42.6573C150.65 42.2891 150.154 42.077 149.633 42.065L149.63 42.0642Z" fill="#211715"/>
<path d="M165.841 48.7049C168.838 49.9446 171.469 51.9293 173.484 54.4708C175.549 57.3076 177.013 60.5363 177.786 63.9589C178.415 66.4226 182.234 65.3782 181.599 62.9079C180.69 58.9936 178.985 55.3084 176.59 52.082C174.281 49.1281 171.273 46.7963 167.836 45.2972C167.38 45.0479 166.846 44.9825 166.343 45.1143C165.84 45.2462 165.407 45.5653 165.131 46.0064C164.871 46.4602 164.799 46.9981 164.932 47.5042C165.065 48.0102 165.391 48.4438 165.841 48.7115V48.7049Z" fill="#211715"/>
<path d="M161.646 45.4274C161.187 43.2963 160.05 41.3712 158.406 39.9407C156.044 37.8212 153.07 36.5072 149.913 36.1888C149.389 36.1888 148.886 36.3971 148.515 36.7678C148.145 37.1385 147.936 37.6414 147.936 38.1657C147.951 38.6852 148.165 39.1793 148.532 39.5468C148.9 39.9143 149.394 40.1274 149.913 40.1425C149.384 40.0758 150.074 40.1714 150.17 40.1887C150.322 40.2158 150.473 40.2447 150.624 40.2768C150.965 40.3482 151.302 40.4328 151.636 40.5305C151.956 40.6244 152.271 40.7301 152.583 40.8476C152.669 40.8806 152.756 40.9135 152.841 40.9489C152.581 40.8358 152.55 40.8224 152.748 40.9086C152.869 40.9654 152.995 41.0198 153.114 41.0783C153.654 41.3376 154.173 41.6372 154.668 41.9744C154.803 42.0659 154.933 42.1631 155.065 42.2578C155.395 42.4958 154.757 42 155.042 42.2421C155.262 42.4299 155.482 42.6153 155.692 42.8187C156.053 43.1732 156.394 43.5466 156.715 43.9373C156.804 44.0411 156.412 43.5255 156.682 43.9035C156.75 43.9974 156.816 44.0922 156.879 44.1885C157.003 44.3731 157.119 44.5622 157.228 44.7561C157.331 44.9381 157.427 45.1234 157.515 45.3129C157.603 45.5023 157.621 45.7733 157.469 45.1902C157.492 45.2799 157.539 45.3689 157.57 45.4562C157.691 45.7889 157.778 46.1327 157.831 46.4825C157.972 46.9872 158.307 47.4158 158.762 47.6744C159.218 47.9331 159.758 48.0009 160.263 47.8631C160.76 47.7103 161.18 47.3734 161.436 46.9215C161.693 46.4695 161.767 45.9365 161.644 45.4315L161.646 45.4274Z" fill="#211715"/>
<path d="M195.4 113.008C196.239 114.222 196.97 115.507 197.585 116.849C198.018 117.658 198.335 118.525 198.525 119.424V118.372C199.069 117.626 199.209 117.373 198.942 117.614C199.255 117.38 199.326 117.322 199.153 117.44C199.054 117.49 198.96 117.548 198.871 117.614C198.556 117.802 198.23 117.973 197.906 118.144C197.021 118.611 196.124 119.05 195.225 119.492C193.386 120.391 191.534 121.262 189.691 122.153C189.433 122.309 189.214 122.52 189.049 122.772C188.885 123.024 188.779 123.31 188.741 123.609C188.703 123.908 188.732 124.211 188.827 124.496C188.923 124.782 189.082 125.042 189.292 125.258C190.966 127.06 192.655 128.851 194.287 130.694C194.771 131.241 195.934 132.144 195.97 132.936C195.992 133.421 195.432 134.003 195.169 134.404C193.495 136.958 191.855 139.532 190.217 142.107C185.923 148.856 181.657 155.623 177.316 162.343C174.889 166.098 172.441 169.839 169.934 173.545C168.504 175.659 171.928 177.639 173.348 175.541C182.14 162.552 190.215 149.101 198.843 136.004C199.582 135.041 199.955 133.846 199.894 132.634C199.681 131.223 199.01 129.92 197.984 128.927C196.074 126.722 194.073 124.6 192.087 122.464L191.687 125.568C194.71 124.106 197.846 122.783 200.754 121.096C201.303 120.831 201.775 120.43 202.125 119.931C202.304 119.521 202.39 119.077 202.376 118.63C202.363 118.183 202.25 117.745 202.047 117.347C201.257 115.101 200.17 112.971 198.814 111.014C198.54 110.571 198.106 110.251 197.603 110.119C197.099 109.987 196.565 110.053 196.109 110.304C195.659 110.572 195.333 111.006 195.2 111.512C195.068 112.018 195.139 112.556 195.4 113.009V113.008Z" fill="#211715"/>
<path d="M139.422 109.97C140.116 117.689 141.96 125.379 143.675 132.919C145.491 141.444 147.738 149.872 150.408 158.17C152.302 163.776 154.604 169.249 156.785 174.746C156.938 175.242 157.274 175.662 157.726 175.919C158.178 176.175 158.711 176.25 159.216 176.126C159.72 175.984 160.147 175.649 160.406 175.194C160.664 174.739 160.733 174.2 160.598 173.695C158.566 168.578 156.473 163.481 154.626 158.291C153.383 154.798 152.371 151.219 151.398 147.643C148.971 138.715 146.87 129.701 145.093 120.602C144.686 118.521 144.301 116.435 143.961 114.342C143.821 113.484 143.69 112.624 143.573 111.762C143.627 112.163 143.573 111.735 143.55 111.576C143.529 111.402 143.508 111.229 143.488 111.055C143.446 110.694 143.408 110.333 143.376 109.972C143.362 109.452 143.15 108.956 142.782 108.589C142.414 108.221 141.919 108.008 141.399 107.995C140.876 107.999 140.375 108.208 140.005 108.578C139.635 108.948 139.426 109.449 139.422 109.972V109.97Z" fill="#211715"/>
<path d="M184.89 101.542C183.401 107.936 181.23 114.121 179.124 120.33C177.546 124.983 175.985 129.633 174.284 134.243C170.772 143.761 167.018 153.194 163.133 162.566C161.678 166.075 160.317 169.343 158.728 172.885C158.479 173.341 158.414 173.875 158.545 174.378C158.677 174.881 158.996 175.314 159.437 175.59C159.891 175.85 160.429 175.922 160.935 175.79C161.441 175.657 161.875 175.33 162.142 174.881C165.495 167.406 168.56 159.791 171.592 152.182C175.337 142.784 178.978 133.334 182.15 123.726C184.466 116.716 187.025 109.794 188.702 102.593C189.279 100.122 185.468 99.0608 184.89 101.542Z" fill="#211715"/>
<path d="M122.527 117.902C123.351 116.684 125.502 113.269 126.385 112.103C127.982 109.987 128.666 107.763 131.149 106.519C133.227 105.474 137.728 105.242 139.986 105.029C142.272 104.816 144.04 104.782 145.703 105.744C146.546 106.15 147.204 106.863 147.543 107.736C147.727 108.496 147.617 109.297 147.235 109.979C146.853 110.661 146.227 111.174 145.483 111.414C143.167 112.123 140.918 112.438 138.555 112.973C137.273 113.124 136.055 113.616 135.027 114.397C134.154 115.229 133.484 117.411 132.92 119.103" fill="white"/>
<path d="M124.234 118.9C125.735 116.676 127.243 114.447 128.716 112.209C129.532 110.968 130.205 109.501 131.454 108.628C132.676 107.938 134.038 107.535 135.439 107.449C136.878 107.245 138.334 107.153 139.781 107.025C141.279 106.893 142.994 106.631 144.411 107.286C145.342 107.718 146.194 108.536 145.278 109.324C144.589 109.71 143.826 109.947 143.039 110.02C141.895 110.289 140.74 110.503 139.589 110.736C137.482 111.163 135.032 111.501 133.485 113.15C132.14 114.583 131.616 116.762 131.014 118.578C130.21 120.998 134.027 122.037 134.826 119.629C135.301 118.198 135.649 116.004 137.088 115.399C137.99 115.083 138.919 114.852 139.864 114.708C141.144 114.437 142.432 114.208 143.709 113.92C145.877 113.432 148.079 112.863 149.088 110.668C149.561 109.716 149.702 108.633 149.491 107.591C149.28 106.549 148.728 105.607 147.922 104.913C144.816 102.21 140.576 102.95 136.818 103.334C135 103.449 133.199 103.765 131.45 104.276C129.557 104.941 127.929 106.202 126.811 107.869C124.713 110.804 122.841 113.913 120.821 116.904C119.393 119.018 122.817 120.999 124.235 118.9H124.234Z" fill="#211715"/>
<path d="M126.296 117.288C132.776 115.613 139.558 115.476 146.1 116.888C146.8 117.022 148.248 117.457 148.681 118.022C149.005 118.549 149.213 119.138 149.292 119.751C149.366 120.909 149.029 122.055 148.34 122.989L146.951 124.534C148.06 124.861 148.999 125.607 149.569 126.613C149.875 127.264 150.013 127.981 149.971 128.699C149.929 129.417 149.707 130.113 149.327 130.724L147.941 132.497C148.375 132.854 148.753 133.274 149.061 133.744C149.364 134.328 149.544 134.967 149.591 135.623C149.637 136.279 149.55 136.938 149.333 137.559C148.764 139.478 148.362 140.86 147.722 142.738C147.335 143.953 146.814 145.121 146.167 146.22C145.863 146.747 145.454 147.206 144.966 147.57C144.478 147.933 143.921 148.192 143.329 148.332C142.881 148.384 142.428 148.341 141.999 148.205C141.569 148.069 141.174 147.844 140.838 147.544C140.502 147.244 140.234 146.876 140.051 146.464C139.868 146.053 139.774 145.607 139.776 145.157L139.457 145.102C138.798 147.39 138.119 149.696 137.627 151.15C137.22 152.34 136.496 154.322 135.994 155.484C135.916 155.671 135.635 156.314 135.342 156.967C130.474 154.801 124.115 152.158 119.367 150.213L119.818 147.886C120.142 145.521 120.323 143.139 120.362 140.753C120.552 135.175 120.744 129.603 120.938 124.038C120.912 122.698 121.264 121.378 121.955 120.229C123.024 118.782 124.556 117.743 126.297 117.285" fill="white"/>
<path d="M117.604 150.852C120.13 152.591 122.84 154.047 125.686 155.192C129.093 156.707 132.589 158.014 136.154 159.106C138.596 159.842 139.639 156.027 137.205 155.294C133.872 154.288 130.604 153.075 127.421 151.662C124.667 150.542 122.044 149.126 119.596 147.438C119.143 147.177 118.605 147.105 118.099 147.237C117.592 147.37 117.159 147.697 116.892 148.147C116.639 148.602 116.572 149.138 116.704 149.642C116.836 150.145 117.157 150.579 117.601 150.852H117.604Z" fill="#211715"/>
<path d="M126.822 119.194C131.299 118.058 135.935 117.68 140.537 118.074C142.634 118.137 144.712 118.484 146.715 119.106C146.815 119.144 147.284 119.435 147.132 119.249C147.231 119.506 147.304 119.772 147.349 120.043C147.326 120.582 147.188 121.109 146.945 121.591C146.589 121.969 146.39 122.469 146.39 122.989C146.39 123.509 146.589 124.009 146.945 124.387C147.318 124.754 147.82 124.96 148.343 124.96C148.866 124.96 149.368 124.754 149.741 124.387C150.568 123.405 151.084 122.199 151.223 120.923C151.361 119.646 151.117 118.358 150.52 117.221C149.244 115.034 145.922 114.809 143.703 114.495C137.726 113.622 131.636 113.924 125.774 115.382C123.303 115.994 124.351 119.809 126.825 119.194H126.822Z" fill="#211715"/>
<path d="M131.951 125.384C135.944 125.049 139.963 125.208 143.918 125.857C145.161 126.033 146.651 126.327 147.416 127.014C147.759 127.372 147.966 127.839 148.003 128.333C148.04 128.828 147.905 129.32 147.62 129.726C147.36 130.179 147.288 130.717 147.421 131.223C147.553 131.729 147.879 132.163 148.329 132.431C148.784 132.685 149.32 132.753 149.824 132.62C150.328 132.488 150.762 132.166 151.034 131.721C151.6 130.812 151.92 129.771 151.963 128.7C152.005 127.629 151.769 126.566 151.276 125.614C150.744 124.751 150.036 124.011 149.197 123.441C148.359 122.872 147.409 122.487 146.41 122.311C144.166 121.853 141.891 121.557 139.604 121.427C137.06 121.171 134.496 121.171 131.951 121.427C131.432 121.442 130.937 121.655 130.57 122.023C130.202 122.39 129.989 122.884 129.974 123.404C129.977 123.927 130.187 124.428 130.557 124.798C130.927 125.168 131.428 125.377 131.951 125.381V125.384Z" fill="#211715"/>
<path d="M132.904 132.063C135.941 132.283 138.976 132.524 142.002 132.863C143.771 133.062 147.302 133.053 147.603 135.458C147.76 136.71 147.134 138.031 146.779 139.204C146.36 140.731 145.853 142.232 145.26 143.7C144.867 144.606 144.321 145.874 143.339 146.282C143.159 146.351 142.965 146.374 142.774 146.35C142.583 146.326 142.402 146.255 142.245 146.144C142.088 146.033 141.96 145.885 141.874 145.712C141.788 145.54 141.746 145.35 141.751 145.158C141.738 144.637 141.526 144.142 141.158 143.774C140.79 143.406 140.295 143.194 139.775 143.181C139.251 143.185 138.751 143.394 138.381 143.764C138.011 144.134 137.802 144.634 137.798 145.158C137.812 145.959 138.006 146.748 138.365 147.464C138.725 148.181 139.241 148.808 139.875 149.298C140.529 149.793 141.294 150.12 142.104 150.249C142.913 150.378 143.742 150.306 144.517 150.04C147.762 148.835 148.959 145.319 149.946 142.308C150.867 139.494 152.391 136.08 151.003 133.183C150.344 131.899 149.307 130.848 148.032 130.171C146.579 129.519 145.017 129.147 143.426 129.072C139.927 128.651 136.416 128.361 132.902 128.106C132.38 128.111 131.879 128.32 131.51 128.69C131.14 129.06 130.93 129.56 130.926 130.083C130.935 130.604 131.147 131.101 131.515 131.47C131.884 131.839 132.381 132.05 132.902 132.06L132.904 132.063Z" fill="#211715"/>
<path d="M137.154 157.603C138.554 154.751 139.664 151.766 140.466 148.692C141.329 145.798 142.124 142.884 143.008 139.997C143.753 137.558 139.939 136.515 139.195 138.946C138.334 141.758 137.558 144.597 136.724 147.416C136.353 148.662 135.978 149.906 135.548 151.133C135.062 152.668 134.459 154.164 133.744 155.607C132.538 157.847 135.95 159.847 137.158 157.603H137.154Z" fill="#211715"/>
<path d="M125.77 115.383C124.549 115.694 123.403 116.245 122.397 117.004C121.392 117.763 120.547 118.714 119.913 119.803C118.547 122.443 118.899 125.847 118.8 128.727C118.69 131.854 118.582 134.979 118.476 138.104C118.466 141.199 118.277 144.29 117.912 147.363C117.789 147.868 117.864 148.401 118.12 148.853C118.377 149.305 118.796 149.642 119.292 149.795C119.798 149.93 120.336 149.862 120.791 149.603C121.246 149.345 121.581 148.918 121.724 148.415C122.581 142.74 122.471 136.898 122.669 131.173C122.718 129.745 122.767 128.319 122.816 126.894C122.794 125.584 122.856 124.273 123.002 122.971C123.332 120.98 124.897 119.743 126.822 119.195C129.264 118.499 128.222 114.682 125.77 115.383Z" fill="#211715"/>
<path d="M161.84 61.4261L164.032 63.4491C164.409 63.8109 164.909 64.0168 165.432 64.0257C165.952 64.0047 166.448 63.8005 166.832 63.4491C167.203 63.0784 167.411 62.5756 167.411 62.0513C167.411 61.527 167.203 61.0242 166.832 60.6535L164.64 58.6346C164.262 58.2724 163.762 58.0664 163.239 58.058C162.719 58.0789 162.223 58.2832 161.839 58.6346C161.468 59.0053 161.26 59.5081 161.26 60.0324C161.26 60.5567 161.468 61.0595 161.839 61.4302L161.84 61.4261Z" fill="#211715"/>
<path d="M67.4414 125.391C69.1135 124.636 70.5487 123.44 71.5937 121.932C72.2237 121.026 72.6359 119.987 72.7982 118.896C72.9605 117.805 72.8685 116.691 72.5294 115.641C70.4702 109.993 63.2678 112.08 59.3214 114.229C58.1557 114.766 57.117 115.544 56.2737 116.512C55.8353 117.076 55.6144 117.778 55.6515 118.491C55.6885 119.204 55.981 119.88 56.4755 120.396C58.2877 122.155 61.0265 121.326 63.0923 120.609C67.7289 118.999 72.9355 116.189 74.8144 111.364C75.2636 110.253 75.4029 109.041 75.2172 107.858C75.0315 106.674 74.5278 105.564 73.76 104.644C72.9322 103.754 71.9237 103.052 70.802 102.584C69.6804 102.116 68.4717 101.893 67.2569 101.931C64.6038 101.908 61.9029 102.701 59.3544 103.385C57.3731 103.897 55.4418 104.586 53.5835 105.444C51.754 106.332 50.0458 107.452 48.5005 108.774C46.7707 110.222 44.0896 112.393 45.4396 114.927C46.5459 117.004 49.2286 117.069 51.2409 116.694C53.4689 116.286 55.6676 115.732 57.8231 115.036C62.1102 113.594 66.1678 111.544 69.8713 108.948C71.8911 107.562 73.9075 106.163 75.1356 103.978C75.8022 102.876 76.178 101.624 76.2278 100.337C76.2777 99.0511 75.9999 97.7732 75.4206 96.6236C73.1324 92.4154 67.1762 92.5472 63.1228 93.1246C57.9438 93.9297 52.8952 95.4211 48.1101 97.5594C45.8921 98.4843 43.7988 99.6833 41.8788 101.128C40.2747 102.216 39.0727 103.802 38.458 105.64C38.0461 107.249 38.4299 109.094 39.967 109.923C40.9725 110.386 42.0948 110.534 43.186 110.347C46.3894 109.981 49.4461 108.7 52.3818 107.432C56.0661 105.824 59.6617 104.019 63.1533 102.026C64.95 101.013 66.7218 99.9574 68.4686 98.8592C70.1862 97.8981 71.8028 96.7667 73.2938 95.482C76.0252 92.8462 77.998 87.2203 74.5154 84.3456C72.9462 83.0507 70.8392 82.6652 68.873 82.4511C66.9405 82.2492 64.9891 82.321 63.0767 82.6644C58.0767 83.551 53.2068 85.0573 48.5796 87.1486C46.5396 88.073 44.5894 89.1837 42.7535 90.4665C42.3113 90.7405 41.9911 91.1738 41.8591 91.677C41.7271 92.1802 41.7934 92.7149 42.0443 93.1707C42.3121 93.6201 42.7457 93.9462 43.2517 94.0789C43.7577 94.2116 44.2956 94.1401 44.7494 93.8799C49.6693 90.4335 55.3611 88.5267 61.1591 87.142C63.6194 86.4458 66.1844 86.1948 68.733 86.4007C69.6597 86.4852 70.5694 86.703 71.4339 87.0473C71.6164 87.1341 71.7921 87.2346 71.9594 87.348C71.639 87.1231 72.2337 87.6338 72.0698 87.4386C71.9446 87.2878 72.2452 87.7425 72.2625 87.7853C72.3284 87.9671 72.3713 88.1564 72.3902 88.3488C72.6093 90.4706 71.0369 92.4104 69.3961 93.5323C67.4003 94.8963 65.3476 96.1764 63.2653 97.4037C58.9779 99.9777 54.5195 102.256 49.9214 104.221C47.9588 105.083 45.923 105.766 43.8384 106.264C43.6225 106.311 43.4059 106.352 43.1885 106.392C43.1119 106.407 43.0336 106.417 42.957 106.43C42.6687 106.478 43.4413 106.392 42.9669 106.43C42.6374 106.453 42.3219 106.467 41.9949 106.464C41.4949 106.464 42.0237 106.492 42.0279 106.482C41.8992 106.467 41.7732 106.435 41.6531 106.387C41.8088 106.516 42.0518 106.601 41.7758 106.421C41.8936 106.497 42.0987 106.738 41.8582 106.443L42.3664 107.315C42.354 107.28 42.1275 106.687 42.2643 107.104C42.2461 107.051 42.2832 106.461 42.2272 106.887C42.2453 106.659 42.3158 106.439 42.4331 106.243C42.8475 105.548 43.39 104.937 44.0319 104.445C45.8779 103.005 47.9224 101.84 50.1018 100.985C52.4795 100.005 54.9141 99.1688 57.3923 98.4811C59.6386 97.7861 61.9365 97.2705 64.2644 96.9391C67.1227 96.5775 73.891 96.5915 72.0261 101.368C71.2024 103.481 69.1144 104.714 67.3245 105.918C65.4594 107.188 63.5099 108.329 61.4894 109.332C59.6403 110.23 57.7207 110.973 55.7499 111.556C54.6829 111.876 53.606 112.159 52.5193 112.406C51.5106 112.707 50.4716 112.896 49.4214 112.968C49.1902 112.952 48.9612 112.913 48.7377 112.851L48.6471 112.799C48.7336 112.842 48.8092 112.904 48.8684 112.98C48.9277 113.056 48.9689 113.144 48.9889 113.238C49.227 114.027 48.7039 113.836 49.2122 113.51C49.6306 113.165 50.0204 112.786 50.3777 112.377C50.82 111.972 51.2731 111.574 51.745 111.204C53.1729 110.086 54.7488 109.171 56.4278 108.486C58.3046 107.766 60.2318 107.184 62.1937 106.746C64.4424 106.198 67.1531 105.323 69.4125 106.272C69.8104 106.409 70.1731 106.631 70.4745 106.924C70.7759 107.218 71.0084 107.574 71.1554 107.968C71.3023 108.362 71.36 108.784 71.3243 109.203C71.2886 109.622 71.1603 110.028 70.9488 110.391C70.0097 112.368 68.1531 113.727 66.3171 114.805C65.0645 115.548 63.7466 116.175 62.3798 116.677C61.7005 116.923 61.0116 117.142 60.3132 117.332C60.0677 117.416 59.8156 117.478 59.5595 117.518C59.7399 117.502 58.9606 117.585 59.1476 117.481C59.1814 117.462 59.2399 117.646 59.2679 117.601C59.0845 118.803 59.1668 119.195 59.515 118.777C59.7077 118.64 59.9032 118.506 60.1015 118.375C60.6961 117.986 61.3136 117.634 61.9507 117.319C63.1856 116.72 64.4951 116.289 65.8443 116.037C66.7355 115.866 68.0048 115.717 68.6012 116.506C68.9383 117.098 69.0348 117.797 68.8706 118.457C68.6465 119.29 68.2175 120.053 67.6227 120.676C67.593 120.71 67.1482 121.111 67.4909 120.841C67.3443 120.951 67.1908 121.051 67.0312 121.14C66.5189 121.446 65.9761 121.704 65.4481 121.98C63.1944 123.163 65.1903 126.577 67.4439 125.395L67.4414 125.391Z" fill="#211715"/>
</g>
</svg>
