<svg width="300" height="300" viewBox="0 0 300 300" fill="none" xmlns="http://www.w3.org/2000/svg">
<rect width="300" height="300" rx="150" fill="#FF7A73"/>
<mask id="mask0_30_12" style="mask-type:alpha" maskUnits="userSpaceOnUse" x="0" y="0" width="300" height="300">
<circle cx="150" cy="150" r="150" fill="#FFD633"/>
</mask>
<g mask="url(#mask0_30_12)">
<path d="M178.687 142.672C176.016 170.204 167.075 197.638 163.321 208.489C161.367 214.139 159.063 219.634 155.122 228.17L153.349 227.721C148.534 217.003 134.039 181.803 127.195 160.912C124.107 151.486 120.362 141.815 117.937 130.678C116.696 131.267 114.92 132.112 114.92 132.112L106.531 136.098H106.694C89.5209 142.581 74.6089 148.024 63.8409 162.144C54.0439 174.991 40.4269 229.326 38.4289 240.719C37.3339 246.637 35.3819 257.633 35.4069 264.619C35.4099 265.46 35.4699 266.906 35.6269 268.471C35.6269 268.471 35.7909 270.072 36.0879 271.646C85.2779 271.646 217.904 271.646 217.904 271.646C225.84 271.272 233.807 268.263 238.074 262.56C241.439 258.073 244.195 250.704 244.182 245.614C244.167 235.106 240.288 221.54 234.011 206.183C228.739 193.284 223.895 181.78 217.292 167.833C214.371 161.664 210.212 156.051 205.09 151.427C199.607 146.477 195.519 145.522 184.507 139.454C182.62 140.419 180.709 141.211 178.765 141.83C178.739 142.111 178.712 142.392 178.685 142.673L178.687 142.672Z" fill="#BDBDBD"/>
<path d="M204.076 258.295C206.606 259.081 211.345 258.752 213.867 257.907C220.108 255.816 221.806 252.65 223.083 247.313C223.867 244.008 223.681 239.893 222.854 237.056C221.006 230.713 216.637 226.553 212.458 225.046C212.422 225.482 212.31 225.914 212.158 226.326C211.415 228.343 209.694 229.836 207.836 230.917C207.639 231.031 207.44 231.141 207.238 231.246C207.887 235.739 207.533 238.301 206.921 242.489C206.396 246.081 204.503 249.442 201.877 251.949C201.511 252.298 201 252.652 200.541 252.441L204.076 258.296V258.295Z" fill="white"/>
<path d="M154.661 228.859C151.16 229.148 148.338 229.471 144.315 229.889C141.391 230.193 137.51 232.218 136.662 234.739C134.318 241.71 132.882 248.113 132.746 254.432C132.704 256.37 133.341 260.044 136.193 260.967C138.288 261.646 140.358 261.448 144.431 260.156C144.52 261.783 145.834 263.978 148.715 264.397C150.388 264.641 152.03 264.354 153.213 263.511L154.884 262.32C154.763 265.332 155.714 267.803 158.657 268.717C162.082 269.781 163.709 267.395 165.483 266.017C165.704 268.447 166.831 270.443 168.586 271.162C170.76 272.053 172.72 271.527 174.042 269.427C174.91 267.103 177.453 262.227 179.62 260.61C183.796 257.494 184.942 257.161 189.98 255.246C197.409 252.736 200.684 248.154 201.206 244.092C201.727 240.03 200.43 235.804 197.868 232.609C196.904 231.408 195.777 230.35 194.654 229.296C191.787 226.607 188.415 223.731 184.498 224.056L176.428 224.165C169.499 227.056 165.617 228.086 157.839 228.617C156.697 228.695 155.652 228.774 154.661 228.856V228.859Z" fill="white"/>
<path d="M141.612 199.581C136.361 186.452 130.747 171.755 127.195 160.911C124.023 151.227 120.157 141.284 117.734 129.765C119.141 129.947 120.601 130.06 122.114 130.101C122.114 130.101 160.8 131.154 179.824 131.672C179.237 137.352 178.692 142.631 178.692 142.631C176.026 170.177 167.076 197.632 163.321 208.488C161.367 214.138 159.063 219.633 155.122 228.169L153.348 227.72C151.032 222.565 146.477 211.746 141.611 199.58L141.612 199.581Z" fill="white"/>
<path d="M201.161 270.546C210.241 275.509 222.293 275.134 231.511 270.751C236.346 268.452 239.997 264.752 242.479 260.032C245.318 254.632 246.873 248.811 246.487 242.704C245.657 229.564 240.928 216.788 235.988 204.715C230.596 191.538 225.229 178.217 218.817 165.495C215.567 159.047 210.93 153.014 205.305 148.457C200.443 144.518 194.62 142.103 189.121 139.213C186.389 137.777 183.96 141.919 186.698 143.358C191.371 145.814 196.376 147.882 200.702 150.942C205.317 154.207 209.197 158.792 212.201 163.548C215.819 169.275 218.385 175.736 221.138 181.908C223.791 187.856 226.345 193.848 228.839 199.864C233.832 211.91 238.905 224.158 241.043 237.097C241.875 242.129 242.176 247.072 240.65 251.997C239.198 256.686 236.81 261.505 232.815 264.418C228.672 267.439 223.469 268.911 218.396 269.22C213.323 269.529 207.996 268.813 203.586 266.402C200.874 264.92 198.449 269.063 201.163 270.547L201.161 270.546Z" fill="#211715"/>
<path d="M196.56 251.768C199.446 249.439 200.877 246.663 201.206 244.094C201.691 240.319 200.604 236.402 198.39 233.304C198.66 233.487 198.986 233.568 199.32 233.528C200.794 233.352 204.259 232.797 207.239 231.246C207.888 235.739 207.533 238.301 206.922 242.489C206.397 246.081 204.504 249.442 201.878 251.949C201.512 252.298 201.001 252.652 200.542 252.441C200.542 252.441 197.605 252.641 195.112 252.818C195.631 252.481 196.113 252.131 196.56 251.77V251.768Z" fill="#211715"/>
<path d="M211.823 227.361C217.444 229.464 220.944 235.902 221.166 241.803C221.277 244.743 220.724 248.12 219.522 250.594C218.47 252.759 216.954 254.073 214.643 255.07C211.701 256.339 207.829 256.875 204.715 255.981C201.74 255.127 200.47 259.758 203.439 260.61C206.98 261.626 211.421 261.309 214.875 260.095C218.229 258.916 221.285 257.065 223.158 253.957C227.287 247.108 226.832 237.455 222.677 230.772C220.412 227.128 217.129 224.241 213.099 222.733C211.885 222.279 210.468 223.239 210.147 224.409C209.777 225.754 210.605 226.905 211.823 227.361Z" fill="#211715"/>
<path d="M199.904 254.754C202.629 255.374 204.489 252.875 205.923 250.931C207.219 249.173 208.216 247.16 208.819 245.06C209.429 242.934 209.64 240.632 209.848 238.436C210.063 236.164 209.989 233.912 209.697 231.65C209.531 230.365 208.713 229.25 207.297 229.25C206.129 229.25 204.73 230.355 204.897 231.65C205.359 235.229 205.171 238.792 204.528 242.339C204.238 243.939 203.689 245.442 202.874 246.848C202.478 247.531 202.04 248.193 201.538 248.803C201.232 249.175 200.464 250.145 200.185 250.189H201.461L201.181 250.125C199.918 249.838 198.583 250.512 198.229 251.801C197.897 253.01 198.636 254.465 199.905 254.753L199.904 254.754Z" fill="#211715"/>
<path d="M207.837 230.917C209.695 229.836 211.416 228.343 212.159 226.326C212.383 225.717 212.521 225.065 212.455 224.42C212.31 222.981 211.214 221.84 210.133 220.88C205.564 216.82 200.114 213.757 194.271 211.965C193.568 211.749 192.493 211.775 191.759 211.825C189.453 211.982 187.875 212.585 186.625 213.666C185.026 215.049 184.145 216.091 183.926 218.194C183.746 219.927 184.001 221.38 184.835 222.915C185.122 223.444 185.898 223.763 186.48 223.917C188.579 224.471 190.189 225.449 191.95 226.932C195.006 229.507 197.205 232.054 198.137 233.086C198.439 233.42 198.872 233.582 199.318 233.529C200.892 233.341 204.736 232.721 207.835 230.918L207.837 230.917Z" fill="#FEBE69"/>
<path d="M209.048 232.989C211.65 231.434 214.128 229.13 214.726 226.024C215.414 222.45 212.911 220.003 210.368 217.941C207.825 215.879 205.116 214.069 202.199 212.596C199.515 211.241 196.272 209.569 193.219 209.402C187.413 209.085 181.573 212.83 181.474 219.038C181.449 220.613 181.817 222.131 182.481 223.553C183.251 225.203 184.583 225.828 186.231 226.339C189.058 227.214 191.258 229.394 193.308 231.435C194.247 232.37 195.147 233.341 196.032 234.327C197.275 235.712 198.567 236.044 200.359 235.79C203.389 235.362 206.369 234.494 209.047 232.988C211.74 231.474 209.323 227.326 206.624 228.843C204.734 229.906 202.661 230.519 200.538 230.923C200.177 230.992 199.651 230.981 199.311 231.129C199.583 231.011 199.465 231.262 199.318 231.127C199.484 231.28 199.826 231.581 199.71 231.251C199.497 230.643 198.475 229.881 198.037 229.416C196.273 227.542 194.398 225.754 192.343 224.201C191.462 223.535 190.541 222.947 189.534 222.489C188.996 222.244 188.444 222.016 187.882 221.829C187.742 221.782 186.405 221.214 186.906 221.703C186.321 221.131 186.258 219.796 186.272 219.038C186.288 218.161 186.441 217.312 187.005 216.613C188.113 215.241 189.591 214.463 191.334 214.258C193.526 214.001 195.465 214.81 197.457 215.656C199.743 216.627 201.941 217.831 204.016 219.195C205.092 219.902 206.141 220.652 207.137 221.469C208.059 222.225 209.337 223.081 209.892 224.173C210.841 226.04 207.92 228.068 206.623 228.843C203.974 230.426 206.385 234.578 209.046 232.988L209.048 232.989Z" fill="#211715"/>
<path d="M175.79 221.854C171.036 223.829 166.24 225.402 161.099 225.943C155.202 226.563 149.226 226.698 143.36 227.614C140.846 228.006 138.346 229.204 136.466 230.918C134.297 232.896 133.697 235.955 132.924 238.67C132.065 241.687 131.369 244.751 130.924 247.858C130.564 250.375 130.15 253.065 130.397 255.611C130.655 258.259 131.614 260.925 133.89 262.489C136.461 264.256 139.917 263.835 142.759 263.14C145.758 262.407 144.488 257.777 141.483 258.511C139.953 258.885 137.751 259.397 136.456 258.44C135.348 257.622 135.155 255.791 135.144 254.646C135.094 249.457 136.296 244.218 137.748 239.269C138.388 237.088 138.636 235.014 140.616 233.742C142.493 232.536 144.435 232.277 146.604 232.047C151.693 231.509 156.818 231.25 161.897 230.652C167.217 230.026 172.13 228.532 177.065 226.481C178.261 225.984 179.115 224.89 178.741 223.529C178.431 222.399 176.993 221.352 175.789 221.853L175.79 221.854Z" fill="#211715"/>
<path d="M146.187 241.465C144.578 246.448 142.632 251.551 141.989 256.777C141.65 259.536 141.979 262.517 143.992 264.606C146.591 267.303 151.349 267.608 154.425 265.586C155.507 264.875 155.965 263.463 155.286 262.302C154.657 261.227 153.09 260.726 152.002 261.441C151.012 262.092 149.81 262.268 148.659 261.943C147.686 261.668 147.212 261.201 146.886 260.422C147.042 260.795 146.829 260.129 146.824 260.111C146.768 259.889 146.72 259.66 146.686 259.433C146.754 259.89 146.673 259.108 146.672 259.092C146.659 258.824 146.658 258.555 146.664 258.287C146.697 256.98 146.976 255.707 147.287 254.442C148.259 250.482 149.562 246.618 150.814 242.741C151.765 239.795 147.132 238.533 146.185 241.465H146.187Z" fill="#211715"/>
<path d="M157.486 244.75C156.27 247.966 155.101 251.195 154.124 254.492C153.243 257.464 152.229 260.635 152.519 263.777C152.785 266.667 154.115 269.332 156.863 270.579C158.503 271.323 160.365 271.633 162.127 271.133C163.708 270.684 164.972 269.653 166.175 268.58C168.485 266.52 165.081 263.135 162.781 265.186C162.119 265.777 161.44 266.459 160.546 266.58C159.764 266.686 158.803 266.3 158.314 265.902C157.849 265.524 157.603 265.037 157.417 264.264C157.214 263.423 157.237 262.325 157.366 261.298C157.677 258.822 158.551 256.359 159.298 253.987C160.144 251.301 161.121 248.66 162.117 246.026C162.575 244.813 161.608 243.394 160.441 243.074C159.093 242.704 157.949 243.533 157.489 244.75H157.486Z" fill="#211715"/>
<path d="M167.974 248.955C166.688 251.825 165.48 254.735 164.562 257.746C163.764 260.364 162.834 263.209 163.077 265.973C163.331 268.866 164.576 271.952 167.375 273.236C170.739 274.78 174.097 273.67 176.114 270.64C176.832 269.561 176.325 267.984 175.253 267.356C174.077 266.668 172.69 267.135 171.969 268.217C171.763 268.526 171.457 268.836 171.272 268.959C171.199 269.007 170.736 269.2 170.995 269.103C170.515 269.281 171.101 269.16 170.582 269.178C169.884 269.202 169.298 268.921 168.881 268.497C168.481 268.09 168.159 267.336 167.978 266.542C167.78 265.673 167.774 264.602 167.962 263.652C168.802 259.419 170.359 255.3 172.118 251.376C172.648 250.194 172.46 248.796 171.257 248.092C170.232 247.492 168.506 247.764 167.973 248.953L167.974 248.955Z" fill="#211715"/>
<path d="M176.356 270.067C176.989 268.413 178.141 266.285 179.278 264.6C180.393 262.949 181.841 261.872 183.503 260.8C187.265 258.375 191.708 257.632 195.614 255.326C199.136 253.247 202.189 250.04 203.266 246.01C204.621 240.941 202.991 235.285 199.816 231.236C197.856 228.737 195.36 226.509 192.827 224.6C190.421 222.785 187.567 221.485 184.496 221.658C181.425 221.831 181.405 226.632 184.496 226.458C186.681 226.335 188.53 227.323 190.237 228.616C192.253 230.142 194.259 232.009 195.875 233.951C198.457 237.055 199.76 241.674 198.379 245.557C198.263 245.882 197.82 246.756 197.445 247.332C197.009 248.001 196.556 248.515 195.948 249.107C194.478 250.541 192.651 251.627 190.76 252.412C187.047 253.952 183.319 255.062 179.991 257.39C177.914 258.843 176.33 260.343 174.936 262.473C173.644 264.448 172.57 266.587 171.727 268.791C171.264 270.002 172.239 271.424 173.403 271.743C174.755 272.115 175.891 271.282 176.356 270.067Z" fill="#211715"/>
<path d="M149.633 159.063C148.533 158.993 147.433 158.895 146.336 158.77C138.851 158.321 131.535 156.617 124.747 153.658C125.584 156.105 126.411 158.516 127.196 160.911C134.611 183.547 151.008 222.977 154.343 229.87C158.765 220.344 161.242 214.504 163.322 208.489C166.526 199.226 173.511 177.88 177.15 154.705C168.493 158.275 159.041 159.666 149.633 159.063Z" fill="#7ABEE6"/>
<path d="M113.71 130.039C111.265 131.201 108.819 132.363 106.374 133.525L105.321 134.025C104.184 134.565 103.799 136.283 104.46 137.309C105.214 138.478 106.527 138.748 107.744 138.17C110.189 137.008 112.635 135.846 115.08 134.684L116.133 134.184C117.27 133.644 117.655 131.926 116.994 130.9C116.24 129.731 114.927 129.461 113.71 130.039Z" fill="#211715"/>
<path d="M88.6359 218.821C85.9609 228.612 83.2859 238.404 80.6109 248.195C79.7959 251.179 84.4249 252.452 85.2399 249.471C87.9149 239.68 90.5899 229.888 93.2649 220.097C94.0799 217.113 89.4509 215.84 88.6359 218.821Z" fill="#211715"/>
<path d="M169.185 154.851C161.842 156.757 154.346 157.145 146.809 156.422C139.603 155.731 132.645 154.472 125.953 151.583C124.764 151.07 123.379 151.231 122.669 152.444C122.077 153.457 122.334 155.211 123.53 155.728C130.879 158.9 138.39 160.466 146.335 161.17C154.481 161.891 162.512 161.542 170.461 159.479C173.449 158.704 172.182 154.074 169.185 154.851Z" fill="#211715"/>
<path d="M176.292 142.632C174.967 156.133 172.209 169.477 168.733 182.579C166.315 191.694 163.582 200.762 160.377 209.635C158.245 215.537 155.677 221.265 153.05 226.96C152.507 228.136 152.717 229.545 153.911 230.244C154.946 230.85 156.649 230.566 157.195 229.383C161.433 220.195 165.164 210.906 168.254 201.274C171.907 189.889 175.035 178.322 177.423 166.604C179.038 158.681 180.302 150.682 181.091 142.634C181.218 141.342 179.897 140.234 178.691 140.234C177.288 140.234 176.418 141.338 176.291 142.634L176.292 142.632Z" fill="#211715"/>
<path d="M115.94 132.749C117.932 141.309 120.845 149.587 123.662 157.899C125.776 164.135 127.873 170.367 130.155 176.545C134.848 189.247 139.86 201.835 145.05 214.342C147.076 219.225 149.113 224.108 151.277 228.932C151.808 230.115 153.527 230.397 154.561 229.793C155.778 229.081 155.955 227.697 155.422 226.509C151.064 216.796 147.146 207.035 143.148 196.991C138.215 184.596 133.434 172.132 129.244 159.465C126.174 150.183 122.788 141.012 120.569 131.473C119.869 128.466 115.24 129.739 115.94 132.749Z" fill="#211715"/>
<path d="M102.452 144.141C100.691 146.636 99.3069 149.459 98.2479 152.319C97.8469 153.403 97.4039 154.673 98.0319 155.761C98.4299 156.449 99.1449 156.872 99.8139 157.258C103.681 159.49 107.84 161.253 111.856 163.195L111.37 159.426C109.741 161.185 108.098 162.931 106.483 164.703C104.887 166.454 102.746 168.33 101.725 170.49C99.8749 174.403 102.786 178.019 104.7 181.288C109.117 188.831 113.753 196.249 118.489 203.596C121.531 208.315 124.626 213.001 127.783 217.644C129.51 220.184 133.67 217.785 131.928 215.221C126.735 207.581 121.702 199.831 116.811 191.994C114.711 188.629 112.638 185.248 110.606 181.842C109.713 180.346 108.828 178.845 107.956 177.337C107.308 176.217 106.22 174.878 105.909 173.617C105.693 172.744 106.311 172.132 106.844 171.514C107.692 170.529 108.555 169.557 109.428 168.593C111.187 166.65 112.985 164.743 114.765 162.82C115.739 161.768 115.731 159.752 114.279 159.051C111.822 157.863 109.352 156.703 106.901 155.504C105.686 154.91 104.471 154.312 103.275 153.68C102.879 153.471 102.482 153.26 102.096 153.032C101.953 152.948 101.794 152.809 101.64 152.751C101.433 152.607 101.522 152.678 101.906 152.966C101.588 152.671 101.756 152.978 102.412 153.886V155.162C102.595 153.962 103.175 152.781 103.684 151.691C104.516 149.908 105.461 148.172 106.596 146.563C107.344 145.503 106.786 143.894 105.735 143.279C104.534 142.577 103.201 143.078 102.451 144.14L102.452 144.141Z" fill="#211715"/>
<path d="M188.759 154.184C190.442 156.218 191.622 158.518 192.775 160.873C192.791 160.907 192.903 161.279 192.917 161.279C192.778 161.283 193.493 159.91 193.472 159.897C193.46 159.889 193.097 160.061 193.003 160.102C192.469 160.337 191.936 160.575 191.402 160.811C190.455 161.23 189.433 161.586 188.525 162.085C186.115 163.412 186.041 166.516 187.7 168.46C188.534 169.438 189.475 170.335 190.36 171.268C190.794 171.725 191.227 172.184 191.656 172.647C192.109 173.136 192.655 174.016 193.217 174.373L193.516 174.717C193.585 173.862 193.528 173.636 193.346 174.04C193.193 174.191 193.113 174.468 193.009 174.659C192.743 175.147 192.476 175.635 192.208 176.122C191.624 177.185 191.038 178.246 190.449 179.306C187.759 184.152 185.034 188.979 182.293 193.797C179.295 199.066 176.278 204.324 173.217 209.556C171.654 212.228 175.801 214.646 177.362 211.979C183.15 202.086 188.821 192.121 194.388 182.101C194.983 181.029 195.577 179.957 196.168 178.883C196.779 177.772 197.561 176.637 197.98 175.437C199.038 172.406 195.606 169.823 193.757 167.874C193.272 167.362 192.784 166.853 192.297 166.343C192.128 166.166 191.307 165.179 191.231 165.19C191.244 165.188 191.585 166.561 190.979 166.217C191.029 166.245 191.511 165.981 191.549 165.965C192.768 165.425 193.987 164.884 195.207 164.345C197.488 163.337 198.164 161.412 197.213 159.13C195.95 156.099 194.249 153.318 192.157 150.789C191.33 149.79 189.619 149.933 188.763 150.789C187.774 151.778 187.934 153.181 188.763 154.183L188.759 154.184Z" fill="#211715"/>
<path d="M194.87 132.083C202.662 130.265 208.401 126.725 212.264 120.895C217.177 113.429 217.632 104.605 216.674 95.7148C215.545 85.3997 214.068 72.9688 212.437 62.7078C209.913 47.0278 207.319 38.6198 200.213 29.8848C193.792 22.8248 179.961 13.8438 162.558 12.6098C151.931 11.8678 144.331 13.2608 136.95 15.6698L135.599 16.3128L134.712 16.7348C131.27 17.7588 125.75 20.4508 122.787 22.7468C121.662 23.6188 120.495 24.4378 119.424 25.3758C115.5 28.8158 112.191 32.9978 109.576 37.5068C105.077 45.2618 103.24 57.0848 100.604 66.2258C97.471 77.0758 94.474 84.4417 92.12 93.6028C90.583 99.6048 90.963 107.171 94.567 114.219C99.446 123.761 108.714 129.734 122.114 130.103" fill="#645D5C"/>
<path d="M142.193 136.22C134.103 131.344 128.949 125.348 128.949 125.348C126.445 122.396 124.447 119.401 122.61 116.253C122.61 116.253 120.824 113.053 120.1 111.244C120.1 111.244 119.91 110.769 119.611 110.029C116.553 110.153 113.322 108.82 112.074 107.951C108.111 105.177 106.407 101.483 105.305 98.8268C103.74 95.0688 103.336 88.8968 105.189 85.4348C105.81 84.2778 107.295 82.2818 111.004 81.9668C112.909 81.8048 115.217 82.3318 116.812 83.9878C119.144 82.9978 126.522 79.8628 126.522 79.8628C135.599 77.3498 142.548 75.2598 152.712 71.0368C167.897 64.7278 175.59 59.2328 185.759 49.7638C185.859 49.8708 185.927 49.9448 185.927 49.9448L190.553 54.9658C199.173 64.7528 207.27 82.3798 207.902 92.2918C206.933 97.6328 206.085 102.914 205.204 107.857C203.146 119.456 198.891 129.778 190.265 135.942C181.215 142.399 171.919 144.687 160.996 142.98C159.237 142.711 157.554 142.364 155.918 141.935C151.683 140.833 146.111 138.357 142.194 136.228" fill="white"/>
<path d="M195.508 134.397C201.538 132.961 207.365 130.252 211.604 125.618C216.316 120.466 218.653 113.819 219.294 106.947C219.948 99.9288 218.781 92.8448 217.96 85.8868C217.086 78.4798 216.145 71.0788 215.009 63.7068C213.277 52.4648 211.101 40.9068 204.395 31.4428C197.938 22.3298 187.358 16.2748 176.876 12.9368C169.28 10.5178 161.193 9.66776 153.244 10.1138C146.949 10.4668 140.125 11.5098 134.389 14.2398C133.219 14.7968 132.913 16.4728 133.528 17.5238C134.228 18.7208 135.637 18.9438 136.812 18.3848C137.145 18.2268 137.475 18.0548 137.813 17.9088C137.901 17.8708 138.421 17.7128 137.926 17.8748C138.261 17.7648 138.598 17.6608 138.935 17.5568C140.291 17.1398 141.658 16.7598 143.037 16.4268C145.736 15.7748 148.473 15.3028 151.239 15.0578C157.908 14.4688 164.738 14.8098 171.259 16.3588C177.064 17.7378 182.62 19.9888 187.748 23.0378C191.64 25.3518 195.541 28.1278 198.518 31.5808C205.22 39.3558 207.714 49.5718 209.465 59.4328C210.655 66.1338 211.557 72.8868 212.402 79.6388C213.247 86.3908 214.302 93.2538 214.62 100.076C214.954 107.251 213.93 114.62 209.59 120.555C205.887 125.619 200.201 128.347 194.234 129.768C191.23 130.483 192.502 135.113 195.51 134.397H195.508Z" fill="#211715"/>
<path d="M134.488 14.3017C124.575 17.0787 115.98 23.9727 110.092 32.2657C104 40.8467 102.011 51.0677 99.4909 61.0837C96.9119 71.3337 92.9869 81.1707 90.2269 91.3657C88.8389 96.4947 88.4849 101.632 89.4989 106.872C90.4379 111.725 92.5629 116.355 95.5819 120.263C101.965 128.525 111.912 132.178 122.113 132.503C125.203 132.601 125.199 127.801 122.113 127.703C114.056 127.446 106.117 124.893 100.582 118.803C94.6729 112.303 92.3059 102.749 94.4339 94.2407C96.8759 84.4757 100.681 75.1077 103.328 65.3997C105.766 56.4557 107.017 46.6447 111.758 38.5317C117.03 29.5087 125.537 21.7967 135.765 18.9317C138.735 18.0997 137.473 13.4667 134.489 14.3027L134.488 14.3017Z" fill="#211715"/>
<path d="M160.956 97.1618C161.758 94.8188 161.454 89.3638 156.987 88.7608C151.063 88.6118 150.543 95.1798 152.439 98.3348C153.992 100.918 158.76 102.121 160.956 97.1618Z" fill="#211715"/>
<path d="M196.083 99.3648C196.83 97.0108 196.581 91.5418 192.493 90.9608C187.067 90.8428 186.554 97.4328 188.275 100.587C189.684 103.169 194.044 104.351 196.083 99.3648Z" fill="#211715"/>
<path d="M173.314 105.932C173.906 107.095 174.471 108.277 174.982 109.478L174.74 108.905C174.908 109.304 175.068 109.706 175.238 110.105L174.996 109.532C175.103 109.794 175.193 110.059 175.232 110.34L175.146 109.702C175.156 109.82 175.156 109.932 175.141 110.049L175.227 109.411C175.218 109.466 175.203 109.519 175.184 109.57L175.426 108.997C175.39 109.078 175.353 109.139 175.299 109.209L175.674 108.723C175.596 108.802 175.512 108.872 175.426 108.942L175.912 108.567C175.721 108.71 175.527 108.829 175.307 108.922L175.88 108.68C175.705 108.745 175.532 108.789 175.347 108.815L175.985 108.729C175.729 108.757 175.471 108.747 175.214 108.768C174.569 108.82 173.987 109.001 173.517 109.471C173.101 109.887 172.787 110.57 172.814 111.168C172.842 111.789 173.046 112.432 173.517 112.865C173.965 113.276 174.585 113.618 175.214 113.568C175.717 113.528 176.187 113.522 176.695 113.434C177.282 113.332 177.855 113.063 178.334 112.713C178.828 112.352 179.22 112.035 179.537 111.495C179.818 111.018 179.949 110.427 179.956 109.88C179.966 109.043 179.667 108.349 179.347 107.6L179.589 108.173C178.975 106.582 178.231 105.03 177.458 103.51C176.888 102.389 175.22 101.975 174.174 102.649C173.029 103.387 172.703 104.734 173.313 105.933L173.314 105.932Z" fill="#211715"/>
<path d="M117.497 81.4268C114.317 78.9828 109.265 78.8978 105.947 81.1558C103.026 83.1438 101.938 86.3948 101.633 89.7908C100.959 97.3118 104.489 105.511 110.687 109.895C113.945 112.199 119.093 113.246 122.863 111.801C124.073 111.337 124.907 110.186 124.539 108.849C124.221 107.692 122.804 106.706 121.587 107.173C119.124 108.117 116.159 107.489 113.933 106.271C111.513 104.946 109.756 102.527 108.52 100.121C107.326 97.7968 106.537 95.3768 106.389 92.5838C106.314 91.1638 106.348 89.7218 106.679 88.3348C106.806 87.8038 106.958 87.2658 107.194 86.7818C107.277 86.6128 107.373 86.4528 107.468 86.2908C107.547 86.1558 107.875 85.7378 107.603 86.0638C109.34 83.9758 112.771 83.8028 115.074 85.5718C116.103 86.3618 117.762 85.7298 118.358 84.7108C119.082 83.4738 118.528 82.2198 117.497 81.4268Z" fill="#211715"/>
<path d="M143.405 134.148C138.8 131.346 134.446 127.911 130.847 123.877C127.477 120.098 124.255 115.073 122.415 110.606C121.922 109.408 120.822 108.556 119.463 108.93C118.33 109.241 117.29 110.676 117.787 111.882C122.383 123.042 130.743 132.061 140.982 138.292C143.628 139.902 146.043 135.754 143.405 134.148Z" fill="#211715"/>
<path d="M140.985 138.3C147.119 141.612 153.651 144.285 160.573 145.326C167.259 146.332 174.086 146.063 180.501 143.786C186.548 141.64 192.482 138.126 196.776 133.304C200.93 128.639 203.678 122.938 205.502 117.002C207.902 109.193 208.774 100.93 210.216 92.9087C210.445 91.6347 209.869 90.3217 208.54 89.9567C207.378 89.6377 205.818 90.3507 205.588 91.6327C204.328 98.6437 203.473 105.796 201.718 112.706C200.323 118.201 198.231 123.593 194.815 128.166C191.381 132.763 186.428 136.118 181.206 138.386C175.629 140.808 169.543 141.518 163.523 140.905C156.386 140.178 149.679 137.541 143.408 134.154C140.69 132.686 138.263 136.829 140.985 138.299V138.3Z" fill="#211715"/>
<path d="M127.162 82.1767C136.36 79.6277 145.383 76.7037 154.188 73.0017C162.139 69.6577 169.811 65.7607 176.724 60.5637C180.48 57.7407 184.019 54.6577 187.459 51.4607C189.726 49.3527 186.326 45.9647 184.065 48.0667C178.37 53.3607 172.401 58.2457 165.645 62.1347C157.648 66.7387 148.971 70.2437 140.252 73.2147C135.516 74.8287 130.707 76.2127 125.886 77.5487C122.913 78.3727 124.176 83.0037 127.162 82.1767Z" fill="#211715"/>
<path d="M210.226 95.3047C210.627 92.2477 210.023 89.0357 209.299 86.0717C208.343 82.1547 206.917 78.3707 205.326 74.6727C202.047 67.0517 197.811 59.4627 192.245 53.2597C190.728 51.5697 189.166 49.9177 187.627 48.2477C185.529 45.9707 182.142 49.3717 184.233 51.6417C187.839 55.5557 191.315 59.3727 194.197 63.8807C198.526 70.6527 202.136 78.0907 204.281 85.8547C205.177 89.0967 205.865 91.9547 205.426 95.3047C205.257 96.5917 206.65 97.7047 207.826 97.7047C209.263 97.7047 210.057 96.5957 210.226 95.3047Z" fill="#211715"/>
<path d="M118.016 112.394C117.255 112.292 118.073 112.43 118.263 112.482C118.402 112.521 118.537 112.571 118.675 112.613C119.051 112.727 118.53 112.565 118.493 112.529C118.636 112.666 118.921 112.74 119.096 112.848C119.195 112.909 119.319 113.032 119.427 113.071L119.149 112.856C119.216 112.911 119.281 112.967 119.345 113.026C119.492 113.16 119.629 113.372 119.787 113.486C119.412 113.213 119.532 113.115 119.677 113.351C119.732 113.439 119.792 113.524 119.845 113.614C119.898 113.703 119.942 113.797 119.993 113.887C120.118 114.107 120.023 114.241 119.926 113.709C119.968 113.94 120.071 114.19 120.131 114.419C120.225 114.78 120.099 114.179 120.102 114.148C120.092 114.266 120.124 114.402 120.127 114.521C120.129 114.605 120.128 114.688 120.126 114.772C120.118 115.013 119.984 115.27 120.164 114.649C120.103 114.861 120.085 115.087 120.024 115.301C120 115.384 119.969 115.465 119.946 115.548C119.825 115.977 120.236 115.019 119.968 115.5C119.867 115.681 119.765 115.856 119.657 116.032C119.519 116.258 119.381 116.191 119.775 115.886C119.7 115.944 119.639 116.041 119.572 116.11C119.446 116.24 119.295 116.347 119.169 116.476C119.613 116.019 119.454 116.259 119.258 116.383C119.154 116.449 119.047 116.51 118.939 116.567C118.714 116.685 118.473 116.662 119.059 116.533C118.982 116.55 118.894 116.595 118.821 116.62C118.617 116.689 118.408 116.744 118.197 116.787C117.9 116.847 117.776 116.714 118.308 116.782C118.232 116.772 118.108 116.8 118.036 116.804C117.754 116.82 117.471 116.816 117.19 116.794C117.121 116.789 116.637 116.77 117.07 116.787C117.488 116.803 117.038 116.773 116.955 116.755C116.726 116.707 116.499 116.648 116.276 116.574C116.221 116.556 116.087 116.487 116.02 116.483L116.347 116.624C116.267 116.589 116.188 116.552 116.11 116.514C115.882 116.401 115.671 116.264 115.457 116.126C115.275 116.008 115.348 115.91 115.65 116.277C115.577 116.189 115.463 116.115 115.38 116.034C115.323 115.978 115.267 115.921 115.213 115.862C115.041 115.674 115.014 115.45 115.288 115.981C115.208 115.826 115.088 115.687 115.003 115.533C114.957 115.449 114.923 115.349 114.869 115.27C115.223 115.795 115.012 115.631 114.936 115.401C114.872 115.208 114.832 115.013 114.785 114.816C114.676 114.357 114.821 115.439 114.806 114.962C114.803 114.878 114.795 114.793 114.793 114.709C114.787 114.5 114.844 114.261 114.817 114.057C114.886 114.573 114.744 114.488 114.809 114.184C114.835 114.061 114.866 113.939 114.903 113.818C114.933 113.719 114.978 113.622 115.005 113.523C115.073 113.349 115.032 113.445 114.884 113.811C114.919 113.736 114.956 113.663 114.995 113.59C115.034 113.518 115.075 113.446 115.119 113.376C115.162 113.306 115.207 113.237 115.255 113.17C115.399 112.971 115.349 113.035 115.105 113.361C115.274 113.231 115.427 113.023 115.581 112.871C115.76 112.695 115.911 112.753 115.438 112.971C115.548 112.92 115.65 112.824 115.755 112.759C115.865 112.692 115.978 112.629 116.093 112.571C116.151 112.541 116.21 112.513 116.269 112.487C116.438 112.411 116.347 112.449 115.999 112.602C116.241 112.584 116.533 112.427 116.776 112.377C116.852 112.361 116.973 112.356 117.049 112.328C116.643 112.379 116.571 112.391 116.833 112.365C116.929 112.358 117.025 112.353 117.122 112.35C117.423 112.342 117.721 112.361 118.02 112.394C119.272 112.531 120.474 111.192 120.42 109.994C120.356 108.576 119.362 107.741 118.02 107.594C115.162 107.28 112.01 108.723 110.741 111.388C109.472 114.053 109.847 117.446 112.076 119.511C114.177 121.457 117.574 122.193 120.278 121.183C121.757 120.631 122.961 119.725 123.837 118.404C124.596 117.259 125.012 115.705 124.92 114.334C124.806 112.627 124.135 111.037 122.927 109.811C121.587 108.451 119.868 107.842 118.02 107.594C117.458 107.518 116.703 107.918 116.323 108.298C115.907 108.714 115.593 109.397 115.62 109.995C115.648 110.616 115.852 111.259 116.323 111.692C116.826 112.154 117.35 112.304 118.02 112.394H118.016Z" fill="#211715"/>
<path d="M118.016 109.994C120.992 110.357 122.793 112.701 122.494 115.15C122.16 117.89 119.828 119.521 116.897 119.163C113.852 118.792 112.097 116.644 112.429 113.922C112.73 111.456 115.051 109.632 118.016 109.994Z" fill="white"/>
<path d="M118.016 112.394C117.255 112.292 118.073 112.43 118.263 112.482C118.402 112.521 118.537 112.571 118.675 112.613C119.051 112.727 118.53 112.565 118.493 112.529C118.636 112.666 118.921 112.74 119.096 112.848C119.195 112.909 119.319 113.032 119.427 113.071L119.149 112.856C119.216 112.911 119.281 112.967 119.345 113.026C119.492 113.16 119.629 113.372 119.787 113.486C119.412 113.213 119.532 113.115 119.677 113.351C119.732 113.439 119.792 113.524 119.845 113.614C119.898 113.703 119.942 113.797 119.993 113.887C120.118 114.107 120.023 114.241 119.926 113.709C119.968 113.94 120.071 114.19 120.131 114.419C120.225 114.78 120.099 114.179 120.102 114.148C120.092 114.266 120.124 114.402 120.127 114.521C120.129 114.605 120.128 114.688 120.126 114.772C120.118 115.013 119.984 115.27 120.164 114.649C120.103 114.861 120.085 115.087 120.024 115.301C120 115.384 119.969 115.465 119.946 115.548C119.825 115.977 120.236 115.019 119.968 115.5C119.867 115.681 119.765 115.856 119.657 116.032C119.519 116.258 119.381 116.191 119.775 115.886C119.7 115.944 119.639 116.041 119.572 116.11C119.446 116.24 119.295 116.347 119.169 116.476C119.613 116.019 119.454 116.259 119.258 116.383C119.154 116.449 119.047 116.51 118.939 116.567C118.714 116.685 118.473 116.662 119.059 116.533C118.982 116.55 118.894 116.595 118.821 116.62C118.617 116.689 118.408 116.744 118.197 116.787C117.9 116.847 117.776 116.714 118.308 116.782C118.232 116.772 118.108 116.8 118.036 116.804C117.754 116.82 117.471 116.816 117.19 116.794C117.121 116.789 116.637 116.77 117.07 116.787C117.488 116.803 117.038 116.773 116.955 116.755C116.726 116.707 116.499 116.648 116.276 116.574C116.221 116.556 116.087 116.487 116.02 116.483L116.347 116.624C116.267 116.589 116.188 116.552 116.11 116.514C115.882 116.401 115.671 116.264 115.457 116.126C115.275 116.008 115.348 115.91 115.65 116.277C115.577 116.189 115.463 116.115 115.38 116.034C115.323 115.978 115.267 115.921 115.213 115.862C115.041 115.674 115.014 115.45 115.288 115.981C115.208 115.826 115.088 115.687 115.003 115.533C114.957 115.449 114.923 115.349 114.869 115.27C115.223 115.795 115.012 115.631 114.936 115.401C114.872 115.208 114.832 115.013 114.785 114.816C114.676 114.357 114.821 115.439 114.806 114.962C114.803 114.878 114.795 114.793 114.793 114.709C114.787 114.5 114.844 114.261 114.817 114.057C114.886 114.573 114.744 114.488 114.809 114.184C114.835 114.061 114.866 113.939 114.903 113.818C114.933 113.719 114.978 113.622 115.005 113.523C115.073 113.349 115.032 113.445 114.884 113.811C114.919 113.736 114.956 113.663 114.995 113.59C115.034 113.518 115.075 113.446 115.119 113.376C115.162 113.306 115.207 113.237 115.255 113.17C115.399 112.971 115.349 113.035 115.105 113.361C115.274 113.231 115.427 113.023 115.581 112.871C115.76 112.695 115.911 112.753 115.438 112.971C115.548 112.92 115.65 112.824 115.755 112.759C115.865 112.692 115.978 112.629 116.093 112.571C116.151 112.541 116.21 112.513 116.269 112.487C116.438 112.411 116.347 112.449 115.999 112.602C116.241 112.584 116.533 112.427 116.776 112.377C116.852 112.361 116.973 112.356 117.049 112.328C116.643 112.379 116.571 112.391 116.833 112.365C116.929 112.358 117.025 112.353 117.122 112.35C117.423 112.342 117.721 112.361 118.02 112.394C119.272 112.531 120.474 111.192 120.42 109.994C120.356 108.576 119.362 107.741 118.02 107.594C115.162 107.28 112.01 108.723 110.741 111.388C109.472 114.053 109.847 117.446 112.076 119.511C114.177 121.457 117.574 122.193 120.278 121.183C121.757 120.631 122.961 119.725 123.837 118.404C124.596 117.259 125.012 115.705 124.92 114.334C124.806 112.627 124.135 111.037 122.927 109.811C121.587 108.451 119.868 107.842 118.02 107.594C117.458 107.518 116.703 107.918 116.323 108.298C115.907 108.714 115.593 109.397 115.62 109.995C115.648 110.616 115.852 111.259 116.323 111.692C116.826 112.154 117.35 112.304 118.02 112.394H118.016Z" fill="#211715"/>
<path d="M106.057 133.783C92.9709 138.723 79.4139 143.601 68.8669 153.136C65.0969 156.544 61.6779 160.456 59.2579 164.945C57.1679 168.821 55.4939 172.929 53.9209 177.036C50.0299 187.191 46.8869 197.637 43.9599 208.104C41.4569 217.056 39.1069 226.067 37.1169 235.148C36.3139 238.814 35.6499 242.508 35.0299 246.21C33.9349 252.752 32.7159 259.56 33.0589 266.218C33.1569 268.122 33.3689 270.023 33.7009 271.9C33.9269 273.177 35.4869 273.897 36.6529 273.576C37.9999 273.206 38.5559 271.905 38.3289 270.624C37.2039 264.269 38.0869 257.693 39.0379 251.374C39.6929 247.027 40.4279 242.68 41.3269 238.375C43.0669 230.04 45.2029 221.778 47.4349 213.563C50.2679 203.135 53.3259 192.746 56.9729 182.571C57.7929 180.284 58.6459 178.009 59.5529 175.755C60.3309 173.821 60.9859 172.278 61.9639 170.222C63.6599 166.653 65.6299 163.485 68.2749 160.533C77.3139 150.446 89.8139 145.082 102.215 140.349C103.92 139.698 105.627 139.056 107.335 138.411C108.547 137.954 109.377 136.791 109.011 135.459C108.692 134.297 107.278 133.323 106.059 133.783H106.057Z" fill="#211715"/>
<path d="M175.166 122.62C173.108 121.34 170.644 120.789 168.259 120.561C165.862 120.332 163.592 120.799 161.31 121.495C160.111 121.861 159.227 123.19 159.634 124.447C160.025 125.657 161.3 126.516 162.586 126.123C162.804 126.057 165.611 125.343 165.611 125.339C165.611 125.355 165.05 125.399 165.457 125.36C165.568 125.349 165.678 125.337 165.789 125.329C166.046 125.308 166.303 125.297 166.561 125.292C167.067 125.283 167.574 125.302 168.078 125.344C168.199 125.354 168.32 125.368 168.441 125.379C168.825 125.414 168.39 125.424 168.347 125.361C168.398 125.437 168.962 125.459 169.069 125.478C169.571 125.571 170.069 125.687 170.559 125.827C171.023 125.96 171.472 126.18 171.935 126.302C171.806 126.268 171.53 126.115 171.807 126.256C171.924 126.315 172.043 126.369 172.159 126.43C172.358 126.534 172.552 126.646 172.743 126.765C173.811 127.429 175.433 127.028 176.027 125.904C176.649 124.727 176.306 123.329 175.166 122.62Z" fill="#211715"/>
<path d="M149.73 82.8157L146.646 85.3037C146.412 85.5207 146.247 85.7787 146.15 86.0757C146 86.3617 145.931 86.6697 145.943 87.0007C145.931 87.3307 145.999 87.6397 146.15 87.9257C146.247 88.2237 146.412 88.4807 146.646 88.6977C147.103 89.1177 147.704 89.4297 148.343 89.4007L148.981 89.3147C149.388 89.2007 149.741 88.9947 150.04 88.6977L153.124 86.2097C153.358 85.9927 153.523 85.7347 153.62 85.4377C153.77 85.1517 153.839 84.8437 153.827 84.5127C153.839 84.1827 153.771 83.8737 153.62 83.5877C153.523 83.2897 153.358 83.0327 153.124 82.8157C152.667 82.3957 152.066 82.0837 151.427 82.1127L150.789 82.1987C150.382 82.3127 150.029 82.5187 149.73 82.8157Z" fill="#211715"/>
<path d="M139.118 103.817C139.774 105.753 140.374 107.708 140.907 109.681C141.163 110.628 141.42 111.576 141.594 112.542C141.684 113.041 141.621 112.47 141.637 112.935C141.646 113.196 141.661 113.451 141.652 113.712C141.65 113.776 141.567 114.386 141.628 114.085C141.685 113.804 141.528 114.442 141.506 114.513C141.453 114.689 141.318 114.954 141.473 114.651C141.374 114.845 141.271 115.03 141.149 115.211C141.338 114.931 141.139 115.156 141.039 115.296C140.915 115.409 140.938 115.397 141.109 115.262C141.022 115.323 140.932 115.378 140.838 115.428C140.665 115.573 141.133 115.375 140.736 115.471C140.589 115.506 140.066 115.531 140.547 115.536C140.334 115.534 140.123 115.543 139.909 115.536C140.254 115.548 140.025 115.558 139.805 115.507C139.63 115.466 139.462 115.402 139.289 115.357C139.717 115.467 139.185 115.302 139.076 115.241C138.882 115.133 138.695 115.012 138.514 114.884C138.788 115.078 138.512 114.876 138.395 114.771C138.089 114.496 137.812 114.195 137.543 113.884C137.079 113.348 137.774 114.24 137.368 113.658C137.24 113.474 137.113 113.289 136.989 113.102C136.299 112.055 134.835 111.512 133.705 112.241C132.661 112.914 132.105 114.404 132.844 115.525C134.189 117.565 135.974 119.48 138.425 120.111C141.095 120.799 143.831 119.88 145.352 117.545C146.822 115.288 146.555 112.473 145.948 109.989C145.334 107.475 144.577 104.991 143.746 102.541C143.344 101.354 142.077 100.45 140.794 100.865C139.615 101.246 138.686 102.544 139.118 103.817Z" fill="#211715"/>
</g>
</svg>
